<svg height="122" viewBox="0 0 106 122" width="106" xmlns="http://www.w3.org/2000/svg"><path d="m159.956062 78.2747534 20.702364 49.1149286h-13.566441l-6.193422-15.642512h-15.14798zm-43.956062 49.1181396v-77.7827867h32.511719zm55.400941-77.7827867h32.486029v77.7827867zm22.696012 112.4701247c.058338 3.690256 2.001141 4.895543 4.411181 4.895543 1.526412 0 2.841417-.337716 3.808002-.706474l.679714 3.653327c-1.343371.584447-3.424258.946247-5.415231.946247-5.45537 0-8.427913-3.721298-8.427913-10.082775 0-6.828178 3.450483-10.927333 7.964959-10.927333 4.352308 0 6.766094 3.622285 6.766094 9.537934 0 1.35461-.055126 2.11407-.142365 2.709221zm5.11605-3.594454c.025689-2.868178-.814051-4.873065-2.420744-4.873065-1.840579 0-2.621447 2.689418-2.68032 4.873065zm-27.348037-16.768589h5.07912v10.640462h.080281c1.000838-1.569764 2.333505-2.469448 4.265604-2.469448 3.831016 0 5.751341 4.35659 5.751341 10.045846 0 7.195331-2.866572 11.046685-6.579842 11.046685-1.772072 0-2.955416-.78515-4.014057-2.775587h-.109182l-.28473 2.444828h-4.35659c.069042-1.698213.16752-4.01138.16752-5.846607v-23.086179zm5.07912 21.639513c0 .505771.09152.982106.201238 1.30216.507377 1.710523 1.369596 2.132267 2.066972 2.132267 1.961 0 2.753107-2.490321 2.753107-6.47173 0-3.62282-.83974-6.122775-2.775051-6.122775-.964444 0-1.774748 1.047937-2.056267 2.172943-.099014.348955-.189999.903965-.189999 1.283428zm-15.549386 7.622961c-4.677714 0-7.613862-3.760903-7.613862-10.484181 0-7.341977 3.76465-10.607814 7.727326-10.607814 4.615631 0 7.519132 3.943945 7.519132 10.483646 0 8.410252-4.539096 10.608349-7.588709 10.608349zm.095267-3.900057c1.935311 0 2.417533-3.653327 2.417533-6.67725 0-2.87567-.481687-6.618912-2.50156-6.618912-2.147253 0-2.596292 3.743242-2.596292 6.618912 0 3.470821.569461 6.67725 2.640179 6.67725zm-10.578912-25.362417v23.086179c0 1.835227.099013 4.08631.16752 5.846607h-4.381745l-.288477-2.352237h-.105971c-.733769 1.446131-2.336181 2.681925-4.253294 2.681925-4.203521 0-6.284943-4.635433-6.284943-10.487392 0-7.133247 3.10795-10.604603 6.493138-10.604603 1.771537 0 2.91367.870783 3.493835 2.125309h.080282v-10.295788zm-5.080191 16.345239c0-.379997 0-.817797-.069577-1.215991-.196956-1.396357-.941965-2.649278-2.12852-2.649278-2.041282 0-2.793784 2.947388-2.793784 6.388238 0 3.951973 1.06988 6.206802 2.72046 6.206802.756249 0 1.624891-.390166 2.095873-2.046634.116675-.332364.175013-.77391.175013-1.29092v-5.392217zm-22.812152 5.815031-1.343906 6.771981h-4.947994l6.170943-28.184031h6.066043l5.608975 28.184031h-4.977966l-1.310723-6.771981zm4.787967-3.977128-1.025993-6.108859c-.29597-1.760298-.675967-4.506448-.956951-6.411251h-.113464c-.302928 1.919254-.723065 4.747291-1.033486 6.425702l-1.11002 6.094408zm88.076434-110.0290424c3.399638 0 6.116887 2.7424036 6.116887 6.1473942 0 3.452624-2.717249 6.1971684-6.142577 6.1971684-3.425329 0-6.200915-2.7445444-6.200915-6.1971684 0-3.4049906 2.775586-6.1473942 6.200915-6.1473942zm-.02569 1.0388379c-2.717249 0-4.9116 2.2810547-4.9116 5.1347814 0 2.8537268 2.194351 5.131035 4.93729 5.131035 2.716713.0251548 4.88591-2.2773082 4.88591-5.131035 0-2.8537267-2.169197-5.1347814-4.88591-5.1347814zm-1.120725 8.6987287h-1.23847v-6.8581498c.576954-.0840276 1.150161-.1937452 2.056267-.1937452 1.099852 0 1.781706.2210407 2.220041.5512638.386955.3013219.60639.7674877.60639 1.4241874 0 .882022-.5807 1.4520181-1.311258 1.6489745v.0529855c.598897.1113232.982641.6572349 1.117513 1.6746645.164844 1.0714856.302928 1.4809194.412645 1.6998193h-1.263625c-.164308-.2188999-.299716-.8488393-.4378-1.7528048-.135407-.8252901-.598897-1.1533724-1.449877-1.1533724h-.711826zm0-3.8652691h.736981c.90236 0 1.646834-.3018571 1.646834-1.0977107 0-.6042494-.4378-1.1539076-1.592243-1.1539076-.358054 0-.60639 0-.791572.02569z" fill="#dadada" fill-rule="evenodd" transform="translate(-116 -49)"/></svg>