<?xml version="1.0" encoding="UTF-8"?>
<svg width="450px" height="450px" viewBox="0 0 450 450" version="1.1" xmlns="http://www.w3.org/2000/svg" xmlns:xlink="http://www.w3.org/1999/xlink">
    <!-- Generator: Sketch 50.2 (55047) - http://www.bohemiancoding.com/sketch -->
    <title>adobe-logo</title>
    <desc>Created with Sketch.</desc>
    <defs></defs>
    <g id="adobe-logo" stroke="none" stroke-width="1" fill="none" fill-rule="evenodd">
        <path d="M289,157 L289.927946,157 C291.0633,157 292,156.597813 292,155.537438 C292,154.732351 291.449158,154 289.996633,154 C289.546128,154 289.23367,154 289,154.034229 L289,157 Z M288.455938,162 L287,162 L287,153.247268 C287.678556,153.140027 288.352707,153 289.41838,153 C290.711288,153 291.513848,153.282104 292.029375,153.703552 C292.484473,154.088115 292.742551,154.68306 292.742551,155.521175 C292.742551,156.646858 292.059589,157.374317 291.200378,157.625683 L291.200378,157.693306 C291.904742,157.835383 292.356064,158.532104 292.514687,159.830601 C292.708561,161.198087 292.870961,161.720628 293,162 L291.513848,162 C291.320604,161.720628 291.161351,160.916667 290.998951,159.762978 C290.839698,158.709699 290.294587,158.290984 289.293747,158.290984 L288.456567,158.290984 L288.456567,162 L288.455938,162 Z M290.000327,151 C286.681122,151 284,153.88853 284,157.502243 C284,161.115955 286.681122,163.999741 290.031708,163.999741 C293.350259,164.031595 296,161.115955 296,157.502243 C296,153.88853 293.350259,151 290.031708,151 L290.000327,151 Z M290.566665,149 C294.697958,149 298,152.332322 298,156.469759 C298,160.665077 294.697958,164 290.535446,164 C286.372935,164 283,160.665077 283,156.469759 C283,152.332322 286.372935,149 290.535446,149 L290.566665,149 Z M179,287 L177.790078,279.19322 C177.44105,276.943658 176.992931,273.434232 176.661575,271 L176.527771,271 C176.170538,273.4527 175.675082,277.066772 175.309013,279.211687 L174,287 L179,287 Z M173.756478,291.590296 L172.099748,300 L166,300 L173.607366,265 L181.085413,265 L188,300 L181.863304,300 L180.247481,291.590296 L173.756478,291.590296 Z M202,284.910211 C202,284.427485 202,283.87133 201.916372,283.365487 C201.67964,281.591637 200.784175,280 199.357993,280 C196.904471,280 196,283.744189 196,288.115922 C196,293.135597 197.285944,296 199.269862,296 C200.178836,296 201.222901,295.504356 201.789,293.400076 C201.929238,292.977861 201.999357,292.416946 201.999357,291.760167 L201.999357,284.910211 L202,284.910211 Z M208.792165,264 L208.792165,293.190047 C208.792165,295.510498 208.915007,298.356756 209,300.582468 L203.563745,300.582468 L203.205843,297.608311 L203.074369,297.608311 C202.164011,299.436791 200.175963,301 197.797477,301 C192.582337,301 190,295.138306 190,287.739118 C190,278.719877 193.85591,274.330712 198.055777,274.330712 C200.253652,274.330712 201.670651,275.431725 202.390438,277.017942 L202.49004,277.017942 L202.49004,264 L208.792165,264 Z M222.154646,296 C224.432441,296 225,291.328798 225,287.462362 C225,283.785484 224.433071,279 222.055748,279 C219.528504,279 219,283.785484 219,287.462362 C219,291.900209 219.670236,296 222.107402,296 L222.154646,296 Z M221.488328,301 C215.659002,301 212,296.363952 212,288.076201 C212,279.025781 216.691473,275 221.629726,275 C227.381683,275 231,279.861681 231,287.923139 C231,298.290416 225.34342,301 221.54302,301 L221.488328,301 Z M241,291.63692 C241,292.279449 241.109358,292.884583 241.24046,293.291178 C241.846728,295.464219 242.876999,296 243.709657,296 C246.052867,296 247,292.836308 247,287.779024 C247,283.175931 245.996589,280 243.683436,280 C242.531656,280 241.563419,281.331294 241.22703,282.760496 C241.108719,283.203808 241,283.90889 241,284.390957 L241,291.63692 Z M235.208748,264 L241.497681,264 L241.497681,277.454176 L241.597084,277.454176 C242.836315,275.468735 244.486415,274.3312 246.878728,274.3312 C251.621604,274.3312 254,279.839549 254,287.032884 C254,296.130457 250.45063,301 245.85222,301 C243.658714,301 242.193506,300.007279 240.882704,297.490627 L240.747515,297.490627 L240.394964,300.581799 L235,300.581799 C235.08615,298.434625 235.208085,295.509922 235.208085,293.189513 L235.208085,264 L235.208748,264 Z M268.999327,285 C269.029541,281.468534 268.041927,279 266.152306,279 C263.987613,279 263.06924,282.311367 263,285 L268.999327,285 Z M263.041418,290.12472 C263.112702,294.690748 265.48663,296.182291 268.431478,296.182291 C270.296614,296.182291 271.90343,295.764367 273.084508,295.308029 L273.915056,299.82902 C272.273579,300.552272 269.730272,301 267.29814,301 C260.632176,301 257,296.394895 257,288.52257 C257,280.072702 261.216175,275 266.731798,275 C272.050574,275 275,279.482576 275,286.803189 C275,288.479519 274.932641,289.41935 274.825389,290.155849 L263.041418,290.12472 Z M235,149 L276,149 L276,246 L235,149 Z M165,246 L165,149 L206,149 L165,246 Z M219.905463,185 L246,247 L228.90002,247 L221.093449,227.253749 L202,227.253749 L219.905463,185 Z" id="Shape" fill="#DADADA" fill-rule="nonzero"></path>
        <rect id="Rectangle" fill-opacity="0" fill="#FFFFFF" x="0" y="0" width="450" height="450"></rect>
    </g>
</svg>