<svg height="50" viewBox="0 0 236 50" width="236" xmlns="http://www.w3.org/2000/svg"><path d="m221.08422 90.1656475c-10.710368-5.5256841-21.289298-6.1047513-27.854875-4.1326501-12.161467 3.6485985-15.91775 19.1055226-4.675822 26.6745696.685168.448685.27185 1.405703-.590153 2.939677-1.063118 1.924593-3.01041 5.691433-6.471089 8.419437-2.090871 1.640602-3.437453 2.314157-1.735618 4.333238 0 0 3.81382 4.275174 6.625226 5.502986 3.399446 1.499135 4.249836 1.238898 6.776722-1.133853 1.570397-1.498079 4.74814-5.537297 8.537679-12.019999 1.959432-3.342437 4.58239-3.412643 4.22661 2.12571 0 0-.518891 5.311899-.648218 6.411968-.437071 3.175104-.096599 4.274118 2.750701 4.308957 0 0 6.104224-.330971 8.217265-.63766 2.977155-.401705 2.823019-.885757 3.602146-3.246894 4.156404-12.551031 4.522742-34.1016213 4.522742-34.1016213.188448-2.8932246-.732676-4.1326501-3.283316-5.4438652zm-7.828756 11.6193505s-3.790067 2.59762-3.873469 2.680495c-.317775.237011-.765931.543173-.825052 1.736674-.035895.50675-.16575 4.04872-.16575 4.485791 0 .48458-.236483 1.831162-1.770985.472967 0 0-2.586535-2.254509-2.964486-2.598149-.093432-.070206-.968103-1.073676-2.360609-.483523l-4.026022 1.606291s-2.44454 1.002414-1.548754-1.181889c.874671-2.135739 1.476437-3.896694 1.665412-4.463093.200061-.590152.118242-1.440014-.365282-2.018553-.212201-.260237-2.148936-2.8341038-2.608706-3.4722918 0 0-1.606291-1.9013674 1.061008-1.7477589 0 0 4.547023.0939598 4.617757.1066286.083403 0 .933264.0469799 1.522889-.8978973.756957-1.1692196 2.952873-3.9193929 2.492048-3.3413814.36581-.4724386 1.274792-1.689166 1.853859.3077449 0 0 .839305 2.6203187 1.252622 3.7188045.247041.754846.447102 1.2515664 1.782598 1.6881102l4.156404 1.5118035c-.001055 0 1.959433.5901527.104518 1.8892267zm62.961021-4.7233304c1.003471 0 1.783126.8034095 1.783126 1.8063518 0 1.015611-.779655 1.8074076-1.783126 1.8074076-.968631 0-1.794738-.7917966-1.794738-1.8074076 0-1.0029423.826107-1.8063518 1.794738-1.8063518zm0 .2845188c-.791796 0-1.440014.6719714-1.440014 1.521833 0 .8620025.648218 1.5239446 1.440014 1.5239446.80341 0 1.440542-.6619421 1.440542-1.5239446-.001055-.8503895-.637132-1.521833-1.440542-1.521833zm-.330971 2.572811h-.318302v-2.0306943c.165222-.011613.318302-.0475077.565871-.0475077.308273 0 .49672.0828747.627631.1657494.117185.0944877.20006.2354275.20006.4011769 0 .2834631-.189503.4486847-.401177.5072776v.0121409c.164166.0348391.294549.2000606.318302.4840516.047508.3299153.106629.436016.143052.5072777h-.354725c-.035367-.0712617-.07179-.2597093-.141996-.5194185-.023226-.2597093-.177362-.342584-.425986-.342584h-.212202v.8625304zm0-1.1222397h.212202c.27185 0 .519946-.1055729.519946-.3415282 0-.1657494-.154136-.354197-.519946-.354197-.09396 0-.152553.011613-.212202.011613zm-179.4707158 20.5819593c-.0480356-.130382-.0828747-.249152-.1055729-.377423-1.9969108-7.603358-6.6373665-16.956059-9.1404993-20.8648946-.8736155-1.3692802-1.369808-1.6179043-5.0543012-1.4289288-3.4348135.1889754-4.522214 1.5941503-5.6085589 3.4490654-4.6404556 7.296669-8.5355668 20.485888-8.5598485 20.627884-.4613535 1.594678-.3784788 2.055504 4.0967553 3.519272 1.9245935.648745 3.2004416.766459 3.8845539.36581.4370717-.272906.6022932-.756958.7083939-1.405175.0823469-.319358.2597093-.943822.5663985-1.842247l.0828747-.236483s.0464521-.105573.1541364-.083403c.1303825.011613.2475684.047508.2475684.047508 2.4804346.402233 6.1638721.106629 9.1990922-.742705 0 0 .1419955-.035895.272378-.071262.1166581-.046452.1763067.093432.1763067.093432l.0823469.260765c.4967203 1.606819.8620025 2.798209.9913293 3.282789.1061007.45977.3431118.732675.6967809.874671.626575.235955 1.9715734.153081 4.806205-1.664884 3.035748-1.973685 2.786596-2.798737 2.5036607-3.803791zm-10.745207-3.612176c-1.7715128.236483-4.3691333.271323-6.1997669.118242-.2005885-.013197-.1652215-.16575-.1287989-.307745.070206-.11877 3.0109383-6.836371 3.0932852-7.025875.1066286-.249152.1768345-.260237.2602371 0 .0459242.095016 3.1397372 6.907105 3.1291799 6.907105.0337834.070734.1166581.283992-.1541364.308273zm-18.030263.164166c-.1657494-4.308957-3.9679564-5.67982-6.1881539-6.470033-.2480963-.081819-.6492732-.165222-.8746713-.260238-.2702665-.094487-.2475684-.176834.0126688-.294548.2475683-.142523.7559017-.379006.7559017-.379006 1.0620631-.495137 4.4509523-2.526887 3.849187-6.482175-.6962531-4.7228023-6.7893915-5.6085587-8.6432511-5.7853933h-.0348391c-1.9953273-.1900311-7.3336196-.1303825-11.1004597 1.2035308-1.8538596.6376601-2.1837748 2.0676447-2.4434841 3.1165115l-.0834026.319358c-1.5223608 6.093138-1.0383092 16.472535 1.0631189 21.774405.011613.011613.0237539.034839.0237539.047507v.023754c.0121408.035367.2475684.955435 1.5112756 1.26318 11.4425158 2.66941 16.9803409-.095016 19.2480462-1.995328 1.9942715-1.642186 3.0346922-3.802207 2.9043097-6.081525zm-16.5913048-13.225642c0-.081291.0110852-.140939.0464521-.164165.0955434-.048036.3679214-.083403.4254586-.094488.1773625-.04698 4.522214-.885229 6.2356618.329915.4375995.307745.7078661.732148.7680426 1.216728.1177138.660358-.0955434 1.309631-.5906802 1.854387-1.0868727 1.227285-3.4010301 1.90084-6.1992391 1.805296 0 0-.2707944-.011613-.4017048-.011613-.1419955 0-.1419955-.152025-.1419955-.152025s-.1768345-4.642039-.1419955-4.784035zm7.67462 14.72636c-1.2510386 1.309632-4.0624442 1.35714-7.0960807 1.250511 0 0-.2359553.023226-.4365438-.012141-.1419955-.034839-.1419955-.163638-.1419955-.163638l.0110852-.437599.2248702-4.770311s.0126687-.248624.0126687-.378478c0-.106101.1287989-.117714.1287989-.117714l.3552527-.048036c.2000606-.035367 4.8056772-.625519 6.7302707.909511.5310315.401704.8266356.944349.8857564 1.593622.0828747.875199-.1546643 1.630045-.6740828 2.174273zm63.8119396-1.500718c-.177891-4.308957-3.979042-5.67982-6.210852-6.470033-.260238-.081819-.637661-.165222-.863059-.260238-.271322-.094487-.259181-.176834.011085-.294548.248097-.142523.732676-.379006.732676-.379006 1.062591-.495137 4.486847-2.526887 3.884554-6.482175-.719479-4.7228023-6.801004-5.6085587-8.654864-5.7853933h-.035895c-1.994799-.1900311-7.344705-.1303825-11.12263 1.2035308-1.8301056.6376601-2.1721617 2.0676447-2.4086449 3.1165115l-.0944877.319358c-1.5593114 6.093138-1.0504501 16.472535 1.05045 21.774405.0121409.011613.0121409.034839.0121409.047507l.0237539.023754c.011613.035367.2591814.955435 1.4991348 1.26318 11.430375 2.66941 16.9682-.095016 19.258603-1.995328 1.985298-1.642186 3.035748-3.802207 2.918035-6.081525zm-16.614003-13.225642c0-.081291.011613-.140939.058593-.164165.070733-.048036.36581-.083403.414373-.094488.187392-.04698 4.510601-.885229 6.234078.329915.448685.307745.707866.732148.779656 1.216728.107156.660358-.09396 1.309631-.59068 1.854387-1.099014 1.227285-3.399975 1.90084-6.199239 1.805296 0 0-.283464-.011613-.413846-.011613-.141468 0-.141468-.152025-.141468-.152025l-.011613-.401705-.129854-4.064027s-.024282-.176307 0-.318303zm7.687288 14.72636c-1.252622 1.309632-4.074585 1.35714-7.109277 1.250511 0 0-.235955.023226-.437599-.012141-.14094-.034839-.129327-.163638-.129327-.163638v-.437599l.223814-4.770311s.023226-.248624.023226-.378478c0-.106101.130383-.117714.130383-.117714l.354197-.048036c.176834-.035367 4.817818-.625519 6.742939.909511.495665.401704.813967.944349.874144 1.593622.094487.875199-.142524 1.630045-.6725 2.174273zm112.589774-2.337911c.083403-8.85598 3.990655-15.7282464 4.439867-16.5200429.898425-1.5123314 1.982659-1.4759088 3.034164-1.1217118 1.252623.4138457 3.529829 1.085817 4.358049 1.4753809.755374.36581 1.120656 1.4289288.648217 2.5870628-.555841 1.321773-3.117039 6.150676-3.435869 10.674474-.178946 3.068475 2.987712 6.421997 6.765637 1.167108 3.814348-5.242221 3.187773-12.633378 3.187773-13.6020092 0-.9802441.342056-1.9599604 1.630046-2.1257098 1.286405-.1763067 2.715862-.2597092 3.165602-.2597092 1.109043 0 1.781542.6028211 1.889227 1.770457.388508 4.4757622-.119298 17.8428712-9.128887 23.7586472-7.875208 5.136648-16.636701.708922-16.553826-7.803947zm-69.491232-16.0834991c-.29402-.7321479-1.002414-1.7598998-3.435869-2.078202-2.536916-.2950762-8.760965.0712617-11.677943.8620025-3.247422.8978973-3.625373 3.2352806-3.931534 5.0891406-.354197 2.173745-.957018 10.214175.188975 16.897466.353669 2.041779 1.404647 3.187773 3.707192 4.037634 2.76337 1.039365 10.839694 1.370336 12.681941.518891 1.216727-.482468 1.405175-1.36928 1.500191-1.5572.376895-.744816.896841-2.66941.896841-4.333238 0-.39062-.129855-.686752-.389564-.874672-.449212-.36581-1.192445-.36581-1.559839-.283463-1.121712.235956-3.506075.248624-6.056716.235956 0 0-.743233.023753-1.086345-.388509-.177362-.213257-.306689-.555841-.283463-.874143l.09396-1.145466c.048036-.590152.5437-1.052561 1.158135-1.027224 2.078202.012141 6.315897-.36581 6.541295-.401704.31883-.023754.873615-.53156.97866-1.086345.106629-.426515.213257-1.712392.235956-2.762842.012668-.933792-1.167636-1.133325-1.203531-1.133325-.354725-.058593-3.507659-.554786-5.880409-.780184-.329915-.04698-.614434-.213257-.791797-.45977-.212201-.247568-.282407-.579595-.224342-.897897.048036-.284519.095016-.602293.153081-.979716.094487-.555313.590152-1.003998 1.205114-.957018 1.36928.071789 3.908836.202172 5.502458.332026 2.007996.153081 2.337383-.638715 2.527415-1.641658.177362-.957018-.517835-3.5192714-.849862-4.3105401zm-31.208397-.9211233c0-.8028817.342056-1.5941504.980772-2.2318105.87256-.8730877 2.173218-1.369808 3.553055-1.369808 1.369808 0 2.692636.4967203 3.542498 1.369808.626047.6376601.991857 1.4289288.991857 2.2318105 0 2.0079964-2.042307 3.6132314-4.534355 3.6132314-1.379837 0-2.680495-.496192-3.553055-1.357667-.638716-.6619419-.980772-1.4178436-.980772-2.2555644zm4.57025 26.7690574c-3.66074.248624-5.6207-.63766-5.857711-2.620846-.732148-6.341763-.165222-13.556085.224342-15.634287.11877-.826108.330443-3.719332 4.912834-3.565196 2.480962.081819 3.849715.577484 4.510601 1.298546.401705.436544.532087 1.049923.471911 1.911397-.222759 2.326826-.330443 10.309191.602293 14.441841.213257.980772.070734 1.819021-.413846 2.455625-.494609.685168-1.687054 1.524473-4.450424 1.71292zm127.515666-26.3678805c-2.740144 1.8770855-4.464149 4.2640885-4.453592 8.0055905.048036 4.569722 7.723712 7.982365 7.723712 7.982365 4.120509 2.066061 2.231283 4.995181-.708394 4.463094-2.57545-.485108-4.594532-1.677026-6.294783-2.880028-.578011-.437072-1.61632-.131439-1.629517 1.09743v2.515801c0 .543173.354725 1.110099.897897 1.616849 1.334441 1.299074 4.475762 3.838101 11.159053 3.838101 4.888552 0 10.295994-2.019609 10.969021-8.230461.366338-3.128652-1.629517-6.907105-8.135445-9.671003-2.255565-.967047-3.272231-2.030166-2.621375-3.530357.614435-1.404647 2.916451-1.641658 5.006794-.673027 2.385419 1.086345 4.450952-2.668882 2.315741-4.0978106-4.876939-3.1877729-10.688198-2.856802-14.229112-.4365439zm-93.957745 0c-2.750701 1.8770855-4.47629 4.2640885-4.464149 8.0055905.048564 4.569722 7.723711 7.982365 7.723711 7.982365 4.144264 2.066061 2.232867 4.995181-.68464 4.463094-2.574922-.485108-4.617757-1.677026-6.305339-2.880028-.579596-.437072-1.606292-.131439-1.641131 1.09743 0 .685168-.012141 2.515801-.012141 2.515801 0 .543173.377951 1.110099.907927 1.616849 1.334969 1.299074 4.488959 3.838101 11.159053 3.838101 4.876939 0 10.333472-2.019609 10.970077-8.230461.354197-3.128652-1.617904-6.907105-8.111164-9.671003-2.279318-.967047-3.295457-2.030166-2.621902-3.530357.589624-1.404647 2.915923-1.641658 4.995708-.673027 2.383836 1.086345 4.427199-2.668882 2.300961-4.0978106-4.876939-3.1877729-10.673945-2.856802-14.216971-.4365439z" fill="#dadada" fill-rule="evenodd" transform="translate(-42 -85)"/></svg>