<?xml version="1.0" encoding="UTF-8"?>
<svg width="450px" height="450px" viewBox="0 0 450 450" version="1.1" xmlns="http://www.w3.org/2000/svg" xmlns:xlink="http://www.w3.org/1999/xlink">
    <!-- Generator: Sketch 50.2 (55047) - http://www.bohemiancoding.com/sketch -->
    <title>babies-logo</title>
    <desc>Created with Sketch.</desc>
    <defs></defs>
    <g id="babies-logo" stroke="none" stroke-width="1" fill="none" fill-rule="evenodd">
        <path d="M231.165565,208.841518 C226.993513,211.671216 224.376273,215.269612 224.394687,220.909911 C224.468345,227.798747 236.109419,232.943292 236.109419,232.943292 C242.394318,236.05787 239.495258,240.472708 235.071009,239.671385 C231.165565,238.940088 228.06715,237.143277 225.507555,235.329755 C224.628469,234.670076 223.070455,235.131613 223.017614,236.984126 C223.017614,238.017014 223,240.776686 223,240.776686 C223,241.595516 223.573247,242.450155 224.377073,243.214078 C226.401852,245.172427 231.18478,249 241.301466,249 C248.698432,249 256.974483,245.955448 257.940036,236.592616 C258.477255,231.876186 255.486924,226.180185 245.637646,222.013621 C242.181352,220.555801 240.640151,218.953154 241.660946,216.691623 C242.556044,214.574124 246.084394,214.216831 249.238053,215.677038 C252.854472,217.314698 255.953688,211.65371 252.728774,209.499606 C245.331007,204.694052 236.539354,205.192989 231.165565,208.841518" id="Shape" fill="#DADADA" fill-rule="nonzero"></path>
        <path d="M372.135752,208.841518 C367.978974,211.671216 365.363167,215.269612 365.379185,220.909911 C365.451268,227.798747 377.097455,232.943292 377.097455,232.943292 C383.350243,236.05787 380.483748,240.472708 376.023421,239.671385 C372.115729,238.940088 369.052207,237.143277 366.472442,235.329755 C365.594633,234.670076 364.019222,235.131613 364,236.984126 L364,240.776686 C364,241.595516 364.538219,242.450155 365.362366,243.214078 C367.386293,245.172427 372.153372,249 382.293829,249 C389.710354,249 397.915786,245.955448 398.93696,236.592616 C399.491998,231.876186 396.463717,226.180185 386.593171,222.013621 C383.170036,220.555801 381.628264,218.953154 382.615799,216.691623 C383.547269,214.574124 387.040885,214.216831 390.21173,215.677038 C393.831891,217.314698 396.965894,211.65371 393.725369,209.499606 C386.326464,204.694052 377.509129,205.192989 372.135752,208.841518" id="Shape" fill="#DADADA" fill-rule="nonzero"></path>
        <path d="M180.452376,247.938278 C174.881609,248.31348 171.900253,246.975977 171.539631,243.983126 C170.425638,234.412695 171.288239,223.525474 171.880977,220.389234 C172.061689,219.142544 172.383759,214.776344 179.356053,215.008953 C183.130136,215.132427 185.213551,215.880441 186.219116,216.968605 C186.829523,217.627399 187.027906,218.553056 186.937148,219.853117 C186.597408,223.364559 186.434365,235.410843 187.853562,241.647476 C188.178041,243.127571 187.961186,244.392582 187.223879,245.35329 C186.471311,246.387285 184.656956,247.653889 180.452376,247.938278" id="Shape" fill="#DADADA" fill-rule="nonzero"></path>
        <path d="M174,207.491147 C174,206.267047 174.528117,205.060653 175.514262,204.088455 C176.861451,202.757316 178.868786,202 181,202 C183.114099,202 185.157294,202.757316 186.469438,204.088455 C187.436023,205.060653 188,206.267047 188,207.491147 C188,210.552605 184.846781,213 181,213 C178.868786,213 176.861451,212.243488 175.514262,210.930056 C174.528117,209.920837 174,208.768364 174,207.491147" id="Shape" fill="#DADADA" fill-rule="nonzero"></path>
        <path d="M220.66537,209.270603 C220.21862,208.172046 219.141447,206.629947 215.444731,206.152347 C211.589205,205.709598 202.132059,206.259273 197.700651,207.445746 C192.766349,208.793004 192.191268,212.300151 191.726873,215.081791 C191.187885,218.343406 190.272729,230.407738 192.014012,240.435739 C192.551395,243.499345 194.148306,245.21886 197.646913,246.494043 C201.845722,248.053567 214.117313,248.550175 216.91652,247.272617 C218.765279,246.548693 219.051616,245.218068 219.195988,244.936103 C219.768662,243.818536 220.558696,240.930763 220.558696,238.434258 C220.558696,237.848149 220.360586,237.403815 219.966772,237.12185 C219.284215,236.572967 218.154908,236.572967 217.596671,236.696525 C215.892283,237.050566 212.269356,237.069575 208.393779,237.050566 C208.393779,237.050566 207.26367,237.086208 206.742328,236.467626 C206.473636,236.147642 206.276328,235.633609 206.312421,235.155218 L206.455188,233.437286 C206.527374,232.551787 207.280513,231.857961 208.214117,231.895979 C211.371846,231.914196 217.811624,231.347096 218.154106,231.293237 C218.638553,231.257596 219.481523,230.495654 219.641134,229.663222 C219.803151,229.023255 219.965168,227.093849 219.999657,225.517692 C220.018906,224.116575 218.225489,223.817185 218.170949,223.817185 C217.631961,223.729268 212.841228,222.984752 209.235947,222.646552 C208.733855,222.57606 208.302344,222.326568 208.03285,221.956686 C207.71042,221.58522 207.603745,221.087028 207.691972,220.609428 C207.764158,220.18252 207.836344,219.705712 207.924571,219.139405 C208.068141,218.30618 208.82128,217.632947 209.755685,217.703439 C211.836241,217.811156 215.694975,218.006789 218.116409,218.201631 C221.167463,218.431322 221.667951,217.243264 221.956695,215.738391 C222.226189,214.302425 221.169869,210.457869 220.66537,209.270603" id="Shape" fill="#DADADA" fill-rule="nonzero"></path>
        <path d="M325.000872,233.922393 C325.127077,220.561155 331.040345,210.192795 331.719296,208.998192 C333.078797,206.716499 334.720262,206.771451 336.310606,207.305837 C338.206079,207.930216 341.652756,208.944036 342.905222,209.531781 C344.049055,210.083688 344.601003,211.687642 343.886906,213.434948 C343.045805,215.429139 339.169391,222.714626 338.687735,229.539792 C338.416953,234.169278 343.208753,239.228821 348.924726,231.300638 C354.697411,223.391568 353.748477,212.240345 353.748477,210.778947 C353.748477,209.300028 354.266876,207.821906 356.215067,207.571835 C358.16246,207.305837 360.32552,207.180006 361.00527,207.180006 C362.684277,207.180006 363.701107,208.089497 363.864055,209.851138 C364.452746,216.603832 363.684333,236.771124 350.050188,245.696403 C338.13419,253.446192 324.876264,246.765971 325.000872,233.922393" id="Shape" fill="#DADADA" fill-rule="nonzero"></path>
        <path d="M156.428841,236.583791 C154.527312,238.530125 150.241659,238.600729 145.632937,238.442261 C145.632937,238.442261 145.273795,238.476779 144.968364,238.424218 C144.753521,238.372441 144.771157,238.181024 144.771157,238.181024 L144.771157,237.530677 L145.111861,230.441189 C145.111861,230.441189 145.147134,230.071691 145.147134,229.878705 C145.147134,229.721022 145.345143,229.703763 145.345143,229.703763 L145.883054,229.632374 C146.151609,229.579812 153.19977,228.702746 156.12341,230.98406 C156.876165,231.581061 157.359564,232.387523 157.450952,233.352453 C157.594449,234.653147 157.234505,235.774976 156.428841,236.583791 M144.754322,214.697928 C144.754322,214.577115 144.771959,214.488467 144.844108,214.453949 C144.95153,214.38256 145.399655,214.329999 145.472606,214.313525 C145.757194,214.243704 152.32356,212.997925 154.940165,214.803834 C155.622375,215.261195 156.015988,215.89193 156.125013,216.612097 C156.287749,217.593501 155.982318,218.558431 155.22796,219.368031 C153.558912,221.191984 150.063691,222.193 145.81331,222.051006 C145.81331,222.051006 145.382821,222.033748 145.184812,222.033748 C144.969166,222.033748 144.969166,221.807813 144.969166,221.807813 L144.952331,221.210811 L144.754322,215.170978 C144.754322,215.170978 144.718248,214.908957 144.754322,214.697928 M169.986449,234.353469 C169.716291,227.94963 163.942764,225.912295 160.553362,224.737905 C160.158947,224.616308 159.584961,224.492357 159.243455,224.351148 C158.830603,224.210723 158.849041,224.088342 159.26029,223.913399 C159.637069,223.701586 160.372989,223.350131 160.372989,223.350131 C161.986723,222.614274 167.187066,219.59475 166.272377,213.716523 C165.178918,206.69764 155.943037,205.381256 153.128422,205.11845 L153.07391,205.11845 C150.044451,204.836031 141.919666,204.924679 136.182213,206.9071 C133.402871,207.854771 132.883398,209.97997 132.524256,211.538763 L132.379958,212.013383 C130.012667,221.068818 130.785464,236.494358 133.976055,244.373834 C133.994493,244.391093 133.994493,244.425611 133.994493,244.444438 L134.029766,244.479741 C134.047403,244.532302 134.424181,245.899678 136.307271,246.357039 C153.666334,250.324234 162.076508,246.21583 165.554894,243.391645 C168.569121,240.951079 170.165219,237.740922 169.986449,234.353469" id="Shape" fill="#DADADA" fill-rule="nonzero"></path>
        <path d="M74.4267239,236.583791 C72.5245707,238.530125 68.2499427,238.600729 63.6366192,238.442261 C63.6366192,238.442261 63.2786612,238.476779 62.9736746,238.424218 C62.7577762,238.372441 62.7577762,238.181024 62.7577762,238.181024 L62.7746307,237.530677 L63.1165368,230.441189 C63.1165368,230.441189 63.1349965,230.071691 63.1349965,229.878705 C63.1349965,229.721022 63.3316326,229.703763 63.3316326,229.703763 L63.8709773,229.632374 C64.1759639,229.579812 71.1778141,228.702746 74.1040802,230.98406 C74.9122947,231.581061 75.3617486,232.387523 75.4516394,233.352453 C75.5768444,234.653147 75.2164787,235.774976 74.4267239,236.583791 M62.7577762,214.697928 C62.7577762,214.577115 62.7746307,214.488467 62.8284047,214.453949 C62.9736746,214.38256 63.3870117,214.329999 63.4752973,214.313525 C63.7449697,214.243704 70.3511399,212.997925 72.9563675,214.803834 C73.6209172,215.261195 74.0326491,215.89193 74.1233425,216.612097 C74.3031241,217.593501 73.9788752,218.558431 73.2260398,219.368031 C71.573494,221.191984 68.0541092,222.193 63.8003488,222.051006 C63.8003488,222.051006 63.3878143,222.033748 63.1887704,222.033748 C62.9736746,222.033748 62.9736746,221.807813 62.9736746,221.807813 C62.9736746,221.807813 62.7048048,214.908957 62.7577762,214.697928 M87.9833781,234.353469 C87.7313629,227.94963 81.9510643,225.912295 78.5753442,224.737905 C78.198124,224.616308 77.5881508,224.492357 77.2454421,224.351148 C76.8345128,224.210723 76.8690245,224.088342 77.2639019,223.913399 C77.6411221,223.701586 78.4140224,223.350131 78.4140224,223.350131 C80.0288461,222.614274 85.1815144,219.59475 84.2665546,213.716523 C83.2079301,206.69764 73.9435609,205.381256 71.1248427,205.11845 L71.0718713,205.11845 C68.0380573,204.836031 59.9214009,204.924679 54.1940736,206.9071 C51.3753554,207.854771 50.8737327,209.97997 50.4780527,211.538763 L50.3520451,212.013383 C48.0365547,221.068818 48.7725356,236.494358 51.9676715,244.373834 C51.9853286,244.391093 52.0045909,244.425611 52.0045909,244.444438 L52.0045909,244.479741 C52.0230506,244.532302 52.3810085,245.899678 54.3024241,246.357039 C71.6995017,250.324234 80.1203421,246.21583 83.5674933,243.391645 C86.6005047,240.951079 88.1816194,237.740922 87.9833781,234.353469" id="Shape" fill="#DADADA" fill-rule="nonzero"></path>
        <path d="M113.727627,234.37737 C111.083828,234.728449 107.207149,234.78017 104.475119,234.552909 C104.175761,234.533318 104.228542,234.306841 104.282112,234.096037 C104.387675,233.919714 108.775625,223.94688 108.899307,223.665546 C109.057651,223.29566 109.163214,223.279203 109.286896,223.665546 C109.356221,223.806605 113.973416,233.919714 113.95766,233.919714 C114.008078,234.024724 114.13176,234.341322 113.727627,234.37737 M129.763734,239.739943 C129.692046,239.546379 129.640052,239.370056 129.60539,239.179627 C126.625995,227.891815 119.700597,214.00696 115.964143,208.203971 C114.66115,206.171162 113.920634,205.802059 108.42191,206.082608 C103.29502,206.363158 101.672187,208.449256 100.051718,211.203031 C93.1263195,222.035537 87.3124825,241.616021 87.2762445,241.826825 C86.5877223,244.194256 86.712192,244.878389 93.3910145,247.051474 C96.2632706,248.014589 98.1673416,248.189345 99.1883081,247.594549 C99.8405923,247.189397 100.087168,246.470783 100.244725,245.508451 C100.368407,245.034337 100.633102,244.10727 101.090804,242.773484 L101.214486,242.422405 C101.214486,242.422405 101.28381,242.265673 101.444518,242.298587 C101.638313,242.315827 101.813988,242.369116 101.813988,242.369116 C105.51578,242.966264 111.012928,242.527415 115.542679,241.266509 C115.542679,241.266509 115.753805,241.21322 115.948387,241.160715 C116.123275,241.091753 116.211507,241.299423 116.211507,241.299423 L116.335189,241.68655 C117.076492,244.072005 117.621638,245.840722 117.814645,246.56012 C117.972989,247.242686 118.326703,247.647837 118.85373,247.858641 C119.788828,248.208937 121.796887,248.085902 126.026492,245.386984 C130.557031,242.456886 130.185986,241.232028 129.763734,239.739943" id="Shape" fill="#DADADA" fill-rule="nonzero"></path>
        <path d="M400.045589,208.400672 L400.341399,208.400672 C400.722042,208.400672 401.068752,208.254601 401.068752,207.928133 C401.068752,207.698802 400.853349,207.438066 400.341399,207.438066 C400.210829,207.438066 400.128209,207.454134 400.045589,207.454134 L400.045589,208.400672 Z M400.045589,209.953403 L399.60003,209.953403 L399.60003,207.143734 C399.831661,207.127666 400.045589,207.078002 400.391561,207.078002 C400.822366,207.078002 401.084981,207.192667 401.267926,207.307333 C401.432428,207.438066 401.548244,207.63307 401.548244,207.862401 C401.548244,208.254601 401.283417,208.483202 400.986869,208.564271 L400.986869,208.581069 C401.217026,208.629273 401.399233,208.857873 401.432428,209.250803 C401.49882,209.707274 401.58144,209.854075 401.631602,209.952673 L401.135881,209.952673 C401.086456,209.854075 401.036294,209.593339 400.938182,209.234005 C400.905724,208.874671 400.690322,208.760006 400.342136,208.760006 L400.046326,208.760006 L400.046326,209.953403 L400.045589,209.953403 Z M400.508114,206.393661 C399.401593,206.393661 398.494984,207.323401 398.494984,208.49927 C398.494984,209.691937 399.401593,210.6078 400.508114,210.6078 C401.630127,210.6078 402.520508,209.691937 402.520508,208.49927 C402.51977,207.32267 401.630127,206.393661 400.508114,206.393661 Z M400.508114,206 C401.909708,206 403,207.111598 403,208.49927 C403,209.90447 401.909708,211 400.508114,211 C399.15447,211 398,209.90447 398,208.49927 C398,207.111598 399.15447,206 400.508114,206 Z" id="Shape" fill="#DADADA" fill-rule="nonzero"></path>
        <path d="M305.324059,213.260729 C305.324059,213.260729 299.648184,217.170041 299.523284,217.294764 C299.047395,217.651455 298.37546,218.112216 298.286923,219.908386 C298.233959,220.671023 298.039493,226.001542 298.039493,226.659317 C298.039493,227.388589 297.684553,229.415139 295.386535,227.371112 C295.386535,227.371112 291.513818,223.978169 290.947811,223.461006 C290.8071,223.355349 289.498013,221.845167 287.411852,222.733322 L281.382618,225.150724 C281.382618,225.150724 277.722548,226.659317 279.064047,223.372031 C280.373925,220.157832 281.275108,217.507667 281.558112,216.65526 C281.857716,215.767105 281.735186,214.488099 281.011077,213.617421 C280.692501,213.225775 277.792113,209.352212 277.103577,208.391765 C277.103577,208.391765 274.69805,205.530286 278.693297,205.76146 C278.693297,205.76146 285.501975,205.902866 285.608694,205.921932 C285.732805,205.921932 287.006319,205.992634 287.889321,204.570633 C289.022124,202.811006 292.311444,198.672109 291.621327,199.541992 C292.169152,198.830992 293.530413,196.999867 294.396814,200.005136 C294.396814,200.005136 295.653728,203.948607 296.272699,205.601783 C296.643449,206.737795 296.943053,207.485339 298.942257,208.142319 L305.166748,210.417521 C305.165167,210.417521 308.101128,211.305676 305.324059,213.260729 M317.04814,195.774086 C301.008655,187.45816 285.166008,186.586687 275.333621,189.554618 C257.121019,195.045609 251.495737,218.307641 268.331268,229.698745 C269.357352,230.373997 268.737591,231.81427 267.447475,234.122837 C265.855385,237.019271 262.938396,242.688209 257.756591,246.793741 C254.625374,249.26278 252.608778,250.276453 255.157388,253.315086 C255.157388,253.315086 260.868045,259.749046 265.078311,261.596853 C270.169998,263.852989 271.442722,263.461343 275.226902,259.890452 C277.579466,257.635905 282.337556,251.557048 288.013431,241.800849 C290.947811,236.770619 294.875865,236.664962 294.34306,244.999954 C294.34306,244.999954 293.565986,252.994143 293.371521,254.649702 C292.716977,259.428103 293.227647,261.082073 297.490878,261.134504 C297.490878,261.134504 306.633147,260.636407 309.797566,260.174852 C314.255262,259.570303 314.024433,258.841825 315.192019,255.288411 C321.416509,236.399628 321.964334,203.966879 321.964334,203.966879 C322.247337,199.612695 320.867894,197.747411 317.04814,195.774086" id="Shape" fill="#DADADA" fill-rule="nonzero"></path>
        <rect id="Rectangle" fill-opacity="0" fill="#FFFFFF" x="0" y="0" width="450" height="450"></rect>
    </g>
</svg>