<svg height="37" viewBox="0 0 237 37" width="237" xmlns="http://www.w3.org/2000/svg"><path d="m173.535169 101.930508c.997034-1.303813 1.303814-2.300847 1.533899-3.3745758.536864-2.7610169-1.072962-4.6016949-3.451271-4.6016949-3.067797 0-5.368644 2.5309322-5.522034 4.9084746-.536098 2.6076271-.230085 5.1385591.614326 7.8228811 1.839911-1.073729 5.674657-3.451271 6.902542-4.755085zm-14.188559 16.642797c-.460169 2.837712 1.303814 6.672458 5.905509 6.672458 2.300847 0 3.834745-.61356 5.368644-2.530932-2.914407-4.141526-4.98517-8.129662-6.672458-12.117797-2.300847 1.994068-3.988136 4.21822-4.601695 7.976271zm25.692797-5.752119c-.15339 1.073729-.766949 1.917373-1.994068 1.917373-2.530165 0-.536864-3.834745-2.91364-3.834745-1.381275 0-2.300847 1.227118-3.834746 4.448305l-2.300847 5.522034.459402.997033c1.533899 2.070763 2.914407 3.527967 4.601695 3.527967.920339 0 1.917373-.46017 3.451272-1.994068l.766949 1.073729c-1.687288 2.070762-3.834746 3.221186-5.752119 3.221186-2.300847 0-4.294148-2.070763-5.752119-3.681356-2.147457 2.300848-4.601694 3.681356-7.976271 3.681356-4.831779 0-9.20339-3.067797-8.129661-9.970339.920339-4.141525 4.064831-6.902542 7.669492-9.20339-1.073729-2.761017-1.687288-6.135593-1.226352-8.6665252.842877-5.2919492 5.597962-8.3597458 9.662792-8.3597458 4.755085 0 6.902543 3.2211864 6.135594 6.9025424-.383475 1.9173726-1.226352 3.6813556-3.221187 5.3686436-2.070762 1.840678-5.522034 3.451272-7.439407 4.601695 1.227119 3.067797 3.067797 6.519068 5.675424 10.967373.766949-1.533898 1.917373-4.294915 3.067797-6.519068.997034-2.300847 2.608394-3.681355 4.985169-3.681355 3.297882 0 4.218221 2.300847 4.064831 3.681355zm-136.2101697-2.147457h-1.2271187v11.734322h1.5338983c1.7639831 0 2.3008475-1.073729 2.3008475-6.135593 0-3.604661-.5368644-5.522034-2.5309322-5.522034zm-.1533898-13.4216104h-1.1504238v9.5868644h1.5338983c1.5338983 0 1.7639831-1.533898 1.7639831-4.294915 0-3.834746-.3834746-5.3686443-2.3008475-5.3686443zm8.8966101 19.5572034c0 6.902542-3.0677966 9.433475-8.4364407 9.433475h-7.3627118v-32.9788139h7.4394068c5.8288135 0 7.3627118 3.3745762 7.3627118 8.9733049 0 4.141526-1.5338983 6.288983-4.0648305 6.442373 2.8377119 0 5.0618644 2.837712 5.0618644 8.129661zm10.5838983-5.752119c-.1533898-1.533898-.7669491-6.365678-.7669491-9.510169-.2300848 3.297881-.7669492 7.976271-.7669492 9.433474l-.7669491 6.365678h3.0677966zm1.0737288 9.970339h-3.8347457l-.4601695 5.368644h-5.1385593l4.8317796-33.2088979h5.8288136l5.5987288 33.1322039h-6.1355932l-.7669492-5.368645zm17.4864407-23.4686437h-1.0737288v9.4334747h1.7639831c1.5338983 0 1.9940678-.997034 1.9940678-3.834746 0-4.9851694-.7669492-5.6754236-2.6843221-5.5987287zm3.8347458 11.9644067c3.8347457.920339 4.2182203 5.368644 4.2182203 9.35678 0 3.067796.2300848 5.905508.6135593 7.516101h-6.1355932c0-1.380508-.3834745-1.917372-.3834745-5.061864v-4.141525c0-2.684322-.920339-4.601695-2.8377119-5.13856h-.3067797v14.18856h-6.1355932v-32.9788139h8.9733051c4.0648305 0 6.9025424 2.3008474 6.9025424 8.4364409 0 5.061864-2.3008475 7.286017-4.9084746 7.669491zm16.4127118 4.601695c-.460169-1.533898-.920339-3.374576-1.303814-5.675424.30678 4.448305.30678 5.675424.30678 9.586865v8.43644h-5.522034v-32.9788132h5.522034l3.067797 11.7343222c.613559 2.070763 1.073729 3.681356 1.380508 5.215254-.15339-3.297881-.306779-7.209322-.306779-10.5072033v-6.5957627h5.368644v32.978814h-4.83178l-3.604661-12.271187zm13.805085-20.7076271h12.271186v4.9851695h-6.365678v8.8199156h5.675424v4.601695h-5.598729v9.586864h7.286017v4.985169h-13.038135v-32.9788131zm31.444915 24.3122881c0 5.368644-2.300847 9.20339-7.516102 9.20339-4.448305 0-7.439406-2.300848-7.439406-8.052966 0-1.303814 0-2.530932.306779-3.527966h5.368644c-.230084 1.227118-.383474 1.994067-.383474 3.451271 0 3.681356.920339 4.294915 2.300847 4.294915.997034 0 1.763983-.536864 1.763983-4.21822 0-3.221187-2.300847-5.598729-4.601695-8.436441-2.454237-2.761017-4.985169-6.442373-4.985169-9.510169 0-4.908475 2.300847-7.6694919 7.055932-7.6694919 4.601695 0 7.132627 2.4542372 7.132627 7.2860169 0 1.073729-.30678 1.917373-.460169 2.684322h-4.908475l.15339-2.300847c0-3.067797-.46017-4.2182208-1.763983-4.2182208-1.380509 0-1.533898 1.3038136-1.533898 3.6813558 0 3.067797 2.300847 5.368644 4.37161 7.822882 2.761017 3.527966 5.061864 6.288983 5.061864 9.740254zm42.412288-3.527966c-.536864-1.533898-.920339-3.374576-1.380508-5.675424.307546 4.448305.307546 5.675424.307546 9.586865v8.43644h-5.599495v-32.9788133h5.522033s2.454238 9.7402543 3.067797 11.7343223c.536864 2.070762.997034 3.681356 1.150424 5.215254-.15339-3.297881-.15339-7.209322-.15339-10.507203v-6.672458h5.368644v32.978814h-4.67839l-3.681356-12.271187zm22.241526-14.9555086c-.230085-2.3008474-.76695-2.8377118-1.533899-2.8377118-.920339 0-1.380508.4601695-1.533898 2.8377118-.15339 2.3008476-.15339 5.5987286-.15339 10.7372886 0 6.135593 0 8.43644.230852 10.583898.152623 2.530932.612792 2.761017 1.533898 2.761017.996267 0 1.303047 0 1.533898-2.761017v-21.3978815zm-1.533899 27.7635596c-5.138559 0-7.822881-2.147458-7.822881-17.026271 0-14.4186445 2.300847-16.8728818 7.900343-16.8728818 5.752119 0 7.898809 2.4542373 7.898809 16.8728818 0 14.111864-2.300847 17.026271-7.898809 17.026271zm19.480509-16.259322h-1.303814v11.734322h1.533899c1.763983 0 2.300847-1.073729 2.300847-6.135593 0-3.604661-.536864-5.522034-2.530932-5.522034zm-.229318-13.4983054h-1.074496v9.5868644h1.533899c1.533898 0 1.763983-1.533898 1.763983-4.294915 0-3.834746-.46017-5.3686443-2.300848-5.3686443zm8.895843 19.7105934c0 6.902542-3.067796 9.433474-8.43644 9.433474h-7.361945v-32.9788131h7.438639c5.905509 0 7.439407 3.3745763 7.439407 8.9733051 0 4.141525-1.533898 6.288983-4.06483 6.442373 2.837712 0 5.061864 2.837712 5.061864 8.129661zm4.218221-23.622034h6.135593v28.070339h6.902542v4.985169h-13.038135zm29.527542 28.070339v4.985169h-13.038136v-32.9788131h12.117797v4.9851695h-6.365678v8.8199156h5.676191v4.601695h-5.752119v9.586864z" fill="#dadada" fill-rule="evenodd" transform="translate(-41 -91)"/></svg>