<?xml version="1.0" encoding="UTF-8"?>
<svg width="450px" height="450px" viewBox="0 0 450 450" version="1.1" xmlns="http://www.w3.org/2000/svg" xmlns:xlink="http://www.w3.org/1999/xlink">
    <!-- Generator: Sketch 50.2 (55047) - http://www.bohemiancoding.com/sketch -->
    <title>bn-logo</title>
    <desc>Created with Sketch.</desc>
    <defs></defs>
    <g id="bn-logo" stroke="none" stroke-width="1" fill="none" fill-rule="evenodd">
        <path d="M394.75,241.518567 L394.75,248.685505 L376.0057,248.685505 L376.0057,201.273453 L393.426873,201.273453 L393.426873,208.440391 L384.275244,208.440391 L384.275244,221.120358 L392.434528,221.120358 L392.434528,227.735993 L384.164984,227.735993 L384.164984,241.518567 L394.75,241.518567 Z M352.299674,201.163192 L361.120521,201.163192 L361.120521,241.518567 L371.043974,241.518567 L371.043974,248.685505 L352.299674,248.685505 L352.299674,201.163192 Z M346.235342,235.123453 C346.235342,245.046906 341.824919,248.685505 334.106678,248.685505 L323.521661,248.685505 L323.521661,201.273453 L334.216938,201.273453 C342.707003,201.273453 344.912215,206.124919 344.912215,214.173941 C344.912215,220.128013 342.707003,223.215309 339.068404,223.435831 C343.148046,223.435831 346.345603,227.515472 346.345603,235.123453 L346.235342,235.123453 Z M333.445114,206.786482 L331.901466,206.786482 L331.901466,220.569055 L334.106678,220.569055 C336.311889,220.569055 336.642671,218.363844 336.642671,214.394463 C336.642671,208.881433 335.981107,206.676221 333.334853,206.676221 L333.445114,206.786482 Z M333.775896,226.192345 L331.901466,226.192345 L331.901466,243.062215 L334.106678,243.062215 C336.642671,243.062215 337.414495,241.518567 337.414495,234.241368 C337.414495,229.059121 336.642671,226.302606 333.775896,226.302606 L333.775896,226.192345 Z M305.769707,249.56759 C298.382248,249.56759 294.523127,246.480293 294.523127,225.089739 C294.523127,204.360749 297.830945,200.83241 305.879967,200.83241 C314.149511,200.83241 317.236808,204.360749 317.236808,225.089739 C317.236808,245.377687 313.92899,249.56759 305.879967,249.56759 L305.769707,249.56759 Z M307.974919,209.653257 C307.644137,206.34544 306.872313,205.573616 305.769707,205.573616 C304.44658,205.573616 303.785016,206.235179 303.564495,209.653257 C303.343974,212.961075 303.343974,217.70228 303.343974,225.089739 C303.343974,233.910586 303.343974,237.218404 303.674756,240.3057 C303.895277,243.9443 304.55684,244.275081 305.879967,244.275081 C307.313355,244.275081 307.754397,244.275081 308.085179,240.3057 L308.085179,209.542997 L307.974919,209.653257 Z M275.999349,231.154072 C275.227524,228.94886 274.676221,226.302606 274.014658,222.994788 C274.4557,229.389902 274.4557,231.154072 274.4557,236.777362 L274.4557,248.906026 L266.406678,248.906026 L266.406678,201.493974 L274.34544,201.493974 C274.34544,201.493974 277.873779,215.497068 278.755863,218.363844 C279.527687,221.340879 280.189251,223.656352 280.409772,225.861564 C280.189251,221.120358 280.189251,215.497068 280.189251,210.755863 L280.189251,201.163192 L287.907492,201.163192 L287.907492,248.575244 L281.181596,248.575244 L275.889088,230.93355 L275.999349,231.154072 Z M215.025244,236.226059 C215.025244,243.9443 211.717427,249.457329 204.219707,249.457329 C197.824593,249.457329 193.52443,246.149511 193.52443,237.879967 C193.52443,236.005537 193.52443,234.241368 193.965472,232.80798 L201.683713,232.80798 C201.352932,234.57215 201.13241,235.674756 201.13241,237.769707 C201.13241,243.062215 202.455537,243.9443 204.440228,243.9443 C205.873616,243.9443 206.976221,243.172476 206.976221,237.879967 C206.976221,233.249023 203.668404,229.830945 200.360586,225.751303 C196.832248,221.781922 193.193648,216.489414 193.193648,212.07899 C193.193648,205.022313 196.501466,201.052932 203.337622,201.052932 C209.953257,201.052932 213.591857,204.58127 213.591857,211.527687 C213.591857,213.071336 213.150814,214.284202 212.930293,215.386808 L205.873616,215.386808 L206.094137,212.07899 C206.094137,207.668567 205.432573,206.014658 203.558143,206.014658 C201.573453,206.014658 201.352932,207.889088 201.352932,211.307166 C201.352932,215.71759 204.660749,219.025407 207.637785,222.553746 C211.607166,227.625733 214.914984,231.595114 214.914984,236.55684 L215.025244,236.226059 Z M169.818404,201.273453 L187.460098,201.273453 L187.460098,208.440391 L178.308469,208.440391 L178.308469,221.120358 L186.467752,221.120358 L186.467752,227.735993 L178.41873,227.735993 L178.41873,241.518567 L188.893485,241.518567 L188.893485,248.685505 L170.149186,248.685505 L170.149186,201.273453 L169.818404,201.273453 Z M149.971498,231.043811 C149.309935,228.838599 148.648371,226.192345 148.097068,222.884528 C148.538111,229.279642 148.538111,231.043811 148.538111,236.667101 L148.538111,248.795765 L140.599349,248.795765 L140.599349,201.383713 L148.538111,201.383713 L152.948534,218.253583 C153.830619,221.230619 154.492182,223.546091 154.933225,225.751303 C154.712704,221.010098 154.492182,215.386808 154.492182,210.645603 L154.492182,201.163192 L162.210423,201.163192 L162.210423,248.575244 L155.264007,248.575244 L150.081759,230.93355 L149.971498,231.043811 Z M126.375733,224.428176 C131.888762,225.751303 132.440065,232.146417 132.440065,237.879967 C132.440065,242.290391 132.770847,246.370033 133.32215,248.685505 L124.501303,248.685505 C124.501303,246.700814 123.95,245.92899 123.95,241.408306 L123.95,235.454235 C123.95,231.595114 122.626873,228.838599 119.870358,228.066775 L119.429316,228.066775 L119.429316,248.464984 L110.608469,248.464984 L110.608469,201.052932 L123.508958,201.052932 C129.352769,201.052932 133.43241,204.360749 133.43241,213.181596 C133.43241,220.458795 130.124593,223.656352 126.375733,224.207655 L126.375733,224.428176 Z M120.862704,207.227524 L119.319055,207.227524 L119.319055,220.789577 L121.855049,220.789577 C124.060261,220.789577 124.721824,219.356189 124.721824,215.276547 C124.721824,208.109609 123.619218,207.117264 120.862704,207.227524 Z M95.7232899,240.967264 L90.2102606,240.967264 L89.5486971,248.685505 L82.1612378,248.685505 L89.1076547,200.942671 L97.4874593,200.942671 L105.536482,248.575244 L96.7156352,248.575244 L95.6130293,240.857003 L95.7232899,240.967264 Z M94.1796417,226.633388 C93.9591205,224.428176 93.0770358,217.481759 93.0770358,212.961075 C92.7462541,217.70228 91.97443,224.428176 91.97443,226.523127 L90.8718241,235.674756 L95.2822476,235.674756 L94.1796417,226.633388 Z M78.9636808,234.902932 C78.9636808,244.826384 74.5532573,248.464984 66.8350163,248.464984 L56.25,248.464984 L56.25,201.052932 L66.9452769,201.052932 C75.3250814,201.052932 77.5302932,205.904397 77.5302932,213.95342 C77.5302932,219.907492 75.3250814,222.994788 71.6864821,223.215309 C75.7661238,223.215309 78.9636808,227.294951 78.9636808,234.902932 Z M66.1734528,206.786482 L64.519544,206.786482 L64.519544,220.569055 L66.7247557,220.569055 C68.9299674,220.569055 69.2607492,218.363844 69.2607492,214.394463 C69.2607492,208.881433 68.7094463,206.676221 65.9529316,206.676221 L66.1734528,206.786482 Z M66.3939739,226.082085 L64.6298046,226.082085 L64.6298046,242.951954 L66.8350163,242.951954 C69.3710098,242.951954 70.1428339,241.408306 70.1428339,234.131107 C70.1428339,228.94886 69.3710098,226.192345 66.5042345,226.192345 L66.3939739,226.082085 Z" id="Shape" fill="#DADADA" fill-rule="nonzero"></path>
        <path d="M258.8,228.8 C258.6,230.2 257.8,231.3 256.2,231.3 C252.9,231.3 255.5,226.3 252.4,226.3 C250.6,226.3 249.4,227.9 247.4,232.1 L244.4,239.3 L245,240.6 C247,243.3 248.8,245.2 251,245.2 C252.2,245.2 253.5,244.6 255.5,242.6 L256.5,244 C254.3,246.7 251.5,248.2 249,248.2 C246,248.2 243.4,245.5 241.5,243.4 C238.7,246.4 235.5,248.2 231.1,248.2 C224.8,248.2 219.1,244.2 220.5,235.2 C221.7,229.8 225.8,226.2 230.5,223.2 C229.1,219.6 228.3,215.2 228.9,211.9 C230,205 236.2,201 241.5,201 C247.7,201 250.5,205.2 249.5,210 C249,212.5 247.9,214.8 245.3,217 C242.6,219.4 238.1,221.5 235.6,223 C237.2,227 239.6,231.5 243,237.3 C244,235.3 245.5,231.7 247,228.8 C248.3,225.8 250.4,224 253.5,224 C257.8,224 259,227 258.8,228.8 Z M225.3,236.3 C224.7,240 227,245 233,245 C236,245 238,244.2 240,241.7 C236.2,236.3 233.5,231.1 231.3,225.9 C228.3,228.5 226.1,231.4 225.3,236.3 Z M243.8,214.6 C245.1,212.9 245.5,211.6 245.8,210.2 C246.5,206.6 244.4,204.2 241.3,204.2 C237.3,204.2 234.3,207.5 234.1,210.6 C233.4,214 233.8,217.3 234.9,220.8 C237.3,219.4 242.3,216.3 243.9,214.6 L243.8,214.6 Z" id="Shape" fill="#DADADA" fill-rule="nonzero"></path>
        <rect id="Rectangle" fill-opacity="0" fill="#FFFFFF" x="0" y="0" width="450" height="450"></rect>
    </g>
</svg>