<?xml version="1.0" encoding="UTF-8"?>
<svg width="450px" height="450px" viewBox="0 0 450 450" version="1.1" xmlns="http://www.w3.org/2000/svg" xmlns:xlink="http://www.w3.org/1999/xlink">
    <!-- Generator: Sketch 50.2 (55047) - http://www.bohemiancoding.com/sketch -->
    <title>bose-logo</title>
    <desc>Created with Sketch.</desc>
    <defs></defs>
    <g id="bose-logo" stroke="none" stroke-width="1" fill="none" fill-rule="evenodd">
        <path d="M283.112907,227.429868 C281.48683,230.223085 277.720019,236.788978 276.118868,239.577796 C274.517717,242.36808 271.545616,244.193569 268.198155,244.193569 C264.849227,244.193569 228.71189,244.193569 226.134213,244.193569 C223.558001,244.193569 221.527237,241.329971 223.052143,238.692178 C224.575583,236.052917 226.316028,233.038296 226.316028,233.038296 L248.823053,233.038296 C248.823053,233.038296 247.799606,234.768477 247.336269,235.607176 C246.875865,236.442941 247.413981,237.834418 248.692556,237.834418 C249.972597,237.834418 251.274632,237.834418 252.553207,237.834418 C253.833248,237.834418 255.009185,237.192198 255.720319,235.954678 C256.432919,234.718625 260.17627,228.239241 260.17627,228.239241 C260.17627,228.239241 237.997687,228.239241 235.345231,228.239241 C232.691308,228.239241 230.725059,225.399104 232.229437,222.824359 C233.732349,220.252546 237.905313,212.988716 239.386231,210.41837 C240.867149,207.84949 243.796728,205.912566 247.173515,205.912566 C250.551768,205.912566 286.43251,205.912566 289.306371,205.912566 C292.180232,205.912566 293.730064,209.062083 292.482281,211.227743 C291.233031,213.391936 289.104028,217.064907 289.104028,217.064907 L266.624862,217.064907 C266.624862,217.064907 267.786137,215.086928 268.184958,214.362598 C268.58378,213.6412 268.051529,212.261453 266.790549,212.261453 C265.529569,212.261453 264.258326,212.261453 262.918168,212.261453 C261.579477,212.261453 260.38008,213.018041 259.853694,213.925653 C259.328774,214.836198 255.268712,221.869826 255.268712,221.869826 C255.268712,221.869826 277.505946,221.869826 280.092421,221.869826 C282.681828,221.871293 284.738985,224.636651 283.112907,227.429868 Z M232.552014,211.315718 C231.144408,213.754101 217.635795,237.162873 216.156343,239.720023 C214.676891,242.275706 211.698926,244.193569 208.308943,244.193569 C204.91896,244.193569 168.803617,244.193569 166.214209,244.193569 C163.624802,244.193569 161.635093,241.315309 163.083753,238.806545 C164.530948,236.299248 177.86361,213.195458 179.498485,210.375848 C181.133361,207.557705 184.291675,205.912566 187.347352,205.912566 C190.400096,205.912566 226.587286,205.912566 229.371705,205.912566 C232.153192,205.912566 233.959619,208.872936 232.552014,211.315718 Z M206.902804,212.262919 C205.773787,212.262919 204.091991,212.262919 202.983502,212.262919 C201.875013,212.262919 200.565647,212.828894 199.873574,214.028291 C199.184434,215.226222 187.891333,234.784606 187.408935,235.617439 C186.928003,236.454671 187.502775,237.835884 188.756424,237.835884 C190.00714,237.835884 191.366359,237.835884 192.665461,237.835884 C193.963097,237.835884 195.174225,237.108621 195.794451,236.022126 C196.414677,234.935631 207.590477,215.564927 208.198974,214.528284 C208.803071,213.488709 208.03182,212.262919 206.902804,212.262919 Z M161.727467,230.195226 C160.595518,232.161475 157.965055,236.749389 156.286192,239.64671 C154.605863,242.541099 151.585377,244.195035 148.403602,244.195035 C145.220361,244.193569 60.95025,244.199434 60.95025,244.199434 L60.95025,237.840283 L103.605093,237.83735 L122.040325,205.912566 C122.040325,205.912566 166.737663,205.912566 169.516217,205.912566 C172.297704,205.912566 174.002959,208.94185 172.611483,211.339178 C171.221472,213.742371 168.806549,217.972519 167.28311,220.597117 C165.75967,223.221714 162.646809,225.056 159.561807,225.056 C161.661486,225.708484 162.859416,228.223112 161.727467,230.195226 Z M142.994585,228.240707 C141.811317,228.240707 131.629637,228.240707 131.629637,228.240707 L126.085725,237.83735 C126.085725,237.83735 136.921354,237.840283 138.000518,237.840283 C139.079682,237.840283 140.345061,237.35202 141.092851,236.058782 C141.840642,234.75968 143.743841,231.482599 144.303951,230.494342 C144.865527,229.506086 144.177853,228.240707 142.994585,228.240707 Z M152.204137,212.265852 C151.019402,212.265852 140.839189,212.265852 140.839189,212.265852 L135.295276,221.865428 C135.295276,221.865428 146.132372,221.865428 147.208604,221.865428 C148.287768,221.865428 149.554613,221.38303 150.302403,220.083927 C151.05166,218.787757 152.954859,215.510676 153.514969,214.519487 C154.073613,213.529764 153.387405,212.265852 152.204137,212.265852 Z M279.774243,244.193569 L333.335096,244.193569 L337.0066,237.83735 L305.920514,237.83735 L311.461494,228.240707 L342.54758,228.240707 L346.224949,221.871293 L315.138863,221.871293 L320.685708,212.259987 L379.025088,212.262919 L379.025088,205.912566 L301.870716,205.912566 L279.774243,244.193569 Z M383.133536,207.925735 L382.013317,205.912566 L381.403355,205.912566 L381.403355,209.39639 L381.961998,209.39639 L381.961998,206.752731 L382.966383,208.587017 L383.299223,208.587017 L384.312406,206.748332 L384.312406,209.397856 L384.871049,209.397856 L384.871049,205.912566 L384.266952,205.912566 L383.133536,207.925735 Z M388.31675,207.106098 L388.31675,208.213121 C388.31675,209.022494 387.680395,209.39639 386.917942,209.39639 L385.730275,209.39639 L385.730275,205.912566 L386.948733,205.912566 C387.719984,205.912566 388.31675,206.306989 388.31675,207.106098 Z M387.763972,207.141288 C387.763972,206.644228 387.382745,206.399363 386.947267,206.399363 L386.283053,206.399363 L386.283053,208.913992 L386.917942,208.913992 C387.369549,208.913992 387.763972,208.698452 387.763972,208.172066 L387.763972,207.141288 Z" id="Shape" fill="#DADADA" fill-rule="nonzero"></path>
        <rect id="Rectangle" fill-opacity="0" fill="#FFFFFF" x="0" y="0" width="450" height="450"></rect>
    </g>
</svg>