<svg height="27" viewBox="0 0 224 27" width="224" xmlns="http://www.w3.org/2000/svg"><path d="m270.89 97.838c0-.339-.26-.506-.557-.506h-.453v1.715h.433c.308 0 .577-.147.577-.506zm.377-.024v.755c0 .552-.434.807-.953.807h-.811v-2.376h.831c.527 0 .933.269.933.814zm-3.534.559-.765-1.373h-.416v2.376h.381v-1.803l.686 1.251h.226l.691-1.254v1.807h.381v-2.377h-.412zm-70.492 24.736h36.528l2.505-4.335h-21.201l3.778-6.546h21.201l2.508-4.344h-21.2l3.782-6.555 39.788.002v-4.331h-52.62zm-87.005-21.776h-7.751l-3.781 6.547h8.125c.736 0 1.601-.329 2.11-1.215.512-.884 1.809-3.119 2.191-3.795.382-.675-.087-1.537-.894-1.537zm-6.281 10.895h-7.751l-3.781 6.546s7.39.001 8.126.001c.737 0 1.599-.333 2.11-1.215.509-.886 1.807-3.12 2.189-3.795.383-.674-.085-1.537-.893-1.537zm12.776 1.333c-.772 1.341-2.566 4.47-3.711 6.446-1.146 1.975-3.206 3.102-5.376 3.102-2.171 0-59.644.003-59.644.003v-4.337l29.091-.001 12.573-21.774h32.379c1.897 0 3.06 2.066 2.111 3.701-.948 1.639-2.595 4.524-3.634 6.314s-3.162 3.041-5.266 3.041c1.432.445 2.249 2.16 1.477 3.505zm30.81-12.23h-2.672c-.757 0-1.649.386-2.122 1.204-.47.817-8.171 14.157-8.501 14.724-.328.571.064 1.514.919 1.514h2.666c.885 0 1.711-.497 2.134-1.238.424-.741 8.045-13.952 8.46-14.659.412-.709-.114-1.545-.884-1.545zm17.494-.646c-.96 1.663-10.174 17.629-11.183 19.372s-3.04 3.052-5.352 3.052h-28.709c-1.766 0-3.123-1.964-2.135-3.675.987-1.71 10.08-17.467 11.195-19.39 1.115-1.922 3.269-3.044 5.353-3.044h28.662c1.896 0 3.128 2.019 2.169 3.685zm34.482 10.99c-1.108 1.905-3.678 6.383-4.77 8.285-1.091 1.903-3.119 3.149-5.402 3.149h-28.687c-1.758 0-3.143-1.954-2.102-3.752 1.039-1.801 2.225-3.857 2.225-3.857h15.35s-.698 1.18-1.013 1.752c-.315.57.052 1.52.924 1.52h2.633c.873 0 1.675-.439 2.16-1.283.487-.842 3.039-5.262 3.039-5.262h-16.934c-1.811 0-3.152-1.937-2.125-3.693 1.024-1.754 3.87-6.708 4.881-8.461 1.009-1.752 3.007-3.073 5.31-3.073h28.736c1.96 0 3.016 2.148 2.166 3.625-.853 1.476-2.305 3.981-2.305 3.981h-15.33s.792-1.349 1.063-1.843c.273-.492-.091-1.433-.951-1.433h-2.641c-.913 0-1.731.516-2.089 1.135-.359.621-3.127 5.418-3.127 5.418h16.929c1.766.001 3.169 1.887 2.06 3.792z" fill="#dadada" fill-rule="evenodd" transform="translate(-48 -97)"/></svg>