<svg height="52" viewBox="0 0 223 52" width="223" xmlns="http://www.w3.org/2000/svg"><path d="m267.708921 124.103491c-1.64629 0-3.159498-1.291086-3.159498-3.168115 0-1.824849 1.46055-3.167157 3.167636-3.167157 1.832509 0 3.183912 1.449539 3.176253 3.185827-.009575 1.751606-1.387307 3.149445-3.184391 3.149445zm-.67642-3.508h.665888c.249888 0 .909074.010053.909074-.620889 0-.179517-.071807-.338928-.186219-.437064-.171379-.151273-.367172-.151273-.846841-.151273h-.54238v1.209235zm.631421-1.652513c.462914 0 .683601 0 .92535.087604.40116.160369.60557.526104.60557.898542 0 .551955-.400681.87317-.889446.952158.427489.160368.559135.391107.640516.872213.089041.578283.113934.791789.293451 1.146993h-.667325c-.089997-.176645-.123507-.354725-.160847-.541902-.017233-.08904-.079466-.532806-.097178-.631421-.115849-.5869-.437064-.658707-1.005774-.666845h-.284833v1.840168h-.576369v-3.957989h1.216885zm2.945035 2.000536c.008138-1.582142-1.228374-2.890461-2.874664-2.890461-1.635758 0-2.898121 1.298266-2.898121 2.882323 0 1.618046 1.29683 2.881366 2.880887 2.881366 1.629535 0 2.882802-1.270501 2.891898-2.873228zm-32.930103 14.561933c-.889925 0-1.58693.772641-1.763574 1.823413-.232176 1.381562.466744 1.889954 1.157525 1.889954.698919 0 1.53092-.493073 1.778414-1.709001.124944-.607485.062232-1.222629-.211112-1.575919-.206325-.263291-.561529-.428447-.961253-.428447zm15.678289-1.025879h-4.347182l-.973221 5.797678h4.374468l.191485-1.141727h-2.907695l.231217-1.37869h2.689403l.186219-1.100559h-2.690839l.176166-1.052687h2.881845zm-6.253412 0h-1.40837l-.556742 3.720548c-.190048-.509828-.285791-.77312-.618017-1.584536l-.914339-2.136012h-1.440444l-.972742 5.797678h1.406455l.571103-3.646347c.269515.772162.340364.952636.728121 1.815275l.791789 1.831072h1.440444zm-8.185014-.007659c-.337492-.123508-.696047-.172815-1.045506-.172815-1.889954 0-3.147051 1.485921-3.410343 3.055617-.281482 1.67597.539987 3.088169 2.404569 3.088169.607007 0 1.298267-.139783 1.950272-.607485.736259-.517966 1.354276-1.421295 1.523261-2.42276.064626-.394459.271908-2.324146-1.422253-2.940726zm-6.119372.689823c-.640517-.65775-1.719533-.674026-2.434249-.682164h-1.873678l-.974179 5.797678h2.316486c.616581-.007659 2.264786-.041169 3.103968-1.831072.116805-.246058.253717-.614666.337491-1.117792.136433-.812374.039733-1.624748-.475839-2.16665zm-8.046187-.689823h-4.530528l-.194357 1.149865h1.534271l-.781737 4.655951h1.472518l.782694-4.655951h1.524218zm-5.589439.007659h-1.465815l-.972743 5.797678h1.464858zm-5.202639-.007659h-4.531486l-.193878 1.149865h1.533314l-.781258 4.655951h1.473475l.781258-4.655951h1.524696zm-5.473591.007659h-4.346702l-.972743 5.797678h4.373511l.191485-1.141727h-2.909132l.231218-1.37869h2.690839l.184783-1.100559h-2.689403l.175209-1.052687h2.881366zm-10.608731 2.866526c.162284-.967955.741525-1.88038 1.856444-1.88038.817161 0 1.072315.50935 1.227896.82147l1.227417-.66541c-.216378-.35281-.808065-1.338478-2.365315-1.338478-1.672619 0-3.105403 1.239385-3.418959 3.103488-.287227 1.707565.499296 3.022108 2.140799 3.022108.992369 0 1.566823-.451904 1.845912-.674026l-.090955.54238h1.14843l.540944-3.219336h-2.5568l-.184782 1.0996h1.3155c-.09287.305897-.193879.616581-.619453.864075-.267122.155103-.577805.220686-.845405.220686-.449511 0-.818597-.180953-1.00338-.417436-.23409-.288185-.32696-.820991-.218293-1.478741zm-6.678986-2.874185c-.337492-.123508-.696047-.172815-1.044549-.172815-1.890912 0-3.149445 1.485921-3.4113 3.055617-.281961 1.67597.538072 3.088169 2.403611 3.088169.608443 0 1.297309-.139783 1.950751-.607485.736259-.517966 1.355712-1.421295 1.522782-2.42276.067498-.394459.274302-2.324146-1.421295-2.940726zm-5.488909.007659h-1.473954l-.350417 2.094364h-2.150373l.352332-2.094364h-1.482092l-.973699 5.797678h1.483049l.413128-2.471589h2.149894l-.414564 2.471589h1.473953zm-6.103575 0h-1.459592c-.220686.582592-.454298 1.174759-.677377 1.765968-.465308 1.18146-.539987 1.379168-.909074 2.528555.005744-1.124494-.021063-1.304968-.159411-2.422281-.086647-.623283-.156539-1.247523-.225952-1.872242h-1.299702l-.784609 1.789903c-.499296 1.149387-.595039 1.372467-1.005773 2.521375.035903-1.255661.020105-1.5606-.149837-4.311278h-1.467252l.517966 5.797678h1.516559l.894234-1.95458c.517966-1.107739.544774-1.166621.815725-1.880859.037339.81381.047871.85498.184782 1.923464.086647.630942.152709 1.271459.228346 1.911975h1.51608zm-15.360903 1.609429c.046914-.279089.393501-.607007.976572-.607007.373395 0 .725727.139784.914339.255154.211112.130209.350896.286748.505041.467701l1.209226-.764024c-.430362-.451904-1.05508-1.101994-2.413186-1.101994-1.015347 0-2.439994.444244-2.689881 1.939261-.210155 1.247523.972742 1.502676 1.318372 1.577355.304461.066063.622325.105796.941147.148401.422703.056009 1.001944.130688.924871.59073-.067977.402118-.612272.673548-1.1963.673548-.339886 0-.727642-.073722-1.08524-.279089-.264727-.155582-.368129-.289142-.490679-.452383l-1.232683.697962c.294886.41983.828171 1.174759 2.484514 1.174759.823863 0 1.702778-.172815 2.338028-.779822.367651-.353768.601741-.81381.673548-1.232204.108667-.656314-.146486-1.174759-.778864-1.420338-.313557-.115848-1.128324-.271429-1.741075-.346108-.244622-.032553-.733865-.098136-.65775-.541902zm-2.829187-1.609429h-4.346224l-.973221 5.797678h4.37399l.191484-1.141727h-2.908173l.231696-1.37869h2.69036l.184304-1.100559h-2.689881l.176644-1.052687h2.880409zm-6.253411 0h-1.407413l-.557699 3.720548c-.190049-.509828-.287706-.77312-.616102-1.584536l-.916254-2.136012h-1.441401l-.972743 5.797678h1.407413l.570624-3.646347c.270472.772162.339407.952636.727642 1.815275l.791789 1.831072h1.440444zm-8.185014-.007659c-.337013-.123508-.695089-.172815-1.045028-.172815-1.890432 0-3.147529 1.485921-3.410821 3.055617-.281004 1.67597.538551 3.088169 2.404569 3.088169.607964 0 1.297309-.139783 1.950751-.607485.736258-.517966 1.354275-1.421295 1.522303-2.42276.066541-.394459.273823-2.324146-1.421774-2.940726zm-7.879595.007659h-4.346703l-.9737 5.797678h4.373989l.191964-1.141727h-2.908174l.231218-1.37869h2.689402l.185741-1.100559h-2.690361l.176645-1.052687h2.881366zm-6.253891 0h-1.474432l-.351374 2.094364h-2.14798l.350896-2.094364h-1.482571l-.972742 5.797678h1.483049l.414564-2.471589h2.14798l-.414564 2.471589h1.474432zm-6.177775-.007659h-4.531007l-.192442 1.149865h1.532356l-.781257 4.655951h1.474432l.781258-4.655951h1.523739zm-8.545484.597911c-.445202-.573976-1.209226-.582114-1.823891-.589295h-2.648713l-.972742 5.7972h1.472996l.347066-2.068992h.924871l.818119 2.068992h1.624269l-.968913-2.316486c.424617-.145529 1.280554-.435628 1.475869-1.600813.089519-.525625-.024893-.985188-.248931-1.290606zm-7.718748-.597911c-.337492-.123508-.695568-.172815-1.045985-.172815-1.890433 0-3.14753 1.485921-3.409864 3.055617-.28244 1.67597.538551 3.088169 2.403612 3.088169.607964 0 1.298266-.139783 1.951708-.607485.736258-.517966 1.354754-1.421295 1.522303-2.42276.065583-.394459.273344-2.324146-1.421774-2.940726zm-5.048494.007659h-4.513295l-.9727419 5.797678h1.4658149l.392544-2.340422h2.80573l.188612-1.125451h-2.805729l.203452-1.215928h3.048437zm155.268722-3.712888-2.158032 13.240688h-167.4940637l2.1460649-13.240688zm-70.663121 4.738767c-.891361 0-1.587887.772641-1.763574 1.823413-.231218 1.381562.465308 1.889954 1.157525 1.889954.700355 0 1.531399-.493073 1.776499-1.709001.127816-.607485.064148-1.222629-.209675-1.575919-.204889-.263291-.561051-.428447-.960775-.428447zm-73.769961.058403h-1.248959l-.263291 1.56826h1.215928c.210154-.008138.887053-.023936 1.016784-.797534.123986-.738652-.413129-.762588-.720462-.770726zm-7.027009-.058403c-.890883 0-1.587409.772641-1.763575 1.823413-.231696 1.381562.465308 1.889954 1.157047 1.889954.699398 0 1.531399-.493073 1.777457-1.709001.127816-.607485.064147-1.222629-.209676-1.575919-.205846-.263291-.562008-.428447-.961253-.428447zm121.195934.198187h-.592166l-.571582 3.408906h.449031c.786524-.017712 1.87655-.058881 2.155639-1.725277.067977-.402596.09287-.805193-.111539-1.16662-.312599-.526583-.880351-.517009-1.329383-.517009zm-84.619963-.198187c-.890882 0-1.58645.772641-1.763574 1.823413-.232175 1.381562.465787 1.889954 1.156568 1.889954.700355 0 1.532356-.493073 1.777457-1.709001.126858-.607485.063668-1.222629-.209676-1.575919-.205846-.263291-.560572-.428447-.960775-.428447zm-64.0214739-4.738767h-5.4046558l-2.1460648 13.240688h5.4046558zm9.6455632 0h-6.6201049l-2.1460648 13.240688h6.6201049zm-38.5745935 0h-1.7630954l-2.1460648 13.241167h1.7626167zm19.2858606 0h-4.1911214l-2.1460648 13.240688h4.1906427zm-9.6431696 0h-2.9771085l-2.1455861 13.240688h2.9766298zm194.0261842-27.79209c-.817161-2.517067-3.855066-1.845913-6.065278-1.897614l-1.058911 6.507129c1.946442-.087604 4.178196.424618 5.610502-.890404 1.199652-.932051 1.70565-2.286327 1.513687-3.719111zm3.561136 14.538476h2.770784l-1.089548 6.625371h-7.412373l-5.919271-10.590062-.635729 3.964691h1.677885l-1.089548 6.625371h-12.049175l1.068963-6.625371h2.225053l2.729614-16.805655h-2.196808l1.001943-6.2768687h14.770173c3.410821.2345688 7.091157 2.1920212 8.132834 5.6784787 1.087154 3.717676-.41983 7.319982-3.135083 9.79923-1.199652 1.046464-2.475419 1.935432-3.950808 2.284412zm-52.950307-21.429532-.501211-.6213678c-.545253-.4657866-1.164227-.7735982-1.78368-1.0086457-6.040864-2.2461156-12.896495-.4246173-17.194369 4.4175521-3.720069 4.4132434-5.308914 10.6499004-3.562573 16.4241214 1.469645 4.532443 6.195009 7.977253 10.686761 8.753245 3.293058.114891 6.855631-.269994 9.492376-2.403612l-.422703 2.496003h6.305591l2.716211-16.700338h-16.366198l-.972742 6.026502 7.769013.006223c-.813331 1.781287-2.671212 3.294973-4.570261 3.643476-2.44143.384405-4.764139-.546211-6.119372-2.67552-1.974686-3.174817-1.277203-7.861405.812852-10.770058 1.898092-2.40026 4.839776-3.32944 7.825022-2.671211 1.62762.348981 3.293059 1.878465 3.679379 3.503691h6.971001l1.626184-10.0716165h-6.129905l-.269993 1.6553852zm-132.7036865.0004787-.5002538-.6218465c-.5457314-.4653079-1.1647057-.7735982-1.7841587-1.0086457-6.0418211-2.2456369-12.8964948-.4246173-17.194369 4.4175521-3.7195903 4.4142014-5.3089134 10.6499004-3.5635303 16.4246004 1.4706025 4.531485 6.1959663 7.976774 10.6891549 8.752766 3.2921007.114891 6.8541949-.269994 9.4909393-2.403612l-.4222238 2.496003h6.3065487l2.7147744-16.700338h-16.3661976l-.973221 6.026981 7.7694918.006702c-.8133313 1.780807-2.6712116 3.294494-4.5707398 3.642996-2.4404726.383927-4.7627033-.545731-6.1203299-2.67552-1.9732498-3.174816-1.2762455-7.860926.81381-10.769578 1.8976134-2.399782 4.841212-3.329919 7.8259798-2.671212 1.6266626.348981 3.2916221 1.878465 3.6784212 3.503213h6.971958l1.6261839-10.0706594h-6.1303828l-.2695147 1.6553852zm75.2238085 28.0434133 1.066569-6.619147h-2.207339l2.748762-16.806134h2.197766l1.001944-6.2763898h-12.780647l-1.021571 6.2763898h2.197766l-2.718125 16.806134h-2.217393l-1.068485 6.633509zm-50.6792993-21.148049c-.8190758-2.516588-3.8555445-1.844477-6.0657567-1.897614l-1.0598678 6.507129c1.9473994-.087125 4.1786749.425096 5.6119379-.889925 1.2001304-.931094 1.7051713-2.285848 1.5136866-3.71959zm3.5601793 14.538955h2.770784l-1.088112 6.624892h-7.4133304l-5.9187922-10.589104-.6357292 3.964212h1.677406l-1.0890692 6.624892h-12.0496537l1.0703995-6.624892h2.2240948l2.7305719-16.805655h-2.197287l1.0019437-6.2763901h14.7701726c3.4113002.2345687 7.0897212 2.1920211 8.1313982 5.6780001 1.089548 3.717676-.41983 7.32046-3.133647 9.798751-1.200131 1.046464-2.475419 1.93591-3.9512873 2.284891zm22.42238-8.710639-.618496-6.992543-3.021628 6.992543zm-2.227446 15.333616 1.071836-6.625371h2.202553l-.311163-2.453398h-7.707738l-1.104867 2.453398h2.22984l-1.092421 6.625371h-12.44459l1.090505-6.625371h2.181968l8.599099-16.807091h-2.211169l1.01056-6.2754324h14.214389l3.924957 23.0825234h2.217872l-1.079016 6.622499zm43.002199-29.7078944h-9.957684l-1.002901 6.2754324h2.207819l-2.747327 16.807091h-2.197765l-1.063219 6.625371h12.455122l1.065134-6.625371h-2.205904l1.605599-10.013692 8.422455 16.639063h6.652657l3.811503-23.432462h2.208298l1.016783-6.2754324h-12.367997l-1.007209 6.2754324h2.193936l-1.380605 8.482772zm73.572731 0-1.506027 9.2999334h-7.363544l.482541-3.024501h-5.532472l-.693653 4.358671h6.47697l-1.156089 7.148602h-6.468353l-.872213 5.299818h5.868528l.584507-3.750706h7.576092l-1.691768 10.376077h-23.531555l1.081889-6.625371h2.232233l2.749241-16.807091h-2.199201l1.020613-6.2754324z" fill="#dadada" fill-rule="evenodd" transform="translate(-48 -93)"/></svg>