<?xml version="1.0" encoding="UTF-8"?>
<svg width="450px" height="450px" viewBox="0 0 450 450" version="1.1" xmlns="http://www.w3.org/2000/svg" xmlns:xlink="http://www.w3.org/1999/xlink">
    <!-- Generator: Sketch 50.2 (55047) - http://www.bohemiancoding.com/sketch -->
    <title>granger-logo</title>
    <desc>Created with Sketch.</desc>
    <defs></defs>
    <g id="granger-logo" stroke="none" stroke-width="1" fill="none" fill-rule="evenodd">
        <path d="M340.374785,189.357788 L338.18295,202.893374 L327.466233,202.893374 L328.168511,198.491592 L320.116691,198.491592 L319.107165,204.835091 L328.533585,204.835091 L326.851042,215.238989 L317.43786,215.238989 L316.167766,222.952211 L324.708674,222.952211 L325.559351,217.493526 L336.585406,217.493526 L334.12325,232.594609 L299.876014,232.594609 L301.450568,222.952211 L304.699304,222.952211 L308.701178,198.491592 L305.499818,198.491592 L306.985193,189.357788 L340.374785,189.357788 Z M233.298876,189.357788 L218.806713,189.357788 L217.347116,198.491592 L220.56032,198.491592 L216.561929,222.952211 L213.363356,222.952211 L211.815974,232.594609 L229.943544,232.594609 L231.493016,222.952211 L228.282599,222.952211 L230.619348,208.378534 L242.877177,232.594609 L252.559288,232.594609 L258.106454,198.491592 L261.320355,198.491592 L262.800156,189.357788 L244.800084,189.357788 L243.334216,198.491592 L246.527215,198.491592 L244.517918,210.837206 L233.298876,189.357788 Z M170.714554,232.594609 L172.274477,222.952211 L175.480017,222.952211 L175.027159,219.381597 L163.80951,219.381597 L162.201515,222.952211 L165.446767,222.952211 L163.856886,232.594609 L145.745341,232.594609 L147.332435,222.952211 L150.508017,222.952211 L163.02293,198.491592 L159.804849,198.491592 L161.275594,189.357788 L181.962858,189.357788 L187.675143,222.952211 L190.902978,222.952211 L189.332604,232.590429 L170.714554,232.594609 Z M173.956323,210.278448 L173.05618,200.101677 L168.658578,210.278448 L173.956323,210.278448 Z M141.323353,222.955694 L145.355882,222.955694 L143.772272,232.597396 L132.983097,232.597396 L124.369035,217.186279 L123.443811,222.955694 L125.885065,222.955694 L124.300061,232.597396 L106.763297,232.597396 L108.32113,222.955694 L111.558022,222.955694 L115.532028,198.497165 L112.334151,198.497165 L113.792355,189.362665 L135.288494,189.362665 C140.253214,189.70405 145.606696,192.552877 147.122727,197.626284 C148.708427,203.036896 146.511716,208.280298 142.562095,211.88714 C140.815455,213.410138 138.959433,214.704616 136.811491,215.212514 L141.323353,222.955694 Z M136.141958,201.796064 C134.949895,198.133485 130.530695,199.110962 127.314007,199.034325 L125.771502,208.504637 C128.605699,208.377837 131.853041,209.123311 133.938976,207.209462 C135.685616,205.854371 136.42064,203.882696 136.141958,201.796064 Z M209.899339,232.574405 L211.451598,222.941063 L208.23909,222.941063 L212.239571,198.481838 L215.438144,198.481838 L216.896348,189.347337 L198.295715,189.347337 L196.808947,198.481838 L200.00752,198.481838 L196.051628,222.941063 L192.82449,222.941063 L191.269445,232.595306 L209.899339,232.574405 Z M100.420494,191.760724 L99.6924374,190.855704 C98.8981936,190.178506 97.9973539,189.729828 97.0958175,189.387746 C88.3027026,186.119503 78.3265824,188.769769 72.0715641,195.816244 C66.6581655,202.241258 64.3451046,211.316539 66.8852914,219.720892 C69.0255694,226.315903 75.9027454,231.329393 82.4420193,232.458752 C87.2332603,232.626658 92.4174428,232.066507 96.2548945,228.961292 L95.6404006,232.593912 L104.818793,232.593912 L108.769808,208.288659 L84.9508544,208.288659 L83.5344529,217.060176 L94.8419765,217.06993 C93.6582746,219.661673 90.9543621,221.864654 88.1898363,222.371855 C84.6380338,222.930613 81.2583174,221.577612 79.2824618,218.477971 C76.4106434,213.857422 77.425046,207.03668 80.4668604,202.804196 C83.2285994,199.311614 87.512639,197.957916 91.8565952,198.916582 C94.2239991,199.42448 96.6471394,201.650453 97.2100772,204.01507 L107.35689,204.01507 L109.723597,189.357788 L100.801592,189.357788 L100.409347,191.767691 L100.420494,191.760724 Z M293.554112,191.760027 L292.824662,190.855704 C292.031115,190.17781 291.130275,189.729828 290.228739,189.387746 C281.437017,186.118806 271.459504,188.769769 265.204485,195.816244 C259.79039,202.239865 257.478026,211.316539 260.019606,219.720196 C262.158491,226.3166 269.035667,231.329393 275.572851,232.458752 C280.365485,232.626658 285.550364,232.066507 289.387816,228.961292 L288.772625,232.593912 L297.949625,232.593912 L301.902729,208.288659 L278.083776,208.288659 L276.668071,217.059479 L287.974898,217.068536 C286.791196,219.660976 284.087284,221.863957 281.323454,222.371159 C277.770259,222.929916 274.389845,221.576218 272.417473,218.477274 C269.543565,213.856726 270.558664,207.035983 273.600479,202.802803 C276.362914,199.309523 280.644167,197.957219 284.98882,198.915188 C287.357617,199.423086 289.781454,201.649059 290.343695,204.014373 L300.489115,204.014373 L302.855822,189.356394 L293.934513,189.356394 L293.541572,191.765601 L293.554112,191.760027 Z M370.616662,222.94803 L374.649191,222.94803 L373.063491,232.590429 L362.275709,232.590429 L353.660951,217.177919 L352.736423,222.94803 L355.177678,222.94803 L353.591977,232.590429 L336.05591,232.590429 L337.612349,222.94803 L340.849937,222.94803 L344.82255,198.489502 L341.62537,198.489502 L343.083574,189.354304 L364.579713,189.354304 C369.544433,189.69569 374.900005,192.544517 376.416036,197.61862 C377.998253,203.029232 375.805025,208.271938 371.853314,211.880173 C370.107371,213.403171 368.250652,214.696952 366.103407,215.20485 L370.616662,222.94803 Z M365.433873,201.789097 C364.244598,198.125821 359.823307,199.102602 356.60662,199.027358 L355.065508,208.49767 C357.898311,208.370173 361.14635,209.115648 363.230892,207.201799 C364.976835,205.845314 365.713949,203.874335 365.433873,201.789097 Z M83.0530297,242.237008 L78.7202208,242.237008 L75.5975885,261.507174 L79.9297008,261.507174 L83.0530297,242.237008 Z M97.0874571,242.237008 L90.987804,242.237008 L87.8644751,261.507174 L93.9634314,261.507174 L97.0874571,242.237008 Z M69.0192991,242.237008 L66.4533342,242.237008 L63.3300053,261.50787 L65.8952735,261.50787 L69.0192991,242.237008 Z M125.159795,242.237008 L115.525061,242.237008 L112.401732,261.507174 L122.036466,261.507174 L125.159795,242.237008 Z M111.121884,242.237008 L103.256084,242.237008 L100.132755,261.507174 L107.998555,261.507174 L111.121884,242.237008 Z M204.297133,249.133691 C203.000565,249.133691 201.988252,250.257477 201.730472,251.787441 C201.39257,253.797435 202.408366,254.538033 203.413711,254.538033 C204.432991,254.538033 205.643864,253.820426 206.000577,252.050795 C206.185204,251.166677 206.093239,250.271411 205.69542,249.757242 C205.395837,249.374055 204.879579,249.133691 204.297133,249.133691 Z M327.451602,249.422127 L326.589081,249.422127 L325.757215,254.382667 L326.410724,254.382667 C327.555411,254.357586 329.141808,254.297669 329.547987,251.872439 C329.64692,251.28651 329.683148,250.700581 329.385655,250.174569 C328.930707,249.408193 328.104414,249.422127 327.451602,249.422127 Z M151.065381,249.133691 C149.768812,249.133691 148.755107,250.257477 148.498719,251.787441 C148.161514,253.797435 149.175916,254.538033 150.182655,254.538033 C151.200541,254.538033 152.411415,253.820426 152.769521,252.050795 C152.955542,251.166677 152.86288,250.271411 152.464364,249.757242 C152.164781,249.374055 151.646433,249.133691 151.065381,249.133691 Z M161.292315,249.218689 L159.474611,249.218689 L159.091423,251.501095 L160.861054,251.501095 C161.166908,251.489251 162.152049,251.46626 162.340856,250.340384 C162.521302,249.265369 161.739599,249.230533 161.292315,249.218689 Z M268.655266,249.133691 C267.358001,249.133691 266.344295,250.257477 266.088604,251.787441 C265.752096,253.797435 266.765802,254.538033 267.773237,254.538033 C268.792517,254.538033 270.002693,253.820426 270.35871,252.050795 C270.54473,251.166677 270.452068,250.271411 270.053553,249.757242 C269.755363,249.374055 269.237015,249.133691 268.655266,249.133691 Z M371.496601,242.237008 L368.355854,261.507174 L124.589194,261.507174 L127.712523,242.237008 L371.496601,242.237008 Z M145.522395,247.640652 L138.953859,247.640652 L137.538155,256.078448 L139.671466,256.078448 L140.242764,252.672256 L144.326152,252.672256 L144.600654,251.034303 L140.517266,251.034303 L140.813365,249.264672 L145.249983,249.264672 L145.522395,247.640652 Z M152.869847,247.629505 C152.37867,247.449755 151.857534,247.377994 151.347546,247.377994 C148.596258,247.377994 146.76671,249.540567 146.384916,251.824366 C145.97386,254.263531 147.168709,256.319508 149.883072,256.319508 C150.767888,256.319508 151.772536,256.11607 152.723539,255.435389 C153.795071,254.681554 154.695214,253.366175 154.939061,251.908668 C155.03451,251.334583 155.33688,248.526861 152.869847,247.629505 Z M164.10352,248.49969 C163.455584,247.66434 162.343643,247.652496 161.449073,247.641349 L157.594204,247.641349 L156.178499,256.079144 L158.322261,256.079144 L158.827372,253.067985 L160.173406,253.067985 L161.364075,256.079144 L163.727996,256.079144 L162.317865,252.707788 C162.935842,252.495293 164.181551,252.073787 164.465806,250.37731 C164.59609,249.613024 164.429578,248.944187 164.10352,248.49969 Z M176.540402,247.629505 L169.946089,247.629505 L169.666013,249.302294 L171.896166,249.302294 L170.759143,256.079144 L172.904995,256.079144 L174.042018,249.302294 L176.25963,249.302294 L176.540402,247.629505 Z M185.531381,247.640652 L183.38553,247.640652 L182.874148,250.688737 L179.748033,250.688737 L180.258717,247.640652 L178.101022,247.640652 L176.685317,256.078448 L178.843709,256.078448 L179.447056,252.481359 L182.573172,252.481359 L181.969825,256.078448 L184.115677,256.078448 L185.531381,247.640652 Z M194.633137,247.640652 L188.307055,247.640652 L186.889956,256.078448 L193.255751,256.078448 L193.53513,254.416806 L189.302646,254.416806 L189.639155,252.409599 L193.553244,252.409599 L193.823565,250.807874 L189.908083,250.807874 L190.165167,249.276516 L194.358635,249.276516 L194.633137,247.640652 Z M206.100903,247.629505 C205.610422,247.449755 205.089287,247.377994 204.579995,247.377994 C201.828707,247.377994 199.999159,249.540567 199.615972,251.824366 C199.207006,254.263531 200.399765,256.319508 203.115521,256.319508 C204.000337,256.319508 205.003592,256.11607 205.954594,255.435389 C207.026127,254.681554 207.925573,253.366175 208.170117,251.908668 C208.266959,251.334583 208.568632,248.526861 206.100903,247.629505 Z M218.013166,247.640652 L215.964853,247.640652 L215.153192,253.055444 C214.8766,252.313453 214.734472,251.930265 214.256532,250.748654 L212.923039,247.640652 L210.82526,247.640652 L209.409555,256.078448 L211.457868,256.078448 L212.28834,250.771645 C212.681979,251.89543 212.782304,252.158088 213.347332,253.413551 L214.499682,256.078448 L216.596068,256.078448 L218.013166,247.640652 Z M227.114225,247.640652 L220.788839,247.640652 L219.372438,256.078448 L225.738232,256.078448 L226.016914,254.416806 L221.784431,254.416806 L222.121636,252.409599 L226.037119,252.409599 L226.30535,250.807874 L222.390564,250.807874 L222.647648,249.276516 L226.839723,249.276516 L227.114225,247.640652 Z M231.231752,249.982975 C231.300029,249.576796 231.804443,249.098856 232.65303,249.098856 C233.19646,249.098856 233.709235,249.302294 233.983737,249.4702 C234.290984,249.6604 234.494422,249.888223 234.718761,250.151577 L236.478638,249.038939 C235.8523,248.381946 234.9431,247.435821 232.966548,247.435821 C231.488836,247.435821 229.415442,248.081667 229.051762,250.257477 C228.745908,252.073787 230.467466,252.445131 230.970487,252.55312 C231.413592,252.649962 231.876204,252.707788 232.34021,252.769795 C232.9554,252.85131 233.798413,252.959299 233.686244,253.628832 C233.587312,254.214761 232.795158,254.609097 231.945875,254.609097 C231.450517,254.609097 230.886186,254.502501 230.365747,254.202917 C229.98047,253.976488 229.829981,253.782804 229.652321,253.545228 L227.857609,254.561024 C228.286779,255.172034 229.062909,256.270041 231.473509,256.270041 C232.673235,256.270041 233.951689,256.019228 234.876216,255.135109 C235.411286,254.620941 235.751975,253.951407 235.85648,253.342487 C236.014632,252.387304 235.643289,251.632772 234.722941,251.274666 C234.266599,251.10676 233.080807,250.880331 232.189025,250.771645 C231.833008,250.723572 231.120976,250.62882 231.231752,249.982975 Z M253.587625,247.640652 L251.463371,247.640652 C251.14219,248.487846 250.802198,249.350367 250.477533,250.210797 C249.800336,251.930265 249.69165,252.218005 249.15449,253.890794 C249.162851,252.254233 249.123835,251.991576 248.922488,250.365466 C248.796384,249.458356 248.694665,248.549852 248.593643,247.640652 L246.702088,247.640652 L245.560885,250.245633 C244.833525,251.918421 244.694184,252.243086 244.096411,253.914482 C244.148664,252.087024 244.125673,251.64392 243.878343,247.640652 L241.742942,247.640652 L242.496776,256.078448 L244.703938,256.078448 L246.005383,253.233801 C246.759218,251.620928 246.798234,251.535234 247.192569,250.496446 C247.246912,251.680148 247.262239,251.740065 247.461497,253.295807 C247.587601,254.214065 247.683746,255.146256 247.793825,256.078448 L250.00029,256.078448 L253.587625,247.640652 Z M262.470615,247.640652 L260.32546,247.640652 L259.815472,250.688737 L256.685872,250.688737 L257.198647,247.640652 L255.041648,247.640652 L253.62455,256.078448 L255.782943,256.078448 L256.384199,252.481359 L259.513102,252.481359 L258.909755,256.078448 L261.05491,256.078448 L262.470615,247.640652 Z M270.459035,247.629505 C269.967858,247.449755 269.446026,247.377994 268.938825,247.377994 C266.18684,247.377994 264.355202,249.540567 263.974104,251.824366 C263.563745,254.263531 264.757201,256.319508 267.472261,256.319508 C268.357773,256.319508 269.360331,256.11607 270.311334,255.435389 C271.382866,254.681554 272.284403,253.366175 272.528249,251.908668 C272.625788,251.334583 272.926765,248.526861 270.459035,247.629505 Z M280.179465,251.812522 C280.415648,250.403088 281.258661,249.075865 282.881287,249.075865 C284.070563,249.075865 284.441906,249.817159 284.668336,250.271411 L286.454687,249.302294 C286.139777,248.789519 285.278649,247.354306 283.012268,247.354306 C280.57798,247.354306 278.492742,249.158773 278.0364,251.871742 C277.618377,254.356889 278.763063,256.269345 281.152065,256.269345 C282.596335,256.269345 283.432381,255.612352 283.83856,255.289081 L283.706883,256.078448 L285.377581,256.078448 L286.164858,251.392409 L282.443756,251.392409 L282.174828,252.993437 L284.089374,252.993437 C283.954213,253.438632 283.807208,253.890794 283.187837,254.25099 C282.799076,254.476723 282.346914,254.572171 281.957456,254.572171 C281.30325,254.572171 280.76609,254.308817 280.497162,253.964644 C280.156473,253.545228 280.021313,252.769795 280.179465,251.812522 Z M295.619146,247.640652 L289.293064,247.640652 L287.877359,256.078448 L294.243154,256.078448 L294.521139,254.416806 L290.287262,254.416806 L290.623771,252.409599 L294.53995,252.409599 L294.808878,250.807874 L290.894789,250.807874 L291.149783,249.276516 L295.343251,249.276516 L295.619146,247.640652 Z M303.585272,247.629505 L296.990262,247.629505 L296.708096,249.302294 L298.939643,249.302294 L297.80262,256.079144 L299.947078,256.079144 L301.084101,249.302294 L303.303107,249.302294 L303.585272,247.629505 Z M311.157063,247.640652 L309.023752,247.640652 L307.608047,256.078448 L309.739965,256.078448 L311.157063,247.640652 Z M319.291792,247.629505 L312.698175,247.629505 L312.416009,249.302294 L314.648252,249.302294 L313.510533,256.079144 L315.653598,256.079144 L316.792711,249.302294 L319.01102,249.302294 L319.291792,247.629505 Z M331.002011,248.63276 C330.06982,247.675487 328.499446,247.652496 327.459266,247.640652 L324.732362,247.640652 L323.314567,256.078448 L326.685923,256.078448 C327.583279,256.066604 329.982035,256.018531 331.203359,253.413551 C331.373355,253.055444 331.572612,252.518285 331.694536,251.786744 C331.893793,250.603739 331.752362,249.422127 331.002011,248.63276 Z M339.907992,247.629505 C339.416815,247.449755 338.894983,247.377994 338.386388,247.377994 C335.635796,247.377994 333.806249,249.540567 333.423061,251.824366 C333.013399,254.263531 334.208944,256.319508 336.922611,256.319508 C337.806033,256.319508 338.812075,256.11607 339.760987,255.435389 C340.83252,254.681554 341.731966,253.366175 341.977903,251.908668 C342.071958,251.334583 342.374328,248.526861 339.907992,247.629505 Z M351.820256,247.640652 L349.770549,247.640652 L348.960281,253.055444 C348.683689,252.313453 348.544348,251.930265 348.060835,250.748654 L346.730128,247.640652 L344.633743,247.640652 L343.218038,256.078448 L345.264958,256.078448 L346.096127,250.771645 C346.488372,251.89543 346.591484,252.158088 347.155815,253.413551 L348.308165,256.078448 L350.404551,256.078448 L351.820256,247.640652 Z M360.921314,247.640652 L354.595232,247.640652 L353.178134,256.078448 L359.544625,256.078448 L359.823307,254.416806 L355.59152,254.416806 L355.928029,252.409599 L359.842118,252.409599 L360.113136,250.807874 L356.196957,250.807874 L356.454041,249.276516 L360.647509,249.276516 L360.921314,247.640652 Z M338.103526,249.133691 C336.808351,249.133691 335.793949,250.257477 335.536864,251.787441 C335.198962,253.797435 336.216152,254.538033 337.221497,254.538033 C338.238687,254.538033 339.44956,253.820426 339.809757,252.050795 C339.991597,251.166677 339.900328,250.271411 339.50251,249.757242 C339.20223,249.374055 338.685971,249.133691 338.103526,249.133691 Z M386.029172,227.940619 C386.041016,225.637312 384.241427,223.733914 381.845458,223.733914 C379.464817,223.733914 377.627606,225.623378 377.627606,227.928775 C377.627606,230.282942 379.51498,232.122243 381.820377,232.122243 C384.191961,232.122243 386.015935,230.273188 386.029172,227.940619 Z M381.743043,225.029089 C382.416756,225.029089 382.737938,225.029089 383.089774,225.156586 C383.673612,225.389982 383.971802,225.922264 383.971802,226.464301 C383.971802,227.266905 383.387963,227.735091 382.676627,227.849351 C383.298785,228.083444 383.490379,228.419256 383.608819,229.119444 C383.738406,229.961064 383.774635,230.271794 384.035899,230.78875 L383.064692,230.78875 C382.933712,230.531665 382.884942,230.272491 382.830599,230.000079 C382.805518,229.870492 382.714946,229.224647 382.689168,229.081125 C382.521262,228.226268 382.053076,228.122459 381.225391,228.109918 L380.810851,228.109918 L380.810851,230.78875 L379.972018,230.78875 L379.972018,225.028392 L381.743043,225.028392 L381.743043,225.029089 Z M380.824089,227.434115 L381.793205,227.434115 C382.156885,227.434115 383.116248,227.448745 383.116248,226.530488 C383.116248,226.269224 383.011743,226.037221 382.84523,225.894396 C382.59581,225.674237 382.310857,225.674237 381.612759,225.674237 L380.823392,225.674237 L380.823392,227.434128 L380.824089,227.434115 Z M381.808533,232.539569 C379.412564,232.539569 377.210279,230.659859 377.210279,227.928775 C377.210279,225.272935 379.335927,223.319374 381.820377,223.319374 C384.487364,223.319374 386.454162,225.428997 386.443015,227.955947 C386.429081,230.505191 384.423964,232.539569 381.808533,232.539569 Z" id="Shape" fill="#DADADA" fill-rule="nonzero"></path>
        <rect id="Rectangle" fill-opacity="0" fill="#FFFFFF" x="0" y="0" width="450" height="450"></rect>
    </g>
</svg>