<svg height="151" viewBox="0 0 118 151" width="118" xmlns="http://www.w3.org/2000/svg"><path d="m160.070482 116.919214c11.964382 0 21.662951-9.698568 21.662951-21.66295 0-11.9652347-9.698569-21.6697725-21.662951-21.6697725-11.962676 0-21.667214 9.7045378-21.667214 21.6697725 0 11.964382 9.704538 21.66295 21.667214 21.66295zm36.759562-21.6390724c0 .6429896-.017056 1.2808625-.045197 1.9195883-.003411.0025583-.003411.0076749-.003411.0093805-.07675 1.428392-.231954 2.8397286-.464761 4.2237766-.001705.001705-.001705.006822-.001705.007675-.22769 1.352495-.531277 2.685377-.942313 4.056633l.02132-.001706c-.010234.024731-.017908.050314-.023025.077603-.372661 1.286832-.817808 2.548933-1.324354 3.774366-.50143 1.221168-1.071081 2.409079-1.697015 3.565437-.614848 1.124805-1.28939 2.221469-2.011688 3.275494-.005116 0-.005116.003411-.006822.00597-.700125 1.022473-1.45568 2.002307-2.256433 2.947177-.001705 0-.003411.004264-.005969.004264-.770053.913318-1.584449 1.787409-2.437221 2.618008-.001705.002559-.006822.005117-.006822.00597-.823777.802458-1.685929 1.563982-2.576222 2.28628-.003411.001705-.005117.004264-.010233.004264-.852772.694155-1.742212 1.348231-2.659794 1.95711-.001706.004264-.003411.004264-.006822.006822-.875796.586707-1.77547 1.136744-2.704991 1.647554-.001705 0-.003411.002558-.003411.005117-.882618.482668-1.783145.937195-2.711813 1.355053-.003411 0-.005116.004264-.006822.004264-.874943.391422-1.772059.750439-2.684524 1.076198-.001706.002558-.004264.005116-.006822.005116-.864711.305293-1.743918.584149-2.64018.828894l-.001706.002558c-.847655.228543-1.703837.431503-2.573664.604615h-.006822c-.817808.161174-1.645849.29847-2.484123.404214-.001706.002558-.004264.002558-.00938.002558-.791372.100627-1.591272.173113-2.401405.220015-.001705 0-.003411 0-.003411.001706-.751291.048608-1.510258.071633-2.275194.071633h-.031552-.004264c-.746175-.001706-1.481264-.025584-2.214647-.071633h-.006822c-.712064-.04008-1.416454-.103186-2.121695-.190168 0 .001705-.001706 0-.004264 0-.682217-.079308-1.360171-.178229-2.034713-.295059h-.003411c-.657486-.117683-1.305593-.249009-1.949435-.398244-.002558-.002559-.002558-.002559-.005117-.002559-.629345-.147529-1.253574-.308703-1.87098-.488638h-.006822c-.606321-.174818-1.205819-.368397-1.799348-.573915h-.004264c-.585853-.202959-1.16318-.41871-1.735389-.650664h-.004264c-.565387-.229396-1.1231-.469877-1.67399-.726561l-.002559-.001706c-.548332-.251568-1.088989-.518485-1.620265-.7999-.004264.002559-.004264.002559-.004264-.001705-.530424-.278856-1.054025-.56624-1.568246-.869827-.002559 0-.002559 0-.003412-.002558-.516779-.300176-1.024178-.618259-1.525607-.945724 0 0-.002559-.001705-.002559 0-.506546-.330022-.996037-.671131-1.481264-1.024178-.001705-.001705-.004263-.001705-.004263-.001705-.489491-.357312-.973013-.726562-1.442037-1.100928-.002558-.002559-.002558-.005117-.004264-.005117-.477552-.383747-.946576-.781138-1.405367-1.191321l-.001705-.002559c-.469025-.414447-.926963-.843391-1.371257-1.280862v-.003411c-.458791-.449411-.903937-.909907-1.33544-1.379784 0-.002559-.002558-.002559-.002558-.002559-.444294-.486079-.876649-.978128-1.294507-1.489791-.001705 0-.004264-.001706-.004264-.001706-.430649-.522749-.842538-1.057436-1.244193-1.60321-.005117-.002558-.002558-.005117-.005117-.005117-.413594-.56624-.815249-1.143566-1.198996-1.732831 0-.000853-.002558-.000853-.002558-.000853-.397392-.608878-.776022-1.231402-1.139303-1.869274-.001706 0-.004264-.001706-.004264-.004264-.373514-.660045-.728267-1.332029-1.065964-2.009982 0 0 0-.002559-.002558-.005117-.348784-.710359-.671131-1.435214-.977276-2.166892 0-.002558 0-.002558-.002559-.005117-.316378-.766641-.608026-1.540957-.870679-2.332329 0-.002559-.002558-.005117-.002558-.005117-.277151-.816955-.521897-1.652671-.741059-2.494356 0-.002558-.002558-.005117-.002558-.006822-.221721-.871533-.418711-1.763531-.579885-2.662352-.001705-.002559-.001705-.004264-.004263-.006822-.163733-.930374-.296765-1.8718336-.394834-2.8243792v-.0093805c-.099774-.9823925-.156057-1.9767239-.174818-2.9821413v-.0068222c-.006822-.2438926-.00938-.4911963-.00938-.7359417-.002558-.8050161.025583-1.6015045.076749-2.390318 0-.0025584 0-.0042639.002559-.0068222.07078-1.0958112.187609-2.1805363.349636-3.2516171 0 0 .002558-.0042639.002558-.0068222.173113-1.129922.401655-2.2419359.673689-3.3334832 0-.0025583.001706-.0068221.001706-.0093805.288237-1.1512413.632756-2.2794577 1.028442-3.3846494 0-.0042639.002559-.0068222.002559-.0093805.411888-1.1563579.879207-2.2879855 1.401103-3.3897661 0-.0025583.002558-.0051166.005117-.0068221.541509-1.1469775 1.143566-2.2624024 1.796789-3.3394526 0-.0051166.001705-.0051166.004264-.0068222.6771-1.118836 1.413894-2.1950334 2.205266-3.229445.001706-.0051167.004264-.0059694.006822-.0102333.814397-1.0676697 1.682518-2.088437 2.60607-3.0631546.002558-.0025584.004264-.0068222.006822-.0093805.948282-.9943314 1.953699-1.9374965 3.004313-2.8235259.002559-.0042639.004264-.0042639.009381-.007675 1.074492-.9073487 2.20015-1.7515923 3.376121-2.5344364.002559 0 .00597-.0025583.008528-.0059694 1.193027-.790519 2.436368-1.5170802 3.719789-2.1677447.001705-.0008528.005116-.0059694.010233-.007675 1.29536-.6540756 2.635916-1.2416351 4.018259-1.7447701.001705-.0025584.006822-.0025584.008527-.0025584 1.38149-.5065461 2.803912-.9312263 4.25874-1.2689237.001706 0 .006823-.0025583.011086-.0025583 1.446301-.3351392 2.928417-.589265 4.431-.7453222.006822-.0025583.011939-.0025583.016203-.0025583 1.288537-.1355906 2.6001-.208929 3.926159-.208929.206371 0 .408478.0051167.613143.0093805h.011939c1.546927.0247304 3.069124.1475295 4.564885.3539001.005116.0025583.010233.0025583.011938.0025583 1.537547.2208678 3.040983.5312766 4.515425.9320791.001705.0025583.006822.0025583.008527.0034111 1.501731.4093302 2.965086.909907 4.382392 1.4983192.001706.0017056.006822.0034111.008528.0034111 1.436067.5943816 2.82779 1.2774515 4.162377 2.0423874.005117.0017055.010233.0017055.011939.0042638 1.347378.768347 2.645296 1.6228239 3.878404 2.5480808.004264.0017055.005969.0034111.00938.0068222 1.234813.9261096 2.409932 1.9340854 3.519388 3.00943 0 .0025583.005116.0042639.006822.0059694 1.10775 1.0702281 2.143867 2.2112361 3.110057 3.4119382.000853.0025583.005969.0051166.007675.0085277.957662 1.189616 1.845397 2.4406315 2.647855 3.7470772.003411.0017056.005116.0051167.00938.0093805.795636 1.2859792 1.512817 2.6265358 2.15069 4.0148475 0 .0034111.001705.0051166.003411.0085277.624228 1.3593175 1.165738 2.7655375 1.625382 4.2109849v.0085277c.448558 1.4104838.80928 2.8559312 1.085578 4.3320784 0 .0025583.003411.0042639.003411.0068222.265212 1.4300975.447705 2.886631.548332 4.3678948v.0119388c.045197.7964884.075044 1.6006518.075044 2.4099318zm19.73057 18.9861014c0-6.022272-3.250764-10.454977-8.954099-12.374565.078455.2925.121946.598645.121946.903937 0 .644696-.183345 1.281716-.538098 1.742212-.536394.681365-1.385754.86471-2.333183.49546l-.341108-.136443.115124-.339403c.46476-1.401103-.296765-1.825783-2.048357-2.642738-.144971-.07078-.293353-.138149-.438324-.208929-.389717 1.337998-.835716 2.658088-1.343968 3.962828-.295912 1.129922-.644695 2.237672-1.024178 3.331778.201254.273739.34793.655781.333433 1.174266-.0307 1.002859-.765788 1.598093-1.61856 2.293102-.052872.04605-.111713.09551-.171407.144971-.80928 1.758415-1.731978 3.45543-2.768096 5.078253-.010233.144972-.018761.28312-.02473.434914 0 0-.04008 1.285126-.043491 1.285126.028141.226837.737647 5.490995 7.436166 7.3236 6.704488 1.839428 11.116727-3.815299 11.14828-3.85282 1.575921-2.33233 2.392023-4.971657 2.488386-8.082567.004264-.179935.004264-.357311.004264-.532982zm-16.935186-18.9903653c0-21.9332788-17.845093-39.7758136-39.776666-39.7758136-21.934132 0-39.778372 17.8425348-39.778372 39.7758136 0 21.9307203 17.84424 39.7732553 39.778372 39.7732553 21.931573 0 39.776666-17.842535 39.776666-39.7732553zm-79.594266-13.4925481c1.713218-5.1081003 4.370453-9.7872567 7.772158-13.8148957-.352194-.3820416-.735089-.7137696-1.17256-.9738649-1.187058-.7163279-2.641033-.9056432-4.091597-.5449209-1.003712.2507148-1.776323.7666415-2.189917 1.4625029-.330022.5423625-.413594 1.1810883-.249009 1.8522193.127063.5014296.408477.8621518.82463 1.0275895.537246.2276899 1.244193.1253574 1.888888-.2626536l.711211-.4315023.206371.8075745c.435766 1.7473285-.481816 3.2217701-2.276899 3.6728861-2.076499.5218961-4.631401-.5807372-5.315324-3.3147222-.643842-2.5668417 1.042086-6.0316516 4.484724-6.8920979 3.63707-.9090543 6.526259-.1449712 8.472284 2.1336339 7.703083-8.3102567 18.705539-13.5241007 30.895053-13.5241007 11.16704 0 21.317577 4.3687476 28.865457 11.4808605-.026436-.1637321-.052019-.3283169-.052019-.4886379 0-.5363932.162879-1.0676698.470729-1.5383995.259243-.3931276.623376-.6898921 1.031001-.9278153-1.46165-1.7243036-2.942061-2.420165-4.14788-2.9429139-.683923-.2933533-1.275746-.5491847-1.737095-.9823925-1.001154-1.0864307-1.190469-1.827489-1.190469-2.5020312 0-.1168296.010233-.2353648.017908-.3530473.003411-.0605468.006822-.1210935.006822-.1748181 0-.3240531-.14156-.5619763-1.167444-1.1256582-5.513166-3.3991465-11.507296-3.8596431-14.577273-1.1171304l-.417858.3769249-.40933-.3871582c-1.013092-.9380485-1.545222-2.0858787-1.545222-3.3283665 0-.0520191 0-.1040381.005117-.1586155.038375-1.1009278.503988-2.1600698 1.280863-3.0350132-7.854025-4.0191113-17.422119-4.9435155-27.107896-2.5233504-13.110506 3.2754947-23.348026 9.6951574-28.102227 17.6182559-2.583044 4.3099063-3.381238 8.8824663-2.293954 13.2230724.667719 2.6674687 2.282016 4.8838215 4.552093 6.2422862 1.914472 1.1520941 4.154702 1.6381737 6.558664 1.4463002zm71.017945-15.1119609c2.809029 3.0640074 5.172911 6.5518422 6.991872 10.341558.800752-.2737396 1.585302-.5867067 2.331477-.9414595-.431503-1.5546022-1.049762-3.3036362-1.923852-5.0577869-.704389-.2345121-.866416-.9644843-.896263-1.6177072-.854477-1.409631-1.888889-2.7740652-3.149285-3.9884116-.384599.5867067-1.022472 1.0472033-1.860747 1.2595433-.51081.1287685-1.018209.1125658-1.493202.0042639zm9.197139 15.0104811c.28312-.6540756.642989-1.1844994 1.036117-1.6015046-.167996-.9082015-.364986-1.8172557-.585001-2.729721-.68307.3189364-1.39087.600351-2.118284.8587407.556007 1.268071 1.055731 2.5651362 1.485527 3.8886373zm-.084425.6967142c.379484 1.1938799.696714 2.4073735.973012 3.6481558.391422-.5236016.688187-1.0156507.764936-1.5085525-.052019-.5696513-.114271-1.1350387-.185051-1.6995733-.087836-.238776-.204665-.4408828-.354753-.5543014-.107449-.0835716-.284826-.1748181-.648106-.0622523zm-.521896-14.8910932c-.01535.5628291.12621.9670427.253273 1.3235012.103186.2890894.193579.5577124.190168.8561824-.003411.0315525-.013644.0733383-.018761.1100075.756409 1.7754699 1.384048 3.6029589 1.905092 5.4543255 3.021368-1.7703533 5.516577-4.2485068 7.374766-7.3747666-1.414748-.3001755-2.94803.037522-3.399147 1.3175318l-.214898.6216703-.434913-.4954602c-.75982-.857888-1.166591-1.9383492-1.166591-3.0009023 0-.5133684.097215-1.0216201.295911-1.5008776.269476-.6626033.719739-1.1631801 1.277452-1.510258-.213193-.037522-.447705-.0827189-.447705-.0827189-1.865864-.0596939-3.301078.36925-4.285176 1.2928014-.94146.8834711-1.307299 2.1268117-1.329471 2.9889635zm7.544468-5.4142452c.087836-1.2885375.727414-2.0321541 1.325207-2.4235761 1.228843-.8109856 2.967644-.7180335 3.937245-.1594683 0 0 .113419.0682217.234512.1330323.351342-1.730273.577327-3.5449704.632757-5.4364172.011938-.257537.017908-.5176322.017908-.7768747 0-9.8767977-5.910558-16.9138668-14.56704-17.2097784-4.677451-.1637321-9.551039 3.1407568-10.645145 7.2101816-.008528.0264359-.26777 1.2237269-.286531 1.2885375-.003411.1125658-.033258 1.3115623-.033258 1.3115623-.008528.1304741-.008528.2609481-.008528.3914221 0 5.8713307 4.219513 9.632905 8.236919 9.7744651 3.010282.1023326 4.264709-1.2552794 5.229193-2.4372205-.103185-.220015-.155204-.447705-.155204-.7222973 0-.0997743.005969-.2080762.007675-.328317.089541-2.8371702.965337-5.5140195 2.188211-6.6558803.463055-.4315023.96619-.6446951 1.483822-.6276397.538099.0204665.861299.7828441.861299 1.2032604v.0196137c-.019613.6284925-.463054 1.1034861-.971306 1.6526709-.613995.660045-1.403662 1.5094052-1.798495 2.9940801.222573-.1475294.464761-.249862.716328-.2404815.947429.0324053 1.36614.4579382 1.36614 1.4045144 0 .0349636-.003411.0741911-.003411.1100075-.038375 1.3132679-.770906 2.4312511-2.053474 3.2848752.875796 2.6239774 2.658941 4.8846742 4.285176 6.2397279zm4.637371.708653c.295059-.8843239.55089-1.7993475.759819-2.7408071-.01535.0127916-.054577.0579885-.054577.0579885-.68307.6745421-.704389 1.3524953-.730825 2.1396032-.001706.0997743-.006823.1961375-.006823.2865312-.000852.0920993.026436.1697015.032406.2566842zm-1.230549 5.6137937c-1.976724 3.4068215-4.814747 6.1757701-8.265913 8.1200887.205518.8450964.393128 1.6833706.561124 2.5182338.978981-.3351391 2.033859-.2524203 2.954852.1245046 1.314121.5534486 2.438074 1.8053169 2.438074 3.2746419 0 .089541-.041786.1816403-.052872.2728869 3.611486-1.9605213 5.376723-4.5904681 5.486731-8.2454461 0-.1031853.005116-.2029596.005116-.29847 0-1.1171304-.197843-2.0764982-.631051-3.0733879 0 0-.204665-.4775519-.204665-.4894907-.7078-1.0582893-1.585302-1.756709-2.291396-2.2035612zm7.508651 45.9191787c0 .174818-.005969.352194-.011938.53554-.104891 3.365036-1.19388 6.402607-3.421319 9.54507l-.080161.118535s-.189315.04605-.208076.050313c-.003411.35987-.075044.77517-.370102.871533-.017909.005116-.074192.011939-.146677.010233-2.441484 2.55405-5.815901 4.032756-9.112715 3.913368-4.493252-.150941-8.653923-2.882367-10.34838-6.782091l-.017908-.035816-.532982-2.363882c-7.680059 10.358613-19.998341 17.082715-33.859286 17.082715-23.230344 0-42.139696-18.900824-42.139696-42.1405484 0-4.0148475.580737-7.9000737 1.633057-11.5831931-2.515675.0886882-4.865913-.4766992-6.920239-1.7055427-2.682819-1.6168545-4.586205-4.2109849-5.363079-7.302281-.335139-1.3397038-.502283-2.7084018-.502283-4.0898913 0-3.7283163 1.229697-7.5461736 3.567996-11.18836-2.609481 1.230549-4.774667.9772759-5.991572.5884122-1.57251-.5048406-2.799648-1.5341356-3.054627-2.5608723-.22172-.8749434-.317231-2.0969648 1.398545-2.5233504.493755-.1236519.926963-.0801605 1.282568.1347378.395686.2353649.662604.6506646.81525 1.2535739.018761.0861299.02473.1620266.02473.2370704 0 .4946074-.408477.8212188-.641284 1.0113869 0 0-.047755.0451968-.096363.0835715.214046.2549787.805016.7743164 1.906797.9704538 1.598093.2856784 4.297967-.152646 8.054425-3.8818151 6.574867-6.1254565 14.871479-10.4720321 24.667264-12.9211914 18.937493-4.7320281 32.942557.2925006 41.363674 5.3426125 7.795182 4.6757452 14.098868 11.3196868 18.227987 18.9869539.438324-.9533984 1.074492-1.8155502 1.868422-2.4883868.959368-.8186605 2.580486-1.6876345 4.959718-1.6245294-1.393428-1.4224226-2.435515-3.2038619-3.102382-5.3357903-1.490644.8425381-3.384649 1.3235011-5.206169 1.2612488-5.734887-.1944318-10.417455-5.6078243-10.231551-11.8057664l.0614-1.9315271.006822-.0332581s.29847-1.3397037.305292-1.368698c1.503436-4.8335079 7.378178-7.9086014 11.919185-7.753397 9.255128.3189365 15.80697 8.070628 15.80697 18.5528933 0 .2618008 0 .5244544-.014497.7862552-.11683 3.796538-.728267 7.1914207-1.803612 10.1019293.737648.8254826 1.674843 1.9264104 2.343416 3.4852764 0 0 .484374.8297465.498018.8433909.75385 1.439478 1.149536 3.2874335 1.149536 5.377576 0 .1731126-.003411.3479308-.010233.5270127-.175671 5.8082256-2.183947 8.0791557-5.965136 11.1858017 1.108603.0758967 2.459393.4946074 3.49551 1.2834209 1.135892.8587407 1.727715 1.998896 1.727715 3.3027834 0 .0417858 0 .0912465-.004264.1321795-.057988 2.0509151-.846802 2.957411-1.494055 3.3573608-.719739.4459994-1.521344.4485577-2.184801.2831201-.059694.4383244-.256684.88006-.597792 1.1776772-.489491.417858-1.134186.4903435-1.766942.1952846l-.197843-.0912465-.024731-.208929c-.29847-2.3638821-2.383496-3.3454219-4.195635-3.2627031-.59097.0289942-1.221168.1782292-1.79082.4639076-.133032 1.8888885-.373513 3.74793-.728266 5.5720079.554301.268623 1.187057.2319538 1.621971-.1023325.54151-.4170052.721444-1.2211686.492902-2.2615496l-.124505-.567093.567946.1108603c1.209229.2276899 2.403109 1.5520438 2.648708 2.9616749.032405.1841986.048607.3683972.048607.5449209 0 .730825-.281414 1.3874592-.822924 1.9008272 6.592775 1.828342 10.620414 6.996136 10.620414 13.770552zm-17.928664 27.841278c-.820366.435767-1.241635 1.069376-1.222874 1.822373.011938.349636.044344.629345.045197.639578 0-.007675.048608 1.468472.048608 1.468472 0-.001705.017055 1.8923.017055 1.8923v3.728316l-.017055 1.897417-.007675.317231-.001706.121093h.031553v1.577627l-.013645 2.316127c0-.002558-.042638 1.803611-.042638 1.803611 0-.001705-.03667.770906-.03667.770906 0 .016202-.111713 1.900827-.195284 2.549786-.007675.069074.02473.129621.08613.173113.238776.163732 1.104339.037522 1.859894-.370956.964484-.524454 1.487233-1.357612 1.463356-2.351091-.007675-.42468-.043492-.775169-.045197-.77858.001705.007675-.046903-1.798495-.046903-1.795936l-.017908-2.316127v-1.577627h.017908l-.001705-.121094-.009381-.317231c0 .001706-.006822-1.125658-.006822-1.125658v-.109155-.115976h-.001705l-.003411-.545774v-3.729169c0 .001705.011938-1.8923.011938-1.8923 0 .001706.046903-1.474441.046903-1.474441 0 .003411.034111-.629346.034111-.629346.001705-.011938.114271-1.551191.193579-2.081614.011938-.060547-.017056-.121947-.071633-.161174-.223426-.158616-1.282568-.032406-2.11402.415299zm-3.414497 20.965384c-.11086-1.195586-.407624-6.13569-.416152-7.747428-.010233-.000853-.018761-.005969-.027289-.007675.042639-2.481564-.665161-4.546124-2.056884-5.97281-1.222022-1.251869-2.940356-1.940908-4.835214-1.940908-4.527363 0-8.074892 3.275495-7.958915 7.962326.128769 5.114923 2.611186 7.929068 6.991873 7.929068 1.575068 0 2.848256-.776875 3.604664-1.552897 0 0 .559418-.671131.159468-1.063405-.137296-.131327-.591823-.287384-1.043792.082718-.597793.487786-1.710659.932932-2.658088.932932-.884324 0-1.613444-.395686-2.149837-.946576-.932079-.952545-1.370403-2.744218-1.30474-5.322999.098922-4.136793 2.019363-6.50835 4.450614-6.50835.870679 0 1.55716.272034 2.108903.833157 1.025031 1.054878 1.511964 3.12029 1.43692 6.136543l-.001706.067369c.011939-.006823.025584-.009381.038375-.01535-.026436 1.353348-.073338 3.249059-.121946 4.44038-.034964 1.873539 3.857085 3.479307 3.783746 2.693905zm-72.824114-.295059-.183346-3.887785-.081866-4.006319v-1.09837c.277151-.007675.829747-.020466.829747-.020466l1.293654-.029847.643842-.00597 1.703837-.012791 3.272084.018761s2.395435.046049 2.785151.054577v1.094958l-.083571 4.00632-.069928 1.444595h.006823c-.052872.918434-.115125 1.876949-.170555 2.706696-.077602 1.108603.117683 1.667168.317231 1.973313.515074.796488 3.354803-.892852 3.330072-2.767243-.054577-1.53243-.195284-4.493252-.249009-5.821017l-.033258-1.542664v-3.693352h.006822v-1.204966h-.01535v-.411889l.083572-1.436919.089541-1.597241.089541-1.494056.00938-.271181-1.025031.144118-.83401.043492-.7078-.043492-.758114-.105743-.271181-.04008.103185 1.765236.088688 1.59383.085277 2.894306v.164585h.007675v.690744c-.380336.00597-2.785151.047756-2.785151.047756-.001705 0-3.272084.025583-3.272084.025583l-1.714923-.013645-.631051-.011938s-1.82493-.039228-2.124253-.045197v-.858741l.081866-2.894306.092952-1.59383.106597-1.765236-.279709.04008-.781139.105744-.724856.043491-.861299-.043491-1.054025-.144119.013644.271182.091247 1.494055.089541 1.597241.085277 1.436919v5.310208l-.085277 4.003761-.11683 4.023375 1.83687.027289 1.768647.088688v-.249009zm48.913259 15.526408.048608-2.556609.056283-2.786857c0-1.109455-.160321-2.041534-.474141-2.771506-.31382-.727414-.732531-1.317532-1.239077-1.749034-.503135-.426386-1.072786-.733384-1.700426-.906496-.602057-.173966-1.21861-.260948-1.827489-.260948-1.162327 0-2.181389.257537-3.032455.77261-.25839.156058-.503135.339403-.739353.542363-.802458.706095-.457085 2.352796.133885 1.760973.64299-.643843 1.572511-.98154 2.79709-.98154.994332 0 1.755857.362428 2.323802 1.115425.57221.761525.862152 1.911913.862152 3.425582v1.912767l-.053724 2.367293h-.007675c.002558 1.003712.007675 2.368999.007675 2.368999 0 3.179984 3.079357 2.59413 3.079357 2.59413-.106597-.893704-.173113-1.866716-.207224-2.884073zm-9.931375 1.606621-.052872-2.959969v-2.664911c0-.158615.021319-.297617.028994-.448558 0 0-.005969-3.401704-.007675-3.401704 0-3.179985-3.046952-2.594131-3.046952-2.594131.105744.891146.17226 1.865864.20296 2.886631l.047755 2.958264v3.264409l-.047755 2.959969c-.0307 1.02162-.097216 1.958816-.20296 2.787709l-.032405.270329 1.672284-.092952 1.662052.092952-.022172-.270329c-.105744-.824629-.173113-1.765236-.201254-2.787709zm13.040579-19.861897c.394833-.62764.7078-1.383196.931226-2.254728.224279-.87409.338551-1.867569.338551-2.948883 0-.931226-.120241-1.764384-.347931-2.480712-.23366-.712917-.538952-1.317532-.907349-1.796789-.367544-.47073-.793077-.832305-1.270629-1.074492-.477552-.246451-.975571-.372661-1.480411-.372661-.616554 0-1.215199.117682-1.780587.346225-.555154.224279-1.045497.601204-1.459092 1.121394-.420416.524455-.75726 1.227991-1.013092 2.082468-.254126.863857-.381189 1.943466-.381189 3.208979 0 4.079658 1.424981 6.066615 4.352545 6.066615.599498 0 1.160622-.159468 1.666315-.480963.506547-.322348.964485-.801605 1.351643-1.416453zm.02473 2.668321c-.897115.398244-1.869274.602057-2.896864.602057-4.187107 0-7.313367-2.434662-7.313367-2.434662l.080161-2.266667.052871-2.456834.017909-2.319538v-5.666666c0-1.958815-.043492-1.4463-.106597-3.376974-.023025-1.873539 3.353097-3.602106 3.281464-2.813293-.104038 1.235666-.367544 4.058339-.367544 5.646199 0 1.588713-.034111 1.70469-.052872 2.54467.633609-.883471 1.318385-1.569952 2.054326-2.023626.888588-.543216 1.928116-.817808 3.097266-.817808 1.118836 0 2.106345.215751 2.926711.636167.821219.422975 1.513669.984098 2.051768 1.678254.538951.68904.949134 1.503436 1.216052 2.411638.266917.906496.401655 1.873538.401655 2.872134 0 1.236518-.191873 2.378379-.560271 3.405968-.376072 1.028443-.896262 1.921294-1.545221 2.660647-.656634.741911-1.440331 1.319237-2.337447 1.718334zm24.571754 6.689139c-.560271-.595235-1.267218-1.079609-2.09867-1.436067-.828041-.358164-1.820667-.538952-2.955706-.538952-2.40311 0-4.257034.765789-5.519989 2.278605-1.252721 1.500025-1.88633 3.585904-1.88633 6.197089 0 1.07364.189315 2.083321.562829 3.008578.376925.918434.921846 1.731126 1.621118 2.411637.695862.678806 1.541811 1.200702 2.493504 1.558866.956809.350489 2.022773.530424 3.170604.530424 1.020767 0 2.022773-.182493 2.979583-.544921 3.238825-1.242488 2.693904-3.167193 2.688788-3.162076l-.445147-.269476-.124505.14753c-.265211.301028-.57562.585001-.926109.848507-.348784.256684-.731678.488638-1.140156.683923-.401655.19102-.819513.346225-1.246751.456232-.418711.109155-.833158.166291-1.231402.166291-.83998 0-1.592124-.14753-2.229144-.434061-.639579-.287384-1.183647-.678806-1.620266-1.165738-.439177-.48608-.773463-1.072787-1.007123-1.749887-.06481-.196138-.262653-.955104-.290795-1.210083-.193579-1.823225-.020466-2.982141.331728-4.55721 0-.003411.003411-.001705.003411-.005969.022172-.081866.038375-.167143.058842-.25242.172259-.61826.429796-1.19388.759819-1.711512.332581-.508252.758114-.940607 1.262101-1.278305.496313-.329169 1.115425-.500576 1.842839-.500576.7692 0 1.392576.167995 1.853925.494607.476699.341108.848508.770052 1.113719 1.284274.272887.521043.45538 1.094958.544921 1.702984.083572.54151.113419 1.057436.124505 1.548633-.006822 0-1.840281.045197-1.840281.045197l-2.112314.025583-1.812992-.025583s-.217457-.008528-.500577-.014498c-.22769.033258-.805869.175671-.805869.810133 0 .618259.51678.730825.743617.749586.278856-.004264.489491-.011086.489491-.011086l1.797642-.023877 3.349685.023877s.919288.013645 1.827489.028142c1.875245 0 1.835164-1.432656 1.835164-1.432656 0-.903085-.138149-1.761826-.404213-2.558314-.26777-.803311-.695862-1.51708-1.256985-2.117431zm-81.050799-1.751593c-.660045-.69842-1.489792-1.26466-2.456835-1.679959-.973012-.417006-2.137045-.630198-3.469926-.630198-2.817557 0-4.992976.892851-6.469124 2.66491-1.472736 1.760973-2.218911 4.216102-2.218911 7.296312 0 1.256132.226837 2.447453.665162 3.533031.438324 1.077903 1.078756 2.029596 1.900827 2.828643.816102.797341 1.799348 1.407925 2.924153 1.824078 1.117131.417858 2.371557.625934 3.724053.625934 1.20326 0 2.382643-.215751 3.502332-.64299 2.820114-1.083019 3.163781-2.596688 3.163781-3.264408 0-.170555-.021319-.266065-.028994-.305293-.058841-.035816-.295912-.179934-.404214-.247303-.045197.050313-.086982.100627-.086982.100627-.312967.360722-.688187.706947-1.114572 1.024178-.416153.311262-.881766.590118-1.374668.826336-.480963.230248-.986656.414446-1.504288.549184-.513369.133885-1.014798.20296-1.494909.20296-1.013945 0-1.922999-.178229-2.694757-.524454-.770905-.350489-1.435214-.825483-1.967344-1.413043-.530423-.594381-.943165-1.30474-1.21861-2.1234-.083571-.237923-.320642-1.148683-.3539-1.464209-.225132-2.109756-.045197-3.493804.392275-5.456883.012791-.008528.036669-.117683.036669-.117683l.04605-.196137c.205518-.742764.514221-1.441184.917582-2.062854.398244-.620818.915023-1.141861 1.534135-1.556308.613143-.408477 1.370404-.615701 2.256433-.615701.934638 0 1.697015.207224 2.272636.613996.579032.413594 1.034412.938901 1.359317 1.563982.330023.639579.551743 1.331176.659193 2.059443.085277.57221.129621 1.164033.144118 1.856483.001706.065664-.048608.117683-.115124.120241l-2.188211.053725-2.508001.029847c-.005117 0-2.158364-.029847-2.158364-.029847-.004264 0-.596087-.01535-.596087-.01535-.301881.041786-.839127.213193-.839127.843391 0 .617406.487785.752144.777727.77858.000853 0 .567093-.011939.567093-.011939l2.140456-.0307c.001706 0 3.986706.0307 3.986706.0307l2.172862.032405c.726561 0 1.275745-.186757 1.630498-.552595.440883-.448558.431503-1.02759.431503-1.033559 0-1.05829-.160321-2.068824-.474994-3.008578-.314673-.938901-.807574-1.772058-1.467619-2.475595zm37.679701 1.751593c-.560271-.595235-1.268071-1.079609-2.096112-1.436067-.833157-.358164-1.825783-.538952-2.958264-.538952-2.397993 0-4.254476.765789-5.515725 2.278605-1.254426 1.500025-1.889741 3.585904-1.889741 6.197089 0 1.07364.191021 2.083321.565388 3.008578.374366.918434.919287 1.731126 1.617707 2.411637.69842.678806 1.540105 1.200702 2.496061 1.558866.954252.350489 2.019363.530424 3.165488.530424 1.025031 0 2.029595-.182493 2.982994-.544921 3.236267-1.242488 2.692199-3.167193 2.687082-3.162076l-.445146-.269476-.127916.14753c-.260948.301028-.57221.585001-.920993.848507-.346225.256684-.731678.488638-1.141861.683923-.398244.19102-.81866.346225-1.244193.456232-.416153.109155-.834863.166291-1.232255.166291-.83998 0-1.596388-.14753-2.227439-.434061-.637873-.287384-1.183646-.678806-1.621971-1.165738-.439177-.48608-.777727-1.072787-1.00627-1.749887-.066516-.196138-.265212-.955104-.290795-1.210083-.191873-1.823225-.021319-2.982141.330023-4.55721.002558-.003411.004263-.001705.00938-.005969.019614-.081866.029847-.167143.05543-.25242.17226-.61826.428944-1.19388.760672-1.711512.328317-.508252.752997-.940607 1.261249-1.278305.497166-.329169 1.117131-.500576 1.845397-.500576.767494 0 1.391723.167995 1.854778.494607.47073.341108.844244.770052 1.112867 1.284274.268623.521043.455379 1.094958.543215 1.702984.081866.54151.111713 1.057436.121093 1.548633-.006822 0-1.841133.045197-1.841133.045197l-2.109756.025583-1.812992-.025583s-.216604-.008528-.500577-.014498c-.22769.033258-.805016.175671-.805016.810133 0 .618259.515074.730825.744469.749586.275446-.004264.48608-.011086.48608-.011086l1.8002-.023877 3.347128.023877s.924404.013645 1.830047.028142c1.87695 0 1.832606-1.432656 1.832606-1.432656 0-.903085-.135591-1.761826-.405067-2.558314-.266064-.803311-.690744-1.51708-1.256132-2.117431zm-11.162777-15.436015-1.812992-.025583s-.217456-.003411-.500576-.012791c-.22769.032405-.808428.175671-.808428.812691 0 .616554.51678.731678.745323.750439.281414-.003411.485227-.011939.485227-.011939l1.802758-.026436 3.348833.026436s.921846.014497 1.828342.026436c1.876097 0 1.831753-1.435214 1.831753-1.435214 0-.897969-.135591-1.760973-.402508-2.556609-.272034-.806722-.695862-1.517933-1.256985-2.116578-.563682-.597793-1.268924-1.083873-2.100376-1.440331-.828894-.355606-1.822372-.537246-2.957411-.537246-2.401404 0-4.257035.766641-5.518283 2.276899-1.254427 1.500025-1.88292 3.587609-1.88292 6.202206 0 1.070228.186757 2.082468.56283 3.005167.373513.921845.917582 1.736242 1.621118 2.415048.695861.6771 1.535841 1.197291 2.490945 1.553749.955957.352195 2.022774.533835 3.168045.533835 1.02759 0 2.027891-.185904 2.981289-.548332 3.235415-1.24334 2.694758-3.164634 2.689641-3.158665l-.447705-.269476-.129621.144119c-.260096.302734-.569652.588412-.920993.848507-.347931.255832-.730825.487786-1.13845.682217-.400803.194432-.820366.348784-1.245899.459644-.421269.108302-.834863.164585-1.232255.164585-.844243 0-1.589565-.144971-2.227438-.431502-.637021-.286531-1.182794-.681365-1.620266-1.164886-.44003-.489491-.779433-1.07705-1.007976-1.749034-.067369-.198696-.264359-.958515-.289089-1.211788-.194432-1.823225-.022172-2.982141.327464-4.55721 0-.005969.005969-.001706.005969-.005969.024731-.085278.035817-.167144.057989-.250715.173965-.618259.429797-1.195586.76323-1.713218.327464-.509104.75385-.938901 1.259544-1.281715.493754-.327464 1.115424-.497166 1.844544-.497166.767494 0 1.392576.167996 1.85563.497166.469877.336844.841686.766641 1.112867 1.278304.26777.525307.451969 1.099222.543215 1.706395.081866.539805.113419 1.054879.122799 1.548633-.006822 0-1.839427.043492-1.839427.043492 0 .001705-2.109757.026435-2.109757.026435zm9.710508-3.936392c.807574 0 1.469325-.657487 1.469325-1.468472 0-.810133-.660898-1.471031-1.469325-1.471031-.811839 0-1.471884.660898-1.471884 1.471031 0 .810985.660045 1.468472 1.471884 1.468472zm8.693151.00938c0 .004264.301028-.901379.301028-.901379h.001705c.080161-.242187.123652-.492902.123652-.709506 0-1.065111-.909907-1.211788-1.888035-1.211788-5.039026.033258-8.20025 4.663807-8.20025 11.516677v1.402809c0 1.407926-.111713 2.535289-.111713 2.548081l-.027288.254126 3.468221-.084425.027288-.457938c-.46476-.063958-.516779-1.383195-.516779-2.373262v-5.404865c0-4.548683 1.546927-5.131978 2.900275-5.131978.743617 0 1.440331.364986 1.874392.828894.509957.551743.752997.716328 1.037822.716328.619112.000852.858741-.498019 1.009682-.991774zm14.300122 20.684822c.401656-.573915.933785-1.031853 1.574216-1.361023.64299-.326611 1.424981-.492049 2.324655-.492049.468171 0 .905643.073338 1.298771.221721.396538.15094.766641.342814 1.091547.565387.324906.230248.615701.479257.848507.748733.242187.266918.431503.534688.564535.787108l.069927.119388h.562829l.336845-1.234813.441736-1.112014-.117683-.116829c-.426386-.380336-1.090694-.708653-2.038123-.99689-.927816-.283973-1.988663-.428091-3.152696-.428091-1.019915 0-2.036418.156057-3.014547.461349-.987509.314673-1.873538.804163-2.629094 1.459945-.758966.653222-1.384048 1.500024-1.854777 2.507147-.466466 1.007976-.701831 2.223175-.701831 3.61234 0 1.448858.231954 2.694757.689039 3.700175.45538 1.010534 1.069375 1.84625 1.822372 2.480711.747881.63361 1.602358 1.088989 2.539553 1.361876.925257.265212 1.859042.400803 2.771507.400803 1.02162 0 2.025332-.185904 2.977878-.544068 2.392023-.920141 2.860195-2.520792 2.665763-2.994933l.032405-.159469-.461349-.279709-.127063.148383c-.256684.300175-.565387.586706-.915024.847654-.350489.259243-.731677.490344-1.137597.685629-.40336.191873-.81866.344519-1.24334.455379-.417005.108302-.830599.163733-1.22458.163733-1.69872 0-2.997491-.52616-3.868171-1.56313-.878354-1.05232-1.323501-2.645297-1.323501-4.740556 0-.944871.097216-1.828342.288237-2.629094.192726-.798194.49546-1.493203.909054-2.074793zm-36.874685 4.24936c-.58159-.302734-1.217758-.534688-1.897417-.701831-.654928-.156057-1.265512-.346225-1.812991-.557713-.528719-.204665-.973865-.486079-1.323501-.839127-.331729-.329169-.498019-.811838-.498019-1.438625 0-.438324.077602-.819513.234512-1.127364.157763-.31723.353048-.577326.585001-.770905.23366-.194432.500577-.345372.79393-.443441.300176-.09551.598646-.15094.894558-.15094.671983 0 1.239076.191873 1.691045.56027.456233.383747.767494.816955.924404 1.285979l.056283.159469h.736795l.051166-.195285.286531-1.065111c.40933-1.453123-1.223727-2.061149-1.223727-2.061149-.567946-.223426-1.28001-.333433-2.104639-.333433-.885177 0-1.687635.128768-2.376674.386305-.695862.260948-1.290243.617407-1.759267 1.071081-.4767.453674-.84595.997742-1.092401 1.625382-.247303.615701-.373513 1.307299-.373513 2.044946 0 .955956.207223 1.724303.609731 2.281163.398244.544068.897116.986657 1.483822 1.315826.574768.322348 1.213494.574768 1.899122.752997.657487.167144 1.266365.366692 1.813845.586707.527012.214898.97557.49546 1.332028.830599.332581.312115.493755.760672.493755 1.370404 0 .434061-.079308.826335-.237923 1.161475-.155205.334286-.365839.609731-.626787.824629-.272034.220015-.583296.39057-.931226.51081-.343667.120241-.715476.179935-1.100075.179935-.428092 0-.829747-.07078-1.196439-.208929-.377777-.145824-.718033-.325758-1.008828-.539804-.300176-.216604-.557713-.448558-.768347-.689892-.214046-.244745-.373514-.468172-.469877-.664309l-.063105-.127063c-.332581-.794783-3.164635 1.999749.465613 3.50489.663456.275445 1.552044.300176 2.555756.300176.92952 0 1.772059-.14156 2.509706-.419564.736794-.280561 1.378931-.680511 1.905944-1.188763.52616-.506546.933784-1.081314 1.216052-1.715776.280561-.634462.425533-1.290243.425533-1.943466 0-.956809-.207224-1.724303-.611438-2.281163-.394833-.546626-.898821-.982393-1.488938-1.28939zm-11.088586-3.112616c-.583296-.300175-1.22458-.538951-1.899975-.704389-.654928-.158615-1.264659-.347931-1.814697-.558565-.532982-.205518-.977276-.485227-1.326912-.840833-.332581-.329169-.497166-.814396-.497166-1.442036 0-.439177.07675-.81866.229396-1.128216.161173-.31979.359869-.576474.59097-.772611.232807-.194432.503135-.347931.79393-.443441.29847-.099775.598646-.150941.89541-.150941.672837 0 1.243341.189315 1.690193.561976.460497.381189.773464.81525.930374 1.288538l.053724.164585h.741058l.051167-.200401.284825-1.068523c.411036-1.456533-1.225432-2.063707-1.225432-2.063707-.574768-.222573-1.282568-.335139-2.108904-.335139-.886029 0-1.685929.128769-2.380084.388011-.700126.259243-1.293655.620818-1.763532 1.071081-.474993.45538-.844243 1.000301-1.093252 1.627088-.247304.619964-.373514 1.311562-.373514 2.05262 0 .955957.208929 1.725157.613142 2.283722.395686.542363.896263.987509 1.482117 1.317532.579032.319789 1.220316.573915 1.904238.751291.659193.173966 1.27063.371809 1.814698.589265.529571.216604.977276.497166 1.337145.831452.330875.315526.492902.764083.492902 1.372109 0 .436619-.082719.828894-.240481 1.162328-.15691.337697-.368398.615701-.629346.828041-.266064.22172-.580737.393127-.930373.512515-.347078.122799-.714623.180788-1.105192.180788-.422122 0-.823777-.07078-1.191321-.208929-.381189-.144971-.723151-.325759-1.014798-.540657-.29847-.214899-.557713-.447705-.7692-.691598-.211487-.245598-.370956-.469024-.469024-.664309l-.062253-.130474c-.335139-.793077-3.169751 2.001455.464761 3.511713.662603.273739 1.552044.301028 2.556608.301028.932079 0 1.780587-.139854 2.517381-.422122.7385-.279709 1.383195-.683922 1.909355-1.188763.524455-.506546.936343-1.08302 1.216905-1.715776.284826-.634462.425533-1.291096.425533-1.948582 0-.95681-.205518-1.727715-.614848-2.283722-.394833-.55089-.896263-.982393-1.485528-1.291949zm82.889374 3.343717c.444294.60632.666867 1.442036.666867 2.478153 0 .712064-.156909 1.426687-.461349 2.116579-.306145.687333-.749586 1.31412-1.322648 1.864158-.571357.548332-1.27063.984951-2.071382 1.287685-.802458.306144-1.719187.459643-2.730574.459643-1.0924 0-2.025332-.106596-2.780034-.326611-.740206-.214046-1.372962-.472435-1.881214-.76323l-.174818-.129622.493755-1.414747c.147529-.503135.220867-.922699.220867-1.246752v-.257537h.837422l.068222.142413c.108302.208929.278003.452821.509104.718033.231101.266065.513368.518485.835716.751292.318084.235365.685628.431502 1.100928.588412.398244.151793.834863.226837 1.296212.226837.420417 0 .822072-.063105 1.197291-.19699.380336-.129621.718886-.314673 1.01224-.551743.284825-.235365.513368-.536393.68307-.899674.172259-.361575.257537-.787108.257537-1.267218 0-.654928-.174819-1.141008-.533835-1.482117-.391422-.367544-.876649-.66772-1.448859-.901379-.594381-.241334-1.257837-.458791-1.971607-.641284-.743617-.194432-1.441184-.469877-2.067118-.816955-.639578-.361575-1.181941-.844243-1.608327-1.43095-.439177-.605468-.665161-1.440331-.665161-2.477301 0-.808427.13559-1.556308.404213-2.229997.266065-.677953.671131-1.271482 1.183647-1.765237.517632-.490343 1.156358-.88006 1.91703-1.16318.751292-.282267 1.619413-.422122 2.583044-.422122.900527 0 1.667168.123652 2.290544.361575.532982.281415 1.840281.637873 1.327765 2.244495l-.305292 1.158916-.057136.213193h-.804163l-.057988-.175671c-.167996-.514221-.506547-.986657-1.010534-1.39684-.493755-.410183-1.097517-.609731-1.836017-.609731-.319789 0-.645548.053724-.971307.163732-.320642.104891-.605467.270328-.867268.483521-.245598.208929-.461349.491197-.635315.832305-.16629.341961-.25242.752997-.25242 1.227138 0 .680512.180787 1.204966.539804 1.569099.383747.380336.862152.685629 1.443742.91076.591823.231101 1.257838.434061 1.962227.607173.740205.177377 1.437772.434061 2.06797.762378.640432.335139 1.186205.805869 1.615149 1.399398z" fill="#dadada" fill-rule="evenodd" transform="translate(-101 -34)"/></svg>