<?xml version="1.0" encoding="UTF-8"?>
<svg width="450px" height="450px" viewBox="0 0 450 450" version="1.1" xmlns="http://www.w3.org/2000/svg" xmlns:xlink="http://www.w3.org/1999/xlink">
    <!-- Generator: Sketch 50.2 (55047) - http://www.bohemiancoding.com/sketch -->
    <title>hersheys-logo</title>
    <desc>Created with Sketch.</desc>
    <defs></defs>
    <g id="hersheys-logo" stroke="none" stroke-width="1" fill="none" fill-rule="evenodd">
        <path d="M88.612265,251.152392 C88.5336225,251.073758 88.4692785,234.331706 88.4692785,213.947816 C88.4692785,177.332577 88.4743437,176.88349 88.8905019,176.660772 C89.1636841,176.514569 91.4062279,176.455381 95.2712587,176.492369 L101.230792,176.549382 L101.338032,190.705007 L101.445272,204.860638 L104.019022,204.860638 L106.592773,204.860638 L106.647971,190.939566 C106.687392,180.996027 106.772281,176.935216 106.945063,176.727027 C107.140542,176.491485 108.344054,176.44648 113.217004,176.492467 L119.247048,176.549358 L119.301282,213.925598 L119.355516,251.301813 L113.081399,251.244985 L106.807279,251.188156 L106.752408,233.679198 L106.697538,216.170209 L106.216208,216.041208 C105.951477,215.970259 104.804177,215.910892 103.666653,215.90928 C101.976742,215.906809 101.574614,215.968394 101.46824,216.245618 C101.396638,216.432207 101.338054,224.394751 101.338054,233.940152 L101.338054,251.295451 L95.0466636,251.295451 C91.5863987,251.295451 88.6909291,251.231087 88.6122873,251.152453 L88.612265,251.152392 Z" id="path4162" fill="#DADADA" fill-rule="nonzero"></path>
        <path d="M125.290025,251.154245 C125.210385,251.074561 125.145224,234.290375 125.145224,213.855977 C125.145224,180.174745 125.176912,176.69036 125.484483,176.572342 C126.097446,176.337122 147.23194,176.424576 147.679643,176.664176 C148.071555,176.873922 148.094502,177.162246 148.094502,181.876021 C148.094502,185.471023 148.022559,186.93779 147.837125,187.123217 C147.653545,187.306804 146.308243,187.380594 143.144846,187.380594 C139.657033,187.380594 138.657996,187.44318 138.466713,187.673662 C138.292237,187.88389 138.239343,190.384742 138.279593,196.520932 L138.33568,205.075128 L142.668735,205.182367 C145.312826,205.247806 147.0909,205.378938 147.230395,205.518785 C147.382776,205.671548 147.43979,207.459327 147.401399,210.880768 L147.34383,216.013573 L142.83977,216.131819 C140.362533,216.196857 138.310768,216.269245 138.280284,216.29268 C138.24977,216.316091 138.24977,221.716038 138.280284,228.292507 L138.335692,240.249724 L143.437729,240.356963 C147.656361,240.445634 148.575295,240.519906 148.744984,240.785919 C148.864682,240.973564 148.928317,243.208088 148.897692,246.147908 L148.845187,251.188156 L137.14001,251.243749 C130.70216,251.274017 125.369672,251.233866 125.290031,251.154368 L125.290025,251.154245 Z" id="path4164" fill="#DADADA" fill-rule="nonzero"></path>
        <path d="M152.956033,251.152392 C152.877394,251.073758 152.813048,234.291308 152.813048,213.858046 L152.813048,176.706661 L153.295626,176.577333 C153.561046,176.506205 158.28694,176.44669 163.79761,176.445084 C174.483755,176.441995 174.307821,176.42717 176.758337,177.532576 C178.578316,178.353542 181.285801,181.367264 181.679097,183.009921 C181.760386,183.349427 181.901179,183.723723 181.991981,183.841685 C182.082776,183.959647 182.262502,184.628857 182.391367,185.32881 C182.70564,187.035905 182.704912,201.88664 182.390749,203.587632 C181.999998,205.701402 181.031667,207.474059 179.380665,209.097993 C178.072173,210.385033 177.572039,211.18779 178.078671,211.18779 C178.417726,211.18779 180.106753,212.981054 180.78106,214.056946 C182.34323,216.549477 182.259395,215.775912 182.434235,229.31128 C182.521096,236.035205 182.689333,242.067443 182.808105,242.716213 C183.352224,245.688587 184.504544,248.355136 185.930029,249.940587 C186.464945,250.535556 186.841174,251.083765 186.76608,251.158877 C186.690992,251.23399 183.330809,251.295389 179.299005,251.295389 C172.587625,251.295389 171.940282,251.263886 171.634823,250.920075 C171.31675,250.562241 171.069559,249.879806 170.566566,247.970989 C170.425496,247.435628 170.291319,241.629469 170.209702,232.528472 C170.088837,219.050835 170.050064,217.901425 169.698852,217.384509 C169.151483,216.578892 167.90447,216.080735 166.635961,216.16095 L165.574801,216.22805 L165.519888,233.589002 C165.477019,247.15093 165.406601,250.987033 165.198165,251.119406 C164.875818,251.324112 153.159541,251.355677 152.956255,251.152762 L152.956033,251.152392 Z M169.384918,205.860806 C170.234027,205.300904 170.600187,204.741434 170.608001,203.992009 C170.611707,203.632218 170.714332,203.238341 170.835951,203.116722 C171.088368,202.864299 170.991859,191.474105 170.725327,190.061586 C170.636298,189.589731 170.371984,189.021694 170.137975,188.799285 C169.626321,188.313 167.809863,187.595072 167.091156,187.595072 C165.825019,187.595072 165.896283,187.039401 165.896283,196.912122 C165.896283,201.893287 165.960623,206.033138 166.039268,206.111777 C166.360683,206.433197 168.793649,206.250686 169.384918,205.860806 Z" id="path4166" fill="#DADADA" fill-rule="nonzero"></path>
        <path d="M196.329314,251.948545 C194.434296,251.312623 193.706294,250.966217 192.109069,249.940526 C190.207424,248.719332 188.814856,246.776542 187.7116,243.805528 C187.295777,242.685699 187.262137,242.066455 187.186857,234.144475 C187.14263,229.488992 187.162149,225.457967 187.23022,225.186636 L187.354038,224.693316 L193.408148,224.750268 L199.462265,224.80722 L199.569503,232.37477 L199.676749,239.94232 L200.403924,240.685839 C201.010777,241.306325 201.283801,241.429359 202.053881,241.429359 C202.605802,241.429359 203.283271,241.248447 203.739591,240.979216 L204.502531,240.529073 L204.494995,233.097102 L204.487459,225.665138 L203.797958,224.344618 C203.418727,223.618333 202.867164,222.716923 202.572255,222.341485 C201.15076,220.531845 200.411966,219.676133 198.127365,217.193207 C193.797503,212.487462 193.584557,212.236991 192.00991,209.997612 C190.654113,208.069473 190.625007,208.020347 189.602084,205.933046 C187.886557,202.432489 187.715961,201.108943 187.832774,192.206377 C187.918585,185.666501 187.960175,185.033587 188.380032,183.878926 C189.971073,179.503348 193.406104,176.693455 198.282667,175.778455 C200.894464,175.288397 206.742831,175.535372 208.470433,176.208677 C209.892367,176.762853 212.014167,177.866677 212.696892,178.407406 C213.644555,179.157973 215.173512,181.449802 215.821473,183.091006 C216.471571,184.737616 216.727491,187.963876 216.727701,194.51542 L216.72788,200.041656 L210.776086,199.984642 L204.824285,199.927629 L204.717046,193.992691 C204.610104,188.074401 204.608343,188.056198 204.089839,187.50469 C203.656195,187.043453 203.378626,186.951632 202.41788,186.951632 C200.167184,186.951632 199.840303,187.953029 200.072484,194.13669 C200.263965,199.236373 200.891407,200.920409 203.79524,204.128435 C204.597138,205.014346 205.880595,206.450122 206.647359,207.31906 C207.414123,208.187997 208.18261,209.041473 208.355115,209.215671 C208.52762,209.389875 208.961937,209.894721 209.320271,210.337563 C210.003293,211.181656 212.540775,214.357518 212.82714,214.726693 C214.176871,216.466699 215.295625,218.40637 215.919792,220.088676 C216.094855,220.560531 216.368477,221.284396 216.527831,221.697267 C216.752242,222.278677 216.834421,224.720989 216.892293,232.528472 L216.96701,242.608981 L216.419172,244.006651 C215.228524,247.044315 213.212764,249.223067 210.089629,250.847865 C207.556552,252.165729 206.242858,252.432452 201.928815,252.50497 C198.277423,252.566122 198.125265,252.551297 196.329339,251.948545 L196.329314,251.948545 Z" id="path4168" fill="#DADADA" fill-rule="nonzero"></path>
        <path d="M221.928378,213.925592 L221.982612,176.549395 L227.942146,176.492381 C231.793581,176.455504 234.050132,176.514803 234.321352,176.659957 C234.730461,176.878901 234.742413,177.236623 234.79619,190.872608 L234.851351,204.860663 L237.26271,204.921259 L239.67407,204.981917 L239.72923,190.765659 L239.784391,176.549401 L245.468091,176.487131 C248.594123,176.45291 251.465737,176.481571 251.849453,176.550581 L252.547114,176.676301 L252.49288,213.932238 L252.438646,251.188156 L246.111512,251.188156 L239.784372,251.188156 L239.677133,233.600874 L239.569895,216.013579 L237.21062,216.013579 L234.851351,216.013579 L234.744112,233.600874 L234.636873,251.188156 L228.255512,251.244985 L221.87415,251.301813 L221.928384,213.925629 L221.928378,213.925592 Z" id="path4170" fill="#DADADA" fill-rule="nonzero"></path>
        <path d="M258.444433,251.154245 C258.3648,251.074561 258.299638,234.291308 258.299638,213.858046 L258.299638,176.706661 L258.782217,176.577333 C259.414494,176.407892 279.922937,176.4088 280.555548,176.578569 L281.041814,176.70886 L280.984492,181.99124 L280.927169,187.273621 L276.379667,187.38086 C273.602258,187.446354 271.743747,187.576726 271.605011,187.715795 C271.450796,187.870375 271.39587,190.694247 271.43397,196.509449 L271.490057,205.075394 L275.886884,205.198279 C278.305137,205.265861 280.307838,205.33825 280.337327,205.359134 C280.366791,205.380012 280.390944,207.810008 280.390944,210.759094 L280.390944,216.121077 L276.154978,216.124166 C273.825198,216.126019 271.797542,216.204565 271.649078,216.29882 C271.43636,216.433862 271.390898,218.990239 271.4346,228.359991 L271.490069,240.249798 L276.446984,240.307306 C280.936237,240.359378 281.437433,240.40187 281.759378,240.75761 C282.072725,241.103861 282.108026,241.74522 282.057208,246.169343 L281.999577,251.188218 L270.2944,251.243811 C263.856556,251.274078 258.524061,251.233928 258.444421,251.154492 L258.444433,251.154245 Z" id="path4174" fill="#DADADA" fill-rule="nonzero"></path>
        <path d="M293.032486,239.555855 C293.025012,232.69123 292.931103,227.364264 292.806501,226.737533 C292.689243,226.147716 292.462689,224.893012 292.30305,223.949302 C291.949182,221.857374 291.400028,218.746216 290.978022,216.442528 C290.805152,215.498818 290.581866,214.19586 290.481835,213.547059 C290.381805,212.898257 290.202493,211.933101 290.083363,211.402268 C289.964234,210.871429 289.797973,209.813642 289.713898,209.051622 C289.629829,208.289603 289.486257,207.517477 289.394856,207.335787 C289.303449,207.154097 289.12001,206.233316 288.987205,205.289606 C288.854399,204.345902 288.663153,203.139453 288.562215,202.60862 C288.461283,202.077781 288.123839,200.050953 287.812345,198.104555 C287.500858,196.158157 287.151085,194.268488 287.035075,193.905293 C286.919064,193.542098 286.729418,192.497777 286.613636,191.584587 C286.497861,190.671398 286.358174,189.851512 286.303236,189.762613 C286.248261,189.673713 286.104361,188.884231 285.983391,188.008208 C285.862414,187.132186 285.610633,185.691567 285.423872,184.806841 C285.23711,183.922116 284.997276,182.570896 284.890908,181.804133 C284.78454,181.037369 284.564805,179.637896 284.402616,178.694186 C284.211993,177.585055 284.180367,176.883552 284.313173,176.71025 C284.608878,176.324385 296.242254,176.324385 296.74256,176.71025 C296.967496,176.883737 297.127875,177.432502 297.197008,178.265224 C297.255752,178.973009 297.508329,180.855061 297.758251,182.447573 C298.008166,184.040078 298.289522,185.922136 298.383481,186.629915 C298.939207,190.816069 299.091655,191.863028 299.257959,192.635332 C299.359564,193.107187 299.651576,195.230532 299.906884,197.353876 C300.467274,202.014566 300.442467,201.916351 300.944459,201.462058 C301.241172,201.193531 301.415159,200.374133 301.713484,197.840333 C301.92554,196.039256 302.186117,194.034812 302.292534,193.386011 C302.398958,192.73721 302.679246,190.613865 302.915399,188.667467 C303.151545,186.721069 303.439647,184.694241 303.55562,184.163408 C303.671587,183.632569 303.908982,181.991803 304.083155,180.51726 C304.257327,179.042711 304.481997,177.546721 304.582411,177.192828 L304.764984,176.549395 L309.420862,176.491578 C312.187319,176.457234 314.236984,176.519498 314.471611,176.645089 C314.803112,176.822505 314.837629,176.986665 314.686701,177.668062 C314.587819,178.114468 314.308767,179.686156 314.066579,181.160699 C313.580622,184.119446 313.326593,185.587281 312.868741,188.082011 C312.700517,188.998623 312.562881,190.078733 312.562881,190.482246 C312.562881,190.885758 312.477644,191.26859 312.373469,191.332973 C312.269294,191.397356 312.118909,192.006279 312.039275,192.686126 C311.959647,193.365973 311.700485,194.935629 311.463362,196.174248 C311.226239,197.412866 310.900569,199.198403 310.739652,200.142113 C310.578735,201.085823 310.293036,202.726589 310.104768,203.788261 C309.916499,204.849933 309.663872,206.435322 309.543371,207.311345 C309.422876,208.187367 309.273263,208.986683 309.210894,209.087597 C309.148524,209.188511 308.956241,210.160789 308.7836,211.248207 C308.610965,212.335638 308.382218,213.707926 308.275282,214.297744 C307.76731,217.099576 307.387171,219.362378 307.194343,220.732116 C307.078092,221.557864 306.883233,222.571275 306.761311,222.984152 C306.178406,224.958112 306.054495,227.350804 305.933827,238.962851 L305.806785,251.188156 L299.426029,251.244985 L293.045273,251.301813 L293.032486,239.555899 L293.032486,239.555855 Z" id="path4176" fill="#DADADA" fill-rule="nonzero"></path>
        <path d="M314.922149,250.8756 C313.739192,250.244002 312.884634,249.361926 312.108124,247.970989 C311.405397,246.712177 311.389646,246.627923 311.386483,244.110363 C311.384012,242.055521 311.468063,241.320365 311.803894,240.464202 C312.872836,237.739039 314.049043,236.171452 318.246581,231.877706 C319.662146,230.4297 321.398001,228.601857 322.104038,227.815828 C325.119113,224.459177 327.392151,220.294136 328.112821,216.805538 C328.229727,216.239614 328.351359,216.109489 328.714251,216.162099 C329.016023,216.205832 329.222384,216.444628 329.327331,216.871484 C330.017673,219.679388 331.063248,222.026377 332.732175,224.514263 C334.082171,226.526712 335.220067,227.829238 339.270531,231.998529 C343.051041,235.889953 344.574957,237.882938 345.534455,240.190511 C346.021975,241.36298 346.096371,241.854707 346.111227,244.00313 C346.127657,246.377631 346.102641,246.518652 345.440948,247.785308 C345.062909,248.509005 344.353147,249.443833 343.8637,249.862757 C342.095762,251.376061 342.949152,251.296439 328.616408,251.285938 C316.396908,251.277291 315.630837,251.253818 314.922149,250.8756 Z" id="path4178" fill="#DADADA" fill-rule="nonzero"></path>
        <path d="M92.6576748,273.804692 C92.4722375,273.727665 92.2727914,273.559897 92.2144607,273.43191 C92.1390315,273.266366 92.1084059,271.585604 92.1084059,267.611692 C92.1084059,262.656625 92.0918083,262.007669 91.9617788,261.877643 C91.8426695,261.75855 91.5738563,261.731001 90.529426,261.731001 C89.1866854,261.731001 88.714012,261.640508 88.5607253,261.35408 C88.5104878,261.260252 88.4693866,260.804265 88.4693866,260.340805 C88.4693866,259.564727 88.4859595,259.488688 88.67933,259.378243 C88.8424362,259.285094 89.9019099,259.258347 93.4282712,259.258347 C98.7678642,259.258347 98.3600542,259.172055 98.3600542,260.302199 C98.3600542,260.680787 98.3017989,261.129979 98.2306046,261.30034 C98.07107,261.682203 97.8724682,261.731001 96.4792301,261.731001 C95.8016,261.731001 95.3533752,261.776093 95.1379251,261.866216 L94.8143434,262.00143 L94.8143434,267.690819 L94.8143434,273.380208 L94.5727782,273.667315 C94.343507,273.939783 94.2972079,273.954114 93.6630232,273.949604 C93.291993,273.949604 92.8448911,273.88246 92.6576748,273.804692 Z" id="path4188" fill="#DADADA" fill-rule="nonzero"></path>
        <path d="M101.289931,273.63711 L100.972683,273.319859 L100.972683,266.550915 L100.972683,259.781972 L101.19807,259.520129 C101.415223,259.267922 101.455433,259.258347 102.298684,259.258347 C102.979478,259.258347 103.229972,259.294792 103.426266,259.423767 L103.678621,259.589249 L103.678621,262.383045 C103.678621,265.06164 103.686157,265.180856 103.86137,265.274623 C103.981385,265.338864 105.158534,265.364005 107.290446,265.347944 L110.536772,265.323236 L110.583427,262.41498 C110.609086,260.815446 110.658246,259.478619 110.69267,259.444275 C110.815751,259.321476 111.481164,259.215911 112.146339,259.213749 C113.305883,259.207572 113.196056,258.445145 113.196056,266.523613 C113.196056,273.402199 113.194389,273.464648 113.002667,273.708393 C112.828054,273.930332 112.748791,273.954114 112.186221,273.953187 C111.843539,273.952631 111.403781,273.926008 111.208981,273.893888 C110.60699,273.794438 110.583427,273.676396 110.583427,270.760727 C110.583427,268.603965 110.561035,268.178926 110.438174,268.003499 C110.293118,267.796446 110.288776,267.796137 107.247474,267.796137 L104.202028,267.796137 L103.940325,268.046862 L103.678622,268.297586 L103.678622,270.839299 L103.678622,273.381011 L103.330783,273.667748 C103.012081,273.930456 102.925327,273.954484 102.295062,273.954484 C101.637176,273.954484 101.593346,273.940895 101.289932,273.637233 L101.289931,273.63711 Z" id="path4190" fill="#DADADA" fill-rule="nonzero"></path>
        <path d="M118.226612,273.834774 C117.863688,273.556129 117.861421,273.510296 117.862891,266.472529 C117.863509,262.709994 117.895197,259.585358 117.932877,259.5289 C118.130491,259.23296 118.430533,259.211711 122.409838,259.211711 C127.209918,259.211711 126.856377,259.11467 126.804564,260.417585 C126.781709,260.992293 126.724498,261.299537 126.606956,261.478732 L126.441517,261.731001 L123.594772,261.731001 C121.319967,261.731001 120.683014,261.75818 120.424444,261.866216 L120.100862,262.00143 L120.100862,263.589105 C120.100862,265.06337 120.113772,265.18376 120.281342,265.27345 C120.391212,265.332131 121.367753,265.371602 122.777338,265.374073 C125.153266,265.38025 125.848513,265.440785 125.989206,265.662848 C126.033495,265.73271 126.070372,266.096412 126.071157,266.471047 C126.07301,267.238354 125.915817,267.648013 125.586453,267.736282 C125.46893,267.767785 124.381808,267.794346 123.170628,267.794964 C120.943992,267.794964 120.455076,267.855498 120.217496,268.15255 C120.13457,268.256262 120.100862,268.753078 120.100862,269.87161 L120.100862,271.444769 L120.424444,271.579983 C120.682909,271.687957 121.318411,271.715136 123.582461,271.715136 C126.901759,271.715136 126.723293,271.659543 126.790598,272.71581 C126.82383,273.237767 126.797516,273.400963 126.639725,273.651317 L126.448559,273.954546 L122.41161,273.948369 C119.385361,273.948369 118.337594,273.916866 118.226612,273.831747 L118.226612,273.834774 Z" id="path4192" fill="#DADADA" fill-rule="nonzero"></path>
        <path d="M136.471757,273.889811 C136.361646,273.868192 136.193693,273.764603 136.098524,273.659471 C135.933802,273.477496 135.92429,273.137699 135.900415,266.585754 C135.870889,258.48684 135.752797,259.262239 137.01634,259.25983 C137.931451,259.25983 138.245119,259.402889 138.338577,259.870179 C138.371377,260.034055 138.398185,261.313065 138.398185,262.712403 C138.398185,264.946439 138.41616,265.26369 138.545778,265.313415 C138.62695,265.3443 140.151514,265.370243 141.933691,265.370243 C144.381951,265.370243 145.211498,265.341829 145.327372,265.25356 C145.462309,265.15096 145.484064,264.809495 145.508494,262.410162 C145.53592,259.716866 145.538885,259.680731 145.748193,259.471516 C145.92501,259.294853 146.08193,259.254209 146.695152,259.22635 C147.942987,259.169522 147.822307,258.388378 147.822307,266.523984 C147.822307,273.402569 147.820453,273.465019 147.628923,273.708701 C147.453323,273.931938 147.376191,273.954546 146.790618,273.954546 C146.210029,273.954546 146.115317,273.927367 145.840984,273.682449 L145.53626,273.410352 L145.489624,270.788277 L145.442987,268.166201 L145.163064,267.981818 C144.898763,267.80775 144.713483,267.797434 141.843562,267.796878 L138.803983,267.796261 L138.601099,268.012209 C138.403151,268.222906 138.398222,268.289309 138.398222,270.744049 C138.398222,273.535375 138.391304,273.570089 137.782517,273.824458 C137.487744,273.947628 136.913289,273.976351 136.471819,273.889996 L136.471757,273.889811 Z" id="path4194" fill="#DADADA" fill-rule="nonzero"></path>
        <path d="M152.882292,273.891911 C152.817063,273.86535 152.701596,273.724144 152.625693,273.577378 C152.507577,273.348953 152.487693,272.322891 152.487693,266.454492 L152.487693,259.598453 L152.73355,259.405051 C152.973458,259.216344 153.074415,259.211711 156.909092,259.212205 C159.32252,259.212514 160.97257,259.249885 161.185535,259.30906 C161.765747,259.470157 161.84144,259.608521 161.803723,260.439019 C161.774259,261.088284 161.742324,261.196443 161.512681,261.42629 L161.254748,261.684365 L158.247518,261.730692 C156.042143,261.764666 155.184306,261.809325 155.030344,261.897286 C154.825218,262.014402 154.8204,262.054552 154.8204,263.646798 C154.8204,264.543081 154.830901,265.283333 154.843749,265.291795 C154.856598,265.300443 156.084752,265.332564 157.573014,265.36314 C159.497669,265.402673 160.33957,265.453324 160.488899,265.53764 C160.681813,265.646602 160.698843,265.723012 160.698843,266.480127 C160.698843,267.172322 160.667958,267.343301 160.505453,267.54986 L160.312064,267.795705 L157.880512,267.795705 C155.580054,267.795705 155.43201,267.806206 155.134692,267.989971 L154.820425,268.184176 L154.820425,269.80706 L154.820425,271.429944 L155.095716,271.572324 C155.324882,271.690798 155.849384,271.714642 158.226171,271.714642 C161.38706,271.714642 161.523893,271.736879 161.715114,272.285582 C161.861731,272.706174 161.843231,273.224116 161.672925,273.467304 C161.334771,273.950037 161.290383,273.954608 156.994489,273.946701 C154.798027,273.940524 152.947558,273.917669 152.882329,273.891726 L152.882292,273.891911 Z" id="path4196" fill="#DADADA" fill-rule="nonzero"></path>
        <path d="M165.714179,273.814699 C165.136623,273.500784 165.163382,273.85732 165.173586,266.609659 C165.178528,262.976964 165.21139,259.899829 165.246259,259.771533 C165.283383,259.634897 165.443768,259.470713 165.633514,259.375154 C165.919638,259.230983 166.272926,259.211958 168.663345,259.211958 C171.449105,259.211896 172.431291,259.303131 172.913493,259.606792 C173.039244,259.685981 173.310094,259.803715 173.515368,259.868511 C173.720648,259.933308 174.053619,260.126895 174.255304,260.298801 C174.45699,260.470707 174.651812,260.611296 174.688238,260.611296 C174.724682,260.611296 174.846283,260.806613 174.958494,261.045354 C175.070706,261.284033 175.241568,261.546494 175.338195,261.628525 C175.649355,261.892653 175.832188,262.560449 175.870516,263.572736 C175.90171,264.396192 175.873605,264.63586 175.66851,265.308967 C175.444025,266.044895 175.388247,266.132176 174.698795,266.826286 C173.895012,267.635535 173.49633,267.982683 173.370764,267.982683 C173.32561,267.982683 173.246785,268.060945 173.195597,268.156565 C173.123659,268.290977 173.161438,268.423412 173.361851,268.739736 C173.504478,268.964826 173.666883,269.280347 173.722748,269.440887 C173.778588,269.601428 173.95425,269.912193 174.11306,270.131414 C174.271865,270.350636 174.401798,270.568499 174.401798,270.615506 C174.401798,270.662451 174.501569,270.834728 174.623516,270.998048 C174.745468,271.161429 174.897595,271.463052 174.961589,271.668314 C175.025583,271.873638 175.155325,272.126709 175.249907,272.230854 C175.344495,272.334936 175.484256,272.596903 175.560499,272.812974 C175.719174,273.262722 175.622083,273.707342 175.331196,273.863065 C175.058797,274.008842 174.116415,273.968197 173.608677,273.788755 C173.227983,273.65422 173.107797,273.555265 172.955521,273.250986 C172.852878,273.045909 172.653435,272.71161 172.512309,272.508139 C172.371177,272.304669 172.25571,272.103175 172.25571,272.060307 C172.25571,272.017685 172.155945,271.848806 172.034018,271.685424 C171.91209,271.522043 171.782836,271.220482 171.746787,271.015158 C171.710713,270.809896 171.584215,270.536996 171.465616,270.4087 C171.347012,270.280404 171.184167,269.944251 171.10373,269.661777 C170.933437,269.063658 170.421178,268.498771 169.918308,268.354538 C169.741949,268.303887 169.211369,268.262563 168.73923,268.262563 C167.528945,268.262563 167.590381,268.11555 167.589949,271.012625 C167.589622,273.176059 167.575989,273.370202 167.404707,273.651132 C167.224969,273.945898 167.202188,273.954299 166.588608,273.950655 C166.227648,273.950655 165.853267,273.89012 165.714179,273.814699 Z M171.917933,266.028032 C172.303817,265.938527 172.833736,265.483159 173.248472,264.884669 C173.447211,264.597933 173.49313,264.422382 173.497745,263.931928 C173.502686,263.419732 173.464574,263.274696 173.241449,262.952688 C172.907174,262.470326 172.248236,261.929221 171.859264,261.817664 C171.394395,261.684365 167.839259,261.705984 167.702272,261.84299 C167.543757,262.001492 167.543757,265.845996 167.702272,266.00456 C167.837585,266.139836 171.351552,266.159479 171.917933,266.028032 Z" id="path4198" fill="#DADADA" fill-rule="nonzero"></path>
        <path d="M181.493219,273.986728 C181.313597,273.905871 180.934163,273.767136 180.650027,273.678372 C180.123024,273.513755 179.316326,272.968882 179.07218,272.612592 C178.997623,272.503815 178.861031,272.359953 178.768642,272.292871 C178.555826,272.138384 178.55325,271.828731 178.763083,271.597093 C178.852291,271.49857 179.030744,271.222335 179.159646,270.983285 C179.377713,270.578876 179.422478,270.546571 179.803284,270.51933 C180.146682,270.494622 180.259313,270.53292 180.503095,270.757701 C181.04391,271.255938 181.537891,271.520993 182.174387,271.654416 C182.523196,271.727552 182.883384,271.855045 182.974809,271.937817 C183.177508,272.121212 183.24362,272.12325 183.564645,271.95573 C183.703072,271.883459 184.107116,271.732617 184.462516,271.620442 C185.079048,271.425867 185.114591,271.39875 185.237217,271.02918 C185.3079,270.816197 185.361016,270.397952 185.355253,270.099726 C185.344937,269.567701 185.335178,269.548614 184.829331,269.073356 C183.943987,268.241561 183.87688,268.191898 183.475913,268.071755 C183.260811,268.007329 182.995762,267.87162 182.886923,267.770256 C182.778078,267.668829 182.495678,267.527685 182.259364,267.456526 C182.023057,267.385428 181.743554,267.25077 181.638255,267.15725 C181.532949,267.063792 181.257844,266.917829 181.026904,266.832957 C180.753183,266.732272 180.355291,266.43485 179.883881,265.978431 C179.486156,265.593295 179.160739,265.26264 179.160739,265.243553 C179.160739,264.936988 178.926977,264.166346 178.76517,263.939464 C178.442997,263.487802 178.480639,262.66657 178.853983,262.001924 C179.009767,261.724577 179.16292,261.387745 179.194324,261.253395 C179.278887,260.891608 180.05528,259.995572 180.400278,259.861531 C180.565303,259.797414 180.847289,259.649784 181.026904,259.533409 C181.348769,259.324874 182.618156,259.079955 183.359612,259.083353 C184.205355,259.08953 185.317301,259.30103 185.663757,259.526491 C185.85908,259.653552 186.192823,259.803097 186.405399,259.85869 C186.796638,259.961105 187.465168,260.57269 187.465168,260.82817 C187.465168,261.195393 187.135557,261.847438 186.793895,262.156102 C186.475755,262.443518 186.37174,262.487498 186.124741,262.439009 C185.963885,262.407506 185.715242,262.295764 185.572202,262.190879 C185.429155,262.085932 185.155445,261.944849 184.963952,261.877272 C184.772459,261.809758 184.469607,261.665339 184.290949,261.556439 C184.036228,261.401149 183.814894,261.358343 183.265524,261.358095 C182.60288,261.357725 182.533333,261.37848 181.981572,261.738908 C181.66072,261.948555 181.352333,262.205765 181.296265,262.310527 C181.238325,262.41881 181.210299,262.787948 181.231338,263.165733 C181.267165,263.809068 181.281557,263.84335 181.679362,264.234478 C181.905422,264.456788 182.260482,264.724994 182.468394,264.830497 C182.676306,264.936062 182.940397,265.095737 183.055265,265.185427 C183.170132,265.275117 183.450599,265.37642 183.678531,265.410579 C183.906456,265.444553 184.19814,265.555492 184.326708,265.656609 C184.455282,265.757788 184.740462,265.903998 184.96045,265.981643 C185.180438,266.059226 185.445598,266.200556 185.549699,266.295682 C185.653794,266.390808 185.906927,266.553942 186.112201,266.658148 C186.317482,266.762416 186.552794,266.928454 186.635128,267.0271 C186.717455,267.125809 186.864412,267.265656 186.961706,267.337927 C187.3361,267.616201 187.818999,268.493274 187.968946,269.16737 C188.163522,270.042095 188.157382,270.505061 187.940841,271.285896 C187.777274,271.875738 187.702365,271.987233 186.984505,272.70883 C186.388041,273.308432 186.088037,273.535745 185.703488,273.679669 C185.427308,273.783011 185.113516,273.929035 185.006172,274.004209 C184.716619,274.207062 181.952411,274.193225 181.493422,273.986914 L181.493219,273.986728 Z" id="path4204" fill="#DADADA" fill-rule="nonzero"></path>
        <path d="M191.63546,273.679175 L191.383883,273.380208 L191.383883,266.489331 L191.383883,259.598453 L191.62974,259.405051 C191.819399,259.255876 192.006012,259.212637 192.446185,259.215726 C193.139807,259.221903 193.78665,259.337784 193.93404,259.485043 C194.010468,259.561391 194.057147,260.452547 194.089824,262.458714 L194.13646,265.32336 L197.391209,265.348068 C199.715633,265.365363 200.682457,265.341891 200.77363,265.266655 C200.876434,265.181351 200.901302,264.618132 200.901302,262.375077 L200.901302,259.589373 L201.146406,259.428771 C201.314581,259.318573 201.644025,259.256309 202.196119,259.230427 C202.91414,259.196454 203.028353,259.214367 203.257334,259.395662 L203.513933,259.598638 L203.513933,266.489516 L203.513933,273.380394 L203.272369,273.667439 C203.046303,273.936139 202.990148,273.954546 202.397335,273.954546 C201.698611,273.954546 201.147239,273.773189 200.997978,273.494298 C200.938123,273.382494 200.901302,272.355876 200.901302,270.800754 C200.901302,268.399877 200.892654,268.276955 200.707913,268.042044 L200.514523,267.796199 L197.456586,267.796199 C194.612608,267.796199 194.387845,267.807935 194.24423,267.966808 C194.108707,268.1166 194.089805,268.440398 194.089805,270.61217 C194.089805,273.203731 194.040389,273.594612 193.689121,273.78264 C193.582185,273.840086 193.132963,273.907292 192.690856,273.932494 L191.887018,273.978204 L191.635441,273.679237 L191.63546,273.679175 Z" id="path4206" fill="#DADADA" fill-rule="nonzero"></path>
        <path d="M208.25813,273.743972 C208.121834,273.628771 207.964376,273.442781 207.908221,273.330669 C207.795657,273.106011 207.757434,260.805995 207.866835,260.007926 C207.916498,259.645522 207.980041,259.532791 208.216738,259.387138 C208.491466,259.218135 208.712281,259.210476 212.625122,259.233763 C217.494304,259.262795 217.136958,259.175699 217.136958,260.332034 C217.136958,260.926014 217.100019,261.105085 216.923333,261.367299 L216.709713,261.684365 L213.59559,261.709073 C211.456383,261.725751 210.441799,261.766519 210.354752,261.838851 C210.254753,261.921809 210.233393,262.300212 210.253425,263.633703 L210.278812,265.323483 L212.938092,265.369811 C216.247377,265.427875 216.145741,265.395137 216.184378,266.414713 C216.210136,267.094368 216.19735,267.147058 215.935661,267.440157 L215.659796,267.74913 L213.035855,267.796075 C210.840363,267.834991 210.397479,267.865628 210.323466,267.982744 C210.188029,268.197025 210.206677,271.465647 210.344097,271.603085 C210.42664,271.68561 211.26195,271.715074 213.522708,271.715074 C215.344614,271.715074 216.658623,271.752136 216.760019,271.80637 C216.986486,271.927563 217.136933,272.383735 217.136933,272.949177 C217.136933,273.332954 217.091841,273.454024 216.864188,273.681708 L216.591436,273.954423 L212.548681,273.95399 L208.505926,273.953496 L208.258117,273.744034 L208.25813,273.743972 Z" id="path4208" fill="#DADADA" fill-rule="nonzero"></path>
        <path d="M223.923821,273.837739 C223.610277,273.599677 223.57521,273.22356 223.57521,270.099047 L223.57521,267.002331 L223.248632,266.543009 C223.069011,266.290369 222.922054,266.04366 222.922054,265.994738 C222.922054,265.94594 222.785585,265.749882 222.6188,265.55926 C222.124485,264.994311 221.975076,264.797759 221.771921,264.445052 C221.665911,264.260977 221.461427,263.964358 221.317528,263.785842 C221.173629,263.607389 221.055889,263.414419 221.055889,263.357097 C221.055889,263.299651 220.96647,263.172899 220.857181,263.075117 C220.747891,262.977335 220.584973,262.727166 220.495134,262.519186 C220.405302,262.311145 220.211295,262.011437 220.06401,261.85312 C219.916732,261.694742 219.70475,261.445068 219.59294,261.29824 C219.48113,261.151351 219.239696,260.848802 219.056418,260.625812 C218.663233,260.147465 218.612891,259.713654 218.918473,259.43711 C219.082491,259.288676 219.261952,259.260386 220.039062,259.260386 L220.964358,259.260386 L221.331253,259.661767 C221.533044,259.882533 221.807531,260.238946 221.94122,260.453844 C222.074915,260.668742 222.287632,260.991552 222.413933,261.171179 C222.649302,261.505911 222.755651,261.641064 223.384742,262.404974 C223.584346,262.647359 223.7775,262.941323 223.813982,263.05813 C223.850488,263.174999 223.990113,263.404104 224.12432,263.567238 C224.258522,263.730373 224.431311,263.947556 224.508289,264.049847 C224.726609,264.339981 225.225081,264.222 225.383644,263.842671 C225.450813,263.682007 225.578331,263.490335 225.667008,263.416828 C225.755691,263.34326 225.914873,263.112302 226.020753,262.903581 C226.209738,262.531046 226.494949,262.137633 226.910556,261.676087 C227.025794,261.548162 227.189145,261.308679 227.273554,261.144001 C227.482219,260.736874 227.825197,260.310538 228.376612,259.772768 C228.77572,259.383555 228.906932,259.313199 229.333022,259.259953 C229.891941,259.190153 230.841143,259.280955 231.016539,259.421235 C231.080687,259.472504 231.133173,259.584246 231.133173,259.669488 C231.133173,259.849795 230.610969,260.718096 230.258133,261.124481 C229.938701,261.492445 229.598138,261.978328 229.37088,262.390396 C229.269936,262.573482 229.118216,262.780597 229.03374,262.850706 C228.949257,262.920815 228.79952,263.136207 228.700997,263.329362 C228.602468,263.522455 228.466876,263.714189 228.39967,263.755452 C228.332471,263.796837 228.195712,263.960404 228.095762,264.119215 C227.636273,264.84946 227.304235,265.3422 227.127159,265.556665 C225.961299,266.968604 226.053015,266.588842 226.022896,270.128758 C226.008689,271.796611 225.976383,273.255248 225.951014,273.370078 C225.849168,273.8315 224.366162,274.173644 223.923821,273.837739 Z" id="path4210" fill="#DADADA" fill-rule="nonzero"></path>
        <path d="M243.23332,274.002418 C243.133703,273.926194 242.764868,273.776278 242.413687,273.669292 C242.062506,273.562306 241.516657,273.332337 241.200679,273.158331 C240.567215,272.80933 239.14244,271.504994 239.046474,271.186137 C239.012995,271.074951 238.893297,270.866539 238.78048,270.723171 C238.432949,270.28133 237.975907,269.28708 237.868081,268.738253 C237.806867,268.426747 237.77786,267.46017 237.796193,266.343306 L237.826955,264.470687 L238.130208,263.892581 C238.296994,263.574651 238.433456,263.256844 238.433456,263.186364 C238.433456,262.787268 240.297428,260.711178 240.952777,260.3804 C241.132398,260.289783 241.342342,260.162599 241.41932,260.097925 C241.496298,260.03319 241.664256,259.948627 241.792553,259.910083 C241.920855,259.871785 242.277756,259.724093 242.585674,259.582578 C243.396424,259.209981 245.05632,258.953821 245.723356,259.098425 C245.999091,259.158342 246.506482,259.232342 246.850887,259.263104 C247.251243,259.29893 247.55685,259.381826 247.698267,259.493073 C247.819916,259.588755 248.125975,259.746454 248.378385,259.843556 C248.793566,260.003232 249.173681,260.222701 249.803339,260.666395 C249.924094,260.751514 250.082966,260.964929 250.156386,261.140603 C250.341307,261.583185 250.20154,262.030894 249.73588,262.487313 C249.433955,262.783253 249.298882,262.850335 249.007939,262.848606 C248.797828,262.848606 248.554634,262.771393 248.417436,262.664099 C248.289134,262.563723 248.137402,262.480704 248.080252,262.47953 C248.023115,262.47953 247.872365,262.373533 247.745292,262.24641 C247.603499,262.104648 247.319221,261.975178 247.009426,261.911246 C246.731782,261.8538 246.155406,261.700178 245.728594,261.569534 L244.952571,261.331905 L244.682654,261.531484 C244.53209,261.642793 244.273218,261.731001 244.097211,261.731001 C243.566081,261.731001 242.964676,261.965171 242.449156,262.372668 C241.806852,262.880356 241.207393,263.561864 241.043727,263.970411 C240.971771,264.150038 240.818007,264.437701 240.702034,264.609607 C240.408466,265.044901 240.367197,265.363943 240.40673,266.892812 C240.44058,268.202769 240.447684,268.241746 240.76701,268.87563 C241.140867,269.617797 242.28347,270.831022 242.757672,270.989338 C242.91967,271.043696 243.136193,271.163035 243.23883,271.255135 C243.341467,271.347295 243.534615,271.463979 243.668039,271.514507 C244.108644,271.681409 245.36021,271.736014 246.178039,271.624087 C246.82532,271.535447 247.057094,271.456628 247.438505,271.195341 C247.695549,271.019297 247.944772,270.875187 247.992341,270.875187 C248.039904,270.875187 248.173395,270.786362 248.288973,270.67777 C248.413594,270.560716 248.672818,270.460772 248.92589,270.432234 C249.33763,270.385907 249.369059,270.400732 249.818133,270.849614 C250.418013,271.449525 250.452128,271.815821 249.957017,272.340743 C249.777402,272.531118 249.630439,272.72069 249.630439,272.762014 C249.630439,272.8034 249.41,272.942074 249.140572,273.070432 C248.871143,273.19879 248.545733,273.360998 248.417436,273.430922 C248.289134,273.500784 247.906987,273.68912 247.56821,273.849475 L246.952252,274.14103 L245.183356,274.14103 C243.762269,274.14103 243.37885,274.113851 243.233338,274.002418 L243.23332,274.002418 Z" id="path4212" fill="#DADADA" fill-rule="nonzero"></path>
        <path d="M258.214773,274.074812 C258.137795,274.046398 258.011827,273.971224 257.934849,273.907539 C257.857872,273.843854 257.583051,273.722847 257.324142,273.638654 C257.065239,273.554462 256.752009,273.412576 256.628092,273.32338 C256.504169,273.234246 256.246749,273.077288 256.05604,272.974627 C255.310717,272.573492 254.687062,272.092736 254.482295,271.761402 C254.364419,271.570656 254.169275,271.308133 254.048638,271.177922 C253.927995,271.047773 253.829293,270.892606 253.829293,270.83306 C253.829293,270.773761 253.723407,270.581347 253.593998,270.40592 C253.464584,270.230494 253.315057,269.917937 253.261707,269.711317 C253.208337,269.504696 253.089331,269.230005 252.997195,269.100905 C252.754686,268.76117 252.61621,267.80775 252.616803,266.482104 C252.617353,265.263752 252.713695,264.719743 252.991426,264.366666 C253.083648,264.249426 253.188114,263.942615 253.223564,263.684848 C253.261182,263.411393 253.376018,263.110881 253.499249,262.963436 C253.615427,262.824454 253.797043,262.542783 253.902849,262.337521 C254.138056,261.881164 255.433985,260.597089 255.882071,260.376446 C256.061686,260.28793 256.27163,260.162599 256.348614,260.097925 C256.425592,260.03319 256.593544,259.950233 256.721847,259.913604 C256.850143,259.877159 257.207551,259.726379 257.51608,259.579057 C258.090887,259.304489 259.228332,259.092557 260.127592,259.092495 C260.888031,259.092433 262.032808,259.284908 262.447168,259.482387 C262.659669,259.58369 263.043471,259.746083 263.300069,259.843309 C263.556668,259.940535 263.934565,260.127513 264.139845,260.258836 C264.793514,260.677081 266.111488,261.948555 266.342848,262.384157 C266.465499,262.615115 266.634081,262.888015 266.717459,262.990677 C266.800842,263.093339 266.938527,263.391256 267.023424,263.652728 C267.108327,263.914262 267.260547,264.290503 267.361689,264.488909 C267.526603,264.812398 267.545591,265.043048 267.545591,266.723007 C267.545591,268.402904 267.526627,268.633615 267.361689,268.957043 C267.260547,269.155448 267.108432,269.531751 267.023659,269.793224 C266.938892,270.054758 266.776412,270.373676 266.662594,270.501973 C266.548777,270.630269 266.403698,270.867342 266.340192,271.028747 C266.198856,271.388002 264.695578,272.874991 264.373113,272.974503 C264.244817,273.014036 264.001919,273.166793 263.833349,273.313806 C263.627932,273.493 263.424542,273.581146 263.216649,273.581146 C263.04604,273.581146 262.670398,273.707095 262.381889,273.861088 L261.85732,274.14103 L260.106028,274.133617 C259.142818,274.12744 258.291756,274.10335 258.214773,274.074936 L258.214773,274.074812 Z M261.514341,271.58338 C261.815174,271.512592 262.17289,271.372189 262.309266,271.27138 C262.445636,271.170571 262.652077,271.057965 262.76802,271.02115 C263.041747,270.934301 264.216693,269.775001 264.410126,269.400922 C264.492404,269.241803 264.623084,269.076197 264.700525,269.032835 C264.898554,268.922019 265.120592,267.666729 265.114669,266.691442 C265.107565,265.519047 264.927487,264.65927 264.58386,264.157018 C264.289675,263.727037 263.03864,262.48546 262.56243,262.150914 C262.130467,261.847438 261.505607,261.734522 260.267557,261.736251 C258.760474,261.736251 257.976112,261.888267 257.502867,262.264756 C256.939456,262.712897 255.788761,263.935511 255.788761,264.085983 C255.788761,264.160478 255.707157,264.29526 255.607423,264.385506 C255.348205,264.620108 255.135605,265.673349 255.135605,266.723007 C255.135605,267.725781 255.360856,268.900647 255.568391,268.980268 C255.642651,269.008683 255.781695,269.184357 255.877383,269.37047 C256.142216,269.88557 257.092875,270.88402 257.464502,271.037395 C257.64621,271.112384 257.857872,271.229253 257.934849,271.2972 C258.359901,271.672082 260.432878,271.837811 261.514341,271.58338 Z" id="path4214" fill="#DADADA" fill-rule="nonzero"></path>
        <path d="M277.560438,274.024346 C277.29915,273.609499 276.791314,272.522099 276.736734,272.260689 C276.700846,272.088844 276.569375,271.770667 276.444562,271.553607 C276.319743,271.336547 276.173861,270.916635 276.120381,270.620509 C276.066888,270.324384 275.92515,269.935109 275.805397,269.755544 C275.685637,269.575917 275.558644,269.281953 275.523182,269.102388 C275.487726,268.922761 275.384817,268.647143 275.294509,268.489876 C275.204202,268.33261 275.033469,267.912759 274.915106,267.556778 C274.796742,267.20086 274.601771,266.724922 274.481838,266.499152 C274.361906,266.273383 274.263784,266.019014 274.263784,265.933833 C274.263784,265.848652 274.20745,265.701887 274.138545,265.607687 C274.018971,265.44412 274.006327,265.446344 273.858622,265.657103 C273.756572,265.802757 273.703932,266.067194 273.703932,266.434232 C273.703932,266.784468 273.638461,267.130998 273.527152,267.369862 C273.347976,267.754381 273.283086,268.159468 273.145049,269.755359 C273.043851,270.925283 272.873885,271.888895 272.713832,272.20003 C272.642556,272.338642 272.582898,272.653546 272.581268,272.899885 C272.577561,273.462486 272.452805,273.626115 271.879091,273.820876 C271.3463,274.001738 270.390242,273.946331 270.165411,273.721488 C269.936541,273.49263 270.038499,272.425553 270.353279,271.755348 C270.451277,271.546689 270.532968,271.210784 270.534815,271.008858 C270.541053,270.325187 270.775508,268.83795 270.900839,268.686923 C270.973907,268.5989 271.076803,268.017768 271.149618,267.28184 C271.217911,266.591622 271.341235,265.868604 271.423667,265.675078 C271.563304,265.347265 271.637113,264.973186 271.842857,263.550375 C271.98271,262.583242 272.087052,262.066227 272.196842,261.796415 C272.255276,261.652862 272.339617,261.137576 272.384314,260.651385 C272.47385,259.677395 272.593739,259.450946 273.089839,259.318697 C273.672262,259.163407 274.296757,259.63428 274.405454,260.310661 C274.436153,260.501592 274.518338,260.80476 274.588126,260.984387 C274.93242,261.870539 275.229731,262.537717 275.33655,262.663914 C275.401711,262.740941 275.526975,263.055288 275.614917,263.362532 C275.702853,263.669838 275.871009,264.089689 275.988601,264.29563 C276.106192,264.501572 276.229757,264.826297 276.263193,265.017228 C276.296611,265.208159 276.421195,265.481059 276.540009,265.623747 C276.658818,265.766374 276.808672,266.114016 276.873011,266.396243 C276.937357,266.678532 277.087755,267.056441 277.207237,267.236007 C277.326712,267.415634 277.451531,267.688596 277.484602,267.842526 C277.517649,267.996519 277.586412,268.227415 277.637347,268.355712 C277.752524,268.645846 278.261675,269.062978 278.364201,268.951236 C278.405711,268.906144 278.513024,268.638001 278.602627,268.355712 C278.692237,268.073485 278.842128,267.715218 278.935728,267.55962 C279.029328,267.404021 279.151695,267.072378 279.207659,266.822642 C279.263622,266.572906 279.393518,266.250466 279.496322,266.10611 C279.59912,265.961753 279.761822,265.621586 279.857881,265.350168 C279.953939,265.078751 280.116456,264.687993 280.219031,264.481805 C280.321607,264.275617 280.434473,263.952621 280.469849,263.764099 C280.505243,263.575515 280.633224,263.286988 280.754299,263.122865 C280.875381,262.958742 281.002127,262.639885 281.035952,262.414301 C281.069802,262.188717 281.197234,261.857135 281.319168,261.677446 C281.441102,261.497757 281.589121,261.152834 281.648093,260.910942 C281.755894,260.468854 281.870064,260.194348 282.022598,260.010521 C282.067876,259.956163 282.200021,259.764367 282.316278,259.58474 C282.491217,259.314496 282.591457,259.253467 282.897836,259.230736 C283.101437,259.215911 283.34381,259.258533 283.43644,259.326541 C283.612973,259.455764 283.77481,259.995634 283.779566,260.471202 C283.780802,260.625132 283.851022,260.877092 283.934936,261.031023 C284.08736,261.310718 284.325094,262.892092 284.33554,263.695843 C284.338628,263.929767 284.402715,264.202728 284.478062,264.302302 C284.553409,264.401937 284.616389,264.614796 284.61802,264.775275 C284.619873,264.935815 284.683972,265.217918 284.76095,265.402117 C284.837934,265.586377 284.900921,265.958912 284.900933,266.229958 C284.900952,266.803678 285.131527,268.089236 285.286273,268.378381 C285.385754,268.564247 285.433638,268.857717 285.640413,270.548486 C285.684331,270.90774 285.782688,271.348593 285.858949,271.52822 C286.05699,271.994645 286.155877,273.327333 286.01262,273.599307 C285.84665,273.914334 285.753359,273.95121 285.118592,273.952816 C284.528287,273.952816 283.784051,273.714137 283.628619,273.47206 C283.5847,273.403681 283.518607,272.99081 283.481736,272.55459 C283.355602,271.062289 283.293838,270.641326 283.125774,270.128573 C283.033255,269.846346 282.928369,269.174535 282.892697,268.635653 C282.850014,267.990898 282.765377,267.512366 282.645172,267.236007 C282.544703,267.00511 282.438669,266.6062 282.409551,266.349607 C282.358652,265.90128 282.151092,265.514909 282.008478,265.603055 C281.970922,265.626527 281.891257,265.894177 281.831408,266.198394 C281.771553,266.502611 281.660496,266.802999 281.584606,266.866004 C281.508721,266.92901 281.379418,267.216487 281.297264,267.50483 C281.215116,267.793234 281.047991,268.231245 280.925872,268.478263 C280.803753,268.72522 280.63614,269.166134 280.553399,269.457998 C280.470652,269.749861 280.344035,270.081998 280.272024,270.196149 C280.200019,270.310239 280.078159,270.646144 280.001236,270.942578 C279.924308,271.239013 279.778401,271.594252 279.676987,271.731937 C279.575579,271.869684 279.451168,272.167292 279.400523,272.393247 C279.314372,272.777704 278.852685,273.75577 278.631678,274.022061 C278.503554,274.176424 277.657373,274.178154 277.560438,274.022061 L277.560438,274.024346 Z" id="path4216" fill="#DADADA" fill-rule="nonzero"></path>
        <path d="M289.932496,273.713581 L289.706288,273.472802 L289.706288,266.532199 C289.706288,259.99619 289.715986,259.581837 289.872746,259.424941 C290.022322,259.27521 290.281874,259.255506 292.432143,259.230427 C294.82995,259.202631 295.959514,259.288491 296.330993,259.527232 C296.433729,259.593326 296.65754,259.695247 296.828346,259.753805 C297.295346,259.913851 298.412315,260.686655 298.478619,260.8955 C298.510616,260.99637 298.639388,261.200767 298.764768,261.349756 C298.890143,261.498808 299.056304,261.800863 299.134005,262.021135 C299.211712,262.241345 299.343609,262.497073 299.42711,262.589295 C299.544263,262.718765 299.589188,263.023477 299.623872,263.923713 C299.667914,265.066458 299.663775,265.097652 299.42294,265.44517 C299.287707,265.640302 299.177065,265.848776 299.177065,265.908384 C299.177065,266.074236 298.872372,266.67637 298.788451,266.67637 C298.747683,266.67637 298.632198,266.837343 298.531828,267.03408 C298.358507,267.373816 298.009976,267.681245 297.170941,268.234519 C296.588098,268.618852 295.925849,268.738315 294.061352,268.795329 C292.357365,268.847216 292.351083,268.848451 292.265167,269.074344 C292.217727,269.199058 292.178954,270.157173 292.178954,271.203495 C292.178954,272.481764 292.142325,273.186251 292.067256,273.350991 C291.902929,273.711666 291.355307,273.954361 290.706005,273.954361 C290.238295,273.954361 290.125805,273.919152 289.932496,273.713581 Z M295.250777,266.356649 C295.331795,266.283451 295.605473,266.146631 295.858952,266.052555 C296.330672,265.87756 296.609044,265.550303 296.994928,264.717149 C297.200653,264.272961 297.11179,263.40571 296.821644,263.026071 C295.913786,261.838048 295.850379,261.809943 293.951809,261.752559 C292.01254,261.693877 292.160491,261.49331 292.197152,264.132619 C292.218895,265.698983 292.255772,266.217913 292.353665,266.335647 C292.461583,266.465487 292.687964,266.489701 293.792597,266.489701 C294.796669,266.489701 295.137942,266.458816 295.250777,266.356649 Z" id="path4218" fill="#DADADA" fill-rule="nonzero"></path>
        <path d="M300.343635,273.657679 C300.123703,273.39633 300.101472,273.310223 300.156873,272.934538 C300.191464,272.699997 300.3392,272.326783 300.485175,272.105152 C300.63115,271.883521 300.797027,271.48566 300.853787,271.220976 C300.910554,270.956291 301.034205,270.654792 301.128583,270.550895 C301.222956,270.446997 301.352524,270.194049 301.416518,269.988787 C301.480512,269.783526 301.631503,269.483385 301.752053,269.321857 C301.872609,269.160328 302.015947,268.828685 302.070582,268.584879 C302.125249,268.341072 302.244811,268.032346 302.336348,267.898861 C302.427885,267.765314 302.577035,267.455846 302.6678,267.211175 C302.758558,266.966442 302.894354,266.704723 302.969565,266.629487 C303.04477,266.554313 303.17264,266.292655 303.253719,266.048046 C303.334798,265.803436 303.476913,265.519294 303.569537,265.416633 C303.662155,265.313971 303.780803,265.041071 303.83319,264.810175 C303.885571,264.579216 304.155611,263.928408 304.433267,263.363891 C304.710917,262.799375 305.007703,262.123611 305.092779,261.862139 C305.177861,261.600666 305.351237,261.246106 305.478057,261.0742 C305.604877,260.902294 305.708639,260.704754 305.708639,260.635201 C305.708639,260.46206 305.970476,259.969753 306.185102,259.739412 C306.282284,259.635083 306.361795,259.522414 306.361795,259.488997 C306.361795,259.35057 306.796508,259.245993 307.069197,259.318758 C307.420088,259.412402 307.610636,259.619208 307.751892,260.059751 C307.810944,260.243888 307.963213,260.535504 308.090268,260.707719 C308.217317,260.879934 308.321269,261.069691 308.321269,261.129485 C308.321269,261.189402 308.441591,261.464525 308.58866,261.741193 C308.735722,262.017861 308.92425,262.480148 309.007602,262.768552 C309.090961,263.056894 309.220264,263.343569 309.29495,263.405524 C309.369636,263.467541 309.498606,263.72259 309.581563,263.972326 C309.664514,264.222062 309.815424,264.531962 309.916919,264.661 C310.018419,264.790038 310.180108,265.117789 310.276229,265.389392 C310.372355,265.660995 310.533729,266.051196 310.634841,266.256458 C310.735952,266.46172 310.846984,266.761798 310.881575,266.923265 C310.916166,267.084732 311.024072,267.288882 311.121354,267.376904 C311.218635,267.464926 311.344757,267.761114 311.401629,268.035064 C311.458519,268.308952 311.612703,268.691741 311.744323,268.885698 C311.875936,269.079656 312.036106,269.387086 312.100248,269.568875 C312.164396,269.750726 312.322107,270.054511 312.450725,270.244021 C312.579336,270.433593 312.712481,270.774811 312.746603,271.00231 C312.780886,271.230797 312.908916,271.532729 313.032592,271.676653 C313.155768,271.820021 313.30325,272.128686 313.360332,272.362671 C313.417407,272.596594 313.520112,272.890866 313.588559,273.01663 C313.694365,273.210959 313.691474,273.278103 313.569287,273.464586 C313.346316,273.804877 312.961279,273.954361 312.307789,273.954361 C311.807112,273.954361 311.684048,273.921005 311.530599,273.744466 C311.161121,273.318994 310.770568,272.684555 310.654626,272.32147 C310.467963,271.737002 310.203649,271.263659 310.004311,271.156982 C309.88491,271.093112 308.749533,271.067786 306.721618,271.083908 L303.621461,271.108616 L303.364114,271.528467 C303.222575,271.759425 303.036116,272.179338 302.949761,272.461565 C302.714356,273.231034 302.567621,273.46576 302.16215,273.721735 C301.867835,273.907539 301.672339,273.954484 301.193368,273.954484 C300.633645,273.954484 300.57652,273.934718 300.34366,273.657803 L300.343635,273.657679 Z M308.795286,268.569498 C308.900858,268.291842 308.707276,267.627011 308.46145,267.422985 C308.389989,267.363685 308.284782,267.089982 308.227651,266.814797 C308.170514,266.539611 308.041346,266.209636 307.940599,266.081587 C307.839853,265.953476 307.694236,265.669643 307.617005,265.45073 C307.539774,265.231817 307.416308,264.986096 307.342641,264.904683 C307.268974,264.823332 307.121152,264.558771 307.014154,264.316879 C306.90715,264.074988 306.784685,263.877077 306.742008,263.877077 C306.699325,263.877077 306.596317,264.148185 306.513101,264.479458 C306.429878,264.810792 306.256823,265.236511 306.128527,265.425589 C306.000224,265.614606 305.895258,265.820547 305.895258,265.883243 C305.895258,265.945878 305.788631,266.15429 305.658308,266.346333 C305.527986,266.538314 305.36395,266.911591 305.293773,267.175781 C305.127309,267.802376 305.052406,267.982683 304.958479,267.982683 C304.835526,267.982683 304.762625,268.318526 304.828558,268.581234 L304.889093,268.822446 L306.794105,268.822446 L308.699117,268.822446 L308.79528,268.569498 L308.795286,268.569498 Z" id="path4220" fill="#DADADA" fill-rule="nonzero"></path>
        <path d="M326.914149,273.895123 C326.807788,273.759909 326.72076,273.595168 326.72076,273.529074 C326.72076,273.462918 326.447835,273.137205 326.114259,272.805253 C325.780682,272.473301 325.507751,272.1571 325.507751,272.102496 C325.507751,272.048138 325.267145,271.759919 324.973064,271.462558 C324.678983,271.165197 324.328617,270.753933 324.194465,270.548609 C324.060319,270.343347 323.608119,269.808172 323.189572,269.359351 C322.771031,268.91053 322.428584,268.491729 322.428584,268.428724 C322.428584,268.36578 322.181652,268.079229 321.879838,267.79206 C321.578029,267.50483 321.26643,267.144834 321.187396,266.992015 C321.108361,266.839134 320.849464,266.527134 320.612064,266.298647 C320.374669,266.070159 320.05882,265.694289 319.910183,265.463331 C319.761546,265.232373 319.514182,264.896467 319.360479,264.716902 C318.844385,264.113718 318.839184,264.153992 318.809343,268.975697 C318.786611,272.645022 318.760791,273.351732 318.642644,273.532039 C318.450842,273.824767 317.802825,273.992473 317.169522,273.913345 C316.241674,273.797465 316.320172,274.457663 316.293987,266.549927 C316.27595,261.108236 316.296458,259.581775 316.389478,259.398318 C316.482441,259.21517 316.591249,259.158959 316.895979,259.13666 C317.272431,259.108864 317.308788,259.130483 318.106808,259.933802 C318.559304,260.387874 319.034501,260.904518 319.162797,261.081922 C319.291099,261.259325 319.674339,261.698325 320.014445,262.057579 C320.354557,262.416834 320.697362,262.836684 320.776242,262.990677 C320.855116,263.144608 321.280156,263.642289 321.720774,264.096607 C322.161391,264.550864 322.521894,264.967812 322.521894,265.023158 C322.521894,265.078751 322.940182,265.535046 323.451427,266.03773 C323.962673,266.540476 324.449921,267.089303 324.534206,267.257317 C324.618485,267.425332 324.965132,267.845986 325.304534,268.192083 C325.908645,268.808177 325.924069,268.81701 326.03796,268.611996 C326.126125,268.453247 326.155101,267.338298 326.157603,264.008214 C326.160691,259.923116 326.172551,259.603333 326.326272,259.464227 C326.56371,259.249329 327.598327,259.169213 328.116849,259.325553 C328.494029,259.439333 328.540381,259.485723 328.609594,259.818848 C328.651598,260.021083 328.674206,263.246034 328.659813,266.985467 L328.633623,273.784308 L328.413339,273.962638 C328.252903,274.09254 328.045616,274.14103 327.650318,274.14103 C327.175128,274.14103 327.08351,274.110762 326.914193,273.895123 L326.914149,273.895123 Z" id="path4222" fill="#DADADA" fill-rule="nonzero"></path>
        <path d="M336.121872,273.697768 L335.877331,273.441175 L335.847805,270.315366 L335.818279,267.189556 L335.585004,266.83586 C335.456708,266.641347 335.215274,266.311989 335.048482,266.103886 C334.881697,265.895844 334.745235,265.669148 334.745235,265.600151 C334.745235,265.487421 334.413301,265.055278 333.760917,264.318671 C333.635135,264.176661 333.532226,264.007782 333.532226,263.943418 C333.532226,263.878992 333.412201,263.680277 333.265497,263.501824 C333.118793,263.323309 332.968772,263.082097 332.932112,262.965722 C332.895482,262.849347 332.746709,262.639391 332.601574,262.499173 C332.456439,262.358955 332.144322,261.950285 331.907977,261.59103 C331.671639,261.231838 331.418073,260.873757 331.344505,260.795432 C330.968548,260.395039 330.920621,259.76202 331.241936,259.440692 C331.441558,259.241113 331.552374,259.21239 332.105036,259.216961 C332.94727,259.223756 333.337336,259.369163 333.594651,259.771533 C333.844628,260.162413 334.235181,260.697342 334.569005,261.106074 C334.703015,261.270197 334.887293,261.551374 334.978503,261.731001 C335.069719,261.910628 335.253991,262.188037 335.388001,262.347528 C335.522017,262.506956 335.715636,262.73742 335.818279,262.859539 C335.920916,262.98172 336.109864,263.26926 336.238167,263.498488 C336.366463,263.727779 336.603419,263.992031 336.764731,264.085674 L337.058028,264.255912 L337.351516,263.962381 C337.512927,263.800976 337.72843,263.51634 337.830412,263.329794 C337.932395,263.143249 338.204257,262.759719 338.434554,262.477492 C338.664851,262.195203 338.942402,261.796354 339.051334,261.59103 C339.160271,261.385768 339.328304,261.13387 339.424746,261.031209 C339.86689,260.560645 340.227182,260.072414 340.339758,259.791299 C340.516469,259.350014 340.739879,259.267675 341.774156,259.262733 C342.577395,259.256556 342.707853,259.280646 342.82387,259.439457 C343.043301,259.739474 342.98945,260.277738 342.706346,260.614199 C342.568846,260.777581 342.390392,261.028305 342.309789,261.171303 C342.13186,261.486886 341.639769,262.150605 341.322809,262.502447 C341.194871,262.644456 341.090189,262.816362 341.090189,262.884494 C341.090189,262.952627 341.002747,263.087532 340.895873,263.184264 C340.788992,263.280996 340.641819,263.503059 340.568807,263.677807 C340.495801,263.852554 340.299817,264.155598 340.133297,264.351285 C339.674414,264.890476 339.454414,265.197473 339.270321,265.555492 C339.178296,265.734439 338.99377,265.990785 338.860267,266.125073 C338.726757,266.259361 338.512551,266.532817 338.384255,266.732766 L338.15098,267.096221 L338.104344,270.268729 C338.056657,273.513138 338.027341,273.763244 337.679422,273.896729 C337.596817,273.928232 337.267595,273.954175 336.947818,273.954175 C336.43504,273.954175 336.337536,273.923908 336.12186,273.697583 L336.121872,273.697768 Z" id="path4224" fill="#DADADA" fill-rule="nonzero"></path>
        <path d="M328.586925,213.051256 C328.509947,213.022965 328.373485,212.935783 328.283671,212.857545 C328.134966,212.727995 328.120382,212.46588 328.120382,209.9219 C328.120382,207.269798 328.129833,207.11651 328.307002,206.891265 C328.431221,206.733344 328.494381,206.510039 328.495894,206.223389 C328.498983,205.632182 328.652117,205.000837 328.86287,204.709981 C328.959713,204.576329 329.086422,204.290692 329.144436,204.075232 C329.202438,203.859766 329.32205,203.611358 329.410202,203.523206 C329.498354,203.435054 329.686857,203.164341 329.829101,202.921621 C329.971339,202.678908 330.122849,202.480318 330.165779,202.480318 C330.208709,202.480318 330.296459,202.353263 330.36078,202.197973 C330.425108,202.042684 330.598156,201.82988 330.745336,201.725081 C330.892515,201.620275 331.012936,201.475487 331.012936,201.403321 C331.012936,201.331149 331.132665,201.21019 331.279004,201.134516 C331.425343,201.058842 331.615262,200.889808 331.701042,200.758886 C331.786828,200.627965 331.921036,200.520849 331.99928,200.520849 C332.077524,200.520849 332.234728,200.4203 332.34862,200.297409 C332.462511,200.174523 332.730569,199.982826 332.944311,199.871418 C333.158054,199.76001 333.381013,199.610921 333.439775,199.540115 C333.498518,199.469308 333.763827,199.339924 334.029308,199.252594 C334.294783,199.165263 334.624462,199.000245 334.761925,198.885884 C334.899382,198.771523 335.156049,198.650904 335.332291,198.617839 C335.508527,198.584792 335.72655,198.476151 335.816778,198.376448 C335.996399,198.177974 336.348253,198.048115 336.965521,197.952483 C337.185935,197.918324 337.542836,197.79345 337.758642,197.674957 C338.049819,197.515077 338.411946,197.43485 339.162755,197.363895 C339.820686,197.301717 340.229041,197.218915 340.33048,197.127112 C340.509996,196.964651 341.175963,196.794135 341.643939,196.790799 C341.820181,196.789564 342.135097,196.708342 342.34375,196.610344 C342.762785,196.413532 342.944778,196.379281 344.627733,196.180431 C345.276473,196.103781 345.851064,195.987925 345.934052,195.917044 C346.171193,195.714494 346.394306,195.662866 347.423179,195.572466 C347.956773,195.525582 348.482176,195.430067 348.590743,195.360199 C348.921781,195.147173 349.40872,195.008783 350.111218,194.928081 C350.551929,194.87743 350.87821,194.781983 351.064898,194.649053 C351.253062,194.515068 351.635313,194.404172 352.199483,194.319893 C352.792753,194.231266 353.111338,194.136115 353.251927,194.005564 C353.362823,193.902587 353.694688,193.774304 353.989399,193.720483 C354.284116,193.666682 354.64334,193.535315 354.787678,193.428608 C354.93201,193.321894 355.299714,193.169631 355.604796,193.09025 C355.909879,193.010863 356.23314,192.867334 356.323151,192.771288 C356.413162,192.675242 356.702845,192.532504 356.966893,192.454093 C357.230942,192.375676 357.503292,192.231128 357.572116,192.132864 C357.64094,192.034607 357.908052,191.900183 358.165701,191.834151 C358.462271,191.758136 358.685922,191.635066 358.775266,191.498715 C358.85288,191.380258 358.976939,191.283335 359.050952,191.283335 C359.124958,191.283335 359.323438,191.163192 359.492014,191.016353 C359.660585,190.869513 359.933818,190.680083 360.099189,190.595402 C360.26456,190.510722 360.554607,190.336425 360.743728,190.20808 C361.066588,189.988981 361.098097,189.984231 361.259502,190.130299 C361.422062,190.277416 361.431401,190.535306 361.431401,194.8757 C361.431401,199.347034 361.42646,199.469894 361.244788,199.634419 C361.142151,199.727309 361.058168,199.859781 361.058168,199.928809 C361.058168,200.12512 360.367524,200.766533 360.077866,200.839231 C359.934399,200.875243 359.736321,201.007282 359.637699,201.132663 C359.539077,201.258038 359.404227,201.360619 359.338028,201.360619 C359.271829,201.360619 359.059285,201.486494 358.865697,201.640332 C358.672116,201.79417 358.356317,201.962426 358.163928,202.014232 C357.971533,202.066057 357.756746,202.177614 357.686619,202.262171 C357.525146,202.456882 357.112633,202.627386 356.597941,202.712159 C356.37295,202.749221 356.101718,202.873157 355.98063,202.994244 C355.827551,203.147323 355.604735,203.229502 355.215602,203.276391 C354.913627,203.312774 354.456615,203.440249 354.200023,203.559656 C353.943424,203.679052 353.455558,203.820888 353.115879,203.874838 C352.776199,203.928763 352.314326,204.053069 352.089489,204.151024 C351.864653,204.248979 351.281809,204.378683 350.794271,204.439255 C349.789217,204.564123 349.468439,204.634677 348.741493,204.890745 C348.376166,205.01943 347.838452,205.090169 346.875328,205.136243 C345.871052,205.1843 345.482031,205.237281 345.365891,205.341863 C345.120269,205.563037 344.601907,205.652468 343.12624,205.728259 C342.030965,205.784532 341.721003,205.830736 341.579309,205.95897 C341.481848,206.047172 341.26619,206.119338 341.100066,206.119338 C340.933948,206.119338 340.724399,206.158747 340.634401,206.206909 C340.544408,206.25509 340.011814,206.34284 339.450856,206.401948 C338.889904,206.461062 338.30963,206.574428 338.16137,206.653889 C338.013103,206.733356 337.555962,206.856649 337.145494,206.927883 C336.635039,207.016467 336.316862,207.126665 336.138686,207.276593 C335.99441,207.39799 335.684893,207.524772 335.444959,207.560754 C335.201277,207.597321 334.926709,207.71075 334.817388,207.82007 C334.710495,207.926963 334.414469,208.093668 334.159544,208.19053 C333.904625,208.287397 333.560758,208.469841 333.395406,208.595963 C333.230047,208.722085 333.047634,208.825278 332.99004,208.825278 C332.93247,208.825278 332.738358,208.972235 332.558743,209.151856 C332.379122,209.331471 332.189852,209.478435 332.138139,209.478435 C332.086437,209.478435 331.98052,209.601425 331.902782,209.751742 C331.825051,209.902066 331.683382,210.049832 331.587972,210.080118 C331.492555,210.110385 331.366643,210.240182 331.308166,210.368528 C331.24967,210.496868 331.096356,210.641984 330.96743,210.691005 C330.838497,210.739988 330.733013,210.842891 330.733013,210.919609 C330.733013,210.996322 330.607045,211.152217 330.45309,211.26604 C330.299128,211.37987 330.17316,211.52553 330.17316,211.58974 C330.17316,211.65395 330.005208,211.900536 329.799933,212.137714 C329.594653,212.374899 329.4267,212.622874 329.4267,212.688777 C329.4267,212.989065 328.962598,213.189386 328.586925,213.051256 Z" id="path4236" fill="#DADADA" fill-rule="nonzero"></path>
        <rect id="Rectangle" fill-opacity="0" fill="#FFFFFF" x="0" y="0" width="450" height="450"></rect>
    </g>
</svg>