<svg height="68" viewBox="0 0 189 68" width="189" xmlns="http://www.w3.org/2000/svg"><path d="m231.55258 101.875346c-.053235-.019165-.147355-.07964-.209108-.133301-.102211-.089435-.112433-.270009-.112433-2.0242158 0-1.8283103.006389-1.9339289.128617-2.0893758.085602-.1090257.129468-.262769.13032-.460804.001703-.4075688.107322-.8428199.252547-1.0429844.06729-.0924163.154595-.2891737.194202-.4378064.040033-.1486327.122654-.3198372.183556-.3807383.060901-.0604752.190369-.2474372.288747-.4148088.097953-.1673715.202294-.3040795.232106-.3040795.029386 0 .090287-.0877317.134579-.194628.044291-.1073222.163538-.2538255.264898-.3262254.10136-.071974.184833-.1720562.184833-.2214585 0-.050254.082195-.133301.183129-.1856844.100934-.0523835.231679-.1686492.290877-.2589361.059623-.0902869.151614-.1639645.205701-.1639645s.162261-.0694187.241049-.1541692c.078362-.0847504.263195-.2167738.41055-.2938584.147355-.0766587.301098-.1792962.341557-.2282726s.223588-.1379856.406717-.198035c.182703-.0604752.410124-.1741856.505096-.2529737.094546-.0787881.271712-.1618351.393089-.1848327.121376-.0229976.272138-.0979528.333891-.1665198.123932-.136708.366258-.226569.79214-.2921548.15204-.0238494.398199-.1098775.546832-.1916468.20059-.1098775.450583-.1652421.968029-.2142185.45399-.0430141.735498-.1000822.805343-.1631127.123931-.1120069.583032-.2295503.905424-.2321056.121802-.0008517.339002-.0570681.482524-.1243574.288748-.1358563.414383-.1592798 1.574911-.2964137.447176-.0528093.843246-.1328751.900314-.1814256.163538-.1396892.317282-.1754633 1.026801-.237642.367962-.0323671.730387-.0983787.805342-.1465034.227847-.1469292.563868-.2423267 1.048095-.2976913.30408-.0349223.528945-.100934.657561-.1924985.129468-.0924164.393089-.1686492.782345-.226995.408847-.061327.628602-.1269128.725703-.2167738.075807-.0706964.304931-.1597056.508077-.1963315.203571-.0374776.451008-.1277645.550665-.201442.09923-.0736776.35263-.1788704.563015-.2333832.210386-.0545129.433548-.1537433.495301-.219755.062178-.0664375.261917-.1648162.443769-.2189032.182277-.054087.370091-.1537433.417364-.2214585.047698-.0677152.231679-.1601315.409698-.2057009.203997-.0523834.358592-.1375598.419919-.2316796.053661-.0813435.138838-.1482069.189943-.1482069.051106 0 .18824-.0830469.30408-.1839809.116692-.1013599.304931-.2321055.419068-.2904513.11371-.0583458.313874-.1784445.444194-.266602.222736-.151188.244456-.1545951.355612-.0536611.112006.100934.118395.2789525.118395 3.2716235 0 3.0825319-.003407 3.1672824-.128617 3.2809928-.070696.0638823-.128616.1554469-.128616.2027197 0 .1354304-.476136.5774957-.6763.6277497-.098379.025127-.235087.1158398-.302802.2022938-.068567.086454-.160983.1571504-.206979.1571504-.045569 0-.192072.0868799-.325373.1929244-.133727.1060446-.351353.2218844-.483802.2576585-.132875.035774-.280656.1128586-.329632.1712044-.11073.1341528-.395219.2516961-.749978.3100419-.155447.0255529-.342409.1111552-.425882.194628-.105618.1056187-.259362.1622609-.527667.1946279-.208256.0247012-.522983.1128587-.70015.1950539-.176741.082621-.513187.1801479-.747422.2176255-.234235.0366259-.552795.122654-.70739.1903692-.155021.0672893-.557053.1567244-.893074.1984609-.693335.0860281-.913942.1350045-1.415205.3113195-.252122.0890093-.623065.1375598-1.287014.1695009-.692484.0327929-.960364.0694188-1.040429.1418186-.169501.1520398-.526816.2137927-1.544248.2661761-.755088.0387553-.968881.0706964-1.066833.1592798-.066864.0604752-.215922.1103034-.330059.1103034-.114988 0-.259362.0272564-.321115.0604752-.062178.0332188-.429288.093694-.815989.1341527-.386701.0408847-.787029.1192469-.889241.1741856-.102212.0545129-.416938.1396893-.700575.1886657-.351779.060901-.571108.1371339-.693762.2401973-.099656.0838987-.313023.1712044-.478265.1959056-.168223.0255529-.357315.1034892-.432696.1788703-.074103.0741034-.277675.1886656-.45399.255529-.175889.0668635-.412679.1924986-.526815.2798043-.113711.0868799-.239346.1580021-.279379.1580021-.039607 0-.173334.100934-.297265.2252915-.123506.1235057-.254252.2248655-.290026.2248655s-.1086.0847505-.162261.1886656c-.053661.1034893-.151188.205275-.217199.2261432-.065586.0208682-.152466.1103034-.192925.1988871-.040033.088583-.146077.188665-.234661.22231-.088583.033645-.161409.104767-.161409.157576 0 .05281-.08688.160558-.19335.23892-.106471.078362-.192925.17887-.192925.223162s-.115839.214218-.257232.377757-.257659.334743-.257659.379886c0 .206979-.319837.345391-.578773.249993zm5.194906 41.81392-.168224-.177166-.020442-2.154962-.020442-2.154962-.160984-.244456c-.088583-.133727-.255103-.360722-.369665-.504244-.115414-.143522-.209108-.29982-.209108-.347519 0-.077511-.228698-.376054-.678855-.883705-.086454-.097527-.157577-.214218-.157577-.25851 0-.044718-.082621-.181426-.183981-.304505-.100934-.12308-.204423-.2896-.229976-.369666-.025127-.080065-.127764-.225291-.227846-.32154-.099657-.096676-.315153-.378609-.478266-.626047-.162686-.247863-.337724-.494874-.388404-.548535-.259362-.275972-.292155-.7125-.070696-.933959.13756-.137986.214218-.158002.594957-.154595.580902.004685.849634.104767 1.027226.382442.172482.269583.44164.638397.672042.92033.09199.113285.218903.307061.282359.430993.062605.123505.189518.314726.28236.42503.092416.109451.225717.268731.296414.35263.070696.084324.201016.282785.289599.440787.088584.158002.251696.34028.362851.404588l.202294.117543.202294-.202294c.111155-.111581.259788-.307912.330058-.436528.070697-.128191.257659-.392663.416513-.587291s.3505-.469748.42503-.611141c.075381-.141818.191647-.315152.257658-.385848.304931-.324522.553646-.661395.630731-.855171.121802-.30408.276397-.361148.989323-.364129.553647-.004259.643508.012351.723573.121802.151188.206553.114137.577922-.080917.809602-.094546.112858-.217626.285766-.273416.384145-.122654.217625-.461656.675022-.680559.918201-.088158.097527-.160558.215922-.160558.263195 0 .046847-.060049.140115-.133727.206552-.073677.066438-.175037.220181-.225717.34028-.050254.120524-.185258.329206-.300246.464637-.316431.371795-.467619.583032-.594531.830043-.063883.123506-.190795.300247-.282786.392663-.092416.092843-.240197.281082-.328355.419068l-.160983.250418-.031941 2.187329c-.032793 2.237157-.053235 2.409213-.293007 2.501629-.057068.02172-.284063.039607-.50467.039607-.353481 0-.420345-.020868-.569403-.176741zm-6.348194.135857c-.073251-.093268-.133301-.206553-.133301-.252548 0-.04557-.188239-.270435-.418215-.499134-.229977-.228698-.418216-.446324-.418216-.484227 0-.037478-.165668-.236364-.368814-.441214-.202294-.205275-.444195-.488486-.536611-.630305-.092416-.141392-.404587-.510206-.692909-.819822-.288322-.30919-.524687-.598364-.524687-.641804 0-.043014-.169927-.240623-.378183-.438658-.208256-.198461-.423326-.446324-.477413-.551943-.054513-.105192-.232957-.320263-.396496-.477839-.163964-.157576-.382016-.416512-.484228-.575792-.102211-.15928-.27299-.390959-.379034-.514465-.355612-.416087-.359019-.388404-.379887 2.936029-.015757 2.530163-.033219 3.016946-.114988 3.141303-.132023.201868-.578773.317282-1.015302.262769-.6401-.07964-.585587.375628-.6039-5.07651-.012777-3.751592.001703-4.804372.066011-4.930859.063883-.126487.138838-.164816.348798-.180574.259787-.019164.284914-.003833.834728.549814.312597.313023.639674.669486.728258.791714.088583.122228.35263.42503.58729.672467.234661.247863.471026.537463.525113.643507.054087.106045.347519.44888.651599.762755.303653.313023.552368.600493.552368.638822 0 .03833.287896.35263.640952.698872.352205.347094.688225.725277.746145.841117.05792.115839.297266.405865.531501.644784.416086.424605.426733.430567.505095.289174.061327-.109451.080918-.878168.082621-3.174096.00213-2.816356.010647-3.036963.116266-3.132786.163964-.148207.876891-.203572 1.234631-.095824.260214.078788.292155.110729.339854.34028.028534.139263.044717 2.362792.034496 4.940654l-.018313 4.68768-.151614.12308c-.110729.089435-.253399.12308-.526389.12308-.327078 0-.390534-.020443-.507226-.169501zm-12.492388-3.671953c.072825-.191221-.060902-.649469-.229977-.790436-.049402-.040885-.121802-.22955-.161409-.419494-.039607-.189517-.128616-.416938-.198035-.505095-.069418-.088158-.169501-.284064-.222736-.435252-.053235-.150762-.138411-.320263-.189517-.376479-.05068-.056216-.152466-.238494-.226569-.405439-.073678-.16652-.158002-.303228-.187388-.303228s-.100508.187388-.157577.41566c-.057494.228273-.17674.521706-.265324.652025-.088157.130746-.160557.272565-.160557.315579 0 .04344-.073678.186962-.163539.319411s-.203145.389682-.251696.571959c-.114562.43227-.16652.556202-.230828.556202-.08475 0-.135004.231679-.089861.412679l.042162.16652h1.31342 1.313419zm-5.82734 3.507988c-.151188-.180148-.16652-.239345-.128191-.498281.023424-.161836.125636-.419068.226144-.571534.100508-.153317.21507-.427159.254251-.609862.038755-.182704.124357-.390534.189517-.462082.064734-.071548.15417-.24616.198461-.387552.043866-.141393.147781-.348798.231254-.459527.083047-.111581.181852-.340279.219329-.508503.037904-.167797.120099-.380738.183555-.472728.062605-.092417.166094-.305783.228273-.474007.06303-.169075.156298-.349649.20783-.401606.051958-.051532.140115-.232106.196332-.400755.05579-.168649.154169-.364555.217625-.435251.063882-.071122.145652-.258936.181852-.418216s.22231-.607733.413531-.996989c.191647-.389256.39607-.855171.454841-1.035319.058772-.180147.178445-.425029.265751-.543425.087305-.118395.158854-.255103.158854-.302802 0-.119246.180573-.458674.328354-.617528.06729-.071974.122228-.14991.122228-.172482 0-.095398.299821-.167798.487635-.117543.241475.064734.373072.207404.470599.511058.040459.126486.145652.327929.232958.446324.087731.119247.159279.249566.159279.290877 0 .041736.083473.231254.184833.422049.100934.190369.231254.509354.288748.708241s.146503.396496.198035.43951c.051532.042162.140541.218051.197609.390533.057068.172057.160983.385849.230828.474859.07027.089009.181851.314726.247863.501688.066438.187814.177593.456971.247863.598364.069419.141393.145652.348371.169927.459527.023849.111581.097953.252122.165242.312597.066864.060901.153743.264898.19335.45399.039182.188665.145652.452712.235939.586439.090713.133727.201442.345816.245734.471025.043866.125209.152891.334743.241475.465489.088583.13032.180574.365832.203571.522557.02385.158002.112007.365832.197183.465062.085603.099231.186962.311746.226569.473155.038756.160983.109878.364129.157151.450583.073251.134579.071122.180574-.013203.30919-.153743.234661-.419493.337724-.86965.337724-.34539 0-.430141-.022997-.535759-.144799-.255103-.293433-.524261-.730814-.604326-.981232-.128617-.402884-.310894-.729535-.448454-.803213-.082195-.04344-.864966-.060901-2.263135-.050254l-2.137501.017035-.177593.2896c-.097526.15928-.225717.448879-.28534.643507-.162687.530649-.263621.692484-.542999.868799-.203146.12819-.337725.160557-.668209.160557-.385849 0-.425456-.014054-.586013-.204849zm-3.510969-5.033496c.05579-.050254.244456-.1448.419493-.209534.324948-.12095.516595-.346668.782771-.920756.141819-.306209.080917-.904147-.119247-1.166064-.626046-.819397-.669486-.838136-1.978646-.877743-1.337269-.040884-1.235058-.17887-1.20993 1.640497.014905 1.080036.040884 1.437777.108173 1.51912.07453.089861.230402.10647.991879.10647.692484 0 .927996-.02172 1.005507-.09199zm-3.666842 5.072251-.155873-.166093v-4.785208c0-4.506254.006389-4.792021.114563-4.900195.103063-.103063.281933-.116691 1.764853-.134153 1.653273-.019164 2.431785.040033 2.68774.204424.071122.045995.225717.116265.343261.156298.321966.110304 1.091961.643082 1.137956.787456.022146.069418.110729.210385.197183.313023.086454.103063.20059.310893.254251.462933s.1448.328355.202294.391385c.080492.089436.112007.299395.135431.920331.030663.787881.027682.809601-.138412 1.048947-.093268.134578-.169501.278526-.169501.319411 0 .114562-.20996.529371-.26788.529371-.028108 0-.107748.111155-.17674.247011-.120099.233809-.35987.445898-.938218.827488-.402032.264899-.858577.347094-2.144314.386701-1.174582.035774-1.178841.036626-1.238464.192073-.032793.086028-.059198.74657-.059198 1.46844 0 .881149-.025127 1.36708-.077085 1.480365-.113284.248715-.490615.416086-.938643.416086-.322392 0-.399903-.024275-.533204-.166094zm-8.529985.214219c-.180148-.286193-.530649-1.035744-.5677-1.215892-.025128-.118396-.11584-.337725-.201868-.487635-.086029-.14991-.186537-.439084-.223162-.643507-.037052-.203572-.135005-.472303-.2172-.595809-.083047-.123931-.170353-.327077-.194628-.450583-.024701-.123931-.095398-.313875-.157576-.422474-.062605-.108174-.180148-.397774-.261918-.643082-.081343-.245308-.215922-.573237-.298543-.729535-.082621-.155447-.150336-.33091-.150336-.389682 0-.058346-.038755-.159706-.086028-.22444-.083047-.113284-.091565-.111581-.19335.033645-.070697.100508-.106897.282785-.106897.536185 0 .241049-.044717.480395-.121802.645211-.123506.264898-.168223.544277-.263195 1.644329-.069844.80662-.186962 1.470996-.297265 1.68564-.048977.095398-.090287.312597-.091565.482524-.002555.387978-.088583.500411-.484227.63499-.36711.124783-1.026375.086454-1.181396-.068567-.157576-.157576-.087306-.8935.129468-1.355582.067715-.143948.123931-.375627.125209-.514891.004259-.471025.165668-1.496974.252122-1.600889.050254-.060475.121376-.46123.172056-.968455.046847-.47571.131598-.974418.188666-1.108144.096249-.225718.147355-.483376.289174-1.464608.096249-.666931.168223-1.022968.24403-1.209504.040459-.098804.097953-.45399.129042-.789159.061753-.672041.1448-.827914.486357-.919052.402032-.107323.832173.217625.907128.683966.021294.131597.077936.340705.126061.464637.237642.610714.442065 1.070666.516169 1.157546.044717.053235.131171.270009.191646.482098.060901.211663.176741.501263.257659.643082.080917.142244.166094.365832.189517.497855.022998.131598.109026.319838.190795.41779.082195.098805.185259.33815.22955.532778.044292.194628.148207.455268.230403.5792.082621.123931.168649.311745.19122.41779.022572.10647.070271.265324.105619.353907.079214.200165.430141.488061.500837.41055.028534-.030663.102637-.215922.16439-.41055s.165242-.441639.229551-.548961c.064734-.107322.149058-.335595.187813-.507651.03833-.172482.127765-.394793.198461-.494023.071123-.099656.183555-.334317.249567-.521279.066438-.186962.178019-.456546.248715-.59879.071122-.142245.149059-.364981.173334-.494875s.112433-.329206.195905-.442065c.083899-.113284.171205-.333039.194628-.488486.022998-.155447.11073-.384146.195054-.508077.083899-.123932.186111-.361574.226569-.528519.07453-.304506.152892-.494023.258085-.620936.031089-.037052.122228-.169501.202719-.293432.120525-.186537.189518-.228273.400755-.244031.140541-.010221.307913.019165.371369.066012.121802.089009.233383.46123.23679.789585.000852.106044.048977.279804.107322.385849.104767.192498.268732 1.282755.275972 1.836827.002129.16141.046421.350075.098378.418642.051958.068567.094972.215496.09625.3258.001277.110729.045569.305357.098804.43227.05281.127338.096249.383719.096249.570681 0 .395644.158854 1.28233.265751 1.481217.068993.12819.101785.33091.244456 1.496548.030237.247438.097953.551517.150336.675449.136282.32154.204849 1.240167.106045 1.427555-.114137.2172-.178871.242753-.616251.244031-.407143 0-.920331-.164817-1.027227-.331762-.030238-.046847-.076233-.331762-.10136-.632435-.087306-1.02893-.129468-1.319381-.245734-1.672863-.063456-.194628-.135856-.657562-.160557-1.029356-.029386-.444195-.087732-.774253-.170779-.964622-.068992-.15928-.142244-.4344-.162261-.611141-.035348-.30919-.178444-.575366-.276397-.514891-.025979.016184-.080917.201016-.122228.41055-.04131.209534-.117969.416938-.170353.460378-.051957.04344-.141392.241475-.198035.440362-.056216.198887-.17163.500837-.255954.670764-.083899.170778-.199739.474858-.256807.675874s-.144374.430141-.194202.508929c-.049403.078362-.133301.310042-.186536.514891-.05281.203997-.153744.448879-.223588.543851-.069845.095397-.155447.300246-.190369.455693-.059624.265325-.378183.939495-.530223 1.123476-.088158.106045-.671616.107322-.738479 0zm-11.06313-1.682659c.206979-.048976.453564-.146077.547684-.215496s.23679-.146929.31643-.172482c.189092-.060049.998693-.859004 1.13242-1.117088.056216-.109451.146503-.224014.199738-.253825.137134-.076659.290026-.941625.285767-1.614092-.005111-.80875-.129042-1.401151-.365833-1.747819-.203145-.296413-1.065556-1.152436-1.393911-1.382838-.297691-.209534-.728683-.28747-1.58215-.286192-1.039152 0-1.580021.105193-1.906247.364555-.388404.308764-1.181822 1.15201-1.181822 1.255499 0 .051532-.05579.144374-.124783.206552-.178444.161836-.325374.887964-.325374 1.611963 0 .691206.155021 1.501233.298544 1.556172.051105.01959.146929.140541.21294.269157.182704.355185.838136 1.04341 1.094091 1.149029.125209.051957.271286.132449.324521.179296.293007.258084 1.722266.372647 2.467985.197183zm-2.27506 1.717581c-.053235-.01959-.140115-.071548-.192925-.115414-.053235-.043866-.242752-.127338-.421197-.185258-.178444-.058346-.394366-.155873-.479968-.217626-.085177-.061327-.262769-.169501-.394367-.240197-.514039-.276823-.943754-.608159-1.085146-.836432-.080918-.131597-.215922-.312597-.298969-.402032-.083047-.089861-.150763-.196758-.150763-.238068 0-.040885-.073251-.173334-.162261-.294284-.089435-.121377-.192498-.336447-.229124-.479117-.037052-.142245-.119247-.332188-.182703-.421197-.167372-.234235-.262343-.891371-.261917-1.805313 0-.840265.066437-1.215466.258084-1.458645.063456-.080492.135856-.292155.159706-.469748.026404-.189091.105192-.39607.189943-.497429.080491-.095824.205701-.290026.278952-.431844.161835-.314301 1.055335-1.199709 1.364525-1.352175.123506-.060475.268306-.146929.321541-.191647.053235-.044717.168649-.101785.257233-.127338.088157-.024702.334743-.129043.547258-.230828.396496-.189092 1.18097-.335169 1.801054-.335169.523834 0 1.313419.132875 1.599185.268731.146504.069845.411402.181852.588143.249141.176741.066863.437381.195906.578773.286193.451009.288747 1.359415 1.165212 1.518695 1.465459.08475.159279.201016.347519.25851.418215.057494.070697.152466.275972.210811.456546.058772.180148.163539.43951.233384.576218.113284.223162.126912.382441.126912 1.54084 0 1.157546-.013202 1.316826-.126912 1.539988-.069845.136708-.174612.396496-.232958.576218-.058771.180574-.170352.400755-.249141.488912-.078788.088584-.178444.252122-.221884.363277-.097953.247438-1.134549 1.272961-1.356433 1.341528-.088584.027256-.256381.132449-.372221.234235-.141819.123506-.281934.183981-.42503.183981-.117543 0-.376905.08688-.575792.192924l-.361574.192925-1.207374-.004685c-.664376-.004259-1.251241-.020868-1.30405-.040459zm-10.329336-.049828c-.068567-.052809-.322818-.155873-.565145-.22955-.241901-.074104-.61838-.232532-.836431-.352204-.436529-.241049-1.419038-1.140086-1.48505-1.360267-.022998-.076232-.105619-.22018-.183555-.318985-.239346-.304931-.554498-.990175-.628602-1.368784-.042588-.214644-.062604-.881149-.049402-1.651143l.020868-1.290848.209108-.398625c.114988-.219329.209108-.438658.209108-.487209 0-.274694 1.284885-1.706508 1.736746-1.934355.123932-.062179.268731-.14991.321967-.194628.052809-.044717.168649-.103063.257232-.129894.088158-.025978.334317-.127764.546406-.225717.559183-.256381 1.703527-.433122 2.163905-.333465.189944.04131.539593.092416.777235.113284.275971.024701.486357.082195.584309.158854.083899.066012.294711.174612.46847.241475.286619.110303.548962.261065.982935.567274.083047.058772.192499.205701.243179.327078.127338.304931.031515.613695-.2896.928422-.208682.203997-.301524.249992-.502114.249141-.1448 0-.312172-.053236-.407143-.127339-.088584-.069419-.192925-.126487-.232532-.126913-.039607 0-.143522-.073251-.230828-.160983-.097527-.097953-.293432-.186962-.507225-.230828-.191647-.040033-.588994-.145652-.883278-.235938l-.534908-.163965-.18611.13756c-.103915.077084-.28236.137986-.403736.137986-.366258 0-.780641.161409-1.136253.442491-.442917.349649-.856022.819396-.969306 1.10133-.049403.123931-.155447.321966-.235087.440787-.20272.300247-.230828.519576-.203998 1.574059.023424.903295.028535.930126.248715 1.367081.257659.511484 1.045114 1.348341 1.372617 1.457367.111581.037478.26064.119673.331336.183555.070697.063031.204423.143522.295988.178444.303654.114989 1.166916.152892 1.730783.075382.446324-.060902.60603-.114989.868799-.295562.177167-.120951.349223-.220607.38159-.220607.033219 0 .125209-.061327.204849-.136282.086028-.080492.264473-.149485.439084-.169075.284063-.031941.305783-.02172.614974.28747.413957.413957.43738.666505.095823 1.028078-.123506.131598-.224866.262343-.224866.290878 0 .028108-.152039.123931-.337724.212515-.18611.088583-.410124.20059-.498707.248289-.088584.048124-.351779.178018-.585588.288747l-.424604.201017h-1.219299c-.979954 0-1.244427-.018739-1.344935-.095398zm-13.313063-.11371c-.216348-.164391-.240197-.423327-.240197-2.577862v-2.134946l-.225291-.31643c-.123932-.174611-.225292-.344538-.225292-.378183 0-.033644-.09412-.169075-.209108-.300246-.340705-.389256-.443769-.525113-.583884-.768291-.072825-.126913-.213792-.331336-.313023-.454416-.099656-.12308-.180574-.256381-.180574-.295988 0-.039181-.061752-.126486-.137133-.194202-.075382-.067289-.187388-.239771-.249567-.383293-.061753-.143522-.19548-.350075-.29684-.459101-.101785-.109025-.248289-.281082-.324947-.382867-.077085-.100934-.243605-.309616-.370092-.46336-.271286-.330058-.305783-.629027-.094971-.819396.112858-.102638.23679-.121802.772549-.121802h.637971l.252974.276397c.138837.15204.328355.398199.420345.54598.092416.148633.23892.370943.326225.494449.162261.230828.235513.324096.669486.850912.137134.167371.270435.370091.295562.450583.025127.080491.121377.238493.214219.350926.092416.112433.211237.261917.264472.33304.150337.199738.494449.118395.603475-.143097.046421-.110729.134153-.243178.19548-.293858.060901-.05068.170778-.20996.24403-.353908.13032-.256381.327077-.528093.613695-.846227.079214-.088157.192073-.253399.249567-.36711.143948-.280656.380738-.574088.761051-.945031.275119-.268306.365406-.316856.659265-.353482.385423-.048551 1.040003.01448 1.160527.110729.044292.035348.080492.112859.080492.17163 0 .124358-.35987.722722-.603474 1.002952-.219755.253825-.454842.588568-.611567.872631-.069418.126487-.174185.269158-.232531.317708-.058346.048125-.161409.196758-.229124.330059-.068141.132875-.16141.265324-.207831.293432-.046421.028534-.140541.141393-.209959.250844-.31643.503393-.545555.843246-.667357.991027-.804065.973566-.740608.712075-.761477 3.152377-.009369 1.150306-.031941 2.155813-.049402 2.234601-.07027.318134-1.092812.554072-1.397744.322819zm-10.800786-.064734c-.09412-.07964-.20272-.207405-.241475-.284915-.077511-.154595-.103915-8.635178-.028534-9.185417.034496-.249993.078362-.327504.241475-.428012.189517-.116691.341557-.121802 3.039518-.105618 3.356799.020016 3.11064-.040033 3.11064.756792 0 .409698-.025553.533203-.147355.714203l-.147355.218052-2.147296.017035c-1.474829.011925-2.174126.040033-2.234176.089435-.068993.057494-.083898.318134-.069844 1.238038l.017461 1.164787 1.833421.031941c2.281448.040033 2.211604.017461 2.238434.720592.017461.46847.008944.50467-.17163.706964l-.190369.21294-1.80872.032367c-1.51401.026831-1.819367.047699-1.870473.129043-.093268.147355-.080491 2.401121.01448 2.495667.056643.057068.632861.07751 2.191588.07751 1.255925 0 2.161775.025127 2.23162.062605.156299.083472.260214.398199.260214.788307 0 .264472-.03109.347945-.18824.50467l-.18824.188239h-2.78697l-2.787396-.000426zm-11.460904-.044718-.173333-.206127v-4.75071-4.751137l.1695-.133301c.130746-.102638.259362-.132875.563016-.130746.478265.004259.924163.084325 1.025523.186111.05281.052383.084751.666504.107748 2.049768l.031942 1.97524 2.24397.017035c1.602593.011925 2.269524-.004259 2.332129-.056216.071122-.058346.088157-.447176.088157-1.993127v-1.920726l.169075-.111156c.11584-.075806.342835-.118821.723573-.136282.494875-.023849.573663-.011498.731665.113285l.176741.140115v4.751137 4.751136l-.16652.198035c-.155872.184833-.194628.198035-.603474.198035-.481246 0-.861559-.125209-.964622-.317282-.041311-.07751-.066438-.785326-.066438-1.857696 0-1.654976-.006388-1.740153-.133301-1.901988l-.133301-.169075h-2.10854c-1.96076 0-2.115781.007666-2.215011.117118-.093268.103489-.10647.327077-.10647 1.824477 0 1.786574-.033645 2.056157-.275972 2.185625-.074103.039607-.383719.086028-.688225.103489l-.554498.031516zm-6.992552.212089c-.123931-.055364-.385423-.151188-.581328-.212515-.363703-.113284-.919479-.488912-1.088128-.734646-.051106-.074955-.145652-.174185-.209108-.220607-.146929-.10647-.148633-.319837-.003833-.479542.061327-.068141.184407-.258511.273416-.423327.150336-.278526.181426-.301098.443769-.319837.23679-.017035.314301.009369.482524.16439.372646.343687.713352.525964 1.152436.618381.240197.050254.488486.137985.551517.195053.139689.126487.185684.128191.406717.012351.095397-.049828.37435-.153743.619232-.231254.42503-.133727.449305-.152465.534055-.407569.048551-.146503.085177-.434825.081344-.640952-.00724-.366684-.014054-.37946-.362426-.707389-.610714-.573237-.656709-.607733-.933106-.69078-.148633-.043866-.331336-.13756-.406292-.207831-.074955-.069844-.269583-.167371-.432695-.216348-.162687-.048976-.355612-.141818-.428012-.206126-.072825-.064734-.262343-.165242-.421622-.223588-.188666-.069419-.46336-.274268-.788308-.588995-.273842-.26575-.498281-.494022-.498281-.506799 0-.211663-.161409-.742738-.27299-.899036-.221885-.311746-.195906-.877742.061327-1.335991.107322-.191221.21294-.423327.23466-.516169.058346-.249567.59368-.867095.831322-.959511.114136-.044292.308338-.146078.43227-.226144.221884-.143948 1.097071-.312597 1.608129-.310893.583032.004684 1.350045.150336 1.588965.305783.134578.087731.364554.191221.511058.229124.270009.070697.730813.492319.730813.668634 0 .252974-.227421.702705-.462934.91522-.219329.198461-.290877.228699-.46123.195054-.111155-.02172-.282359-.098379-.381164-.170778-.098378-.0724-.28747-.169927-.419493-.216348-.131598-.046421-.340706-.146078-.463785-.221459-.175464-.106896-.328355-.136282-.706964-.136708-.456971 0-.50467.014054-.885408.262769-.221033.144374-.433548.321967-.472303.393941-.040033.074955-.059198.329632-.044718.589846.024702.443769.034497.467192.308765.736775.155872.153318.400754.33815.543851.410976.143522.072826.325373.183129.404587.244456.079214.062179.27299.132024.430141.155447.156724.023424.358166.100082.44675.169501.088583.069845.28534.170353.436954.224014s.334318.151188.406292.216774c.071548.066011.246159.178018.387978.249992.141393.071974.303653.186536.360296.254252.056642.068141.158002.164816.225291.214644.258085.191647.590698.796399.694613 1.261036.133727.603048.129468.92246-.01959 1.460348-.112859.406717-.164391.483802-.659265.981232-.411402.413531-.61838.570255-.883279.669486-.190369.071122-.407143.172056-.48082.224014-.199739.139689-2.10556.129894-2.42199-.012351zm-6.602018-5.48706c.266176-.061753.631582-.375628.917349-.788307.137134-.198035.168649-.318986.172056-.657136.003407-.353056-.022998-.452712-.176741-.675022-.230402-.332614-.684818-.705686-.953123-.782771-.320263-.09199-2.771638-.076659-2.866184.017461-.109026.109452-.109026 2.76014 0 2.869591.093694.092843 2.516109.106897 2.906643.016184zm-4.277131 5.368665c-.398199-.216774-.379886.02896-.372646-4.96791.003407-2.504611.025979-4.625928.049828-4.714511.025553-.09412.136282-.207405.267028-.273416.197609-.099231.441213-.112433 2.08895-.112433 1.920726 0 2.597878.06303 2.930492.272138.08688.054513.273416.135857.414809.180574.141818.044292.371369.178019.510206.296414.139263.118821.273416.215496.298543.215496s.109026.135005.186536.299395c.077085.164816.195054.345816.261492.402458.214644.181852.340705.64223.36711 1.34025.021294.5677.002129.732942-.139264 1.197154-.154595.507225-.19335.5677-.668634 1.045965-.554072.557905-.829192.797251-.915646.797251-.031089 0-.085176.054087-.120524.120098-.049828.092843-.023849.183981.114562.401607.098379.155873.210386.373072.248715.483801.038329.11073.159706.324948.269157.476136.109452.151188.198887.301099.198887.333466 0 .032793.068993.151188.152892.264046.084324.112433.189091.320263.232957.462082.044292.141819.133727.316004.198887.387978.065585.071548.161835.252122.214218.401181.109452.310042.042588.616251-.158002.723999-.187814.100508-.837709.0724-1.187784-.051532-.262343-.092842-.34539-.160983-.450157-.370517-.070696-.141393-.208256-.371795-.305357-.512336-.097527-.140115-.177167-.278952-.177167-.308764 0-.029386-.068993-.145652-.152892-.258084-.083898-.112859-.173334-.320689-.198035-.462508-.024701-.141393-.112007-.329632-.193776-.418216-.081769-.088583-.194202-.319837-.249567-.514891-.117543-.412253-.470599-.801509-.817267-.901165-.121376-.034923-.487634-.063457-.813008-.063457-.834302 0-.79214-.10136-.79214 1.896026-.000426 1.491863-.009795 1.625164-.127764 1.81894-.123932.203572-.13969.209534-.56259.206979-.249141 0-.507225-.042162-.603049-.09412zm-8.847267.053235c-.044717-.018313-.124357-.11584-.176741-.217199-.081343-.157151-.094971-.86454-.094971-4.910843v-4.726861l.169501-.133301c.165242-.13032.23466-.133727 2.878534-.133301 1.664346.000426 2.80145.026405 2.948805.067289.399903.11073.451861.206127.425882.778938-.020442.447602-.042162.522131-.20059.680559l-.178019.178019-2.073192.031941c-1.520398.023423-2.111948.054513-2.217992.114562-.141393.081343-.1448.1086-.1448 1.206523 0 .617954.00724 1.128586.016184 1.134123.008943.005962.855596.028108 1.881545.048976 1.327048.027257 1.907524.062179 2.010588.120525.132875.074955.1448.127764.1448.649895 0 .476988-.02172.595383-.133301.737627l-.133727.169076h-1.676271c-1.586409 0-1.688195.007665-1.893044.133726l-.216774.134153v1.119217 1.118792l.189943.097952c.157577.082196.519576.098379 2.158369.098379 2.179237 0 2.273357.015332 2.40538.393941.100934.289599.088158.646488-.029386.814711-.232957.332614-.263621.335595-3.225202.330059-1.514436-.004259-2.790377-.020017-2.835521-.037904zm-11.3143998-.001703c-.0758069-.014906-.1916467-.086028-.2572325-.158854-.1137105-.125209-.1200987-.35987-.1367081-4.876772-.0204423-5.583735-.1017857-5.049254.7695683-5.050957.6307311 0 .8470791.098378.9113871.420771.022997.113284.04131.99486.04131 1.959482 0 1.540414.012351 1.758891.101786 1.793388.055791.021294 1.106867.039181 2.335961.039181 1.68777 0 2.259729-.019591 2.339369-.080066.093268-.071122.108174-.306635.125209-1.960759.018739-1.856845.020868-1.881972.165242-2.026346.121802-.121802.229976-.149484.652877-.168649.860281-.039181.776808-.577921.776808 5.031367 0 4.742619-.001278 4.785633-.133301 4.95343-.12095.15417-.174186.169927-.577921.169927-.399903 0-.465489-.018739-.654581-.187814l-.209959-.187814-.032367-1.807442-.031941-1.807868-.192925-.127338c-.182703-.120099-.310042-.126913-2.288688-.127339l-2.095764-.000426-.140115.149059c-.136283.1448-.13969.190795-.13969 1.882823 0 1.924985-.004684 1.948835-.4246037 2.124298-.2031456.084751-.5992156.104767-.9037211.045144zm-12.5792687-.037904c-.2504185-.192072-.252122-.223588-.2508444-5.076084.0004259-2.59362.0221459-4.748156.0481247-4.787337.1362821-.203571.3432607-.218903 3.0867908-.218903 3.3095269 0 3.0659226-.066863 3.0301485.831747-.0157576.39607-.0553646.607733-.1362821.731239l-.1141363.174612h-1.962889c-1.5680965 0-2.0076064.018738-2.185625.092842l-.223162.093268v1.094516c0 1.01658.0089435 1.099201.1243574 1.161379.075807.040459.749126.067716 1.7209881.069419 1.638367.004259 2.117484.045995 2.214585.199313.0302376.048124.0557905.298543.0566423.556627.0008518.529371-.1073222.812157-.3343172.872632-.0813434.02172-.8304693.040033-1.6656234.040459-1.5353037 0-1.8721761.042162-2.0361406.246585-.0570681.071548-.0804916.413957-.0804916 1.185229v1.084721l.223162.093268c.1780186.074529.6162509.093268 2.1775333.093268 2.2882625 0 2.1651827-.038329 2.2116038.689928.0229976.35987.0046847.471877-.1039151.644359l-.1320233.209534-2.7831372-.004259c-2.0863946 0-2.8091159-.021719-2.8853487-.080917zm-11.6772513-.136282-.2189032-.218903v-4.666812-4.666812l.1554469-.180574c.1499103-.17376.1775927-.180148.7589212-.180148.4693217 0 .6418038.024701.7772342.11371l.1741856.114137v1.926263c0 1.846623.0051106 1.929244.126061 1.993552.0826211.044292.8943516.061327 2.3640695.05068l2.2384344-.017035.0319411-2.005051c.0178871-1.103034.0515317-2.024642.0753811-2.048491.0847505-.084751.5434251-.157577 1.0025256-.158854.7989541-.004259.7235731-.529797.7235731 5.039884 0 4.742619-.0012777 4.785633-.133301 4.95343-.1205246.153318-.1750374.169927-.5630157.169076-.2363643-.000426-.5395921-.018739-.6737449-.040885-.4152347-.068567-.4314182-.150336-.4314182-2.160072 0-1.487179-.0153317-1.780186-.1000822-1.901136-.1000822-.142671-.1030634-.143097-2.1996791-.143097h-2.1000229l-.1801479.172908-.1805739.172483v1.752929 1.752077l-.2397714.198035c-.219755.181-.2798043.197609-.7142037.197609-.453564 0-.4838016-.009369-.6929096-.218903zm-5.9516972.11584c-.1277645-.053235-.2653243-.169075-.3057831-.257233-.0519575-.114136-.0728257-1.27296-.0728257-4.012657 0-3.416424-.0114988-3.864025-.1013599-3.95346-.0817693-.082196-.2674537-.100934-.9876197-.100934-.925441 0-1.2516664-.062605-1.3572851-.260214-.0344964-.064734-.0630305-.379035-.0630305-.698446 0-.534908.0114988-.587717.1447998-.66395.1124328-.063882.8432458-.082195 3.2746046-.082195 3.6813217 0 3.4002398-.059623 3.4002398.719314 0 .261066-.0404588.570682-.0894352.688225-.1098775.263195-.2465855.297266-1.2073747.297266-.4671922 0-.7763824.030663-.9250151.092842l-.223162.093268v3.922371 3.922796l-.1665198.198035c-.1580021.187814-.1895174.198035-.6268979.194628-.2559549 0-.5642933-.046421-.6933355-.099656zm153.24332-15.809156c-.815563-.435251-1.404983-1.04341-1.940317-2.002496-.484227-.867947-.4953-.926293-.49743-2.661761-.001703-1.416908.056217-1.923282.287896-2.513979.737202-1.878565 1.548081-2.959453 4.441947-5.919757.976121-.998266 2.172423-2.25845 2.659631-2.801024 2.078729-2.313815 3.645548-5.185536 4.142552-7.590916.080918-.390107.16439-.479968.414809-.443343.20783.029812.350075.194628.422474.488913.476136 1.935632 1.197154 3.553983 2.347886 5.269434.930552 1.387523 1.715026 2.285708 4.507959 5.159983 2.606396 2.683481 3.657046 4.05695 4.318866 5.64847.336021.807897.387127 1.147325.397348 2.628116.011073 1.637515-.005962 1.734616-.462082 2.607674-.260639.499133-.749977 1.143918-1.087702 1.432666-1.218873 1.04341-.630305.988471-10.512039.980806-8.424792-.005537-8.953311-.02172-9.441798-.282786zm-15.092396-7.804283c-.004685-4.732823-.069845-8.405627-.155447-8.837897-.080918-.406717-.23679-1.271683-.347094-1.922431-.24403-1.442461-.622639-3.587201-.913942-5.17574-.118821-.650747-.272564-1.548932-.341557-1.996108-.069419-.447602-.192925-1.112829-.27512-1.478661-.081769-.366259-.196757-1.0953681-.254677-1.6209061-.05792-.5251122-.15715-1.0574644-.219755-1.1826736-.063456-.1256351-.189943-.7606248-.281082-1.4109462-.091565-.6507473-.223588-1.4824943-.293432-1.8483267-.069419-.3662583-.301951-1.7635763-.517021-3.1055296-.214644-1.3419534-.455693-2.6447256-.535759-2.895144-.07964-.2504185-.210812-.9705845-.290451-1.6000377-.080066-.6298791-.17589-1.1950241-.213793-1.2563511-.037904-.061327-.137134-.6056038-.221033-1.2095041-.083047-.6039003-.256381-1.5970565-.385423-2.2073451-.129042-.6098626-.293858-1.5416918-.367536-2.0702111-.073251-.5285192-.224865-1.4935672-.336446-2.1443145-.131598-.7644577-.153743-1.2482594-.061753-1.3679321.203997-.2657502 8.224628-.2657502 8.569592 0 .155021.1196727.265325.4982816.313449 1.0723702.040033.4880605.214645 1.7852962.386701 2.8836452.172482 1.0979231.366258 2.3955847.431418 2.8836452.382868 2.8857746.48806 3.6076442.603048 4.1404222.069845.3249478.270861 1.7891292.44675 3.2528847.386701 3.2137036.369666 3.1459884.715482 2.8325394.204423-.1848327.324947-.7499777.530222-2.4969446.146504-1.2418711.326226-2.6238574.399478-3.0710332.073251-.4471758.266602-1.9113572.429288-3.2533105.162687-1.3419534.361574-2.7392713.44164-3.1055296.07964-.3658324.243604-1.4969743.363703-2.513554.119672-1.0170056.275119-2.0484912.344112-2.2920955l.126061-.4437688 3.209871-.0400329c1.907098-.0234234 3.3206.0191647 3.482009.1060446.229124.1222281.252548.2355126.148633.7052601-.068142.3079125-.26064 1.3913557-.427586 2.4079354-.335169 2.0399735-.510206 3.0522943-.825784 4.7720048-.116266.6320085-.210812 1.3768756-.210812 1.6549764s-.058772.5421474-.130746.5864391-.175463.4642111-.230402.9331069c-.054938.4684699-.233809 1.5506354-.397347 2.4049542-.163113.8538928-.387978 2.0851169-.498708 2.7358642-.110729.6503214-.307912 1.7814633-.437806 2.513554s-.30408 1.8253291-.387127 2.4292294c-.082621.6039003-.18611 1.1549913-.229124 1.22441-.043014.0698446-.175463.7401824-.29471 1.489734-.118821.749978-.276823 1.695861-.350501 2.102578-.350075 1.9318-.611992 3.491805-.745293 4.43641-.07964.568978-.214644 1.26785-.298543 1.552765-.401606 1.360692-.487209 3.010132-.570256 11.016283l-.087731 8.429051-4.399359.039181-4.399358.039182-.008943-8.098568zm-23.847248 7.996782c-.054939-.054939-.099656-11.626572-.099656-25.714739v-25.6142313l.332613-.0894352c.436529-.1166916 14.576228-.1158398 15.011905.0008518l.335595.089861-.039607 3.6421406-.039607 3.6421406-3.135341.0736775c-1.91519.0451435-3.195817.1350045-3.29164.2308279-.10647.1068963-.144374 2.0536017-.117969 6.0632782l.038329 5.905702 3.031852.0847505c1.667327.0464211 3.048036.0966752 3.068478.1107293.020017.0144799.036626 1.6898987.036626 3.7234841v3.696653l-2.920697.00213c-1.606.001277-3.00417.055364-3.106381.120524-.146504.093268-.178019 1.855567-.147781 8.315767l.037903 8.197372 3.417701.039607c3.094883.036199 3.440699.065159 3.662583.310467.215922.23892.240623.680985.205701 3.73115l-.040033 3.460289-8.070033.038756c-4.438965.020868-8.115602-.00724-8.170541-.061753zm-25.175999-25.667892.037052-25.7696782 4.108907-.0391811c2.655798-.0255529 4.211119.0153318 4.398507.115414.281933.1507621.290025.3977735.327077 9.7991128l.038329 9.6440918 1.662216.0417364 1.663069.0421623.037477-9.8016681.037904-9.8016681 3.918963-.043014c2.155388-.0234235 4.134886-.003833 4.399785.0438658l.48082.086454-.037052 25.6866304-.037477 25.686631h-4.362733-4.362306l-.073678-12.125279-.073677-12.12613h-1.626869-1.626442l-.074103 12.12613-.074104 12.125279-4.399784.039181-4.399358.039182zm-17.649816 26.215576c-1.306605-.438659-1.808294-.677578-2.909624-1.384542-1.31129-.841968-2.271228-2.181366-3.031852-4.229857-.286619-.772124-.310042-1.198857-.362-6.661217-.030237-3.20987-.017035-5.989174.029812-6.176136l.085602-.339854 4.174067.039181 4.174067.039181.074103 5.217477.073678 5.217477.501263.512762c.418641.427585.606881.512336 1.137956.512336.380312 0 .847504-.124784 1.162231-.310042l.525964-.310468-.005537-5.123783-.00511-5.124209-.475284-.910535c-.261492-.500837-.641804-1.122199-.84495-1.381135-.980379-1.247833-1.489308-1.837679-3.064645-3.549298-2.985431-3.244793-3.13236-3.417275-4.217506-4.9610963-.935237-1.3296028-.955253-1.3636733-1.660513-2.8023018-1.182674-2.4134718-1.300217-3.3261364-1.219726-9.4643698.059198-4.5088099.087732-4.9453387.377332-5.7413116 1.097071-3.0169462 3.465399-4.9542822 6.82731-5.5850131 1.800628-.3377242 5.833302-.1673715 7.024067.2964137.98038.3820159 2.443284 1.1434925 2.914309 1.516139.653302.5174463 1.70736 2.0974675 2.15411 3.2294612.448453 1.1349748.624768 3.3593551.624768 7.8762567l.000426 3.8103639-4.103796-.0391811-4.103371-.039607-.074103-4.0918717c-.073678-4.0803729-.074955-4.0927235-.43227-4.4730359-.298969-.3181336-.490616-.3811641-1.152862-.3811641-1.551913 0-1.777205.6903543-1.617073 4.9534304.132023 3.5160796.564293 4.6774591 2.566789 6.8890629.552795.6107144 1.437777 1.6004636 1.966296 2.2001051.528519.5987897 1.058316 1.1873582 1.177137 1.3074569.119247.1200986.418642.468044.665653.7734016.471026.58218 2.220548 2.771638 2.418157 3.026315.930551 1.199709 1.701823 2.536978 2.131964 3.696654.12095.325373.309616.824507.419067 1.109422.155021.400328.211664 2.084691.251697 7.46741l.051105 6.95039-.377331.963344c-.8211 2.094487-2.210752 3.596997-4.36401 4.71664-1.746541.908832-2.652391 1.092813-5.626749 1.142641-2.517387.042588-2.62258.031941-3.860618-.383293zm-18.576962-31.7763142c.585162-.3858488.83771-.7716977.843246-1.2882922.00213-.2478632.072826-.5195757.157151-.6034744.173759-.1737598.107322-8.0270189-.076233-9.0010105-.061753-.3253736-.24403-.7167589-.405014-.8705022-.353056-.3351689-1.605148-.8300435-2.100874-.8300435-.873058 0-.823656-.3828677-.823656 6.424 0 3.4343103.044292 6.2885697.098379 6.3426567.221885.2214585 1.899007.0958234 2.307001-.1733339zm-11.327602 31.2273522c-.054087-.054513-.098379-11.625294-.098379-25.713461v-25.6142313l.332614-.0894352c.183129-.0489764 3.44155-.089861 7.240841-.0911387 7.367754-.0021294 7.246378-.0123506 8.935851.7499778 1.255073.5659968 3.121713 2.6438737 3.392574 3.7762933.056216.2342349.153317.4918934.215922.5732368.062604.0813434.186536.5429992.275545 1.0255232.216774 1.1771371.216348 11.4161857-.000426 12.589064-.269583 1.4573673-.936939 2.679222-2.075321 3.7988651-.902018.887538-1.246982 1.440758-.897759 1.440758.233809 0 1.39817 1.23676 1.863233 1.978221 1.077054 1.718858 1.019135 1.185228 1.139659 10.517575.060049 4.635722.175889 8.794883.258084 9.242059.374776 2.049343 1.169472 3.887875 2.152407 4.981113.368387.410124.627749.787881.576218.839839-.051958.051532-2.368329.09412-5.148485.09412-4.627205 0-5.073529-.02172-5.283914-.258511-.219329-.246585-.389682-.71761-.73635-2.033585-.097527-.369239-.189943-4.372102-.246159-10.647043-.083473-9.292314-.110304-10.08488-.352205-10.440917-.377331-.555775-1.237186-.899036-2.111947-.843671l-.731665.045995-.037903 11.969832c-.029386 9.350233-.077937 11.995385-.221885 12.086523-.221884.141393-8.300009.163113-8.440124.023424zm-19.0743909.001278c-.0549387-.054939-.1000822-11.626998-.1000822-25.716017 0-23.2220533.0221458-25.6244521.2342349-25.7057955.4224747-.162261 14.9940182-.1017858 15.3023562.0634563.270435.1447998.286193.3432607.286193 3.5931642 0 2.4790576-.049402 3.4901008-.177167 3.6178653-.126913.1264869-1.054483.1775927-3.235423.1775927-2.404529 0-3.093605.0430141-3.225203.201868-.120524.1452256-.156724 1.8691949-.129042 6.099904l.038329 5.8980361 2.987987.0736776c1.822773.0451434 3.048461.1358563 3.14471.2321055.105193.1051928.144374 1.3376945.11797 3.6966538l-.039607 3.539077-3.10553.081343c-1.707786.045144-3.122565.094972-3.143433.111155-.021294.016184-.021294 3.739242 0 8.273605l.037903 8.243793 3.517784.074103c2.908772.061327 3.542484.112433 3.659601.295562.082195.129468.126061 1.669882.105193 3.697079l-.0362 3.474769-8.0704587.03833c-4.4385395.021294-8.1151765-.006814-8.1701152-.061327zm-25.2880055-.001278c-.0545129-.054087-.0988046-11.597611-.0988046-25.651283 0-25.2449911.0038329-25.5546072.2908772-25.7083505.1882397-.100508 1.7341904-.1413927 4.3989324-.1158398l4.108907.0391811.0741034 9.7599317.0736776 9.7595058h1.7746491 1.7746492l.0379035-9.5976707c.0272564-6.8558442.0856022-9.6555907.2048491-9.7991128.1350045-.1626869.9646221-.1933503 4.3244031-.1618351l4.1574575.0391811.0374776 25.7696782.0370517 25.769677-4.3256808-.039607-4.3256807-.039181-.0379035-12.071192-.0379035-12.072043-.3317618-.089009c-.1822774-.048977-.9735657-.089862-1.7576139-.091139-1.1652125-.001704-1.4424615.040885-1.516139.232105-.0489764.128617-.0894352 5.618232-.0894352 12.199383v11.965999h-4.3380313c-2.3853636 0-4.3818972-.044292-4.4359841-.098379z" fill="#dadada" fill-rule="evenodd" transform="translate(-66 -76)"/></svg>