<?xml version="1.0" encoding="UTF-8"?>
<svg width="450px" height="450px" viewBox="0 0 450 450" version="1.1" xmlns="http://www.w3.org/2000/svg" xmlns:xlink="http://www.w3.org/1999/xlink">
    <!-- Generator: Sketch 50.2 (55047) - http://www.bohemiancoding.com/sketch -->
    <title>hnb-logo</title>
    <desc>Created with Sketch.</desc>
    <defs></defs>
    <g id="hnb-logo" stroke="none" stroke-width="1" fill="none" fill-rule="evenodd">
        <path d="M255.927624,243.031506 C255.927624,243.474547 255.569138,243.833613 255.125518,243.833613 L244.849285,243.833613 C244.406823,243.833613 244.047178,243.474547 244.047178,243.031506 L244.047178,207.393641 C244.047178,206.9506 244.406823,206.592114 244.849285,206.592114 L255.125518,206.592114 C255.569138,206.592114 255.927624,206.9506 255.927624,207.393641 L255.927624,243.031506 Z M154.907922,192.254962 L143.848693,192.254962 C143.405652,192.254962 143.046587,192.614028 143.046587,193.056489 L143.046587,211.621931 L134.11048,211.621931 L134.11048,193.054752 C134.11048,192.611132 133.751993,192.252645 133.308952,192.252645 L122.249145,192.252645 C121.806104,192.252645 121.447038,192.611132 121.447038,193.054752 L121.447038,243.031506 C121.447038,243.474547 121.806104,243.833613 122.249145,243.833613 L133.308952,243.833613 C133.751993,243.833613 134.11048,243.474547 134.11048,243.031506 L134.11048,222.794671 L143.046587,222.794671 L143.046587,243.033823 C143.046587,243.476285 143.405652,243.83593 143.848693,243.83593 L154.907922,243.83593 C155.350963,243.83593 155.709449,243.476285 155.709449,243.033823 L155.709449,193.056489 C155.709449,192.614028 155.350963,192.254962 154.907922,192.254962 Z M259.888352,243.031506 C259.888352,243.474547 260.246839,243.833613 260.690459,243.833613 L270.691022,243.833613 C271.133484,243.833613 271.493129,243.474547 271.493129,243.031506 L271.493129,214.939816 L274.132263,214.939816 C275.487447,214.939816 276.584335,216.037862 276.584335,217.392467 L276.584335,243.031506 C276.584335,243.473968 276.94398,243.833613 277.386442,243.833613 L287.440286,243.833613 C287.883327,243.833613 288.242393,243.473968 288.242393,243.031506 L288.242393,215.009312 C288.242393,210.361147 284.47336,206.592693 279.824615,206.592693 L261.172302,206.592693 C260.462279,206.592693 259.888352,207.166619 259.888352,207.875485 L259.888352,243.031506 Z M374.779001,243.031506 C374.779001,243.474547 375.136908,243.833613 375.580528,243.833613 L385.581091,243.833613 C386.023553,243.833613 386.383198,243.474547 386.383198,243.031506 L386.383198,214.939816 L389.022332,214.939816 C390.377516,214.939816 391.474405,216.037862 391.474405,217.392467 L391.474405,243.031506 C391.474405,243.473968 391.83405,243.833613 392.276511,243.833613 L402.330934,243.833613 C402.773396,243.833613 403.133041,243.473968 403.133041,243.031506 L403.133041,215.009312 C403.133041,210.361147 399.364008,206.592693 394.715263,206.592693 L376.061792,206.592693 C375.353506,206.592693 374.77958,207.166619 374.77958,207.875485 L374.77958,243.031506 L374.779001,243.031506 Z M192.168533,243.031506 C192.168533,243.474547 192.527598,243.833613 192.970639,243.833613 L202.971203,243.833613 C203.413664,243.833613 203.771572,243.474547 203.771572,243.031506 L203.771572,214.939816 L206.411285,214.939816 C207.766469,214.939816 208.863936,216.037862 208.863936,217.392467 L208.864516,243.031506 C208.864516,243.473968 209.223002,243.833613 209.666622,243.833613 L219.720466,243.833613 C220.163507,243.833613 220.521994,243.473968 220.521994,243.031506 L220.522573,215.009312 C220.522573,210.361147 216.754119,206.592693 212.104795,206.592693 L193.450745,206.592693 C192.743038,206.592693 192.168533,207.166619 192.168533,207.875485 L192.168533,243.031506 Z M188.050279,207.393641 C188.050279,206.9506 187.691213,206.592114 187.248172,206.592114 L177.247609,206.592114 C176.804568,206.592114 176.445502,206.9506 176.445502,207.393641 L176.445502,235.485332 L173.807526,235.485332 C172.452922,235.485332 171.353717,234.387286 171.353717,233.032102 L171.353717,207.39422 C171.353717,206.9506 170.994651,206.592114 170.55161,206.592114 L160.498345,206.592114 C160.055304,206.592114 159.696238,206.9506 159.696238,207.39422 L159.696238,235.415256 C159.696238,240.064001 163.465272,243.833034 168.114016,243.833034 L186.768066,243.833034 C187.475774,243.833034 188.050279,243.257949 188.050279,242.551401 L188.050279,207.393641 Z M239.589549,235.490544 L237.623374,235.490544 C236.26819,235.490544 235.169564,234.391919 235.169564,233.037314 L235.169564,216.649432 L239.589549,216.649432 C240.033169,216.649432 240.391656,216.290367 240.391656,215.847905 L240.391656,207.393641 C240.391656,206.9506 240.033169,206.592114 239.589549,206.592114 L235.169564,206.592114 L235.169564,199.760017 C235.169564,199.318135 234.810498,198.95849 234.369195,198.95849 L224.801248,198.95849 C224.359365,198.95849 224.0003,199.318135 224.0003,199.760017 L224.0003,235.415835 C224.0003,240.064001 227.768174,243.833034 232.417498,243.833034 L239.590128,243.833034 C240.033748,243.833034 240.392235,243.475126 240.392235,243.031506 L240.392235,236.292651 C240.391656,235.849031 240.03259,235.490544 239.589549,235.490544 Z M339.264492,235.490544 L337.29658,235.490544 C335.942554,235.490544 334.844507,234.391919 334.844507,233.037314 L334.844507,216.649432 L339.265071,216.649432 C339.708112,216.649432 340.06602,216.290367 340.06602,215.847905 L340.06602,207.393641 C340.06602,206.9506 339.708112,206.592114 339.265071,206.592114 L334.844507,206.592114 L334.844507,199.760017 C334.844507,199.318135 334.486021,198.95849 334.042401,198.95849 L324.476191,198.95849 C324.032571,198.95849 323.674085,199.318135 323.674085,199.760017 L323.674085,235.415835 C323.674085,240.064001 327.443118,243.833034 332.091862,243.833034 L339.264492,243.833034 C339.707533,243.833034 340.066599,243.475126 340.066599,243.031506 L340.066599,236.292651 C340.066599,235.849031 339.707533,235.490544 339.264492,235.490544 Z M320.044624,207.393641 L320.044624,250.138694 C320.044624,255.951507 317.034841,257.893358 311.854447,259.078275 C310.942304,259.286765 308.426527,259.671313 305.88353,259.671313 C303.339374,259.671313 300.825334,259.286765 299.912033,259.078275 C294.733377,257.893358 291.721278,255.952086 291.721278,250.138694 L291.721278,247.201882 C291.721278,246.76 292.080343,246.399776 292.523384,246.399776 L302.534372,246.399776 C302.977413,246.399776 303.335321,246.76 303.335321,247.201882 L303.335321,248.766136 C303.335321,249.849704 304.214453,250.728257 305.299179,250.728257 L306.465564,250.728257 C307.55029,250.728257 308.428264,249.849704 308.428264,248.766136 L308.428264,243.833034 L300.139634,243.833034 C295.49089,243.833034 291.723015,240.064001 291.723015,235.415835 L291.723015,215.009312 C291.723015,210.361147 295.49089,206.591535 300.139634,206.591535 L319.243096,206.591535 C319.6844,206.591535 320.044624,206.95118 320.044624,207.393641 Z M308.428843,214.939816 L305.788551,214.939816 C304.434525,214.939816 303.335321,216.037862 303.335321,217.392467 L303.335321,233.037314 C303.335321,234.391919 304.434525,235.490544 305.788551,235.490544 L308.428843,235.490544 L308.428843,214.939816 Z M371.208033,215.511425 L371.208033,234.928201 C371.208033,240.739855 368.197092,242.683444 363.017277,243.866624 C362.105713,244.075693 359.601519,244.46082 357.057363,244.46082 C354.514366,244.46082 352.000326,244.075693 351.088183,243.866624 C345.90779,242.683444 342.89569,240.740435 342.89569,234.928201 L342.89569,215.511425 C342.89569,209.698612 345.90779,207.756761 351.088183,206.572423 C351.999747,206.363933 354.514366,205.979385 357.057363,205.979385 C359.601519,205.979385 362.105713,206.363933 363.017277,206.572423 C368.197092,207.756761 371.208033,209.698612 371.208033,215.511425 Z M359.993595,217.392467 C359.993595,216.037862 358.895549,214.939816 357.541523,214.939816 L356.562779,214.939816 C355.207595,214.939816 354.108969,216.037862 354.108969,217.392467 L354.108969,233.036155 C354.108969,234.391339 355.208174,235.488807 356.562779,235.488807 L357.541523,235.488807 C358.896128,235.488807 359.993595,234.39076 359.993595,233.036155 L359.993595,217.392467 Z M76.2012659,211.26634 L76.2012659,189.50695 L68.297184,194.072298 L68.297184,215.829951 L76.2012659,211.26634 Z M79.1624009,237.90671 L79.1624009,259.68 L87.0664828,255.116968 L87.0664828,233.343099 L79.1624009,237.90671 Z M68.297184,231.634061 L68.297184,255.116968 L76.2006867,259.678842 L76.2006867,236.360989 L90.0305135,228.374091 L90.0305135,253.405035 L97.933437,248.842582 L97.933437,200.337997 L90.0305135,195.773228 L90.0305135,219.086447 L68.297184,231.634061 Z M65.3331533,195.781915 L57.4284923,200.344947 L57.4284923,248.842582 L65.3331533,253.405035 L65.3331533,230.087762 L87.0653245,217.540727 L87.0653245,194.063032 L79.1624009,189.5 L79.1624009,212.813798 L65.3331533,220.797801 L65.3331533,195.781915 Z M54.4772027,202.049931 L47.7678835,205.92263 C47.1030325,206.306598 46.5650129,207.156774 46.5650129,207.821625 L46.5609589,241.35548 C46.5609589,242.020331 47.1001368,242.872243 47.7655669,243.253896 L54.474307,247.12949 L54.4772027,202.049931 Z M100.901522,247.130069 L107.610841,243.254475 C108.274534,242.872822 108.815449,242.020331 108.815449,241.356059 L108.811974,207.822783 C108.811974,207.157353 108.271638,206.307757 107.608524,205.923788 L100.896889,202.049352 L100.901522,247.130069 Z" id="Shape" fill="#DADADA" fill-rule="nonzero"></path>
        <rect id="Rectangle" fill-opacity="0" fill="#FFFFFF" x="0" y="0" width="450" height="450"></rect>
    </g>
</svg>