<svg height="55" viewBox="0 0 280 55" width="280" xmlns="http://www.w3.org/2000/svg"><path d="m62.586648 128.164631 5.2580871-3.036846c.5201353-.299554.9440502-.967651.9440502-1.488241l-.0027232-26.2799962c0-.521497-.423461-1.1873247-.9431425-1.4882407l-5.2599026-3.0363921zm-36.3826952-35.3292621-5.2580871 3.0350305c-.5210431.300916-.9426886.9671976-.9426886 1.4882406l-.0031771 26.280451c0 .521043.4225532 1.188686.9440502 1.48824l5.2576332 3.036846zm8.5077983-4.912238-6.1948754 3.5760439v38.0075512l6.1948754 3.57559v-18.273725l17.0314821-9.8331v-18.3994471l-6.1935138-3.5760439v18.271002l-10.8379683 6.257055zm2.3229081 28.0972931v18.403532l6.1939676 3.575136v-18.274179l10.8384222-6.259325v19.616728l6.1935138-3.57559v-38.0129977l-6.1935138-3.5774055v18.2705482zm8.5150602 4.915869v17.063707l6.1944215-3.576044v-17.064161zm-2.3206387-20.878033v-17.0528136l-6.1944215 3.5778594v17.0514522zm222.4077823 4.80104c0-1.061602-.860539-1.92214-1.921687-1.92214h-.767041c-1.062056 0-1.923048.860538-1.923048 1.92214v12.259944c0 1.062057.861445 1.922141 1.923048 1.922141h.767041c1.061148 0 1.921687-.860538 1.921687-1.922141zm8.788744-1.47417v15.217362c0 4.554135-2.359672 6.077323-6.419088 7.00458-.714845.164301-2.676927.466125-4.670779.466125-1.992944 0-3.963195-.301824-4.678041-.466125-4.059869-.927257-6.420449-2.449992-6.420449-7.00458v-15.217362c0-4.5554964 2.36058-6.0773234 6.420449-7.0054881.714392-.1633933 2.685097-.4647632 4.678041-.4647632 1.993852 0 3.955934.3013699 4.670779.4647632 4.059416.9281647 6.419088 2.4499917 6.419088 7.0054881zm-49.199992-.44797h-2.069195c-1.061149 0-1.922594.860538-1.922594 1.92214v12.260852c0 1.061602.861445 1.922594 1.922594 1.922594h2.069195zm9.103276-5.9139301v33.4992571c0 4.555496-2.358764 6.077323-6.418634 7.005942-.714845.163393-2.686458.464763-4.679402.464763-1.993852 0-3.964103-.30137-4.679856-.464763-4.058962-.928619-6.419088-2.449992-6.419088-7.005942v-2.301576c0-.346303.2814-.62861.628611-.62861h7.845601c.347211 0 .627703.282307.627703.62861v1.225904c0 .849191.688975 1.537712 1.539074 1.537712h.914095c.850099 0 1.538166-.688521 1.538166-1.537712v-3.865613h-6.495791c-3.643217 0-6.596097-2.954242-6.596097-6.597005v-15.992573c0-3.6427628 2.95288-6.5970044 6.596097-6.5970044h14.971364c.345396 0 .628157.2818534.628157.6286103zm15.062593 22.0195161h-1.542251c-1.061149 0-1.921687-.860992-1.921687-1.922594v-12.843167h3.464392c.34721 0 .627702-.2814.627702-.628157v-6.6255981c0-.3472108-.280492-.6281565-.627702-.6281565h-3.464392v-5.3543076c0-.346303-.280946-.6281565-.629064-.6281565h-7.496576c-.347664 0-.62861.2818535-.62861.6281565v27.9434312c0 3.642763 2.953788 6.597005 6.597004 6.597005h5.621184c.347211 0 .62861-.280946.62861-.628611v-5.281234c0-.347665-.281399-.628611-.62861-.628611zm-78.11516 0h-1.540889c-1.062057 0-1.923048-.860992-1.923048-1.922594v-12.843167h3.463937c.347665 0 .628611-.2814.628611-.628157v-6.6255981c0-.3472108-.280946-.6281565-.628611-.6281565h-3.463937v-5.3543076c0-.346303-.2814-.6281565-.627249-.6281565h-7.498391c-.346303 0-.627703.2818535-.627703.6281565v27.9434312c0 3.642763 2.95288 6.597005 6.596551 6.597005h5.621183c.347665 0 .628611-.280946.628611-.628611v-5.281234c-.000908-.347665-.281854-.628611-.629065-.628611zm-40.391277-22.0195161c0-.3472108-.2814-.6281565-.62861-.6281565h-7.837432c-.347211 0-.628611.2809457-.628611.6281565v22.0158851h-2.067379c-1.061602 0-1.923048-.860992-1.923048-1.923048v-20.0923832c0-.3476647-.2814-.6286104-.62861-.6286104h-7.878734c-.347211 0-.628611.2809457-.628611.6286104v21.9600592c0 3.643217 2.953788 6.597459 6.597005 6.597459h14.619161c.55463 0 1.004869-.451148 1.004869-1.004869zm3.227472 27.9293611c0 .347211.281399.629064.62861.629064h7.837432c.346757 0 .627249-.281853.627249-.629064v-22.015431h2.06874c1.062057 0 1.922141.860538 1.922141 1.92214l.000454 20.093291c0 .347211.280945.629064.62861.629064h7.879188c.347211 0 .628157-.281853.628157-.629064l.000453-21.960967c0-3.6427628-2.953333-6.5960967-6.597004-6.5960967h-14.619162c-.554629 0-1.004868.4497855-1.004868 1.0053227zm143.111652 0c0 .347211.280038.629064.628156.629064h7.837432c.346757 0 .628156-.281853.628156-.629064v-22.015431h2.068741c1.062057 0 1.921233.860538 1.921233 1.92214v20.093291c0 .347211.282307.629064.629064.629064h7.879642c.346757 0 .62861-.281853.62861-.629064v-21.960967c0-3.6427628-2.954241-6.5960967-6.597004-6.5960967h-14.618708c-.555537 0-1.004868.4497855-1.004868 1.0053227v27.551741zm-90.040147 0c0 .347211.281399.629064.629064.629064h7.837432c.346303 0 .62861-.281853.62861-.629064v-22.015431h2.068287c1.062057 0 1.921687.860538 1.921687 1.92214v20.093291c0 .347211.281853.629064.62861.629064h7.879188c.347211 0 .62861-.281853.62861-.629064v-21.960967c0-3.6427628-2.953787-6.5960967-6.597004-6.5960967h-14.6178c-.556445 0-1.006684.4497855-1.006684 1.0053227zm-82.272611-39.7935301h-8.667107c-.3472108 0-.6286103.2813996-.6286103.6281565v14.5497196h-7.0032184v-14.5510812c0-.3476647-.2809457-.6286104-.6281565-.6286104h-8.6675606c-.3472108 0-.6286103.2809457-.6286103.6286104v39.1667352c0 .347211.2813995.629064.6286103.629064h8.6675606c.3472108 0 .6281565-.281853.6281565-.629064v-15.859589h7.0032184v15.861405c0 .346757.2813995.629064.6286103.629064h8.667107c.347211 0 .628156-.282307.628156-.629064v-39.1671896c0-.3467569-.280945-.6281565-.628156-.6281565zm79.169046 39.7935301c0 .347211-.2814.629064-.628611.629064h-8.053474c-.346757 0-.62861-.281853-.62861-.629064v-27.9293611c0-.3472108.281853-.6281565.62861-.6281565h8.053474c.347211 0 .628611.2809457.628611.6281565z" fill="#dadada" fill-rule="evenodd" transform="translate(-20 -83)"/></svg>