<svg height="83" viewBox="0 0 187 83" width="187" xmlns="http://www.w3.org/2000/svg"><path d="m158.794505 127.951231c-.289094-.465898-.666835-.412708-1.068955-.250432-.053436.215219-.081754.369123.076582.58976.320366.040138.704264.196258.992373-.339328zm.745141 2.221141c-.810643-.378726-.810643-.378726-.963316-1.192324-.241075-.209802-.507513-.166955-.783801-.065501-.252403.3083-.020685.719531-.175328 1.001483-.23418.192811-.407045.15415-.583357-.00591-.145039-.302144-.062054-.631375-.070427-.950018-.014774-.562426-.004186-1.125345-.004186-1.74564.69343-.184192 1.327267-.107363 2.032763-.072396.718054.857429.059099 1.89191.547652 3.030306zm.822708-1.552336c.012313-1.269399-.993603-2.27827-2.244534-2.250444-1.167207.026348-2.169676 1.070678-2.1517 2.242318.017976 1.179273 1.039652 2.191592 2.207105 2.186667 1.203406-.005172 2.177063-.974397 2.189129-2.178541zm.540511.032751c-.026348 1.552829-1.318403 2.72176-2.920234 2.642468-1.429952-.071165-2.58337-1.328006-2.549634-2.779135.034721-1.492991 1.310276-2.693688 2.808931-2.6437 1.543225.050973 2.686793 1.24576 2.660937 2.780367zm-.576463 16.809015c-.45063-.772475-1.108354-.778631-1.800552-.600349-.758192.467622-.715099 1.14603-.587544 1.83749.976859 1.090132 1.213748 1.104414 2.387111.059838.069196-.442751.111304-.883778.000985-1.296979zm1.481664.631375c-.018468 1.433646-1.244528 2.65158-2.674727 2.656751-1.429459.004925-2.635327-1.203159-2.653795-2.659213-.01773-1.393754 1.262504-2.734811 2.655765-2.647886 1.590751.099237 2.516637 1.042853 2.672757 2.650348zm-9.792474-.716576c-.884024-1.115988-1.539039-1.104415-2.515406.128294.93155-.009604 1.711904.170649 2.515406-.128294zm1.321357 1.167946h-3.79367c.663388 1.163267 1.106385 1.245513 2.590018.581387.281952.146516.636301.181237.811135.50579.036937.509237-.983753 1.085699-1.974648 1.115988-1.668811.050726-2.777165-1.060829-2.735796-2.743922.041616-1.691958 1.098751-2.576721 2.940673-2.46197 1.506534.094066 2.359777 1.225814 2.162288 3.002727zm-25.102589-1.917274c-.961345.386853-.961345.386853-1.352877 1.443742.386115 1.102444.895844 1.557015 1.574006 1.447189.51761-.08397 1.021184-.612414 1.112295-1.166961.130018-.79242-.288847-1.334162-1.333424-1.72397zm2.502601-.963561v4.807219c-.481904.13445-.971195.183946-1.375532-.176805-1.386612.64221-2.320378.487321-3.129543-.475009-.751297-.893381-.815568-2.359285-.145778-3.315952.707958-1.010841 1.620054-1.21227 3.272366-.664126.417388-.296973.857184-.264468 1.378487-.175327zm-17.608577 1.750564c-.723717-1.13421-1.463441-1.13224-2.308312.048265.854967.045555 1.558739.125585 2.308312-.048265zm1.385382 1.118451h-3.7917c.706481 1.211531 1.094811 1.287621 2.548156.561195.32603.141592.684565.242552.932535.539279-.975628 1.180751-2.336138 1.468859-3.56146.756469-1.119189-.650829-1.600108-2.086937-1.11057-3.316199.476732-1.197003 1.728402-1.863099 2.98475-1.588288 1.400403.306331 2.085952 1.295255 1.998289 3.047544zm9.162576-23.737153c0-.245015.013051-.491015-.00197-.735292-.125585-2.040396-1.505795-3.677441-3.523291-4.186432-1.896835-.478457-3.881087.377249-4.943393 2.095555-.7577 1.225568-.844379 2.583862-.607736 3.911868.515886 2.89167 3.374066 4.52379 5.839483 3.712655 1.741946-.573261 3.397214-2.379231 3.236907-4.798354zm4.088427-8.468409v16.902589h-4.020709c-.283922-.412955-.01773-.986463-.418619-1.376271-.775183.517118-1.514906 1.094319-2.406564 1.436847-3.012577 1.156126-6.577976.217928-8.86782-2.689009-2.645916-3.358798-2.618583-9.244823.645904-12.537874 2.685562-2.708955 6.722769-3.085465 9.84985-.88821.287615.202168.579417.398673.895844.615862.297219-.480426.041862-.963315.291801-1.463934zm22.248102-22.1880179c-.139868-2.1871591-1.786763-4.0015015-3.968505-4.3767807-1.983513-.3412973-4.056168.8938738-4.891435 2.8948708-.441766 1.0591051-.396949 2.1561322-.240336 3.2435556.331693 2.3063423 2.457291 4.035976 4.768558 3.8655736 2.844637-.2098018 4.436865-2.6353274 4.333442-5.1347268 0-.0832312.011327-.2886006-.001724-.4924925zm4.135459-14.5401021v23.614276h-4.200714c-.294511-.381928-.050973-.867279-.214973-1.3467204-.42379.0275796-.676439.3767564-.973904.5936994-2.610703 1.905208-6.342811 1.602817-8.812907-.288847-4.831844-3.6998494-4.212535-11.2106062-.719039-14.3630506 2.697381-2.4341441 6.756751-2.7697778 9.686588-.590006.226301.1681862.428715.377003.897075.4683604v-7.9850271c1.466151-.1905946 2.874187-.0357057 4.337874-.1026847zm-61.8038675 14.4842042c-.6047808-2.2868888-2.4343904-6.7163663-3.017994-7.2849489-.9391832 2.4041021-1.8724565 4.7931832-2.8791111 7.3696577 1.1049069 0 2.0435976.0169909 2.9815495-.0046787.9675015-.0226547 1.9428829.099976 2.9155556-.0800301zm8.2211775 9.1556818h-4.6301685c-.5875436-1.5188469-1.1728709-3.0322763-1.7781442-4.596925h-9.3893693c-.6097057 1.5203243-1.2272913 3.0605946-1.8392133 4.58609h-4.6286906c2.9793333-7.7264684 5.9217297-15.3573933 8.8803783-23.0301801h4.5215736c2.9310691 7.6195976 5.8682943 15.254955 8.863634 23.0410151zm-19.2379883 20.911477c-.9707028-2.496444-1.9089009-4.909411-2.8468529-7.322132-.0935736-.011327-.1871471-.022408-.2807207-.033735-.9441081 2.424048-1.8887087 4.847849-2.8658138 7.355867zm8.0963303 9.069496h-4.6274595c-.5744925-1.48388-1.1608048-2.998787-1.7372672-4.487592-.968979-.180498-8.0891892-.209555-9.43394-.035705-.591976 1.462456-1.2014354 2.968006-1.8318258 4.525513h-4.6030811c2.9290991-7.69421 5.8835616-15.304697 8.8431952-22.973543h4.5503844c2.9226967 7.594726 5.8633694 15.23624 8.839994 22.971327zm14.09809-8.627237c.001724-2.335153-1.477477-4.750583-4.5181261-4.788997-2.9093994-.036691-4.7707747 2.120672-4.6951771 4.720048-.0113274 2.823705 1.8800901 4.734576 4.5821501 4.852282 2.4494111.107117 4.6289371-1.897081 4.6311531-4.783333zm4.109604-7.068991c.008865 4.554078.012804 9.108402.000492 13.66248-.002955 1.145784-.158336 2.277285-.439796 3.392781-.601333 2.382186-2.117471 3.991652-4.375057 4.768312-2.8677835.986709-5.7971288.951003-8.6481679-.155627-2.1061441-.817292-3.4577897-2.385142-4.2177057-4.597664h4.7717598c1.5198318 1.367159 3.3984444 1.65379 5.4208648 1.218673 2.420847-.521057 3.280985-1.77519 3.017009-4.406577-1.020198.912589-2.132739 1.568835-3.4572972 1.787994-5.1783123.856198-8.791976-2.609964-9.5435195-6.564186-.4338859-2.282949-.2492012-4.483898.8042402-6.566649 2.424048-4.792444 8.2529429-5.424805 11.4748285-2.75254.215958.179021.43561.373555.744156.385129.194535-.42182-.049741-.901261.221868-1.396463 1.334901-.138883 2.709202-.036444 4.035484-.05245.305591.456787.190102.879099.190841 1.276787zm109.125994-24.1304087c.1443.3193813.340312.2947567.613153.0448168-.240583-.0110811-.43364-.0196997-.626943-.0288108zm0 0c-.007141 0-.014036 0-.020931 0-.112289-.3211051-.451616-.3410511-.684072-.4122162-3.629178-1.1100781-7.309081-1.4996397-11.084036-.8320661-4.56319.8069489-8.492295 2.8399579-11.803814 6.0418979-3.063303 2.9623423-5.134234 6.5405461-6.156156 10.6819161-.776907 3.149982-.874667 6.334438-.17188 9.522096.169171-1.047778.212018-2.111562.406306-3.147027.915297-4.876168 2.928853-9.262306 6.264751-12.940979 5.320889-5.8675557 11.955255-8.9313515 19.933633-8.9281503 1.098505.0004925 2.196763.0093574 3.295268.0145286.00197.0059099.005171.0100961.007141.016006zm13.000078 36.8640477c-2.785538 3.975646-6.163298 7.435406-9.632907 10.801592-2.705015 2.624246-5.483904 5.172402-8.229303 7.755033-1.126331 1.059105-2.304373 1.932048-4.002733 1.786024-1.026601-.088402-1.908409-.367892-2.660198-1.074372-2.596667-2.440301-5.182499-4.892667-7.808223-7.301202-1.148-1.053195-2.282949-2.117964-3.36397-3.237153-2.617597-2.709447-5.189393-5.453862-7.391573-8.530708-2.706246-3.781112-4.659225-7.891208-5.285922-12.506601-.317658-2.339586-.232703-4.73039.07609-7.106913.329477-2.536336 1.036697-4.939207 2.088907-7.252937 2.226312-4.8936516 5.576985-8.815123 10.116042-11.72009 3.243802-2.0761021 6.743946-3.4193754 10.57209-3.9266427 7.72376-1.0233994 14.73242.7274115 20.808547 5.6173694 4.864102 3.9143303 8.019747 8.9936513 9.439357 15.1173033.447183 1.929586.580649 3.876162.535339 5.690751.237628 6.063814-1.955441 11.169729-5.261543 15.888546zm-138.3709372 16.396799c-.4959399.102192-.9148048.32406-1.1672072.787496-.114997 1.119681.0283183 1.549381.6010871 1.808678.5988709.271364 1.1546486.076337 1.7746967-.622264.1189369-1.418378.0684564-1.501117-1.2085766-1.97391zm2.4826547 4.054937c-.016006.956667-.7973454 1.34352-1.4715676 1.790949h-2.2162162c-.3989189-.464913-1.1733634-.608474-1.2211352-1.424288.5281982-.141592 1.0396517-.303376 1.5373154.00591.4597417.285892.9396756.209309 1.4351231.157351.3560721-.252402.7458799-.483135.6761922-1.054673-1.3792252.619063-2.5195916.462451-3.2408469-.413201-.733075-.889441-.7988228-2.400901-.1445465-3.323093.687027-.968486 1.7212612-1.169916 3.2039099-.615369.424036-.254126.8800841-.306084 1.4494054-.112535 0 1.65379.0201922 3.321616-.0076336 4.988949zm105.2734715-74.0014294c-6.102967-2.9620961-15.528288-2.3661802-22.339706 3.1408709-7.447471 6.020967-9.566666 15.1177958-7.931099 21.9048348.557255-7.8249669 3.64937-14.2423904 9.594739-19.1747027 5.931826-4.9212312 12.817117-6.753057 20.676066-5.871003zm7.570348-.6867808c-3.415435 3.2450331-6.073663 6.9650751-7.723021 11.3871652-8.244817 3.0726607-14.252979 8.5412973-17.487669 16.778234-3.234937 8.23743-2.626463 16.287219 1.626456 24.095195-1.098751-1.006162-2.218432-1.990408-3.291574-3.023165-2.658966-2.558252-5.306606-5.130294-7.720558-7.926174-3.281478-3.800072-6.151231-7.853039-7.618366-12.738318-.576217-1.918505-.883778-3.8714837-1.011088-5.8850393-.293525-4.6429729.654769-9.0222162 2.702799-13.1337898 3.031538-6.0862222 7.701598-10.5006786 14.020769-13.11409 2.16155-.8941202 4.395249-1.5003784 6.723754-1.7522883.09579-.0103424.179021-.1364204.267916-.2085706h6.402402c1.053934.4139399 2.190853.4508769 3.279015.7232252 3.208342.8032553 6.152216 2.1642583 8.879886 4.0138138.302144.2046307.566366.4651592.949279.7838018zm-109.1649006 68.9706182c.3545946.20143.6914594.213988 1.0197057-.035459.2853994-.360997.3543483-.737508.0263483-1.093826-.3282462-.356072-.7096816-.301159-1.0928408-.067718-.3073153.419112-.3018979.815814.0467868 1.197003zm41.1575976-1.194294c-.370601-.250679-.737015-.251663-1.138643.067225-.179021.354841-.232702.725196.081508 1.080283.330955.261759.668558.254126 1.059597.031273.315934-.443243.300913-.809165-.002462-1.178781zm-64.6881502.234919c-.1541501.263976-.1295255.554793.068949.792667.3447447.413447.7468648.401381 1.1531712.147747.2733333-.407045.2831831-.777645-.0337358-1.222612-.5025886-.222114-.9130811-.189117-1.1883844.282198zm8.3307568-.353856c-.2984505-.085693-.5764625-.100961-.8909189.03546-.412955.426744-.4636817.874174.0261021 1.328252.2689009.14036.5464204.124847.886979.025363.4984024-.526228.4388108-.972919-.0221622-1.389075zm.1521802 6.750595v-4.743934c-.4272373-.093081-.7769069-.144793-1.1632673.048264v4.737532c.3745405.091111.7705045.193795 1.1632673-.041862zm55.0377602-4.673508v4.679418c.445459.178282.832066.186162 1.281219-.010835v-4.729652c-.485598-.109826-.909141-.203153-1.281219.061069zm-62.2264269-.123369c-.4676216.006649-.8677718-.143069-1.2467447.09579v4.755015c.4405345.103423.8015315.113519 1.2467447-.00591zm23.3638438.065994c-.4624504-.130757-.8525045-.164246-1.2674294.020438v4.738024c.4582643.134697.8470871.186655 1.2674294-.046294zm4.4752791-1.900036c-.395964-.188625-.73997-.176559-1.137165-.011327v6.654312c.393748.163261.712883.129525 1.137165.030288zm-3.5264923.004925v6.671796c.4821503.096282.9017533.152919 1.3051053-.044571v-6.699129c-.482397-.069442-.90397-.153904-1.3051053.071904zm-21.8154474 6.604078c.3622282.184438.637039.181237 1.0098558.049495.6545226-1.53633 1.3331772-3.129297 2.0251292-4.753045-.5171171-.129771-.9116036-.163507-1.3240661.032997-.4575255.732337-.5941922 1.649111-1.1930631 2.416169-.6092132-.818523-.6953994-1.813112-1.274078-2.507526-.4203424-.035952-.7825706-.120907-1.2046367.124847.6626487 1.567357 1.3265286 3.137177 1.9608589 4.637063zm90.7262287.128294c.487567-.018222.917513.157352 1.346474-.166462v-3.353135c.459742-.307562 1.05418-.578433.64615-1.299934-.161784-.180745-.506775-.044325-.537309-.147256-.18961-.702786.081015-1.261519-.290817-1.785777-.364198-.08791-.746126-.163262-1.188138.049495v1.410252c-.161784.43955-.528937.293772-.627682.530907-.256588.603057.051219.932535.651322 1.152186zm-34.01104-6.669087v1.552336c-.248708.132235-.4526.240583-.541988.288109-.460234.774936.190103.989417.575478 1.3349v3.415436c.459249.14036.848072.161537 1.311261-.036937v-3.388841c.505051-.326276 1.097027-.598871.671021-1.32185-.165723-.171141-.50776-.042354-.585081-.323321-.105886-.501604.07215-1.0037-.193796-1.613159-.414678-.051466-.798822-.184439-1.236895.093327zm-18.205723 4.545213c.354841.217928.889934.250679.963315.810397-.567598.29451-.567598.29451-1.498408-.130018-.307316.189856-.604289.393994-.685057.786018 1.240834 1.21621 2.332937 1.180504 3.379237-.098006.101453-.450138.125585-.894367-.03546-1.327021-.355333-.825418-1.400402-.868018-1.930078-1.528943.587544-.535832.888457.163507 1.317664.097267.247477-.195766.531153-.366661.616847-.706973-.987201-1.09161-2.086691-1.099736-3.091376-.02561-.112288.353118-.100468.718054-.031273 1.208331.312979.336618.600595.672252.994589.914558zm4.112805 2.304865c.859645.196012 1.725201-.24994 2.04015-.98991.323814-.760901.071657-1.385381-.751544-1.984006-.387838-.282444-.920715-.346961-1.205375-.795375.469099-.727658.838468.127063 1.275063.062054.244769-.231225.620048-.380697.602811-.816553-1.164499-.979075-2.711172-.870973-3.144072.262991-.01576.309286-.082739.676439.08594 1.023892.364936.856198 1.371591.970949 1.890924 1.548397-.002955.349669-.146024.464174-.36272.494955-.436841-.004187-.712637-.397934-1.123376-.447922-.287862.252648-.536078.508252-.662895.844378.317904.516132.8397.67964 1.355094.797099zm-32.4569794-3.35609c.0283183-.773952-.2349189-1.350168-.9310571-1.749087-.7212552-.162769-1.4363543-.059099-2.1103303.22236-.4232973-.328985-.8547207-.250432-1.344997-.151687v4.808943c.4336396.070426.8153213.180252 1.1083543-.059592.3883304-1.314955-.5395255-2.914817 1.0140421-3.795886.8574294.199952 1.0039459.757207.9965585 1.423796-.0086186.806456-.0019699 1.612913-.0019699 2.359778.459988.188132.7798618.145778 1.2602883.06624 0-1.08964-.0278259-2.10836.0091111-3.124865zm76.2173994 1.741454c-.463435-1.082745-.017237-2.256109-.285399-3.41125-.439796-.112534-.857184-.14036-1.307322.025856 0 1.028571-.051958 2.00937.013051 2.982288.084217 1.260535.94534 2.036211 2.14973 2.051232 1.206607.014774 2.118949-.755484 2.209075-1.99164.073628-1.008132.015021-2.025868.015021-3.090637-.460234-.063285-.842655-.171879-1.088901.015514-.537063 1.312246.587298 2.933285-1.135195 3.899309-.270625-.221375-.500126-.316919-.57006-.480672zm-55.588613-1.873688c-.090618-1.300673-.756714-1.818282-2.035964-1.662162-.579171.070672-1.139873.219651-1.732342.05048-.213742-.060823-.487075-.069688-.733075.148733v4.670552c.454817.178037.843393.165232 1.349429.006403 0-.792421-.002462-1.600108.000493-2.40755.002955-.73012.268901-1.260534 1.134949-1.404835 1.290576 1.057628.247477 2.632865.799808 3.866067.361735.084955.721747.098252 1.231477-.042601 0-1.114264.05836-2.174108-.014775-3.225087zm27.437742-35.261231c.01182-1.676445-1.075357-2.816811-2.701814-2.833063-1.633844-.016499-2.782336 1.1283-2.773225 2.76436.009357 1.644432 1.131009 2.752048 2.780859 2.745646 1.641724-.006157 2.68236-1.040391 2.69418-2.676943zm-7.227081-30.1762466c-.033243 1.4806787.905201 2.9150631 2.771994 2.933039 1.770511.016991 2.809916-1.523033 2.725207-2.8296156-.107363-1.6564985-1.133717-2.7769189-2.763375-2.7759339-1.543964.000985-2.699598 1.1435675-2.733826 2.6725105zm12.315267 66.1737536c.054913-.856444.161045-.970949 1.213994-1.288606 1.151448 1.080282.182961 2.584354.696631 3.801303.392024.099237.78257.173357 1.214486-.100469.119676-1.024138-.084216-2.097525.132973-3.047543.276535-.475009.627682-.639502 1.142829-.678162 1.147015 1.080774.194042 2.568841.678162 3.85794.393994.052696.813105.12854 1.290084-.124601-.121399-1.640985.318151-3.34624-.756222-4.702811-1.096042-.255603-1.965045-.215958-2.694672.470577-.351886-.321105-.663634-.615862-1.105646-.600595-1.05812.035952-2.115255.096282-3.154661.146024v4.783334c.447676.104654.81212.101699 1.23.008618.226793-.821231.057868-1.680384.112042-2.525009zm-5.700108-31.71036c-1.463688-.011574-2.864829-.072397-4.277297.040384v16.947898h4.277297zm-5.997081-13.063856h4.270156v-16.9097298h-4.270156zm9.373363 30.040564h4.31916c0-.459741-.000985-.861861.000246-1.263735.008126-2.584847-.002955-5.169694.033982-7.754048.018715-1.301904.388576-2.515652 1.315447-3.474042.899292-.930072 2.024144-1.264229 3.257838-.843147 1.237141.421819 1.722739 1.44645 1.793904 2.68039.073135 1.266937.213742 2.528703.190102 3.803766-.036198 1.968738-.015513 3.938708-.003201 5.90794.00197.309531-.112288.654276.153658.937705h4.078576c0-4.120931.052451-8.175868-.028811-12.22785-.028072-1.400648-.539033-2.723237-1.672504-3.695909-2.176571-1.867532-4.958415-2.068715-7.527994-.568337-.517856.302391-.945093.759424-1.531898.944847-.151195-.455802.059099-.928841-.192565-1.389814h-4.18594zm-28.356732-30.033177h4.429723v-9.6567925l.19946-.0524504c2.260787 3.2497117 4.521327 6.4989309 6.763892 9.7225409h5.288138c-2.958156-4.2834538-5.837267-8.452649-8.767105-12.6954719 2.678913-3.4403063 5.331724-6.8471231 8.05767-10.3477597h-5.352901c-2.035718 2.5791832-4.055184 5.1379279-6.232739 7.8963784v-4.0344985-3.8382403h-4.386138zm-44.1529372 45.116499c.2393513.072642.2312252.315688.3262763.484366.8185225 1.452607 2.1502222 2.145544 3.7781561 1.95815 1.7815916-.205123 2.9323003-1.69639 2.7087087-3.587069-.9985285-.115489-2.0093693-.057621-3.0125765-.032258-.1997057.363706-.2890931.699339-.198967 1.084961.5397718.3083 1.1982342-.071165 1.7515495.25388-.8549669 1.160805-1.9766186 1.344751-3.066012.544204-1.0623063-.781093-1.2858979-1.986961-.6168468-3.012084.6500901-.995574 2.3142222-1.493237 3.9300901-.176066.2592973-.295742.6316216-.489538.8123663-.956913-1.0167507-1.144553-2.2955075-1.384643-3.7513153-1.100721-1.3442582.262006-2.0128168 1.275802-2.6614294 2.323334zm186.4084082-48.0180182c-.377988.9514955-.367153 1.9822822-.613399 2.9648052-1.002961 3.999777-2.945844 7.527747-5.391562 10.793219-3.105657 4.147033-6.741976 7.809207-10.532937 11.324618-1.017735.943616-2.005922 1.918505-3.083988 2.865814 4.950289-8.982817 5.068487-18.094666.313718-27.0671409-4.74221-8.9483423-12.458336-13.8343603-22.641604-15.1877297 2.98746-3.6176036 6.585856-6.1322703 10.796913-7.7562643 4.187418-1.6148829 8.53588-2.1566246 13.224409-1.4695976-3.146535-1.8874775-9.815622-2.6084865-15.567195-.5934534-5.200721 1.8217297-9.109634 5.2066306-12.076655 9.8311351-2.033994-.0802763-3.973676.4361021-6.057165.7675496.849796-2.1726307 2.000997-4.0364685 3.355105-5.7653634 4.376288-5.5875736 10.08009-8.9845406 17.068805-10.2270991.551345-.098006 1.150708.0928348 1.656006-.2762883h5.90991c3.417897.1691712 6.586348 1.197003 9.563465 2.835033 7.107405 3.9106367 11.631195 9.8323664 13.680456 17.6657057.290325 1.1105706.160061 2.2691592.395718 3.3851472z" fill="#dadada" fill-rule="evenodd" transform="translate(-66 -68)"/></svg>