<svg height="54" viewBox="0 0 256 54" width="256" xmlns="http://www.w3.org/2000/svg"><g fill="#dadada" fill-rule="evenodd" transform=""><path d="m136.290743 42.4202575c-3.621.943-7.196.878-10.73-.417-.308-.113-.377-.222-.256-.551 1.827-4.98 3.638-9.966 5.454-14.95.038-.106.079-.211.14-.375.935 2.647 1.844 5.218 2.751 7.79.951 2.692 1.895 5.386 2.853 8.074.091.256.09.35-.212.429m11.301 10.769c-.02-.339-.005-.68-.005-1.021 0-.602 0-.602-.619-.611-.164-.002-.328-.005-.491-.015-1.039-.062-1.829-.51-2.282-1.476-.085-.183-.182-.361-.252-.549-.89-2.419-1.774-4.841-2.669-7.258-.061-.166-.028-.242.106-.341.355-.261.71-.524 1.044-.811 2.428-2.089 4.058-4.651 4.627-7.838.025-.14.126-.334-.066-.399-.199-.066-.224.153-.28.283-.705 1.673-1.645 3.2-2.847 4.562-.938 1.063-2.001 1.981-3.217 2.757-.054-.129-.1-.231-.139-.336-.544-1.487-1.087-2.976-1.631-4.464-1.722-4.713-3.446-9.425-5.16-14.141-.093-.257-.212-.342-.484-.338-.932.019-1.866.023-2.798-.002-.323-.008-.45.105-.558.397-2.309 6.214-4.634 12.421-6.94 18.635-.137.369-.244.345-.524.155-1.13-.772-2.167-1.649-3.058-2.687-3.633-4.236-4.772-9.166-3.959-14.596.706-4.715 3.073-8.49 6.723-11.498 3.167-2.60999997 6.811-4.31299997 10.676-5.58299997 4.12-1.353 8.36-2.129 12.666-2.559 3.966-.397 7.941-.482 11.924-.282 3.664.185 7.302.589 10.913 1.235 6.77 1.211 13.289 3.221 19.562 6.03599997 1.666.747 3.302 1.552 4.915 2.405.101.053.231.186.331.043.106-.152.004-.281-.136-.373-.074-.048-.143-.104-.214-.156-2.295-1.674-4.734-3.10999997-7.271-4.38199997-5.23-2.623-10.709-4.561-16.396-5.92-5.633-1.347-11.338-2.077-17.133-2.061-2.823.008-5.638.159-8.445.475-3.66.413-7.269 1.084-10.799 2.139-4.039 1.206-7.876 2.851-11.324 5.317-3.17 2.26699997-5.751 5.05399997-7.387 8.62599997-2.064 4.503-2.525 9.208-1.423 14.018 1.231 5.37 4.125 9.595 8.976 12.364.237.134.275.247.179.497-.601 1.574-1.174 3.159-1.775 4.733-.301.786-.623 1.565-1.083 2.279-.468.726-1.132 1.086-1.991 1.098-.29.003-.581.023-.869.007-.237-.014-.305.071-.297.3.016.44.023.883-.002 1.323-.015.272.102.307.33.307 3.467-.005 6.934-.005 10.4 0 .235 0 .341-.049.327-.314-.023-.428-.023-.858 0-1.285.014-.276-.088-.337-.344-.332-.73.014-1.462.028-2.178-.162-.976-.26-1.488-.897-1.513-1.907-.007-.289.009-.579.074-.863.333-1.466.97-2.828 1.445-4.246.077-.229.197-.158.349-.111 3.898 1.218 7.805 1.2 11.723.096.298-.083.646-.364.876-.208.213.144.26.548.359.845.422 1.277.973 2.513 1.277 3.827.329 1.421-.349 2.401-1.774 2.66-.527.094-1.055.074-1.582.069-.235-.002-.341.046-.328.309.022.441.018.883.001 1.324-.009.234.068.298.299.298 3.945-.005 7.892-.005 11.837 0 .225 0 .317-.054.304-.294"/><path d="m34.7482429 51.0774575c-.218.025-.451-.036-.672-.085-.671-.145-1.083-.544-1.196-1.24-.048-.301-.068-.601-.068-.904 0-7.966-.001-15.934 0-23.901 0-.202.002-.404.019-.604.085-1.034.561-1.518 1.588-1.625.188-.019.376-.054.563-.051.191.003.235-.079.232-.25-.008-.441-.017-.882.003-1.323.011-.257-.056-.343-.33-.342-2.509.011-5.017.011-7.526 0-.244-.001-.347.076-.427.301-2.571 7.187-5.149 14.371-7.726 21.555-.46 1.284-.92 2.569-1.385 3.864-.131-.107-.142-.242-.184-.357-2.001-5.519-3.998-11.042-5.997-16.563-1.023-2.826-2.04800004-5.651-3.07200004-8.477-.058-.162-.074-.324-.329-.323-2.66.01-5.321.008-7.98.003-.197-.001-.265.057-.258.257.014.365.004.731.004 1.097 0 .534 0 .534.52.583 1.413.135 1.846.597 1.888 2.018.001.051 0 .101 0 .152 0 8.005.001 16.01 0 24.015-.001 1.635-.499 2.154-2.125 2.207-.244.009-.295.085-.288.306.016.441.021.884-.001 1.324-.014.263.09.318.326.315.705-.012 1.411-.004 2.117-.004 1.601 0 3.202 0 4.804-.001.167 0 .365.056.357-.239-.013-.491-.011-.983 0-1.475.004-.198-.093-.216-.254-.223-.276-.012-.555-.032-.826-.084-.598-.114-1.046-.42-1.207-1.048-.101-.394-.116-.796-.116-1.199 0-7.955 0-15.91 0-23.865v-.403c.153.139.172.293.221.426 1.826 5.01 3.647 10.021 5.47000004 15.032 1.538 4.229 3.079 8.457 4.607 12.69.106.293.236.415.561.397.565-.03 1.134-.025 1.7-.001.282.013.387-.101.475-.347 3.199-8.952 6.406-17.901 9.612-26.851.174-.487.356-.972.535-1.459.018.006.035.011.053.017v.15c0 8.119.003 16.237-.002 24.355 0 1.614-.516 2.144-2.107 2.187-.266.007-.311.098-.303.329.015.428.021.857-.002 1.285-.015.278.094.34.348.332.516-.016 1.033-.005 1.55-.005 2.307 0 4.614-.006 6.921.007.303.001.396-.087.376-.383-.024-.351-.029-.707 0-1.057.031-.366-.038-.564-.469-.515"/><path d="m195.456743 23.1160575c.203-.023.245-.107.241-.288-.009-.453-.013-.908.002-1.361.008-.224-.076-.278-.283-.27-.365.014-.731.003-1.097.003-2.622 0-5.243.006-7.865-.006-.304-.002-.39.084-.372.379.024.415.017.832.002 1.248-.008.219.073.279.283.275.466-.009.934-.016 1.399.014 1.797.113 2.551 1.1 2.187 2.86-.109.529-.227 1.058-.379 1.577-1.892 6.495-3.793 12.988-5.689 19.483-.026.086-.038.178-.134.247-.919-3.185-1.832-6.35-2.746-9.515-1.532-5.304-3.068-10.607-4.59-15.915-.076-.266-.177-.357-.456-.351-.857.019-1.714.016-2.571.001-.245-.004-.342.072-.407.313-1.992 7.435-3.992 14.868-5.992 22.3-.346 1.286-.695 2.571-1.062 3.929-.075-.236-.133-.397-.179-.562-1.634-5.812-3.268-11.623-4.896-17.436-.411-1.465-.846-2.925-1.195-4.404-.305-1.299.368-2.226 1.668-2.475.552-.105 1.107-.071 1.659-.063.274.005.342-.085.328-.342-.02-.39-.027-.784.002-1.172.025-.318-.077-.393-.391-.392-3.832.012-7.664.007-11.496.007-.051 0-.102.006-.152 0-.188-.022-.273.041-.268.249.012.453.015.908-.001 1.361-.009.248.097.295.315.286.302-.012.606-.011.906.014.843.069 1.564.364 2.02 1.134.272.46.441.957.591 1.465 2.652 8.972 5.306 17.944 7.95 26.918.092.311.219.412.542.406 1.084-.021 2.168-.023 3.252.001.35.008.491-.087.586-.439 1.96-7.235 3.935-14.468 5.908-21.7.244-.895.492-1.788.738-2.683.023.005.045.01.068.016.564 1.943 1.128 3.888 1.693 5.831 1.811 6.219 3.624 12.435 5.43 18.655.067.232.16.32.41.318 1.134-.014 2.269-.012 3.403-.001.232.002.322-.073.385-.299.338-1.224.699-2.442 1.051-3.662 1.956-6.779 3.909-13.559 5.87-20.335.388-1.34.694-2.707 1.281-3.983.41-.891 1.031-1.518 2.051-1.636"/><path d="m245.618843 49.8264575c-.117-.412-.164-.837-.164-1.269.003-3.832.004-7.664 0-11.495-.001-1.124-.107-2.239-.382-3.332-.649-2.584-2.148-4.38-4.794-5.065-1.608-.416-3.239-.455-4.864-.094-1.48.328-2.748 1.033-3.734 2.208-.328.392-.59.828-.899 1.37v-.518-12.441c0-.088-.007-.177.001-.264.017-.172-.04-.246-.228-.246-2.068.005-4.134.006-6.202-.001-.215 0-.247.096-.243.275.009.352.003.705.003 1.059 0 .562 0 .562.567.601 1.113.076 1.643.5 1.778 1.437.037.261.052.527.052.791.003 8.672.004 17.343.002 26.015 0 1.658-.477 2.155-2.143 2.23-.189.008-.267.045-.261.251.015.466.014.932.001 1.399-.006.209.055.31.275.279.037-.004.075-.001.113-.001 2.772 0 5.546-.003 8.318.007.293.001.41-.071.38-.377-.025-.261-.001-.528-.006-.793-.004-.237.063-.526-.049-.697-.109-.169-.421-.04-.64-.087-.172-.036-.347-.061-.519-.101-.635-.147-.995-.559-1.109-1.19-.042-.234-.074-.474-.075-.713-.008-3.352-.016-6.705-.012-10.057.001-1.023.12-2.035.373-3.029.215-.846.519-1.657.992-2.393 1.278-1.984 2.982-2.54 5.086-2.274 2.035.258 3.215 1.458 3.686 3.417.201.838.281 1.69.283 2.546.007 4.097-.004 8.194.007 12.289.004 1.429.54 2.621 1.782 3.385 1.149.706 2.42.821 3.715.475.709-.191 1.238-.646 1.585-1.308.14-.268.154-.379-.219-.385-1.253-.019-2.114-.698-2.456-1.904"/><path d="m82.8093429 51.0842575c-1.127-.008-2.067-.475-2.872-1.244-.586-.56-1.11-1.172-1.563-1.842-2.086-3.089-4.166-6.183-6.255-9.269-.127-.188-.138-.303.024-.481.656-.716 1.291-1.449 1.936-2.174 1.266-1.42 2.498-2.873 4.011-4.048.932-.723 1.938-1.269 3.151-1.312.19-.007.227-.091.224-.258-.008-.478-.013-.958.002-1.436.007-.211-.077-.247-.263-.247-2.824.005-5.648.006-8.472-.001-.233 0-.268.093-.263.291.011.441.017.882-.001 1.323-.011.243.059.336.313.33.39-.01.779.027 1.15.173.479.188.622.51.427.992-.157.39-.408.721-.69 1.03-1.967 2.161-3.933 4.324-5.901 6.485-.505.554-1.016 1.104-1.524 1.655-.032-.013-.063-.026-.094-.038v-.485c0-7.148-.002-14.296.007-21.444.001-.339-.078-.444-.433-.44-1.727.02-3.454.004-5.181.013-.348.001-.803-.157-1.016.07-.21.223-.057.672-.061 1.023-.009.775-.003.775.784.862.994.11 1.446.545 1.561 1.522.038.312.058.628.058.942.003 8.496.003 16.993.003 25.49 0 .379-.02.755-.075 1.13-.1.664-.446 1.108-1.117 1.271-.307.074-.618.131-.933.121-.2-.007-.298.032-.289.265.018.465.016.933 0 1.399-.007.224.081.276.287.276 2.836-.005 5.672-.006 8.509.002.243 0 .3-.083.291-.307-.016-.403-.029-.809.003-1.209.028-.348-.089-.425-.429-.435-1.381-.038-1.897-.519-1.948-1.9-.05-1.385-.016-2.773-.023-4.159-.001-.151.06-.257.158-.367.853-.944 1.704-1.889 2.546-2.843.168-.192.26-.239.423.015.827 1.294 1.67 2.579 2.512 3.864 1.365 2.085 2.693 4.194 4.358 6.07 1.206 1.357 2.663 1.891 4.421 1.672 1.223-.154 2.051-.833 2.46-2.006.071-.202.104-.339-.216-.341"/><path d="m50.6452429 46.1751575c-.692 2.901-2.967 4.589-6.021 4.455-1.13-.049-2.135-.368-2.781-1.388-.335-.53-.501-1.122-.573-1.741-.117-1.009-.093-2.009.153-3 .34-1.371 1.191-2.299 2.463-2.866 1.108-.494 2.287-.67 3.484-.753 1.043-.071 2.087-.077 3.132-.051.255.006.351.061.343.333-.019.643-.006 1.285-.006 1.928-.007 1.031.048 2.066-.194 3.083m7.112 4.963c-1.3.27-2.174-.313-2.488-1.614-.108-.444-.144-.894-.143-1.349.001-3.933.002-7.866-.001-11.8-.001-.907-.065-1.809-.213-2.707-.434-2.627-2.038-4.362-4.625-4.983-1.887-.452-3.796-.441-5.71-.246-1.309.132-2.592.395-3.767 1.02-1.201.638-2.061 1.539-2.117 2.987-.06 1.541.482 2.463 1.999 2.849.516.131 1.04.178 1.569.213.25.017.286-.076.294-.295.017-.477.051-.955.107-1.43.202-1.716 1.133-2.768 2.734-3.091.634-.127 1.28-.137 1.921-.082 2.006.172 3.093 1.226 3.374 3.225.217 1.544.117 3.096.155 4.644.008.31-.095.369-.379.364-1.814-.027-3.629-.061-5.437.147-1.635.189-3.222.55-4.705 1.294-1.685.846-2.872 2.107-3.319 3.98-.284 1.192-.259 2.396-.098 3.603.363 2.723 2.192 4.761 4.809 5.332 1.784.39 3.556.31 5.301-.216 1.612-.487 2.857-1.455 3.693-2.928.155-.273.299-.551.501-.924.152.791.36 1.447.658 2.074.906 1.906 2.494 2.644 4.473 2.077.949-.271 1.578-.981 1.683-1.877.027-.23.052-.334-.269-.267"/><path d="m96.8161429 38.7590575c-1.5.004-3 .003-4.5.003h-.378c-1.613 0-3.227-.006-4.84.006-.272.002-.322-.069-.299-.338.118-1.359.314-2.7.784-3.988.303-.834.723-1.595 1.309-2.276 1.612-1.871 5.706-2.122 7.192.897.857 1.744 1.031 3.611 1.049 5.511.003.265-.187.185-.317.185m.606-9.162c-2.25-1.313-4.704-1.501-7.209-1.078-3.491.588-5.731 2.691-6.929 5.966-.611 1.67-.855 3.412-.944 5.18-.119 2.368.022 4.709.788 6.976.983 2.908 2.768 5.087 5.72 6.168 1.901.695 3.87.774 5.853.529 1.607-.199 3.118-.702 4.432-1.688.677-.508 1.2160001-1.132 1.4840001-1.954.25-.77.14-1.467-.441-2.059-.174-.178-.3260001-.238-.4950001.039-.198.321-.464.595-.747.848-1.664 1.481-3.623 2.115-5.833 2.052-2.506-.07-4.323-1.181-5.353-3.499-.787-1.771-.967-3.659-1.059-5.565-.017-.34.189-.287.386-.287h7.147 4.652c.857 0 1.7140001 0 2.5710001.001.155 0 .293.021.294-.22.003-1.977.048-3.959-.465-5.894-.611-2.308-1.7290001-4.277-3.8520001-5.515"/><path d="m219.407943 40.9172575c-1.321-.896-2.769-1.536-4.228-2.16-1.27-.544-2.569-1.029-3.736-1.794-1.141-.748-1.69-1.774-1.623-3.154.069-1.398.805-2.484 2.11-2.988.816-.315 1.669-.38 2.53-.325 1.727.111 2.727.917 3.235 2.568.194.632.25 1.283.29 1.937.007.116-.043.278.164.267.951-.053 1.858-.23 2.518-1.004.735-.863.804-2.224.176-3.334-.587-1.036-1.532-1.63-2.619-1.987-2.616-.857-5.238-.742-7.828.112-1.554.512-2.841 1.411-3.614 2.909-1.48 2.862-.545 6.359 2.203 8.226 1.286.873 2.702 1.503 4.115 2.136 1.241.555 2.498 1.075 3.648 1.811.687.439 1.32.948 1.585 1.762.528 1.624.111 3.937-2.158 4.893-1.183.498-2.418.583-3.669.392-1.768-.271-2.898-1.308-3.448-2.992-.252-.772-.339-1.574-.359-2.381-.005-.222-.068-.268-.28-.256-1.138.062-2.146.888-2.454 2.03-.558 2.062.45 4.071 2.515 5.005 1.526.688 3.147.851 4.795.859.644.011 1.286-.023 1.924-.102.424-.053.847-.128 1.265-.218 3.362-.722 5.502-2.893 5.729-6.114.179-2.548-.618-4.628-2.786-6.098"/><path d="m203.423543 51.0774575c-.162-.017-.325-.039-.485-.072-.666-.14-1.106-.511-1.232-1.208-.063-.35-.08-.7-.08-1.053-.002-3.163-.001-6.326-.001-9.489 0-3.365 0-6.73-.001-10.094 0-.189.072-.395-.274-.392-1.865.016-3.73.01-5.595.004-.182 0-.266.052-.312.237-.101.402-.234.796-.35 1.194-.14.477-.138.476.374.516.175.013.352.027.524.062.825.171 1.16.524 1.306 1.35.06.338.061.676.061 1.016.002 5.193.002 10.384 0 15.576 0 .24 0 .48-.024.718-.091.932-.462 1.392-1.267 1.556-.27.055-.549.082-.825.087-.201.004-.296.041-.288.269.017.466.015.933.001 1.399-.006.22.081.275.288.275 2.836-.005 5.671-.006 8.506.001.226 0 .278-.085.27-.289-.013-.34-.003-.68-.003-1.02 0-.583 0-.581-.593-.643"/><path d="m204.157943 16.6663575c-.657-.643-1.313-1.287-1.98-1.919-.244-.231-.325-.466-.246-.807.219-.943.401-1.894.603-2.871.019-.265-.177-.368-.481-.209-.825.431-1.651.859-2.466 1.306-.298.165-.549.167-.845-.009-.788-.47-1.59-.918-2.387-1.372-.131-.075-.266-.167-.421-.066-.161.106-.108.268-.083.414.15.88.28 1.764.464 2.637.085.403-.019.664-.319.923-.685.594-1.348 1.212-2.016 1.824-.099.091-.228.184-.169.348.054.151.189.177.335.197.872.12 1.741.264 2.615.368.431.051.707.219.877.639.332.814.711 1.609 1.072 2.411.061.136.103.29.301.294.199.004.24-.155.305-.286.384-.778.786-1.548 1.139-2.34.196-.44.495-.608.957-.643.852-.066 1.702-.172 2.553-.269.142-.016.313 0 .375-.19.06-.186-.079-.278-.183-.38"/><path d="m153.808343 39.9387575c-.047-.456-.255-.645-.714-.646-.718-.004-1.436-.001-2.154-.001-.719 0-1.437-.004-2.154.001-.443.003-.668.233-.682.675-.004.139-.001.278 0 .416.002.593.202.798.786.798 1.373.001 2.746.001 4.12 0 .584 0 .787-.198.808-.79.005-.15.006-.303-.01-.453"/><path d="m106.846943 41.1819575c.706.003 1.411.001 2.116.001h1.7c1.103 0 1.15-.047 1.144-1.146-.002-.551-.194-.745-.75-.745-1.26-.002-2.52.026-3.778-.008-1.153-.031-1.186.25-1.158 1.191.015.485.233.705.726.707"/><path d="m254.902143 51.7385575c-.214.365-.509.655-.884.867-.375.213-.776.32-1.205.32-.431 0-.834-.107-1.209-.322-.375-.214-.669-.504-.882-.872-.212-.367-.319-.764-.319-1.192 0-.661.236-1.225.708-1.693.472-.467 1.042-.702 1.71-.702.664 0 1.229.236 1.698.704.469.469.704 1.039.704 1.71 0 .42-.107.814-.321 1.18m.541-2.705c-.27-.468-.641-.838-1.109-1.108-.47-.271-.977-.407-1.521-.407s-1.051.136-1.52.407c-.469.27-.839.64-1.11 1.108-.27.467-.406.972-.406 1.514 0 .544.136 1.049.406 1.515.271.467.642.835 1.112 1.107.47.27.976.406 1.518.406.544 0 1.051-.136 1.521-.406.468-.272.839-.64 1.109-1.107.271-.466.406-.97.406-1.511 0-.544-.135-1.051-.406-1.518"/><path d="m253.364043 50.2258575c-.076.063-.232.096-.468.096h-.61v-.789h.614c.235 0 .391.029.466.089.075.059.113.159.113.299s-.039.242-.115.305m.773 1.082c-.01-.217-.039-.368-.083-.454-.044-.085-.128-.163-.25-.232.151-.108.253-.218.307-.331.055-.112.081-.256.081-.433 0-.209-.044-.388-.132-.535-.089-.149-.206-.257-.351-.326-.145-.068-.372-.102-.682-.102h-1.471v3.325h.73v-1.288h.591c.179 0 .3.017.358.051.06.035.102.086.125.155.024.068.04.249.048.543.002.148.009.252.019.313.011.061.036.136.072.226h.833c-.077-.061-.124-.125-.142-.192-.016-.068-.035-.308-.053-.72"/></g></svg>