<svg height="100" viewBox="0 0 100 100" width="100" xmlns="http://www.w3.org/2000/svg"><path d="m206.821594 102.000154h-7.35389l-2.100792 16.021615h-.524637l-1.838472-16.021615h-9.192363l-2.36311 16.021615h-.524637l-1.838473-16.021615h-7.878527l4.459417 23.900143h9.98156l2.36311-14.710022h.262319l2.100791 14.710022h9.717zm-33.619385 23.900143c-.262319-1.051517-.524637-2.889989-.789198-6.566934v-9.192363c.262319-4.728462-1.576154-8.667725-9.192363-8.667725-6.040054 0-9.454681 2.363109-9.454681 7.878527h7.35389v-.786956c0-1.313835.789198-2.365352 1.838473-2.100791 1.311593-.262319 2.100791.524637 1.838472 1.838472.262319 1.313836-.526879 2.100792-2.365352 2.627671-5.515417 1.313835-9.454681 2.62767-9.716999 8.405407.262318 3.154549 1.576153 5.253099 4.203824 6.566934h-7.35389v30.991714h8.140846v-30.731638c1.051516.264561 2.36311 0 2.889989 0v30.729396h8.405407v-30.991714zm-22.063912-16.546253h1.576154v-7.878527c-3.414627 0-5.253099 1.838472-6.040055 4.466143h-.524637v-3.941506h-7.878528v23.900143h8.405407v-11.817791c-.002242-3.152308 1.573912-4.728462 4.461659-4.728462zm-12.869308 47.537967h8.405407v-23.637824h-8.405407zm-2.889989-48.064846h-10.243879v4.466143h2.100791v4.201582c.262319 1.838473-1.313835 2.889989-2.627671 2.889989-1.838472 0-2.62767-1.051516-2.62767-2.889989v-15.234659c0-2.100792 1.313835-3.1523081 2.62767-3.1523081 1.313836 0 2.36311 1.0515161 2.36311 2.8899891v1.838472h8.143088c.262319 0 .262319-1.051516 0-1.576153.262319-3.9392641-2.100791-6.8292532-4.99078-7.6162091h3.414626l4.990781-22.0639122h.524637l-.262319 22.0639122h7.878528v-14.7077801h.262318c.789198 4.7284616 3.939264 7.8785273 9.717 7.8785273s9.719242-3.676945 9.454681-8.6677253c.262319-.7891979.262319-1.5761539 0-2.1007911h-7.35389v2.8899891c0 1.8384725-1.051516 2.3631098-2.100791 2.3631098-1.313835-.2623187-2.100791-.789198-2.100791-2.3631098v-8.930044c0-1.8384725 1.051517-2.6254284 2.100791-2.6254284 1.049275 0 1.838473 1.0515166 1.838473 2.6254284v1.5761539h7.616208c.262319-.5246373.262319-1.3138352 0-1.5761539.262319-4.7284616-2.889989-8.140846-9.454681-8.140846-6.302373 0-8.930044 3.9392637-9.717 8.140846h-.262318v-7.6162087h-12.606989l-3.676945 17.5977693h-.260077l-3.676945-17.5977693h-13.131626v31.2562748h6.040055c-2.625429 1.0515166-6.040055 3.4146264-6.040055 8.6677251v13.660748c0 5.515417 2.889989 8.143088 5.253099 8.927802h-5.253099v30.991714h8.667725v-12.869308h4.988538v12.869308h8.405407zm-24.951659 50.954835h99.544318v-99.282h-99.544318zm54.369461-42.024791v-3.414627c-.262318.262319-.526879.262319-1.576154.786956-1.576153.524638-2.625428 1.838473-2.889989 3.15455.262319 1.573912 1.051517 2.625428 2.100791 2.625428 1.576154.002243 2.627671-1.309351 2.365352-3.152307zm-3.152307 8.143088h4.463901c0-.786956-.52688-2.365352-.52688-3.152308-.784714 1.053759-2.360868 2.62767-3.937021 3.152308zm-34.670902-32.043231-5.253099-21.2747143h-.262318v21.5370329c1.838472-.2623186 3.676945-.5246373 5.515417-.2623186zm-4.988538 32.57011c3.414626 0 5.515418-1.840715 6.829253-3.939264.262319 1.049275.524637 2.627671.524637 3.412385h-2.365352v11.293153h-4.988538z" fill="#dadada" fill-rule="evenodd" transform="translate(-110 -60)"/></svg>