<svg height="52" viewBox="0 0 239 52" width="239" xmlns="http://www.w3.org/2000/svg"><path d="m67.7729273 135.031247h24.2480037v-24.248611h-24.2480037zm-26.7729273 0h24.2480038v-24.248611h-24.2480038zm26.7729273-26.782636h24.2480037v-24.248611h-24.2480037zm-26.7729273 0h24.2486106v-24.248611h-24.2486106zm238.999393-1.165676v-4.203959h-5.22036v-6.5359168l-.175974.0540058-4.902999 1.5012403-.096483.0297335v4.9515442h-7.73436v-2.758544c0-1.2840035.287626-2.2670306.854384-2.9217753.56251-.6492834 1.365922-.9781727 2.390212-.9781727.73727 0 1.50124.1741536 2.269458.5169995l.191751.0855597v-4.4278699l-.089808-.0321608c-.716032-.2578929-1.69117-.3889632-2.899323-.3889632-1.523085 0-2.906605.333137-4.111723.9884884-1.207546.6583855-2.157806 1.5971158-2.822259 2.790705-.663847 1.1917687-.999411 2.5686136-.999411 4.0923057v3.0334276h-3.634774v4.203958h3.634774v17.70966h5.217932v-17.710266h7.734361v11.254447c0 4.634184 2.186325 6.983741 6.497688 6.983741.708751 0 1.454516-.083133 2.215452-.245757.775499-.166872 1.302815-.334351 1.6135-.512145l.068569-.038836v-4.244614l-.212382.141386c-.282772.189324-.635934.342846-1.04917.458139-.415662.1159-.762149.174761-1.030358.174761-1.010333 0-1.757919-.27185-2.22152-.808874-.469061-.542485-.706323-1.489104-.706323-2.816798v-10.34545zm-32.82886 6.710677c0-2.350163-.525495-4.154807-1.563135-5.362959-1.030964-1.202692-2.472131-1.811926-4.281022-1.811926-1.865325 0-3.34472.637754-4.396923 1.895058-1.058271 1.264586-1.595295 3.083793-1.595295 5.40665 0 2.253074.536417 4.025557 1.594688 5.269511 1.052203 1.237279 2.546162 1.864111 4.439399 1.864111 1.905374 0 3.362924-.615303 4.331388-1.83013.975139-1.223323 1.4709-3.050418 1.4709-5.430315zm2.45332-8.431582c1.918724 1.996395 2.892042 4.776177 2.892042 8.262283 0 3.528582-1.037033 6.390283-3.081972 8.506219-2.045546 2.117149-4.85931 3.190591-8.360586 3.190591-3.36171 0-6.078384-1.020043-8.074779-3.030394-1.997002-2.010351-3.009156-4.769502-3.009156-8.200995 0-3.612928 1.037033-6.503757 3.081973-8.591172 2.046153-2.088023 4.915742-3.146901 8.529884-3.146901 3.402973-.000607 6.103264 1.012154 8.022594 3.010369zm-27.50595 6.571719c-1.625029-.652924-2.665702-1.194196-3.094108-1.608645-.414449-.4011-.624404-.969071-.624404-1.68753 0-.637754.259713-1.148686.793096-1.561314.535811-.41627 1.28279-.626832 2.2197-.626832.870161 0 1.75974.137138 2.643858.406561.882904.268815 1.659616.629258 2.3089 1.070407l.213596.145027v-4.765255l-.083133-.035801c-.597098-.256073-1.38534-.47513-2.342881-.652924-.954507-.176581-1.819814-.265782-2.571041-.265782-2.458175 0-4.490978.628652-6.04501 1.868359-1.561921 1.246988-2.354411 2.882332-2.354411 4.861736 0 1.028538.170513 1.942389.507897 2.716675.337992.777926.86288 1.463618 1.559494 2.037658.689939.569184 1.75792 1.166282 3.17178 1.774303 1.187521.489086 2.074066.902322 2.637789 1.228784.550374.31918.941158.640788 1.160822.953294.21481.306437.324035.72392.324035 1.242133 0 1.473327-1.102568 2.188146-3.371419 2.188146-.842248 0-1.80161-.175367-2.8526-.521247-1.05281-.34588-2.03523-.844675-2.921168-1.481216l-.216023-.155949v5.024361l.078885.037015c.73909.341026 1.669325.628045 2.766432.854384 1.097107.226946 2.091057.341026 2.953936.341026 2.668737 0 4.81562-.632293 6.383002-1.878674 1.577091-1.25427 2.376256-2.929057 2.376256-4.978244 0-1.476968-.429619-2.743374-1.277935-3.76463-.844069-1.013368-2.30526-1.943603-4.345345-2.765826zm-16.776997 1.859863c0-2.350163-.525495-4.154807-1.562528-5.362959-1.031571-1.202692-2.472131-1.811926-4.281629-1.811926-1.864718 0-3.344113.637754-4.396923 1.895058-1.058271 1.264586-1.595295 3.083793-1.595295 5.40665 0 2.253074.537024 4.025557 1.595295 5.269511 1.051596 1.237279 2.545555 1.864111 4.439399 1.864111 1.905981 0 3.362924-.615303 4.331388-1.83013.975746-1.223323 1.470293-3.050418 1.470293-5.430315zm2.453927-8.431582c1.918117 1.996395 2.891435 4.776177 2.891435 8.262283 0 3.528582-1.037033 6.390283-3.081365 8.506219-2.045546 2.117149-4.85931 3.190591-8.361193 3.190591-3.361103 0-6.078384-1.020043-8.074779-3.030394s-3.008549-4.769502-3.008549-8.200995c0-3.612928 1.036427-6.503757 3.081973-8.591172 2.045546-2.088023 4.915742-3.146901 8.529884-3.146901 3.40358-.000607 6.103264 1.012154 8.022594 3.010369zm-22.023449-2.863522c-1.29432 0-2.453928.41627-3.44727 1.236066-.871982.719673-1.501241 1.706341-1.983652 2.938766h-.054613v-3.794364h-5.154218v21.913011h5.154218v-11.209544c0-1.906587.432654-3.472149 1.28461-4.654209.842248-1.16871 1.963628-1.760347 3.333798-1.760347.464814 0 .986061.076458 1.550391.227553.558263.150488.963003.314326 1.201478.486052l.21663.156557v-5.196695l-.083739-.035801c-.478164-.203887-1.157788-.307045-2.017633-.307045zm-16.983919.161411c-.991522-.205101-1.959986-.308865-2.880512-.308865-2.365333 0-4.474594.506684-6.268922 1.506702-1.797362 1.001231-3.18877 2.432082-4.133569 4.251289-.943585 1.814353-1.421142 3.932716-1.421142 6.296835 0 2.070425.464815 3.969731 1.379273 5.645125.917492 1.678428 2.214845 2.990344 3.857471 3.900555 1.641413.908389 3.536471 1.369563 5.634809 1.369563 2.449679 0 4.54195-.489693 6.21795-1.455123l.067963-.040049v-4.721565l-.216024.158377c-.760936.553408-1.609252.995163-2.521889 1.312523-.911424.317967-1.742143.478771-2.469704.478771-2.022488 0-3.645696-.6329-4.824722-1.881102-1.181453-1.249415-1.780371-3.001874-1.780371-5.210044 0-2.222127.623797-4.021916 1.855008-5.349003 1.227571-1.324052 2.85442-1.995181 4.834431-1.995181 1.695418 0 3.34654.573433 4.907854 1.706341l.216023.157163v-4.975816l-.069176-.038836c-.587389-.329496-1.389587-.600739-2.384751-.80766zm-20.773427-9.0930014c-.84953 0-1.588014.2900537-2.196034.861059-.610448.5734325-.91992 1.2973531-.91992 2.1499168 0 .839214.305831 1.5479644.909604 2.1074404.600739.5570487 1.34347.8398208 2.20635.8398208.862879 0 1.608038-.2827721 2.216059-.839214.611661-.5600828.921132-1.2688332.921132-2.1080472 0-.8228301-.301583-1.5382555-.896253-2.1262513-.594671-.5873891-1.348325-.8847245-2.240938-.8847245zm-2.630508 31.2256764h5.154825v-21.913618h-5.154825zm-12.163444-30.5782134h7.19855v30.5782134h-5.273759v-19.431171c.013957-1.228177.114687-3.264014.234228-5.4916021h-.108619c-.20146.9005011-.420517 1.9023401-.628045 2.4156981l-9.124555 22.507075h-3.4588l-9.193124-22.305615c-.189324-.587389-.449644-1.464832-.700862-2.6165513h-.109226c.023059.4951543.114687 1.1462583.140173 1.9581663.049151 1.604397.07403 3.006728.07403 4.166943v18.797664h-4.944262v-30.5788204h7.495885l7.667006 19.2327444c.671735 1.693598 1.101354 3.025539 1.35682 3.965483h.081919l1.432064-4.009173z" fill="#dadada" fill-rule="evenodd" transform="translate(-41 -84)"/></svg>