<svg height="57" viewBox="0 0 256 57" width="256" xmlns="http://www.w3.org/2000/svg"><path d="m287.374 124.753568v-2.900432c-.932955-.103016-1.968927-.310501-2.900431-.414969v-9.013246c0-3.107916-1.346474-5.594829-5.284328-5.594829-2.692947 0-4.766341 1.243457-5.802313 3.210933.207484-1.035972.310501-2.486913.310501-3.522885v-7.5637563c-2.58993-.1030168-5.387344 0-7.563756.3105014v2.7974149c.932955.103016 2.176412.207484 3.004899.310501v19.062464c-1.035972.103017-2.176412.310502-3.004899.41497v2.900431h10.153686v-2.900431c-.828487-.208936-1.761443-.310502-2.58993-.41497v-5.179859c0-3.107916 1.761443-5.697846 4.040871-5.697846 1.656975 0 2.174961 1.14044 2.174961 3.004899v11.189658h7.460739zm-23.206352-.104468v-3.625902c-.621003.207485-1.450941.310502-2.176412.310502-1.553958 0-2.071944-.725471-2.071944-2.900432v-7.769789h4.248356v-3.522885h-4.248356v-6.526334l-4.558857 1.14044v5.387344h-3.004899v3.522886h3.107916v8.910229c0 4.143888 1.138989 5.490361 5.076843 5.490361 1.243456-.001451 2.591381-.104468 3.627353-.41642zm-14.712543-3.210933v-22.4823323c-2.58993-.1030168-5.387345 0-7.666773.3105014v2.7974149c1.035972.103016 2.279428.207484 3.107916.310501v19.062464c-1.035972.103017-2.174961.310502-3.107916.41497v2.900431h10.464187v-2.900431c-.828487-.103017-1.761442-.310502-2.797414-.413519zm-16.26505-4.040871v-.310501c-4.248356 0-5.905331 1.035972-5.905331 2.694398 0 1.137537.828488 1.863008 2.071944 1.863008 2.279429 0 3.833387-2.070493 3.833387-4.246905zm7.356271 7.147336c-2.071944.208936-4.766341.310502-7.044319.208936 0-1.035972 0-2.071944.207485-3.004899h-.103017c-.828487 1.968927-3.004899 3.3154-5.594829 3.3154-3.212384 0-4.972375-1.761442-4.972375-4.558857 0-4.248355 4.143888-6.320299 10.153686-6.423316v-1.035972c0-1.864459-.828488-2.797415-3.315401-2.797415-.828487 0-1.658425.103017-2.383896.310502-.101566.72547-.206034 1.553958-.413518 2.279428h-2.797415v-5.179859c1.761443-.517986 3.833387-.932956 6.111364-.932956 5.699297 0 7.253255 2.382446 7.253255 6.214381v8.393695c.828487.103016 1.968927.207484 2.900431.30905v2.901882zm-24.346792-10.877705c0-2.277978-1.138988-3.521434-3.107916-3.521434-1.864459 0-3.107915 1.345022-3.418417 3.521434zm4.45439.932955c0 .621003 0 1.346473-.103017 2.071944h-10.879157c-.103017 3.3154 1.553958 4.869358 4.766342 4.869358 1.761442 0 3.625902-.310501 5.17986-1.035972l.413518 3.522885c-1.86446.725471-4.143888 1.035972-6.3203 1.035972-5.594829 0-8.702745-2.797414-8.702745-8.910229 0-5.387345 3.004899-9.323748 8.287776-9.323748 5.078294 0 7.357723 3.418417 7.357723 7.76979zm-17.301022 10.153686v-2.900432c-.932956-.103016-1.968927-.310501-3.004899-.414969v-17.302473c1.035972 0 2.071943-.207484 3.004899-.413518v-2.797414h-10.256703v2.901882c.828487.207485 1.761442.310501 2.58993.310501v6.3203h-10.049218v-6.3203c.829938 0 1.761442-.103016 2.589929-.310501v-2.901882h-10.256702v2.797414c.828487.207485 1.968927.413518 3.004899.413518v17.301022c-1.035972.103017-2.176412.310502-3.004899.41497v2.900431h10.256702v-2.900431c-.828487-.208936-1.761442-.310502-2.589929-.41497v-7.04577h10.049218v7.04577c-.828488.103017-1.761443.206034-2.58993.41497v2.900431h10.256703zm-32.118033-8.911681c0-3.313949-1.243457-5.178408-3.834837-5.178408-2.070493 0-4.03942 1.552507-4.03942 5.178408 0 3.625902 1.346473 5.388796 3.936403 5.388796 2.279428 0 3.937854-1.762894 3.937854-5.388796zm4.663325-.206033c0 5.490361-3.728919 9.428215-9.013247 9.428215-4.972375 0-8.184758-2.486913-8.184758-8.805761 0-5.490362 3.625901-9.428216 9.013246-9.428216 4.972375 0 8.184759 2.797415 8.184759 8.805762zm-18.54593 9.117714h-10.464187v-2.900432c.932955-.103016 2.071944-.310501 3.107916-.414969v-10.774688c-.828488-.103017-2.071944-.310502-3.107916-.41497v-2.797414c2.279428-.310501 4.972375-.414969 7.563756-.310501v14.297573c1.035972.103017 2.071944.310502 2.900431.414969zm-2.279428-22.58535c0 1.553958-1.243457 2.797415-2.797415 2.797415s-2.797414-1.243457-2.797414-2.797415c0-1.44949 1.243456-2.6929464 2.797414-2.6929464 1.555409-.0014509 2.797415 1.1389884 2.797415 2.6929464zm-9.634249 22.58535v-2.900432c-.932955-.103016-1.968927-.310501-2.901882-.414969v-9.013246c0-3.107916-1.346474-5.594829-5.282877-5.594829-2.694398 0-4.766342 1.243457-5.697846 3.210933h-.103017c.207485-1.035972.310502-2.486913.310502-3.522885v-7.5637563c-2.58993-.1030168-5.387345 0-7.562305.3105014v2.7974149c1.035972.103016 2.176411.207484 3.004899.310501v19.062464c-1.035972.103017-2.176412.310502-3.004899.41497v2.900431h10.153686v-2.900431c-.828488-.208936-1.761443-.310502-2.58993-.41497v-5.179859c0-3.107916 1.761442-5.697846 4.040871-5.697846 1.761442 0 2.17496 1.14044 2.17496 3.004899v11.189658h7.457838zm-27.972694-11.915129c0-5.284327-2.279429-8.184759-6.423316-8.184759-3.212384 0-6.3203 2.58993-6.3203 7.977275 0 5.076843 1.968927 8.392243 6.3203 8.392243 3.107915 0 6.423316-2.485462 6.423316-8.184759zm4.869358-.310501c0 7.874257-5.179859 12.639148-11.603176 12.639148-7.35482 0-10.8777054-4.661874-10.8777054-12.018145 0-7.874258 5.2843274-12.639148 11.6031764-12.639148 6.421865 0 10.877705 3.833386 10.877705 12.018145zm-67.6530313 18.026492h6.8382855v-2.692946h-6.8382855zm0-5.284327h6.8382855v-2.797415h-6.8382855zm-1.2434565-10.773238v23.090277c.8821722.220543 1.7803047.40046 2.6943976.535397v-23.625674zm-5.3873444 0v21.138761c.8734666.422224 1.7730501.799469 2.6929467 1.131734v-22.270495zm-5.3873444 10.670221v7.06028c.8908779.716764 1.823833 1.378394 2.7974145 1.981985v-9.042265zm-8.9058766-5.387344c.3322655.921347.7095102 1.81948 1.1317341 2.692946h10.571557v-2.692946zm-1.3406696-5.282877c.1392904.912642.322109 1.810775.5455539 2.692947h12.4984068v-2.692947zm45.2650102 1.243457h2.7974144v-6.838286h-2.7974144zm-5.2843276 0h2.7974145v-6.838286h-2.7974145zm-8.0802911-1.555409v2.797414h23.4283463c.2248958-.915544.4048125-1.848499.5382991-2.797414zm0 5.388795v2.795964h21.4985946c.4338314-.906839.8212327-1.838343 1.157851-2.795964zm10.670221 5.387344v2.795964h7.4491317c.7095102-.889427 1.3667865-1.823833 1.9660252-2.795964zm-5.2828766 0v11.861444c.9198967-.32356 1.8194801-.692099 2.6929467-1.105617v-10.755827zm-5.3873444 0v13.18035c.9489155-.136389 1.8818706-.317757 2.7974145-.542652v-12.636247h-2.7974145zm-5.594829-31.9105477h6.8382855v-2.7974145h-6.8382855zm0 5.2828766h6.8382855v-2.6929467h-6.8382855zm8.0802911-15.5105605c-.8821722-.2074846-1.7803047-.3728919-2.6929467-.4962219v24.0885245h2.6929467zm5.3887954 1.8601065c-.8749175-.4048126-1.7730501-.7675479-2.6943977-1.083853v22.8160491h2.6943977zm5.3858934 3.2718722c-.8923288-.6877461-1.8252839-1.3247092-2.7974145-1.9036348v9.6951886h2.7974145zm-2.7974145 10.3800328v2.7974141h12.2662563c-.3279127-.95617-.7080593-1.889125-1.1331851-2.7974141zm0 5.2828761v2.797415h13.5184184c-.1305847-.948916-.3061485-1.881871-.5281425-2.797415zm-34.6020438 8.081743h2.7974145v-6.838286h-2.7974145zm5.2828766 0h2.7974145v-6.838286h-2.7974145zm-12.5491897-8.184759c-.2248959.915544-.4048126 1.848499-.5382992 2.797414h23.9651945v-2.797414zm1.8789687-5.2843279c-.4135182.8734666-.7835082 1.7730499-1.1070681 2.6929469h22.6549947v-2.6929469zm3.3371646-5.3858934c-.6761386.8575062-1.3029451 1.7570897-1.8775178 2.6929467h9.315042v-2.6929467zm12.8248685-9.1888101c-.9198966.3235598-1.8194801.6935498-2.6929467 1.107068v10.7746888h2.6929467zm5.3858935-1.3116508v13.1919567h-2.7959636v-12.6522066c.9155439-.2263468 1.848499-.4062635 2.7959636-.5397501z" fill="#dadada" fill-rule="evenodd" transform="translate(-32 -82)"/></svg>