<svg height="63" viewBox="0 0 146 63" width="146" xmlns="http://www.w3.org/2000/svg"><path d="m206.318672 109.466832h24.199462c-3.018235 1.098957-4.695898 2.84774-5.437304 5.57516l-7.013645 22.149635c-1.184691.590884-18.062644 9.297293-33.326748 1.739041-14.296183-7.038002-11.477183-33.316519-.248921-46.1615529 18.27698-20.875799 44.126825-12.1055765 47.672131-11.0290273l-2.530134 8.1515721c-.694642-.4359781-8.137446-7.5110009-17.171203-5.3559541-10.69632 2.6144071-17.318316 16.0133042-19.631192 23.2977912-10.899451 34.073025 8.57245 29.215402 9.508706 29.057086l6.947396-22.198347c.3103-1.086292.544607-3.732362-2.968548-5.225404m-46.530307-9.4794789c1.593877-2.367434 3.611555-3.397219 5.242454-2.8233842 1.330342.4559502 1.490606 1.650384 1.330342 2.9685481-.751149 4.961381-7.12471 9.954913-8.694231 10.593049-.285456-2.773697-.184134-7.17391 2.121435-10.7382129m-10.009472 35.8198609c-3.091791.270355-8.169108-.894364-8.169108-7.008774 0-5.284834 5.732989-9.05373 8.767786-10.418658 1.374671 5.070498 4.114269 10.839535 7.105225 14.788668-.889493.549479-4.409955 2.338207-7.703903 2.638764m16.877953-4.094784c2.33772-2.493113 5.170846-5.673561 5.702788-12.127985h-7.875858s1.56465.832986 1.56465 2.692835c0 1.726863-.697565 4.072376-2.027907 5.742245-2.28852-3.414268-4.784068-7.313715-5.65846-13.044269 3.084484-1.532012 7.452546-3.187755 10.861943-6.180659 3.300768-2.897427 4.040226-5.550317 4.084067-7.33661v-.231872c0-1.8471827-.684899-3.5375111-2.059083-4.87516-2.25442-2.2612404-5.863539-3.1507331-9.628052-2.4955482-3.069383.5913714-5.614131 2.1925556-6.863123 3.377734-4.661311 4.2813532-5.240018 11.4036272-5.240018 14.6040472 0 .714127.054071 1.35957.069172 1.699584-.219206.069172-.7492.29325-.7492.29325-3.293461 1.21197-12.221512 3.598889-15.421445 10.94037-.401392.904107-.985457 2.948576-.985457 5.311626 0 1.985527.398957 4.229231 1.694713 6.314131 2.289006 3.505361 6.070081 5.685739 12.197156 5.594159 6.639045-.083786 13.202098-4.635981 14.332718-5.464096 1.170077 1.093599 4.190261 3.87509 5.705711 4.619419h15.211981c-4.855676-1.594364-12.039328-6.181146-14.916296-9.433201m-34.362378-31.380191c-5.498682 16.207667-17.754781 12.884491-17.754781 12.884491l9.016709-28.7273012h2.899376c2.956369 0 11.140092.3940852 5.838696 15.8428102m16.094167 1.024913c6.893324-16.998273-6.055468-21.6498424-14.453526-21.6498424h-27.815888c2.306056 1.6041071 1.921714 3.7299264 1.490607 4.9935321l-16.2271524 51.8750573c-.6405711 2.083926-3.0995848 4.189774-4.3826756 4.569732h22.538848c-1.273835-.248921-3.025541-2.017677-2.364998-4.402161l5.88546-18.767516s27.103709 3.66319 35.329325-16.618802" fill="#dadada" fill-rule="evenodd" transform="translate(-87 -79)"/></svg>