<svg height="58" viewBox="0 0 245 58" width="245" xmlns="http://www.w3.org/2000/svg"><path d="m214.556778 121.886987h-9.544013v6.642046h-4.055682v5.539404h4.055682v14.212564h9.544013v-14.212564h4.098896v-5.539404h-4.098896zm-26.632353 21.852489c-1.473246 0-2.230167-.529059-2.230167-1.888374 0-2.035043 2.268144-2.226238 4.231162-2.226238h.944186v.605013h.00131c0 1.698489-.980854 3.509599-2.946491 3.509599zm-.415128-15.621642c-3.706032 0-5.408449.339173-8.246247 1.131452v5.540713c1.892302-.96121 4.314972-1.689321 6.584426-1.689321 2.380765 0 4.985463.303816 5.02344 2.874466-.869542-.075954-2.379456-.265839-3.702103-.265839-4.727481 0-10.176526 1.204787-10.176526 7.237892 0 4.109373 3.558052 5.769885 7.230035 5.769885 2.676724.003929 5.098085-1.054189 6.423351-3.285665h.074644v2.849584h8.85388v-11.966683c0-7.21694-6.622403-8.196484-12.0649-8.196484zm11.251668-30.5492226h-10.235456l-4.600455 8.5683966 5.28666 10.852255h10.572011l-6.435137-10.852255zm22.158924 50.7123896h9.525679v-19.685181h-9.525679zm23.793245-5.221182c-1.841229 0-2.063853-2.121474-2.063853-5.001178 0-2.350646.222624-4.283544 2.063853-4.283544 1.838611 0 2.101831 1.932898 2.101831 4.283544 0 2.879704-.26322 5.001178-2.101831 5.001178zm0-14.941985c-7.971241-.00131-12.211569 3.318404-12.211569 9.940807 0 6.810978 4.241638 10.658441 12.211569 10.658441 7.931955 0 12.246928-3.847463 12.246928-10.658441 0-6.621094-4.314973-9.940807-12.246928-9.940807zm28.137028-11.12988h9.149838v-25.9657916h-9.149838zm-51.930273 9.270316h9.525679v-4.362117h-9.525679zm24.440164-20.836277c-.111312-1.51777.374532-3.809486 2.547078-3.809486 2.135879 0 2.361122 2.329693 2.361122 3.809486zm2.846965-8.2776764c-7.866477 0-12.030851 3.2778084-12.030851 9.7666364 0 6.71931 4.164374 10.505224 12.030851 10.505224 3.292213 0 6.272753-.333936 8.773997-1.113119v-5.02475c-1.49158.78835-3.804248 1.238836-6.378827 1.238836-2.769702 0-5.054869-.563107-5.202849-3.000183h12.998611v-1.152405c0-6.528116-2.649223-11.2202394-10.190932-11.2202394zm-20.993423.4242948-1.705036 12.7131276h-.074645l-2.16076-12.7131276h-11.284407l-2.011472 12.7131276h-.074644l-1.864802-12.7131276h-9.198291l4.350331 19.4193426h11.767631l2.39648-13.185877h.074644l2.31005 13.185877h11.692987l4.349021-19.4193426zm-59.361979 30.5544606c-2.342788 0-5.687383 1.097404-6.334302 3.368167h-.073334c-.758231-2.346717-3.516147-3.368167-6.162751-3.368167-2.988397.003928-5.611429 1.102642-6.749429 3.865796h-.075954v-3.436263h-8.994001v19.729706h9.525679v-11.377386c0-1.135381 0-2.692438 1.710274-2.692438 1.673607 0 1.673607 1.555748 1.673607 2.692438v11.377386h9.526989v-11.377386c0-1.135381 0-2.692438 1.673607-2.692438 1.710275 0 1.710275 1.555748 1.710275 2.692438v11.377386h9.526988v-11.8318c0-3.823891 0-8.327439-6.957648-8.327439zm107.101686 0c-2.684581.003928-5.308922 1.102642-6.446923 3.865796h-.075954v-3.436263h-8.994001v19.729706h9.525679v-11.377386c0-1.135381 0-2.692438 1.710275-2.692438 1.673607 0 1.673607 1.555748 1.673607 2.692438v11.377386h9.526988v-13.72934c0-3.780676-1.854325-6.429899-6.919671-6.429899zm-164.906608-31.3153102h2.74613c2.003614 0 3.895916.3352453 3.895916 2.6832715 0 2.6125557-2.003614 2.8377987-4.042586 2.8377987h-2.59946zm.446557 11.3276222h2.226238c1.224431 0 2.227548.149289 2.820775 1.34491.81585 1.567533.927162 5.638929 1.373719 7.50766h10.395222c-1.043713-2.530054-.932401-6.546449-2.458029-9.300437-.93371-1.375029-2.235405-2.416123-4.398784-2.789345v-.074644c3.728294-.894424 6.22299-2.908515 6.22299-6.897409 0-4.9907016-3.836987-6.926219-10.059976-6.926219h-16.107486v25.988054h9.985331zm29.09693-5.425473c1.8098 0 2.069091 1.902779 2.069091 4.214138 0 2.83387-.259291 4.922605-2.069091 4.922605-1.81111 0-2.031115-2.088735-2.031115-4.922605 0-2.311359.221314-4.214138 2.031115-4.214138zm0 14.704956c7.806237 0 12.055733-3.785914 12.055733-10.490818 0-6.51633-4.248186-9.7836611-12.055733-9.7836611-7.844215 0-12.017756 3.2673311-12.017756 9.7836611 0 6.704904 4.172231 10.490818 12.017756 10.490818zm25.528401 0c2.793273 0 4.87808-.297268 6.964196-.965139v-5.756789c-1.301695.783111-2.681962 1.156334-4.356879 1.156334-2.793274 0-4.656766-1.75349-4.656766-4.775935 0-2.908515 1.863492-4.362117 4.656766-4.362117 1.674917 0 3.055184.445247 4.210209.969068v-5.7292885c-1.939446-.5500118-4.024253-.8106126-6.817526-.8106126-7.861239 0-12.034781 3.2673311-12.034781 9.7836611 0 6.704904 4.173542 10.490818 12.034781 10.490818zm95.711205-.426913h9.149838v-25.9657916h-9.149838zm-135.993016 26.071865c-1.83992 0-2.066472-2.121474-2.066472-5.001178 0-2.350646.226552-4.283544 2.066472-4.283544 1.838611 0 2.101831 1.932898 2.101831 4.283544 0 2.879704-.26322 5.001178-2.101831 5.001178zm0-14.941985c-7.971241-.00131-12.21157 3.318404-12.21157 9.940807 0 6.810978 4.240329 10.658441 12.21157 10.658441 7.930645 0 12.248237-3.847463 12.248237-10.658441 0-6.621094-4.316282-9.940807-12.248237-9.940807zm59.013638-21.980826v-15.1161552h-9.37639v25.9684102h9.37639zm-100.8970301 33.792982c0 1.13931 0 2.695057-1.7128936 2.695057-1.670988 0-1.670988-1.555747-1.670988-2.695057v-11.377385h-9.5269887v13.730649c0 3.779367 1.8517062 6.42859 6.9170522 6.42859 2.6832714.044524 5.3089226-1.054189 6.446923-3.816034h.0746444v3.385191h8.9979298v-19.728396h-9.5256791zm25.2193471-18.043003h-9.5427036v6.683951h-4.0556817v5.497499h4.0556817v14.212564h9.5427036v-14.212564h4.100206v-5.497499h-4.100206zm-58.0314746 14.355305 2.9137525-8.70459h.075954l2.8770851 8.70459zm-3.8749635-14.363163-9.2663879 26.401872h10.0979532l1.6264632-5.707026h8.547444l1.7417038 5.707026h10.6270121l-9.4182959-26.401872z" fill="#dadada" fill-rule="evenodd" transform="translate(-37 -91)"/></svg>