<svg height="70" viewBox="0 0 200 70" width="200" xmlns="http://www.w3.org/2000/svg"><path d="m240.055112 138.142085c-.189604 4.141934 2.759968 5.949915 6.783697 5.949915 6.021314 0 6.49572-3.687361 6.49572-4.855131 0-2.78456-1.998378-3.831745-4.402937-4.474336l-4.140347-1.023385c-1.381174-.333195-2.571157-.999586-2.571157-2.59337 0-2.523557 2.047564-3.380345 4.260932-3.380345 2.403766 0 4.544149 1.308981 4.640141 3.903144h1.618377c.023799-3.47475-2.925772-5.282731-6.28311-5.282731-4.782939 0-5.853924 3.116962-5.853924 4.782145 0 2.641763 1.832574 3.593749 3.831746 4.093542l3.784146.928187c1.570777.381587 3.497756 1.142383 3.497756 3.070156 0 2.475164-2.713161 3.45095-4.498135 3.45095-3.09237 0-5.615927-1.071778-5.544528-4.569534h-1.618377zm-13.399208-10.018864h6.04432c2.428359 0 3.665941 1.308982 3.665941 3.378759 0 2.07057-1.689776 3.308153-3.665941 3.308153h-6.04432zm-1.618377 15.611784h1.618377v-7.544492h6.140312c3.070156-.118205 3.25976 2.522764 3.403351 4.90273.0476.71399.0476 1.975372.451401 2.641762h1.784974c-.713196-.856788-.713196-3.189154-.784595-4.354544-.119792-2.022971-.762383-3.54615-2.974958-3.832539v-.046806c2.188775-.429187 3.308153-2.190362 3.308153-4.332331 0-3.069363-2.357753-4.425944-5.164526-4.425944h-7.783283zm-16.921559-8.495685c0-3.712747 1.903973-7.473094 6.402109-7.473094 4.474336 0 6.378309 3.76114 6.378309 7.473094 0 3.712747-1.903973 7.4723-6.378309 7.4723-4.497343 0-6.402109-3.759553-6.402109-7.4723zm-1.618377 0c0 4.640933 2.665562 8.85268 8.020486 8.85268 5.33033 0 7.996686-4.211747 7.996686-8.85268 0-4.640934-2.666356-8.85268-7.996686-8.85268-5.35413 0-8.020486 4.211746-8.020486 8.85268zm-16.015584 0c0-3.712747 1.903179-7.473094 6.399728-7.473094 4.475923 0 6.379103 3.76114 6.379103 7.473094 0 3.712747-1.90318 7.4723-6.379103 7.4723-4.497342 0-6.399728-3.759553-6.399728-7.4723zm-1.61917 0c0 4.640933 2.664768 8.85268 8.018898 8.85268 5.332711 0 7.996686-4.211747 7.996686-8.85268 0-4.640934-2.663975-8.85268-7.996686-8.85268-5.35413 0-8.018898 4.211746-8.018898 8.85268zm-11.876031 8.495685h11.137448v-1.379587h-9.519864v-15.612577h-1.617584zm-12.778831 0h1.617584v-8.090298h8.137897v-1.381173h-8.137897v-6.140313h9.162076v-1.38038h-10.780453v16.992164zm93.009072-66.5628894v-.8329881h.671151c.288769 0 .588645.0444261.588645.4109408 0 .4775799-.488687.4220473-.821882.4220473zm.832988.2268901c.415701-.0111065.73779-.1832573.73779-.6441774 0-.3887278-.211024-.6219645-.832988-.6219645h-1.027352v2.3490265h.289562v-1.0828846h.527559l.671151 1.0828846h.343508zm-.339542 1.7389619c-1.028145 0-1.777041-.7996686-1.777041-1.8325739 0-1.0217987.748896-1.8214673 1.777041-1.8214673 1.021006 0 1.765935.7996686 1.765935 1.8214673 0 1.0329053-.744929 1.8325739-1.765935 1.8325739zm0 .2768694c1.160631 0 2.098337-.9440532 2.098337-2.1102366 0-1.1550768-.9385-2.09913-2.098337-2.09913-1.166976 0-2.109443.9440532-2.109443 2.09913 0 1.1661834.942467 2.1102366 2.109443 2.1102366zm-197.6863232-4.414837v43.244776h54.9431022s-.149145-.126138-.21499-.179291c-1.949986-1.604097-17.5197235-13.593573-52.8288993-19.6672458 0-2.1959153.0118999-21.5021996.0118999-21.5021996h74.0772354c-5.632586 18.815218-15.64193 18.8302911-21.046039 41.3487364h21.065079l-.012693-7.437394 1.005139 1.261382c1.681049 2.117376 3.970576 5.269245 9.790386 5.269245 4.306946 0 7.108166-2.57195 7.108166-6.164112 0-3.896798-3.689741-6.167286-7.610338-8.081572-4.347405-2.124516-8.850301-4.6702861-8.850301-9.9292177 0-3.1122022 1.359754-5.4056961 3.433498-6.9693338 1.13207-.8766208 2.510071-1.5699843 4.107028-2.079297 1.988858-.608478 4.320432-.8956605 6.947121-.8583744.808395.0428394 1.760381.1531111 2.762347.3205021 1.558084.3117755 3.010657.8274348 4.307738 1.4993786v4.7416856c-3.076502-4.4061104-8.509171-4.2038133-8.509171-4.2038133-1.945226 0-6.514761.9123203-6.514761 5.5516674 0 3.4208045 3.504897 5.5897468 7.22637 7.3810679 4.324399 2.0745366 9.235062 4.7432726 9.235062 10.3163596 0 4.615547-2.607649 7.772175-7.079606 9.381826h10.440911l.433947-.602925c.932947-1.299461.932947-3.411285.932947-5.266071v-24.6596216s.119792-4.3299515-2.431532-5.5350076l7.810255-1.1217573v15.075498c1.181257-1.2939082 3.363686-2.6568354 7.211297-2.6568354 4.959849 0 7.584952 2.522764 7.584952 7.2938029v11.603921c0 1.861926 0 3.982476.836161 5.296217l.360962.572779h6.74403c-.117411-.042046-.246723-.088852-.357788-.142798-2.056291-.968646-3.48665-3.072536-3.48665-5.498515 0-.667184.108685-1.318501.307809-1.928566.154698-.454573.359375-.894074.608478-1.312948 1.719129-3.139968 7.47944-4.986029 10.853438-6.407662.763176-.299875 1.577918-.643384 2.151489-.889314v-.001586c.963887-.413321 1.635037-1.235996 1.68819-2.3387134v-1.591404c-.100752-3.1137888-3.240721-2.8646857-4.389451-2.8853121-1.985685.049186-3.02097.6790837-3.682601 1.4890654-1.032905 1.4311529-1.093991 3.2891131-3.241514 3.4588841-.027766.00714-.052359.00952-.078538.00952-1.292322 0-2.345854-1.046392-2.345854-2.3434735 0-.4125274.101546-.7988752.290356-1.1312772 1.447813-2.404559 6.147452-3.2653133 10.04901-3.2653133 4.319638 0 8.536145.8552011 8.536145 4.3378847v11.7943183c0 3.043976-.176911 6.264864 1.443053 8.646416h9.468298l-5.714299-19.247578c-.951986-3.2462737-2.617169-4.9955487-2.617169-4.9955487s5.445362-.0142798 5.642899-.0047599c2.230822.1935706 2.513245 1.7730747 2.513245 1.7730747l4.40135 18.2154669 3.822225-13.321463c1.438293-4.8281582-.698123-6.6734252-.698123-6.6734252h4.502102c2.372033.1316915 2.666356 1.796081 2.666356 1.796081l4.625067 18.1996002 3.821432-13.321463c1.433533-4.8281579-.700503-6.6734249-.700503-6.6734249h6.533006c-2.419632 1.7484817-3.374791 5.5722938-3.374791 5.5722938l-5.495342 18.6843201h12.790731v-43.2408094zm115.3942392 21.1793175c-2.763141.211817-4.865444 1.2304425-4.865444 5.7642775l.0119 10.432185c0 1.854786 0 3.96661.932946 5.266071l.430774.602925h8.053805v-15.681596c0-3.8357122-.783802-6.3362631-4.563981-6.3838625zm50.709935 22.0654585 9.937945.00238-5.045528-16.570117zm-24.404964 0h4.096714c-.395867-1.41846-.660043-2.629863-.738582-3.020177-.663218 1.558878-2.007898 2.471198-3.358132 3.020177zm3.347819-8.387794c-.065053 5.599267-4.996342 6.148246-4.996342 6.148246-.806016.096785-1.512072.005553-2.11579-.176911-1.357374-.456954-2.138003-1.322468-2.138003-1.322468-1.144764-1.252655-1.246309-2.655249-.610065-4.112581.032527-.053153.084092-.164218.084092-.164218.654491-1.220922 1.937293-2.183222 3.429531-2.972577.954367-.544219 2.078504-1.141591 3.393039-1.789735 0 0 1.232029-.556912 2.222095-1.098751.291149-.160251.542632-.360168.725096-.662424z" fill="#dadada" fill-rule="evenodd" transform="translate(-60 -75)"/></svg>