<svg height="72" viewBox="0 0 170 72" width="170" xmlns="http://www.w3.org/2000/svg"><path d="m237.562 119.989c-1.755-.748-3.85-1.127-6.227-1.127-4.17 0-9.041 2.036-9.041 7.776 0 3.783 2.514 5.267 4.732 6.576 1.791 1.058 3.339 1.971 3.339 3.879 0 2.541-2.155 3.679-4.288 3.679-2.053 0-4.019-.876-5.699-1.696l-.241-.118-1.35 4.718.19.074c2.423.935 4.72 1.41 6.827 1.41 6.329 0 9.959-3.122 9.959-8.566 0-4.07-2.751-5.785-4.962-7.162-1.668-1.039-3.108-1.937-3.108-3.545 0-2.082 2.353-2.637 3.742-2.637 1.573 0 3.328.46 4.814 1.262l.249.136 1.244-4.581zm-24.992-.699-9.094 17.559-1.533-17.354-.02-.205h-8.225l-5.113 25.441h4.971l4.117-19.626 1.802 19.626h4.889l10.118-19.534-4.167 19.262-.061.272h5.485l5.145-25.441zm-32.73 15.324h-6.696l5.308-10.138zm-3.226-15.324-14.611 25.441h5.783l3.018-5.729h9.744l.817 5.729h5.208l-4.384-25.441zm-16.846 0-5.073 25.441h5.409l5.073-25.441zm-11.513 0h-5.208l-5.11 25.441h14.466l.907-4.386h-9.293zm-16.959 0h-5.207l-5.111 25.441h14.467l.906-4.386h-9.292zm-14.564 0-5.074 25.441h5.411l5.076-25.441zm-5.626-6.132c-.103.236-10.651 24.355-10.651 24.355l-.47-.079s-.127-23.885-.128-24.276h-7.814c-.102.244-10.005 24.352-10.005 24.352l-.473-.069s-.889-23.905-.902-24.284h-5.663c.025.416 1.861 31.164 1.883 31.533h7.177c.102-.243 10.609-25.404 10.609-25.404l.473.075s.295 24.94.299 25.33h7.259c.104-.231 14.001-30.981 14.25-31.533zm129.608 30.897c-1.416 0-2.51-1.115-2.511-2.746 0-1.623 1.095-2.745 2.511-2.745 1.398 0 2.512 1.122 2.512 2.745 0 1.632-1.115 2.746-2.512 2.746zm0-6.273c-1.945 0-3.525 1.582-3.525 3.526 0 1.946 1.58 3.528 3.525 3.528s3.529-1.582 3.529-3.528c0-1.944-1.584-3.526-3.529-3.526zm.107 3.166h-.682v-.967h.597c.332 0 .762.049.762.448 0 .451-.274.519-.677.519zm1.518-.441c0-.879-.566-1.172-1.565-1.172h-1.476v3.92h.841v-1.662h.402l.935 1.662h.863l-1.038-1.702c.605-.048 1.038-.332 1.038-1.046zm-26.354-34.578 3.922-18.584 5.157 18.584h6.907l5.542-25.167.062-.273h-5.272l-4.033 18.425-5.27-18.425h-6.797l-5.563 25.44zm-15.254 0h5.777l5.451-25.44h-5.78l-5.39 25.168zm-24.819 0 8.672-19.338.247 19.338h6.738l12.35-25.44h-5.786l-8.706 18.537-.104-18.537h-7.216l-8.188 18.55-.742-18.55h-5.555l1.63 25.44zm-16.528-18.662c0 3.511-4.071 3.89-5.822 3.89h-1.58l1.324-6.28h1.928c2.136 0 4.15 0 4.15 2.39zm-3.673 12.61 1.275 6.052h5.823l-2.505-10.339c-.253-1.046-.804-1.787-1.593-2.169 3.955-.493 6.443-3.066 6.443-6.799 0-6.133-5.561-6.133-10.029-6.133h-6.516l-5.415 25.44h5.559l2.223-10.383h1.75c2.163 0 2.374 1.13 2.757 3.181.068.364.14.749.228 1.15zm-16.291 6.054.973-4.39h-10.056l1.397-6.566h8.928l.893-4.388h-8.887l1.214-5.71h9.949l.853-4.388h-15.427l-5.45 25.442zm-34.835-.002 2.331-10.955h9.813l-2.331 10.955h5.56l5.414-25.44h-5.56l-2.149 10.098h-9.811l2.148-10.098h-5.561l-5.414 25.44zm-6.21-9.809c0-4.899-3.475-6.913-6.541-8.69-2.333-1.353-4.537-2.63-4.537-4.987 0-2.701 2.862-3.91 5.697-3.91 2.151 0 4.524.588 6.583 1.572.128-.439 1.268-4.345 1.39-4.764-2.301-.879-5.017-1.341-8.113-1.341-5.467 0-11.852 2.462-11.852 9.402 0 4.52 3.159 6.256 6.212 7.935 2.502 1.375 4.865 2.673 4.865 5.423 0 3.617-3.234 5.236-6.439 5.236-2.842 0-5.502-1.066-7.803-2.104-.142.46-1.387 4.509-1.518 4.933 3.187 1.118 6.201 1.705 8.949 1.705 3.94 0 13.107-1.014 13.107-10.41z" fill="#dadada" fill-rule="evenodd" transform="translate(-75 -74)"/></svg>