<?xml version="1.0" encoding="UTF-8"?>
<svg width="450px" height="450px" viewBox="0 0 450 450" version="1.1" xmlns="http://www.w3.org/2000/svg" xmlns:xlink="http://www.w3.org/1999/xlink">
    <!-- Generator: Sketch 50.2 (55047) - http://www.bohemiancoding.com/sketch -->
    <title>smg-logo</title>
    <desc>Created with Sketch.</desc>
    <defs></defs>
    <g id="smg-logo" stroke="none" stroke-width="1" fill="none" fill-rule="evenodd">
        <path d="M206.310048,223.049348 L201.880632,225.076304 C199.618028,223.647727 196.714896,222.814338 194.003348,222.814338 C187.817108,222.814338 182.692243,226.805666 181.854383,231.62783 C180.890079,237.105847 185.35398,239.49745 189.367659,241.090151 C192.65396,242.393559 195.613928,243.68611 195.053865,246.766776 C194.636213,249.076638 192.090702,250.867308 189.040051,250.867308 C184.136784,250.867308 180.945,247.499265 180.519045,240.132231 L180.123105,240.132231 L175.371828,253.485619 L175.749248,253.485619 L180.658262,251.226208 C182.669892,252.542388 185.981097,253.476678 189.003011,253.476678 C195.18478,253.476678 200.602129,249.807849 201.454677,244.750039 C202.481567,238.676834 197.116583,236.460209 192.901741,234.718076 C189.879188,233.460009 187.315798,232.19364 187.76091,229.320523 C188.127474,227.00172 190.793042,225.420517 193.84114,225.420517 C198.587946,225.420517 201.812939,228.987166 202.348096,233.798473 L202.846853,233.798473 L206.684275,223.048709 L206.309409,223.048709 L206.310048,223.049348 Z M65.696522,213.092102 C72.2493247,213.092102 76.7093942,218.223353 77.4450757,225.149745 L77.8435699,225.149745 L83.4307904,209.397729 L83.0514547,209.397729 L76.4852412,212.44455 C73.6574652,210.494865 69.8864585,209.344724 65.9264225,209.344724 C57.3798718,209.344724 50.2676447,215.216766 49.0945136,222.174449 C47.7630066,230.054927 53.9243397,233.251821 59.4745208,235.552103 C64.0048376,237.420683 68.1034525,239.133441 67.3224294,243.566689 C66.7387376,246.905995 63.2097651,249.724192 58.9904524,249.724192 C52.2122197,249.724192 47.3683442,244.750677 46.8025335,234.144602 L46.4104254,234.144602 L39.4999998,253.497113 L39.8838059,253.497113 L47.0720279,250.010289 C49.8244477,252.02639 54.5904125,253.477317 58.9323387,253.477317 C67.4884687,253.477317 74.5911166,247.688934 75.7821288,240.403642 C77.2062347,231.671894 70.1814974,229.127662 64.3688467,226.614083 L64.3675696,226.614083 C60.1916825,224.812557 56.6448289,222.985487 57.2789711,218.847916 C57.7879452,215.507334 61.477848,213.092102 65.696522,213.092102 Z M108.555721,222.985487 L103.429579,225.354101 C101.630607,223.834203 99.6847552,222.945893 96.9272264,222.945893 C89.2664313,222.945893 81.0359937,229.421423 78.3985242,238.263652 C75.8849454,246.693337 80.8009843,253.408346 88.6271801,253.408346 C94.418118,253.408346 101.018178,249.321226 103.075787,244.709806 L102.790966,244.448614 C99.5104139,247.126954 95.0599235,249.519836 91.8285445,249.519836 C86.4028928,249.519836 84.634575,244.621038 86.4903828,238.169776 L86.4897442,238.170415 C88.3455521,231.721067 93.2635067,226.65687 97.359567,226.65687 C101.435831,226.65687 103.932805,230.875544 103.601365,236.646685 L104.038815,236.646685 L108.940166,222.985487 L108.555721,222.985487 Z M125.106002,226.65687 C120.336205,226.657509 116.651411,231.841765 114.450114,238.2413 C112.253287,244.645945 112.372708,249.832117 117.134202,249.832117 C121.891227,249.832117 125.58113,244.645306 127.786897,238.2413 C129.980531,231.841765 129.85664,226.657509 125.106002,226.65687 Z M136.009033,238.2413 L136.004562,238.2413 C133.603379,246.657573 124.978279,253.477317 116.752951,253.477317 C108.521874,253.477317 103.806999,246.657573 106.22287,238.2413 C108.6298,229.834605 117.253623,223.009754 125.480867,223.009754 C133.711944,223.009754 138.421072,229.834605 136.009033,238.2413 Z M175.166195,247.512676 C172.929136,248.64749 170.444932,249.166043 169.352267,249.166043 C166.147072,249.166043 164.892198,247.149944 165.995081,244.014996 L171.94248,227.32869 L171.953336,227.328051 L180.918177,227.328051 L182.28864,223.463808 L173.319327,223.463808 L175.488694,217.368891 L175.016121,217.368891 L160.160718,226.820355 L159.992762,227.32869 L164.18206,227.32869 L158.094168,244.412212 C156.331597,249.341024 159.413541,253.390464 164.701891,253.390464 C168.958243,253.390464 173.832134,250.935638 175.422278,247.836453 L175.166195,247.512676 Z M149.296004,249.166043 C145.896031,249.166043 144.079817,247.149944 145.191641,244.014996 L151.126906,227.32869 L151.126906,227.328051 L158.64529,227.328051 L160.019585,223.463808 L152.498646,223.463808 L154.669927,217.368891 L154.189691,217.368891 L137.728177,226.820355 L137.575549,227.32869 L143.353077,227.32869 L137.274763,244.412212 C135.517301,249.341662 138.712279,253.390464 144.364638,253.390464 C148.90134,253.390464 154.049196,250.935638 155.74152,247.836453 L155.503955,247.512676 C153.115545,248.64749 150.478075,249.166043 149.296004,249.166043 Z M249.48536,214.884687 C250.868595,215.562894 253.947984,215.41729 256.980755,213.975941 C260.010332,212.536509 261.733309,210.374168 261.842512,209.013923 C260.41138,208.359984 257.384357,208.482597 254.35031,209.925862 C251.317539,211.364655 249.524316,213.491235 249.48536,214.88341 L249.48536,214.884687 Z M248.428457,214.228194 C249.984117,212.804727 251.256233,208.980715 250.950337,204.657309 C250.64508,200.332625 248.844194,197.326038 247.188909,196.612707 C245.71563,198.073214 244.361133,201.864018 244.662559,206.18487 C244.969732,210.509553 246.771895,213.584473 248.428457,214.228194 Z M256.258484,205.74295 C257.269407,203.807954 257.233006,201.926602 256.656978,201.066391 C255.58411,201.187727 253.944152,202.336591 252.93259,204.269671 C251.925499,206.205305 251.939547,208.115395 252.54176,208.948146 C253.638896,208.868319 255.248838,207.677307 256.258484,205.74295 Z M402.834096,235.306875 C402.834096,230.16413 402.069678,223.857192 399.609104,223.857192 C397.140228,223.857192 396.424982,230.16413 396.424982,235.306875 C396.424982,240.725503 397.073173,247.581008 399.609104,247.581008 C402.148865,247.581008 402.834096,240.724864 402.834096,235.306875 Z M410.5,235.306875 C410.5,245.932749 406.117203,253.699554 399.609104,253.699554 C393.138042,253.699554 388.753968,245.932749 388.753968,235.306875 C388.753968,224.199489 394.045511,217.733538 399.609104,217.733538 C405.171417,217.733538 410.5,224.199489 410.5,235.306875 Z M386.031563,217.729068 C383.272119,217.729068 382.439368,223.150249 382.101543,224.658651 L381.535731,227.399577 L381.464207,227.399577 L381.464207,227.398938 L381.464207,218.567566 L373.887709,218.567566 L373.887709,252.868079 L381.464207,252.868079 L381.464207,238.189572 C381.464207,231.170583 383.539697,229.664734 385.278001,229.664734 C386.483701,229.664734 386.939032,230.076639 387.429487,230.351243 L389.773194,220.334607 C388.716929,218.825566 387.658109,217.729068 386.031563,217.729068 Z M362.865257,233.222444 L362.865257,244.352182 C362.37608,244.59741 361.959705,244.658718 361.694681,244.658718 C358.982494,244.658718 354.802775,240.598418 354.802775,231.440715 C354.802775,222.096538 358.681069,218.097547 362.450797,218.097547 C363.207554,218.097547 365.546152,218.28466 366.83168,218.898366 L368.794135,211.290577 C366.904481,209.944381 363.770809,209.144839 362.035061,209.144839 C353.098318,209.144839 346.485486,217.915542 346.485486,230.948346 C346.485486,245.025918 353.743955,253.610786 362.527431,253.610786 C364.945857,253.610786 367.62739,252.940882 370.838334,251.405018 L370.838334,233.223722 L370.830032,233.222444 L362.865257,233.222444 Z M341.121141,237.313396 L345.054994,237.313396 L345.054994,231.514156 L341.121141,231.514156 L341.121141,237.313396 Z M330.453759,223.434432 C328.867445,223.434432 327.808625,226.036139 328.032779,231.514156 L333.065045,231.514156 C333.255351,225.901391 332.232293,223.434432 330.453759,223.434432 Z M339.435843,237.313396 L327.96317,237.314035 C327.96317,242.991299 330.238547,245.55469 332.393863,245.55469 C334.401022,245.55469 336.148266,244.37645 337.36099,243.062824 L339.444145,250.080537 C335.880688,253.159288 332.696566,253.707855 330.274308,253.707855 C324.825028,253.707855 320.01436,245.138953 320.01436,234.994594 C320.01436,226.515737 323.462229,217.733538 330.649174,217.733538 C336.745368,217.733538 340.083395,225.353462 339.435843,237.313396 Z M310.546291,252.858501 L318.12279,252.858501 L318.12279,207.71754 L310.545014,207.71754 L310.546291,252.858501 Z M303.898974,226.47231 C304.882438,226.47231 306.015975,226.882301 307.075433,227.711219 L309.037889,220.732462 C307.226146,218.818541 304.882438,217.727152 303.069416,217.727152 C296.650723,217.727152 291.405159,224.831716 291.405159,236.270542 C291.405159,246.809563 296.127061,253.707855 302.619195,253.707855 C304.577182,253.707855 306.697374,253.026455 308.740935,251.11445 L308.739657,251.113812 L306.847448,243.859174 C306.090055,244.414128 304.961625,244.963335 303.829366,244.963335 C302.163226,244.963335 299.368019,242.89423 299.368019,235.856083 C299.368019,229.230479 301.409663,226.47231 303.898974,226.47231 Z M282.587199,233.260123 L282.587199,233.259485 L280.447847,234.77108 C278.832796,235.804355 277.67116,238.416919 277.67116,241.648936 C277.67116,243.918565 278.646322,245.637071 279.621483,245.637071 C280.93447,245.637071 282.850946,242.475939 282.587199,233.260123 Z M289.900589,244.539935 C289.900589,247.411775 290.053856,250.482862 290.543033,252.868718 L282.696402,252.868718 C282.513121,252.119627 282.362407,250.41006 282.362407,249.184564 L281.315721,250.220393 C279.851383,251.588301 278.049858,253.707855 276.316024,253.707855 C273.711124,253.707855 270.841839,249.604132 270.832898,243.506661 C270.832898,236.146012 273.136373,232.572338 278.308496,230.231822 L282.622322,228.305128 C282.139532,226.44996 280.78759,224.868116 279.548681,224.868116 C277.484686,224.868116 275.858778,226.518292 274.575805,228.582925 L272.497122,222.39924 C275.556076,218.624403 278.347451,217.731622 280.899984,217.731622 C285.414336,217.731622 289.900589,220.409323 289.900589,232.088908 L289.900589,244.539935 Z M268.77912,217.729068 C266.02223,217.729068 265.192034,223.150249 264.845907,224.658651 L264.281372,227.399577 L264.20921,227.399577 L264.20921,227.398938 L264.20921,218.567566 L256.633989,218.567566 L256.633989,252.868079 L264.20921,252.868079 L264.20921,238.189572 C264.20921,231.170583 266.285977,229.664734 268.024281,229.664734 C269.231897,229.664734 269.689143,230.076639 270.175766,230.351243 L272.518835,220.334607 C271.46257,218.825566 270.405027,217.729068 268.77912,217.729068 Z M246.047709,252.868718 L253.628039,252.868718 L253.628039,218.568205 L246.049625,218.568205 L246.047709,252.868718 Z M231.935012,209.899678 L242.518099,209.899678 L242.518099,252.858501 L242.513628,252.858501 L234.546298,252.858501 L234.546298,222.78624 L234.469666,222.78624 C232.426106,234.020072 230.305911,243.470897 228.185719,252.858501 L223.148343,252.858501 C220.994303,243.470897 218.831323,234.020072 216.745615,222.78624 L216.672174,222.78624 L216.672174,252.858501 L210.387588,252.858501 L210.387588,209.899678 L221.214624,209.899678 C223.032754,218.124368 224.854078,226.285197 226.631336,236.349729 L226.706692,236.349729 C228.411788,226.285197 230.193515,218.124368 231.935012,209.899678 Z" fill="#DADADA" fill-rule="nonzero"></path>
        <rect id="Rectangle" fill-opacity="0" fill="#FFFFFF" x="0" y="0" width="450" height="450"></rect>
    </g>
</svg>