<svg height="42" viewBox="0 0 263 42" width="263" xmlns="http://www.w3.org/2000/svg"><path d="m147.261744 108.50926-3.128051 1.431435c-1.59785-1.00886-3.64804-1.597399-5.562934-1.597399-4.368719 0-7.987896 2.818674-8.579592 6.224083-.680991 3.868573 2.471413 5.557522 5.305871 6.682286 2.320784.920466 4.411112 1.833265 4.015596 4.00883-.294946 1.631223-2.092584 2.895793-4.246952 2.895793-3.462685 0-5.716721-2.37851-6.01753-7.581105h-.279613l-3.355349 9.430155h.266534l3.466743-1.595595c1.420612.929486 3.758983 1.589281 5.893057 1.589281 4.365562 0 8.191291-2.590925 8.79336-6.162748.725189-4.288894-3.06356-5.854273-6.040079-7.084567-2.134525-.888446-3.94479-1.782755-3.630452-3.811749.258867-1.637537 2.14129-2.754182 4.293855-2.754182 3.352192 0 5.62968 2.518766 6.007608 5.916508h.352222l2.709985-7.591477h-.26473zm-99.3011959-7.031802c4.6275857 0 7.7772844 3.623687 8.2968223 8.515101h.2814164l3.9456921-11.124065h-.2678867l-4.6370564 2.151663c-1.9969739-1.376866-4.6600568-2.189095-7.4566321-2.189095-6.0355695 0-11.0582204 4.146833-11.886685 9.060345-.9403095 5.565189 3.4108206 7.822834 7.3303555 9.447292 3.1993073 1.31959 6.0937469 2.529139 5.5421888 5.659896-.4122028 2.358216-2.9043613 4.348425-5.8840376 4.348425-4.7867843 0-8.2075266-3.512293-8.6071018-11.002298h-.2769065l-4.8801388 13.666733h.2710436l5.0763185-2.462393c1.9437574 1.423769 5.3094792 2.448413 8.3757451 2.448413 6.0423344 0 11.0582205-4.087753 11.8993127-9.232622 1.0057028-6.166356-3.9551629-7.963091-8.0600537-9.738179h-.0009019c-2.9490092-1.272237-5.4537953-2.562513-5.0059644-5.484463.3594372-2.359117 2.9652446-4.064753 5.9444699-4.064753zm30.2671432 6.986703-3.620079 1.672714c-1.2704326-1.073351-2.6445923-1.700675-4.5919576-1.700675-5.4100494 0-11.22238 4.573016-13.0849595 10.817393-1.775088 5.953039 1.696616 10.695175 7.2234713 10.695175 4.0895572 0 8.750516-2.886322 10.2035986-6.142904l-.2011405-.184454c-2.3167243 1.891442-5.4596582 3.581294-7.7416563 3.581294-3.8315923 0-5.0803774-3.459528-3.7698069-8.015406l-.000451.000451c1.3105705-4.554526 4.7836274-8.130859 7.676263-8.130859 2.8786551 0 4.6420173 2.979225 4.4079546 7.054802h.3089267l3.4613312-9.647531zm11.6877994 2.592729c-3.3684278.000451-5.9706273 3.66157-7.5251822 8.180918-1.551398 4.522957-1.4670632 8.185429 1.8955017 8.185429 3.359408 0 5.9652154-3.662923 7.5229272-8.185429 1.549143-4.519348 1.4616514-8.180467-1.8932467-8.180918zm7.6997144 8.180918h-.0031569c-1.6957141 5.943568-7.7867551 10.759667-13.5954777 10.759667-5.8127816 0-9.1424244-4.816099-7.4363376-10.759667 1.699773-5.936803 7.789912-10.756509 13.5999876-10.756509 5.8127816 0 9.1383655 4.819706 7.4349846 10.756509zm27.6527669 6.547441c-1.57981.801405-3.334153 1.167607-4.105793 1.167607-2.263507 0-3.149698-1.423768-2.370843-3.637667l4.20005-11.78386.007667-.000451h6.330966l.96782-2.728927h-6.334124l1.532006-4.304227h-.333731l-10.490878 6.674619-.11861.358986h2.95848l-4.299266 12.064374c-1.244727 3.480724.93174 6.340437 4.66637 6.340437 3.005834 0 6.447773-1.733597 7.570732-3.92224zm-18.269515 1.167607c-2.401059 0-3.683668-1.423768-2.898499-3.637667l4.191481-11.78386v-.000451h5.309479l.970526-2.728927h-5.311283l1.533358-4.304227h-.339143l-11.6251118 6.674619-.1077861.358986h4.0800869l-4.2925021 12.064374c-1.2411184 3.481175 1.0151735 6.340437 5.0068661 6.340437 3.203817 0 6.83923-1.733597 8.034348-3.92224l-.167768-.228651c-1.686694.801405-3.549274 1.167607-4.384052 1.167607zm70.753669-24.209475c.97684.478949 3.151503.376124 5.293244-.641756 2.139486-1.016526 3.356251-2.5435707 3.43337-3.5041746-1.010664-.4618115-3.148346-.3752219-5.290989.6440105-2.141741 1.0160751-3.408114 2.5178651-3.435625 3.5010181zm-.746384-.463615c1.098606-1.005252 1.996974-3.705767 1.78095-6.7589543-.215572-3.0540893-1.487357-5.1773397-2.656318-5.6810931-1.040429 1.0314091-1.996974 3.7084725-1.784107 6.7598559.216925 3.0540893 1.489612 5.2255955 2.659475 5.6801915zm5.529561-5.9922751c.713913-1.3664929.688207-2.695103.281416-3.3025835-.757659.0856877-1.915796.8970147-2.630161 2.2621547-.711207 1.366944-.701286 2.7158485-.276004 3.3039365.774797-.0563734 1.911737-.8974657 2.624749-2.2635077zm103.511618 20.8780281c0-3.631804-.539832-8.08576-2.277488-8.08576-1.743519 0-2.248625 4.453956-2.248625 8.08576 0 3.826632.457752 8.667986 2.248625 8.667986 1.793578 0 2.277488-4.841805 2.277488-8.667986zm5.413657 0c0 7.503986-3.095129 12.9889-7.691145 12.9889-4.56986 0-7.665891-5.484914-7.665891-12.9889 0-7.84403 3.736885-12.410281 7.665891-12.410281 3.928103 0 7.691145 4.566251 7.691145 12.410281zm-17.279597-12.413438c-1.948718 0-2.536806 3.828435-2.775378 4.893668l-.399576 1.93564h-.05051v-.000451-6.23671h-5.350519v24.223004h5.350519v-10.365954c0-4.956806 1.46571-6.020236 2.693299-6.020236.851465 0 1.173019.290887 1.519378.484812l1.655125-7.073743c-.745934-1.065684-1.493672-1.84003-2.642338-1.84003zm-16.360033 10.941414v7.859815c-.345456.17318-.6395.216475-.82666.216475-1.915345 0-4.86706-2.867381-4.86706-9.334546 0-6.598853 2.738849-9.422938 5.401029-9.422938.534421 0 2.185938.132139 3.093777.565538l1.385885-5.372617c-1.334473-.9506824-3.54747-1.5153191-4.773255-1.5153191-6.311123 0-10.981101 6.1938661-10.981101 15.3976251 0 9.941574 5.125927 16.004203 11.328813 16.004203 1.707891 0 3.601588-.473086 5.869155-1.557712v-12.839622l-.005863-.000902zm-15.355683 2.889028h2.778085v-4.09542h-2.778085zm-7.533299-9.801317c-1.120254 0-1.867992 1.837324-1.709695 5.705897h3.553784c.134394-3.963732-.588089-5.705897-1.844089-5.705897zm6.343143 9.801317-8.101996.000451c0 4.009281 1.60687 5.819546 3.128953 5.819546 1.417455 0 2.651358-.832072 3.507783-1.759754l1.471123 4.955905c-2.516512 2.174212-4.765137 2.56161-6.475734 2.56161-3.848279 0-7.24557-6.051354-7.24557-13.215295 0-5.987764 2.434883-12.189748 7.5103-12.189748 4.305129 0 6.662442 5.381186 6.205141 13.827285zm-20.401786 10.977945h5.350519v-31.8785228h-5.351421zm-4.694332-18.633914c.694522 0 1.495025.289535 2.243214.874917l1.385885-4.928395c-1.279452-1.35161-2.934577-2.122348-4.214932-2.122348-4.532878 0-8.237292 5.017239-8.237292 13.095332 0 7.442651 3.334604 12.314221 7.919346 12.314221 1.382729 0 2.880008-.481204 4.323169-1.831461l-.000902-.000451-1.336277-5.123221c-.534871.391908-1.331767.779758-2.131368.779758-1.176627 0-3.150601-1.461201-3.150601-6.431537 0-4.678998 1.441808-6.626815 3.199758-6.626815zm-15.050364 4.79355v-.000451l-1.510809 1.067488c-1.140548.729698-1.960895 2.574689-1.960895 4.857138 0 1.602811.688659 2.816419 1.377317 2.816419.927231 0 2.280645-2.23239 2.094387-8.740594zm5.164712 7.965797c0 2.028092.108237 4.196892.453694 5.881782h-5.541287c-.129433-.529008-.235867-1.736303-.235867-2.601748l-.739169.731502c-1.034115.966016-2.306351 2.462844-3.530783 2.462844-1.839579 0-3.865867-2.898047-3.872181-7.204078 0-5.198086 1.626713-7.721813 5.279263-9.374684l3.046422-1.36063c-.340946-1.310119-1.295687-2.427216-2.170604-2.427216-1.457592 0-2.605807 1.165353-3.511842 2.623396l-1.467965-4.366915c2.160232-2.665788 4.131499-3.296269 5.934097-3.296269 3.188033 0 6.356222 1.890991 6.356222 10.139107zm-14.91597-18.93382c-1.946914 0-2.533198 3.828435-2.777633 4.893668l-.398674 1.93564h-.050961v-.000451-6.23671h-5.349617v24.223004h5.349617v-10.365954c0-4.956806 1.466612-6.020236 2.694201-6.020236.852818 0 1.175725.290887 1.519378.484812l1.654674-7.073743c-.745934-1.065684-1.49277-1.84003-2.640985-1.84003zm-16.05291 24.815602h5.353225v-24.223004h-5.351872zm-9.966379-30.3447126h7.47377v30.3374976h-.003157-5.626524v-21.237015h-.054118c-1.443161 7.933326-2.940441 14.607494-4.43772 21.237015h-3.557392c-1.521182-6.629521-3.048677-13.303689-4.521603-21.237015h-.051864v21.237015h-4.438171v-30.3374976h7.646047c1.283962 5.8082716 2.57018 11.5714446 3.825279 18.6790116h.053216c1.204138-7.107567 2.462393-12.87074 3.692237-18.6790116z" fill="#dadada" fill-rule="evenodd" transform="translate(-29 -89)"/></svg>