<svg height="53" viewBox="0 0 208 53" width="208" xmlns="http://www.w3.org/2000/svg"><path d="m261.145597 97.7597826h.244029c.294101 0 .541583-.1087771.541583-.3671946 0-.1916549-.146187-.3815832-.541583-.3815832-.102447 0-.180144.0069065-.244029.0195684zm0 1.1907927h-.336116v-2.1571247c.176115-.0270504.339569-.0552518.604317-.0552518.330936 0 .544461.0753957.678562.1703599.124892.0880576.199713.2388491.199713.4425904 0 .2854679-.189929.4627343-.428202.5306481v.0138129c.189928.035108.321727.2112233.363166.5243172.052949.3407198.100144.4696408.130072.530648h-.360864c-.047194-.0610072-.097842-.265324-.139856-.5450365-.046043-.271655-.193957-.3798566-.46849-.3798566h-.241151v.9248931zm.36777-2.7562621c-.854677 0-1.55511.728634-1.55511 1.6333832 0 .9185622.700433 1.6402896 1.55511 1.6402896.861008.0132374 1.547052-.7217274 1.547052-1.6339587 0-.9110801-.686044-1.6397141-1.547052-1.6397141zm0-.3061874c1.063598 0 1.905613.857555 1.905613 1.9401461 0 1.0883466-.842015 1.9401461-1.905613 1.9401461-1.061872 0-1.920002-.851224-1.920002-1.9401461 0-1.0831667.85813-1.9401461 1.920002-1.9401461zm-203.0822438-1.2719438c10.9168469-.092662 14.6100885-.3056119 24.4593082-1.9792828 2.2187075-.37813 2.4017293.7602886 2.7608664 1.4912247.3021586.6117992.880001 3.7985654.8420154 4.6192858-.0397123.8143894.3499284 1.9965493-.9766918 2.3810103-4.1490694 1.197699-5.2339627 1.570073-7.9890737 2.420722-1.2696418.392518-1.1902172.939857-1.1551093 1.951081.1951082 5.586193 1.9902181 12.963468 3.262162 17.091242.5352524 1.736405.7758282 2.979572-.3982738 3.432522-1.631081.629641-6.1795754 1.905038-7.397994 2.170362-2.1110815.456979-2.4178445-1.145325-2.6164058-1.968347-1.7928078-7.422742-2.682593-14.991672-2.855255-17.81815-.0886332-1.441728-.5438856-2.787341-1.8538151-2.757989-1.345613.032806-2.8529528.197411-5.7801504.258994-1.5660449.032805-2.3948228-.066188-2.6020173-1.458419-.2112233-1.38993-.1530937-7.6978507.078849-8.6860533.2279139-.9887781 1.3387065-1.1401452 2.2215852-1.1482027zm81.1747678 4.9893581c-3.103888 1.9971249-4.5813 4.5053289-4.653818 7.8895049-.098417 4.569214 6.014395 7.594254 7.547059 8.276269 1.841153.818418 2.103599 1.799714 1.773815 2.545039-.484605 1.094102-1.581585 1.296692-2.870219 1.021008-2.335543-.496116-4.157703-2.612377-5.998856-3.67022-1.040577-.599137-2.571514 1.454966-2.797701 3.300148-.104173.843166.147914 1.307051.818418 1.906189 1.719714 1.542448 5.265618 5.157416 12.30505 5.473387 1.67252.074245 6.017849-.260719 8.720585-3.214967 1.094102-1.195973 2.239427-2.787342 2.50878-4.989934.184173-1.52288-.157698-3.377846-1.312807-5.190222-.970361-1.513671-2.737269-3.025615-5.839431-4.352235-5.028495-2.14734-3.439428-4.304465-2.245182-4.712523 1.018706-.347626 2.810938-.082302 5.787632 1.776117 1.613815 1.007195 3.753098-2.943313 2.41842-3.940148-6.675116-4.9784233-12.76836-4.2992858-16.161745-2.1174129zm-3.453817-2.1910816c-2.843168 9.2080675-14.979585 30.2826245-19.719159 32.3010435-.67108.286044-.804605.36259-1.500433.265324-2.516837-.353957-5.652381-3.621874-6.661878-4.823602-.449497-.535828-1.418131-1.759427-.637699-2.404607 2.958853-2.4495 6.634828-6.182453 6.809792-8.363175.038561-.482879-.104748-.978994-.273957-1.214966-.276259-.385036-7.967779-10.875983-8.740729-11.998862-1.311656-1.9119448-1.303599-2.3620172.146763-3.0964065 1.450936-.7349649 3.758853-1.7341027 5.377847-2.3815855 1.620146-.6428784 1.866477-.1951081 2.324032.3366911l6.893245 8.9790029c.497267.353382.949066.252087 1.311081-.188202.876547-1.069929 4.602019-8.0293612 5.187344-9.1309452.685468-1.2149654 1.817556-.8851809 2.959427-.8909363 1.208059-.0097841 3.081443.006331 5.038855.1070505 1.88547.0966908 2.059858.6457561 1.485469 2.5041755zm104.908896-.365468c-3.73353 1.9959734-5.654108 4.7234585-6.048928 8.5836065-.536979 5.213819 6.553676 8.847205 8.240585 9.765767 2.027628 1.105612 2.102448 2.380434 1.578707 3.134967-.829354 1.191369-3.130939.856404-4.829358.177267-1.862449-.745325-2.805759-1.630506-4.340149-3.415256-.89957-1.042303-3.634537 1.948204-4.061588 4.035688-.196834.955397.177842 1.403743.757411 2.253815 1.490074 2.188204 6.278569 6.065043 13.22131 6.585332 1.914823.143309 6.900727.258993 10.263033-2.867342 1.361153-1.265037 2.845471-3.364032 3.357127-5.855546.353381-1.723743.327482-3.989069-1.019858-6.052381-1.890074-2.895543-5.041732-4.819574-8.541017-6.465619-5.101588-2.399427-4.115688-3.823889-2.975542-4.482307 1.068778-.61813 4.702163-.181871 7.547058 2.522017 1.443455 1.371513 4.433962-2.881729 3.188493-4.329213-4.544465-5.2823082-12.260733-5.7715174-16.337284-3.5907955zm-30.154855 3.7398605c-.475971.729209-4.230796 6.431086-4.699285 15.188506-.206044 3.894105 1.503886 7.33008 4.582451 9.197133 3.416982 2.071945 7.849793 1.89698 11.853251-.471943 8.606052-5.090653 9.570082-17.919445 9.327204-23.704775-.052374-1.3387066-.837411-2.1421608-2.155398-2.2002903-.505324-.0247483-1.597124.0166906-2.830507.1243166-1.246044.1082016-1.9977.9778429-2.061585 2.3879167l-.006906.381007c-.058705 5.38015-.424173 10.143321-2.761442 13.085483-1.530362 1.931513-3.357702 2.704463-4.562883 2.206621-1.075685-.442591-1.761153-1.889499-1.595397-3.361731.413813-3.669068 1.965469-6.565187 2.926622-8.413822l.40518-.795972c.589353-1.240865.292374-2.565183-.691799-3.082018-.569785-.296979-1.814679-.755109-2.913961-1.159138l-1.32662-.494389c-.943886-.3712234-2.33324-.6589935-3.488925 1.113095zm-119.3584076 17.910811c-1.644894-.550216-2.8696436-3.168349-2.2751105-6.01497.5910798-2.843169 2.5916576-4.817272 4.4506525-4.226768 1.6489227.528922 2.8644636 3.305903 2.2889234 6.158281-.6117992 3.028492-2.5818734 4.717703-4.4644654 4.083457zm14.2958436-11.43771c-2.066765-3.432522-5.380726-5.632237-9.3272049-6.190511-5.0440345-.714245-9.9251911 1.345038-12.7344029 5.368639-2.0633117 2.957126-2.7292117 6.516842-1.8641748 10.02476 2.0771247 8.462168 10.3913787 10.828789 15.5936867 9.286917 5.8722369-1.743887 9.1556939-5.174682 10.0472059-10.492099.425324-2.561729-.197986-5.477991-1.71511-7.997706zm85.153477-5.408927s-4.031659 2.764895-4.130076 2.839715c-.344173.263598-.813814.578994-.877124 1.859571-.024748.536403-.180719 4.301012-.191079 4.775257-.01036.516835-.235396 1.937268-1.876261.49554 0 0-2.747054-2.405758-3.153385-2.762593-.092662-.081151-1.034821-1.151081-2.503024-.517411l-4.301012 1.718563s-2.587629 1.054965-1.627053-1.267915c.934678-2.264175 1.564894-4.13871 1.770362-4.742451.214101-.634821.13813-1.524606-.385036-2.145614-.240001-.283166-2.304463-3.0129532-2.775831-3.6874864 0 0-1.697843-2.0155418 1.128635-1.8791388 0 0 4.828206.1105038 4.90648.1168347.08.0086331.984749.0696404 1.629354-.945037.79367-1.2500734 3.126335-4.1738177 2.642305-3.5522343.408058-.5168351 1.353095-1.7945344 1.979283.3246047 0 0 .889785 2.7856147 1.309354 3.9574146.286044.7982742.469065 1.3294979 1.903887 1.7910811l4.43684 1.6046061c.000575-.001151 2.07252.6400003.113381 2.0166933zm8.314254-12.3608776c-11.385336-5.8687836-22.633119-6.4926692-29.628235-4.3954006-12.930662 3.8762633-16.94045 20.3102392-4.958279 28.3643482.72403.488058.268202 1.514247-.64 3.14763-1.122304 2.037988-3.206335 6.041445-6.88749 8.934686-2.213528 1.743887-3.654105 2.464463-1.829643 4.615833 0 0 4.050653 4.536983 7.044037 5.853244 3.606911 1.583311 4.509933 1.317411 7.194828-1.198275 1.689211-1.582736 5.035977-5.898712 9.072816-12.783324 2.096118-3.57468 4.894394-3.642018 4.516265 2.242305 0 0-.551944 5.663891-.705613 6.835115-.44777 3.374393-.097842 4.543315 2.927198 4.573819 0 0 6.497273-.357411 8.748211-.675109 3.175255-.432231 3.000867-.945037 3.832522-3.447486 4.43684-13.355986 4.811517-36.2803287 4.811517-36.2803287.193381-3.0739603-.778131-4.386192-3.498134-5.7870569z" fill="#dadada" fill-rule="evenodd" transform="translate(-56 -84)"/></svg>