<svg height="135" viewBox="0 0 162 135" width="162" xmlns="http://www.w3.org/2000/svg"><path d="m183.142072 88.2408991c-.790967.838504-2.081074 1.6677647-1.04978 2.2157634.823978.4383989 1.036575-.3948232 1.320478-1.0128072.221841-.4846158.471411-1.9833592-.270698-1.2029562zm-.866234 3.0753951c-.483295-.4133099-.974513-.8596317-1.478936-.8464269-.497821.0184867-.694572.0963949-.797569.5083843-.091113.4119894.199392.2918258.668162.3591702.466129.0620625.977154.3948232 1.217481.5849721.260135.2112767.768519.3710546.901887.1439322.132048-.2231609-.05546-.3565292-.511025-.7500319zm-1.762839 4.0895228c-1.427438-.091113-1.3799-.2284428-1.855273-.5440373-.155816-.1016768-.7738.2073152-.330119.6021384.151855.1320478.483295.526871.355208 1.0062048-.170341.6179841-1.07751 1.7958512-.190149 1.679649 1.010167-.1294069 1.246532-1.5568445 1.361414-1.7681211.11092-.2125971.281262-.2984282.503102-.3287992.422554-.0488577.879439-.6021383.155817-.6470346zm6.891579-7.567664c-.493859.5374349-2.59078 2.8139404-3.074075 3.3091199-.114882.1148817-.253532.2324043-.425194.3908617-.401426.3842593-.335402.4634881-.071306.7275838.489898.46877-.348606 1.9146943-.541396 2.1999177-.30239.4555652-.975834 1.1607009-1.456488 1.1620213-.977155.0514987-.183547.3459655-.143932.8120945.077908.2614548-.007923.9428218-.157137 1.8090559-.146574.7183405-.265417 1.2003153-.590254 2.8086582-.389542 1.914694-1.452527 1.637394-1.95695 1.608343-.392182-.025089-2.671329-.55196-3.855798-1.488179-1.588536-1.07619-1.459129-1.6505987-1.305954-2.1523806.122805-.4027461.863593-1.4934615 1.389144-2.0942794 1.485539-1.9595905 3.562652-2.2104815 2.588138-2.7954536-.287864-.2654162-.371054-.6879694-.104317-1.7245453.217879-.6457141.52423-1.2518139.759275-1.4670519.180906-.2271224.652316-.8596317 1.616266-.9507448.241648-.0198071.534794-.0066024.458206-.1492141-.134689-.24825-.22184-.5796902-.22184-.8503883-.006603-.3578498.287864-1.6360732.495179-2.1867129.245609-.6391117 1.103921-3.7607236 2.168226-3.6326371.474052.0343324 1.152778.2522114 1.760199.5083843 1.086754.4106689 3.137457 1.5000639 3.422681 2.1563419.375016.959988-.485937 1.6387141-.752673 1.9992048zm-49.309319 8.1539566c-.044897-.5123458.176944-.402746.324838-.6338298.335401-.5704469-.029051-.7645573-.175624-.6470346-.458206.3710545-.425194.3882207-1.683611.9032074-.735506.3023897-.404066.5546011 0 .592895.190149.0184867.570447-.2258018.640433-.0026409.066024.2284428.561203 1.8196197 1.416873 1.6479575.949425-.1927899-.459526-1.1950333-.522909-1.8605546zm-2.248776-4.2519417c.303711-.0475373.670804-.2033538.781724-.5374349.077908-.2535319-.204674-.1175226-.739468-.060742-.574409.058101-1.26766.1043178-1.568729.4885771-.293146.3816184-.336722.4846158-.130727.8556703.208635.375016.314273.0620625.645714-.2363657.334081-.2997487.736827-.4700905 1.011486-.5097048zm-1.997884-2.64756c.118843.8979256.82794 1.9199762 1.411592 1.3561317.371054-.3618112-.340684-.4582061-.838504-2.5353193-.319556-1.3521702-.664201.4872567-.573088 1.1791876zm9.516691 11.2914141c-.194111.823979-1.76416 1.861875-3.018615 2.235571-.52423.171662-1.135612.326158-1.749634.33144-1.353491.026409-1.955629-2.864119-2.215764-3.5137943-.216558-.5612034-.71702-1.6915333-.731545-2.0573059-.009243-.2759801.052819-.6140226.171662-.874157.060742-.1439322-.212597-.1254455-.434437-.1492141-.88208-.0805492-1.090716-.6985333-1.315197-1.0101662-.228443-.3697341-.464809-.9467833-.701174-1.6017408-.298429-1.0550626-.367093-1.5238325-.110921-1.7998126.860953-.6021383-1.210879-1.028653-2.600022-2.7307502-.488577-.6153431-1.113164-1.7588777-1.245212-2.1682261-.163739-.5136663-.143932-1.2386091 1.159381-2.2302887 1.249173-1.0392168 3.109727-1.5264735 3.471538-1.555524.463488-.030371 1.713982.0343324 2.170867 1.9846796.378978 1.6387142.566486 2.2738645.753994 3.2087635.179585.6311888.215238 1.1673032.217879 1.5343963-.005282.562524-.833222.6364708.117522.7883259.452925.0105638.957348.5479987 1.258417 1.0114867.184867.283903.917732 1.7324682.666842 2.2461344-.200713.2957873-.437079.4251942.018486.8820799.166381.1610984.30239.2746596.414631.3935026.464808.501782 2.106163 2.0982408 2.845631 2.8694005.386901.5466782 1.136933 1.0339349.855671 2.2051995zm8.291286-12.882591c-.636471-.0831902-.755314.2852234-.272019.8939641.454245.466129 1.247853.9124508 1.867157.9005665 1.275583.0066024 2.347812.2693777 3.607548.1822261.200713-.0066024.973193-.0831902 1.171265-.0990359 1.95827-.1822261 3.754121.3235173 5.567139-.1954309-.623266.5783697-1.131651 1.4855387-2.028256 1.9226172-.958667.466129-2.710943.4700904-4.086882.3736955-1.395746-.0950745-2.530037-.8530293-3.500589-1.3785799-.264096.7870054.158458 1.089395.763237 1.6241889.682687.6113817 1.746993 1.4459243 3.352695 1.4868591 2.329325.0607421 4.16215-.1637393 5.329453-2.0876769.356529-.6285479 1.317838-1.9252581 2.324043-2.4045919.561203-.2680572 1.846029-.8701955 1.632111-1.2003152-.378977-.4885772-1.135611-.4014256-1.680969-.2799415-.41463.0831901-.540076.8437859-1.232007.8979255-1.638714.2112766-3.229891-.3604907-5.243621-.2957872-1.449886.0422553-2.596061.3789774-4.150265.5017819-1.497423.1201636-2.019012-.6708032-3.42004-.8424654zm4.13706-2.8575161c.767198.1927899.595536-.4489628 1.1026-.2693777.294467.1122407.35785.623266 1.210879 1.0128072.85435.3882208 1.695495-.0726263 2.464013-.7645572.485936-.46877 1.401028-.4370785 1.165983-.7262633-.203354-.0977155-.353888-.6100612-.654957-.6998538-.893965-.2667367-1.10128.6853285-2.008449.6853285-1.267659-.002641-1.530435-.8160559-2.203879-.7460705-.55328.0620625-.841145.9058484-1.220122.962629-.299749-.0620625-.236366.4476423.143932.5453578zm7.510883-4.8105043c-.262775-.0475372-.382938.0871516-.422553.3287992-.034332.1637394.038294.3618112.273339.4067075.24825.0488577.455565-.0343324.500462-.250891.010564-.2522114-.124125-.4344375-.351248-.4846157zm-8.77062.2059947c.001321-.215238-.153175-.3895412-.418592-.3961436-.264095 0-.409348.1809056-.411989.405387 0 .2073151.13865.402746.400105.402746.269378 0 .427835-.1888285.430476-.4119894zm3.91522 29.8837557c1.077511.274659 2.081074-.318236 2.251416-1.078831.116202-.554601-.05546-1.057704-.239006-1.401028-.182227-.335402-.372375-.526871-.760596-.773801-.392182-.27598-.987718-.22184-1.183149-.158457l-.175624.079228c-1.056383.410669-1.692854 2.870721.106959 3.332889zm31.822218-29.6975682c-.128086-8.46691-3.544165-16.3752575-9.622329-22.2672338-1.065626-1.0352554-2.197276-1.9820387-3.375144-2.8469523.662881 1.6057022 1.368017 3.3302475 2.244814 5.1234577 1.835466 3.4081558 2.434963 7.0592796 2.717546 9.3978476.091113.5031024.182226 1.4789362.172983 2.7492368-1.4314-6.0332676-7.884579-8.2595948-9.602522-14.9900752 0 0-.662881 2.644919 3.39231 7.4791918 1.688892 2.15106 6.741044 6.9800509 5.604112 12.8403358 0 0 .006602-.0105638.017166-.0277301-.319556 1.4591291-.796249 2.9869231-1.494782 4.4777436-.74475 1.3983871-1.558165 2.6343552-2.779608 3.8069404.512346.1426117 1.261057.3710545 2.15106 1.2425705-.175624 1.0154482-.044896 1.8869642-.044896 1.8869642s-1.097318.1795851-2.045422 1.5040254c-1.51723 2.1088046-.80021 3.4081557-.80021 3.4081557s-1.147496.5889336-2.194636 1.8618751c-.798889-.1558165-1.510627-.4766928-2.145778-.9599881-.009243-.0079228-.019807-.0132048-.026409-.0198072-.765878-.5915744-1.419515-1.4155532-1.980719-2.4613724-.095074.1386503-.196751.2891848-.311633.4608471-.709097 1.0048843-.736827 1.0444987-.767198 1.806415-.021127 3.1968791-.732865 7.5848306-1.283505.6523165-3.516435 2.9842821-6.53637 4.8633231-9.400489 4.8976561-2.811299.033012-5.749364-1.8288634-9.628931-5.0283835-.031691 1.5489216-.042255 3.0846384-.075267 5.1855205.170342.27598.38558.602138.685328 1.018089.511026.711738 1.246532-1.6862516 2.133894-1.18579.949424.540076.903207 2.217084 1.919976 3.018614.604779.46745 1.727186-2.219724 2.318761-.748711.641753 1.592497 1.786608 1.955629 3.023896 2.588138.559883-.488577 1.368016-.554601 2.049383-1.354811.63251-.752673 1.016769-1.519871 1.48686-1.663803.724942-.224482 1.154098 1.566088 1.937142 1.279544 1.286146-.46745 1.060344-2.825825 2.244814-3.146701.600818-.16374.699854.871516 1.411592.979795.707776.11092 1.386502-2.3755412 1.750955-3.4094761.184867-.5110253.447642-.6549575.841145-.5070639.561203.2152381.599497.96527.648355 2.2646211.076587 1.8235809.917732 3.5732159 1.935822 4.7920179 1.016768 1.217481-1.568729.541396-2.584177-2.0956-.625907-1.642676-.454245-1.657201-.924336-.810774 0 0-.182226.314274-.433117.668162.110921.378978.277301.767198.484616 1.237289.702495 1.621548 2.148419 2.95127 1.570049 3.80694-.262775.282583-.546678.41463-.963949.381618-.342004-.026409-.641753-.066023-1.033935-.47009-.345966-.368414-1.65324-1.802454-2.243494-4.547729-.134688-.154496-.215238-.279941-.215238-.279941s-.3869 1.336324-1.082792 2.20652c.588933 2.635675 1.727186 3.928424 1.43404 4.752403-.114882.306351-.558563.512346-.558563.512346-.209956.105638-.378977.134688-.612702.128086-.368413-.062063-.682687-.236366-.917733-.513666-.52423-.662881-1.415553-2.355734-1.966193-4.761647-.345965-.306351-.549319-.558562-.71702-.266736-.237686.418591-.540075 1.036575-1.756236 1.480256.650996.500462 1.21352 1.014128 1.459129 1.916015v.00132c.46877 2.144458-1.122407 3.497949-2.996167 3.63792-1.35217.089792-2.989564-.478014-3.42004-1.748314-.472731-1.617587.520269-3.089921 1.494782-3.787134-.896605-.236365-1.614945-.847747-2.136534-1.612304 0 0-.179586.245609-.493859.476693-.002641.018486-.001321.034332-.003962.052819-.224481 1.35085-.932258 3.44777-1.955629 4.698263-.240327.27466-.554601.349927-.862273.351248-.186187-.009244-.38822-.071306-.604779-.204675 0 0-.314274-.25089-.452924-.541396-.398785-.876798.74607-1.789249 1.397066-4.868605-.397464-.530833-.751352-1.221443-.932258-1.856593-.010563-.031692-.285223.342004-.694571.621945-.497821 1.389144-1.43404 3.365901-2.445527 4.278352-.24693.220519-.599498.451603-1.202956.306351-1.848671-.545358-.02641-1.991282.592895-3.365901.44368-.986398.60874-1.51723.736827-1.982039-.114882-.229763-.224482-.478013-.371055-.730224-.097715-.16506-.169021-.261455-.269377-.398785-.180906-.235045-.443681-.489898-.508385-.080549-.072626.44236-.223161 1.053742-.557242 1.729827-.624586 1.247853-2.424399 2.634355-3.212725 2.108805.702495-.281262 1.883003-1.679649 2.242173-2.924861.401426-1.390464.503103-2.7003789.35653-4.0617925-.120164-1.0867541.954706-.4859362 1.665123.2601343l.031692-.7328657c.044896-.7790825.048857-1.651919.05678-2.4838206.005282-.3657727-.1677-1.059024-.595536-1.5502421-.017166-.0211277-.038293-.0488578-.05678-.0713059-1.362734 1.6677647-3.232532 2.4177967-5.380951 2.7505573-.901887-.871516-1.840748-1.7509549-1.840748-1.7509549s.695893-.9679109-.485936-2.6634057c-1.110523-1.5924974-1.54364-1.5872155-1.54364-1.5872155s.336723-1.0827926-.015845-2.741314c.480654-.5057433 1.062985-.896605 1.761518-1.0444987-.950744-1.3878232-2.022973-2.769044-2.481179-3.4490906-2.988244-4.4249244-2.95127-8.9436028-2.268583-12.1933011.005282.0264095.007923.0448962.007923.0448962 1.294069-5.5578952 6.064959-7.9334365 8.407488-9.3014526-1.682289.5981769-4.935949 1.2452115-7.018344 3.9495521.298428-1.834145.68929-3.6273552 1.088074-4.9689617.462168-1.5502421.973193-3.0120121 1.546281-4.3839896-1.070908.8530293-2.09692 1.7800054-3.067472 2.7809284-8.654418 8.9198342-10.991666 21.663775-7.112099 32.6607224 1.060344.250891 2.320081.3855798 3.810902.3472859-.018487.0132048-.035653.0250891-.059422.0382939-.269378.245609-.493859 1.3746184.224482 3.0991637.505743 1.2082381 1.171264 1.8882847 1.626829 2.2487754.013205.0105638.02509.0158457.038294.0250891-.047537.0462167-.100356.0924335-.155816.1412912-.563845.4872567-1.204277.901887-1.894887 1.2399296 1.204276 1.7800057 2.602663 3.4649367 4.205725 5.0191397 5.946116 5.769172 13.785798 8.946244 22.069162 8.946244 8.649136 0 16.727825-3.417399 22.749208-9.623649 1.337645-1.37726 2.523435-2.8575165 3.573216-4.4156815-.640432-.3261583-1.237289-.719661-1.76548-1.1765466-.190149-.1624189-.33144-.3089921-.481975-.4370785-.066024-.3314402-.170342-.5004615-.170342-.5004615s.841145.2046743 1.815659-1.3468883c1.072228-1.7060586.242968-2.8060175.242968-2.8060175s.24825-.1809055.612702-.4582061c1.266339.0092434 2.359695-.1082793 3.298556-.3155944 1.247852-3.5151146 1.873759-7.2573515 1.815658-11.0973038zm-51.402278-9.8824633c-1.201635 1.7060586-1.238609 3.4028739-1.238609 3.4028739 2.098241-5.5882662 8.933039-7.0592796 11.494768-8.0073834 5.989692-1.9926025 6.81103-4.5952662 6.81103-4.5952662-5.416604 5.2528646-13.475486 4.015576-17.067189 9.1997757zm15.423193-2.3927075c-1.563447.8120944-2.706982 1.3284016-3.635278 1.6941743.451603.0118843.904527.0831901 1.335004.2376862.452924.1861875.802851.4410399 1.216161.7038151.343324.2125971 1.008845.5413964.96791.8345426-.085831.2482501-.923014.0382939-1.341606-.0726263-.352568-.0871516-.554601-.2271223-.998282-.2773005-.27598-.033012-.672124-.0567806-.940181-.0409349-.612702.030371-.920374.0277301-1.538358.1861875-.825299.2112766-2.358375 1.1184456-2.515512.7619163-.133368-.4832952.124125-.9190532.438399-1.2280453-.472731.1531756-.978475.3314402-1.579292.5783697-2.046743.843786-2.696418 2.7149044-2.83903 4.7233527-.02773-.3195559-.059421-.6100612-.092433-.8490679-.05414-1.1408937-.369734-1.1237275-.369734-1.1237275s-1.8183.0237687-1.939784 2.7215068c-.033012 1.6598419.261455 2.1272914.504423 2.6950972.27466.6391118.586293 1.4406424.99168 1.6400347.69061.3287992.995641.1069588 1.107881-.0316915.002641.0132048.003962.0250891.006603.0382939-.001321-.0105638-.001321-.0198072-.001321-.0316915.209956.9718724.518949 2.5722927.637792 3.080677.522909 2.3134789.962629 3.3817462 1.773403 4.7814537.813415 1.4591291 1.843388 2.6224709 2.824504 3.6471624.571767.6021384 1.756237 1.5832541 2.51155 2.1880334 1.011487.810774 1.45913 1.1712647 2.596062 1.8896052 1.010166.6364707 2.862798 1.9239376 5.403399 1.8935665 2.387426-.02773 3.688097-.9639495 4.46718-1.4142327 1.673046-.9665905 2.541921-1.7258658 3.703943-2.8139403 1.333683-1.249173 2.012409-1.872439 2.820542-2.8205427 1.053742-1.2306863 2.024294-2.5419217 2.899772-5.6358035.33012-1.1659828.615343-2.4811797.825299-3.5481265.051499-.4700905.093754-.8847208.132048-1.2610573.195431.1294069.648355.3010692 1.247852-.3261582.746071-.6074203 1.379901-2.4059124 1.348209-3.8663619-.022448-1.2782235-.33276-2.6858539-1.084113-2.8614776-.562524-.1280864-.794928.1610984-1.055062.6998538-.05414-.4093484-.155817-.8266197-.318236-1.3693365-.390861-1.2240839-.71702-1.6466371-1.445924-3.0384217-1.81962-2.6343552-2.51023-3.7580827-3.375144-5.4324498-.612702-1.2042766-.80021-1.7866078-.989038-2.4719363 0 0-1.662483 4.0525494-5.091767 6.5957916-2.935424 2.1774695-5.18684 2.8799642-6.845362 2.5736132 3.155945-3.0093712 4.756365-6.0068581 5.340017-9.371438-1.298031 1.8209402-3.504551 3.8544776-7.104176 5.7216346zm41.985943 28.6623126c-.092433.1439322-.202033.2720186-.422553.4727314-2.397989 2.0982408-5.501115 2.7003791-8.278082 2.181431-1.233327 1.919976-2.667367 3.731673-4.294197 5.407361-6.53769 6.738403-15.309631 10.450269-24.702196 10.450269-8.995102 0-17.504267-3.450411-23.96537-9.713442-1.935822-1.879042-3.603586-3.932386-5.001974-6.111176-2.738673.4714109-5.775774-.1426118-8.130187-2.2025587-.213918-.1993923-.323518-.3261582-.418592-.466129-.252212-.3142739-.151855-.7064561.121484-.5387553.60742.3829388 1.90281.6140226 2.269903.3842593.205995-.1280864-.538755-.2350452-1.204277-.5810107-3.582459-1.803774-2.935424-7.4897557-1.8764-6.3013248.765878.9599881 1.772082 1.9714749 3.688097 1.9107329-1.740391-2.024294-1.908092-4.8699258-1.308594-4.3641825.537435.5585626 1.251814 1.6994563 2.650201 2.6950973-3.107087-11.3666815-.310313-24.0432779 8.469551-33.0938395 2.359695-2.4310014 5.008576-4.4658593 7.872694-6.0768434 2.577575-3.5613313 6.138906-6.0966506 11.3614-7.4197703 2.392707-.6074203 4.902937-.5651649 6.34358-.4265147 1.221443.2059947 3.714507.3697341 5.087805 1.7298273.225801.2284428.438398.5744082.58101 1.0880745 1.254455-.5479987 2.026935-.5717673 3.554729-.3578498 3.262903.7394681 5.081202 2.64756 6.524486 5.2792742 2.64756 1.464411 5.116855 3.2879922 7.344503 5.4456546 6.595791 6.3990402 10.307657 14.9861138 10.447628 24.1792871.050178 3.3474137-.375016 6.6288035-1.245211 9.7675816 1.519871-1.023371 2.272544-2.2382115 2.833747-2.8205427.599497-.5031024.427835 2.3398884-1.305954 4.3655029 1.916015.0620625 2.92222-.9520652 3.686777-1.9120533 1.059024-1.1871104 1.706059 4.4962303-1.873759 6.3026453-.66156.3459654-1.410271.4529242-1.205597.5810106.365772.2297634 1.657201 0 2.269903-.3842593.265416-.1677008.369734.217879.125445.529512zm-43.727655-14.5028185c0-.2165586-.16506-.4133099-.394823-.4159509-.277301-.0026409-.381618.1993923-.393503.4278352.002641.2165585.10828.4291556.38558.4291556.227122.030371.402746-.1993923.402746-.4410399zm12.947295-1.467052c-.042256.2284428.050178.4331171.245609.4714109.227122.0422554.419912-.1109202.459526-.3354016.043576-.2046742-.089792-.4185917-.318235-.4608471-.186188-.0343324-.348606.1333684-.3869.3248378zm-11.391771-3.9350268c-.650996-.6193045-.066024-1.8843232-1.416874-2.5590879-1.447244-.7249428-3.693379-.4740519-4.591304.6549575-.349927.4370785-.728905.9216942-1.011487 1.6611623-.13865.4925386-.266737 1.0022434.169021 1.2584163.355209.190149 1.123728.5612035 1.728507.3855798.073947-.2324042-.128087-.3472859-.256173-.3499269-.380298-.0132047-.649676-.3552088-.641753-.5136662.043576-.5189482.57969-1.3600932 1.21352-1.6954948.57705-.4093484 1.023371-.187508 1.193713.1320479-.011884.24825-.104318.4397194-.316915.4846157-.33276.0739468-.570447-.2125971-.818697-.1056383-.464808.4885772-.281262 1.0748697-.11224 1.2755825.161098.2020333.36049.281262.426514.2125971.315595-.3961436 1.062986-.3842593 1.815659-.3235173.316915-.2271223.336722-.7738006.427835-1.2399296.534794-.6100612.804171.6153431 1.160701 1.1052408.232404.3142739.489897.6972128.804171.7289043.545358.0554601 1.257096-.3829389.985077-1.1844695-.157137-.2046742-.584972.2099561-.759275.0726263zm-5.528845 5.6939046c-.232404-.0079229-.44368.2258018-.44368.4476423-.002641.1914694.213917.3855798.434437.369734.235045-.0026409.491218-.1743032.492539-.3670931 0-.2284428-.24825-.4648085-.483296-.4502832zm-1.995243-1.2280453c-.258814 0-.396144.1597779-.396144.3684136-.006602.2720186.129407.4476423.381619.4476423.212597.0079229.503102-.1677008.491218-.438399.005282-.217879-.273339-.3736955-.476693-.3776569zm3.717148-1.1382527c-.256173-.002641-.52423.2165585-.52423.3935027-.002641.3235173.187508.4555651.521589.4608471.172983.0013204.330119-.1333684.419912-.4489628.006602-.1914695-.254852-.4014256-.417271-.405387zm13.952179-8.5461388c.319556-.1228045.582331-.2561728.981115-.342004.272019-.0567806.665522-.0950744.934899-.0977154.616664-.002641 1.015449.0052819 1.548922.093754.838504.1373298 2.420438.967911 2.551165.6021383.143932-.6800466-.448963-1.2293657-.904528-1.4736543-1.121086-.6047793-2.835068-.9164123-4.364182-.2984282-.508385.245609-.685329.4516037-1.167304.7790825-.335401.2244814-.949424.5915745-.91113.8926436.056781.2456091.928297.002641 1.331043-.1558165zm-1.451207 6.3118887c.917733.1201635 1.057704-.7289043 1.40631-1.2148405.297108-.405387.907169-1.0299735 1.233328-1.2121996.295787-.1756236.740788-.308992 1.118445-.0118843.22052.190149 0 .6021384-.162419.686649-.418592.033012-.817376-.1201636-1.015448-.0765878-.202033.0422554-.49782.5823312-.542717 1.2544549.443681.1809056.545358-.154496.983757-.1624189.695892-.0092434 1.387823.4489628 1.746993.093754.359171-.3538883.353889-1.0075253.348607-1.2874668.596856.0250891.864913.8701955.615343 1.3033125-.198072.2310838-.682688.1848671-.678726.6127022 2.037499.4080279 2.227648-.4410399 2.384784-.901887.110921-.3684136.068665-.6721237-.104317-1.1805081-.594216-1.5106277-2.409874-2.3729003-4.032743-1.8407474-.595535.1914694-1.513268 1.026012-1.835465 1.5132687-.398785.6008178-.650996 1.68229-1.163342 1.7007767-.200713-.0739468-.007923-.5189482-.307671-.4859362-.388221.0871516-.625907.4238737-.520269.8239788.073947.2020332.24957.3525678.52555.3855798zm6.891579 4.6084709c-.050178.2376862.114882.4621676.382939.5097049.225802.0422553.470091-.1175227.512346-.3499269.05414-.2469296-.121484-.4476423-.365773-.4793338-.258814-.0528192-.476693.058101-.529512.3195558zm-.159778-2.3795027c-.316915-.0607421-.499141.0567805-.549319.2905053-.048858.2522114.071306.5110253.394823.5704468.252212.0448963.406708-.1558165.459527-.4080279.046217-.2376862-.058101-.408028-.305031-.4529242zm-1.677008 2.3517727c-.043576.217879-.257493.3935027-.472731.3499269-.314274-.0567806-.463488-.2971078-.422553-.5136663.051498-.2706981.27598-.3908617.570446-.3433245.229764.0501782.373696.2733391.324838.5070639zm70.541298 77.4487223h.19279c.223161 0 .406707-.075268.406707-.256173 0-.161099-.118843-.268057-.373695-.268057-.10828 0-.186188.010563-.225802.021127zm-.011885.986397h-.406707v-1.757557c.159778-.021128.38558-.05414.674765-.05414.33144 0 .480654.05414.599497.139971.106959.075268.183547.204674.183547.375016 0 .215238-.161099.352568-.365773.418592v.021128c.171662.054139.258814.191469.311633.427835.05414.268057.095074.364452.129407.429155h-.431797c-.051498-.064703-.08319-.215238-.13733-.429155-.033011-.180906-.13997-.266737-.363131-.266737h-.194111zm.268058-2.316119c-.760596 0-1.34953.633829-1.34953 1.404989 0 .780403.588934 1.402348 1.370657 1.402348.761917.011885 1.338966-.621945 1.338966-1.391784 0-.781724-.577049-1.415553-1.348209-1.415553zm.021127-.351248c.998282 0 1.789249.769839 1.789249 1.756237 0 .987718-.790967 1.768121-1.798492 1.768121-1.010166 0-1.810376-.780403-1.810376-1.768121 0-.986398.80021-1.756237 1.810376-1.756237zm-57.91884-16.697454c-.859632 1.790569-1.836786 3.383067-2.912977 4.736557-1.065626 1.35085-2.170867 2.42704-3.280069 3.207443-.96527.682688-1.772082 1.209559-2.434963 1.090716-.426514-.105639-.369734-.859632-.316915-1.345568.150535-1.386503.592895-2.792813 1.320479-4.172713.736827-1.412912 1.647958-2.732071 2.706982-3.919181 1.073549-1.180508 2.243493-2.166906 3.479461-2.932784.966591-.600817 1.92922-1.019409 2.865439-1.246531-.265416 1.60174-.74607 3.141419-1.427437 4.582061zm11.564753-31.415511c-2.770365-.438399-4.772211 1.671726-5.651649 3.75016-.307672.728904-.398785 1.10392-.698534 2.045421-.299748.924336-.41595 1.624189-.645714 2.578895-.161098.686649-.410669 1.754917-.513666 2.225007-.191469.864914-.212597.999603-.458206 2.309518-.240327 1.29671-.398785 2.164264-.571768 3.314401-.132047.872837-.265416 1.596459-.398784 2.471937-1.988641.47009-4.02614 1.265018-6.051754 2.363657-2.189354 1.18579-4.225533 2.741314-6.057037 4.621676-1.839427 1.880361-3.430604 4.101407-4.723352 6.59183-1.311236 2.522114-2.140496 5.342657-2.470616 8.379758-.039614.372375-.064704.77116-.080549 1.188431-.256173-.223161-.509705-.466129-.713059-.769839-.388221-.581011-.666842-1.246532-.85567-2.058627-.184867-.794928-.299749-1.795851-.290505-2.580215.007922-.860952.039614-1.416874.102997-1.986.069985-.652317.155816-1.262378.268057-1.822261.066024-.363132.11092-.699854.155817-1.026012.031691-.217879.05678-.431797.092433-.640432.397464-2.429681.571767-4.059152.33144-5.717673-.158457-1.098639-1.047139-3.210084-3.270826-3.28139-.171662-.005282-.355208 0-.546678.019807-1.494782.141291-3.248378.962629-4.321927 1.706059-1.426117.993-2.762442 2.232929-3.973321 3.681494-.516307.612703-.924335 1.165983-1.261057 1.688893.212597-.654958.4965-1.307274.77248-1.945065.170342-.390862.338043-.780403.492539-1.172586.015846-.046216.035653-.093754.05546-.141291.364452-.920374.742109-1.871118.82794-2.638316.069985-.68797-.034332-1.250494-.323517-1.665124-.236366-.342004-.532153-.599498-.890003-.773801-.344645-.154496-.695892-.231084-1.040537-.231084-.244289-.007922-.458206-.002641-.603459.007923-.856991.076588-1.62683.340684-2.279146.77248-.570447.372375-1.056383.77116-1.504026 1.234648-.443681.513666-.830581 1.041858-1.135611 1.564767-.472732.760596-.915092 1.799813-1.348209 3.177072-.400105 1.279544-.785685 2.708302-1.148817 4.237417-.352568 1.482898-.676085 3.012012-.96527 4.549049-.282582 1.51591-.488577 2.849594-.610061 3.960116-.146573 1.361414-.252212 2.681893-.312954 3.931066-.071305 1.295389-.046216 2.477218.068665 3.501909.124125 1.092036.386901 1.980718.787006 2.64624.501782.82662 1.323119 1.208238 2.388746 1.101279.017166-.00132.033012-.003961.048858-.005282.202033-.026409.890002-.125445 1.534396-.349927.596856-.205994 1.502705-.854349 2.271223-2.055985.44104-.68797.891324-2.502307 1.43404-4.803902.128087-.526871.242968-1.012807.338043-1.398387 2.12333-8.283364 5.202686-10.022434 6.726519-10.340669-.104318.936219-.212597 1.871118-.316915 2.802056-.072626 1.221442-.161098 2.304235-.187508 3.58774.035653 2.431002.27466 3.820146.569126 5.024422.336722 1.375939.958668 3.041063 1.715302 3.907297.891324 1.022051 1.749635 1.690213 3.298556 1.5991.006603 0 .014526 0 .022449-.002641.005281 0 .011884 0 .017166-.001321.672123-.091113 1.014127-.150534 1.73775-.452924.735506-.352568 1.080151-.608741 1.719263-1.226725.456886-.44236.734186-.868875.923015-1.292748.282582.513666.637791.971872 1.072229 1.362734.682687.610061 1.662482.896605 2.906373.85699.027731-.00132.055461-.002641.085832-.006602.13865-.006602.438399-.038294 1.399707-.167701.878119-.118843 1.949027-.464808 3.183674-1.023371 1.205598-.547999 2.581537-1.401028 4.094805-2.53664 1.059024-.798889 2.152381-1.838106 3.257621-3.096522-.108279 1.76548-.196751 3.443808.574409 5.752005.316915.952065.728904 1.729827 1.370657 2.607946.715699.96527 1.809056 1.457808 3.25498 1.469693h.013205c.058101-.003962.11092-.006603.16638-.013205.687969-.113561 1.258416-.291826 1.740391-.544037.491218-.261455.956027-.639112 1.3799-1.122407.509705-.584972.813415-1.337645.913772-2.246135.02773-.270698.013204-.584972-.047538-.958667-.062062-.364452-.244288-.643073-.438399-.93754-.076587-.116202-.159777-.240327-.240327-.378978-.480654-.838504-.784364-1.530435-.923014-2.119368-.363132-1.533076-.455566-2.820543-.386901-5.300402.031692-1.18579.122805-2.485141.22052-3.719789.093754-1.212199.229764-2.452129.373696-3.766005.091113-.850389.184867-1.706059.278621-2.559088.031691-.306351.060742-.569126.092433-.80021.05546.00132.113562.00132.174304.00132.637791.009244 1.303312-.209956 1.967513-.665521.783044-.545358 1.257096-1.534396 1.410271-2.942027.129407-1.202956-.1677-2.181431-.8834-2.907694-.439719-.433117-.932258-.806813-1.459129-1.111843.079229-.454245.153175-.883401.208636-1.276903.080549-.504423.162418-.944143.246929-1.308595.05414-.253532.104318-.507064.157137-.764557.040935-.217879.079229-.435758.126766-.644394.009243-.046216.88208-4.108009 2.623791-10.158443.282583-.983757.41199-1.73643.479334-2.37158.100357-.928296-.126766-2.487782-1.873759-2.763762zm24.976856 21.323092c.139971.563844.167701 1.257095.085831 2.116727-.077908.801531-.231084 1.695495-.458206 2.667367-.009243.038294-1.251814 4.914822-1.743032 7.248108-.390862 1.859234-.632509 3.30912-.913771 4.99141-.006603.034333-.011884.073947-.018487.106959-.269378 1.645316-.687969 5.289838-.933578 7.863451-.478014 4.974244-.591575 6.157393-1.955629 9.989422-1.395747 3.91654-4.586023 6.512602-6.076844 7.347144-2.696418 1.507987-5.734839 2.291031-9.036036 2.357055-.011885 0-.019807 0-.02773.00132-.007923-.00132-.015846-.002641-.025089-.003961-.154496-.018487-.334082-.030371-.52423-.043576-.353889-.023769-.761917-.051499-1.154099-.121484-3.467577-.623266-5.468103-2.823184-5.094407-5.674097.195431-1.4895 1.360093-2.39931 2.857516-2.173509 1.403669.235046 2.70302.348607 3.875605.335402 3.598305-.039614 6.0676-1.232007 7.545216-3.709225 1.539678-2.578895 1.727186-4.27571 1.987321-6.623521.034332-.30239.067344-.619305.104317-.946784.146574-1.209558.257494-2.333286.372375-3.509832-.583651.769839-1.150137 1.419514-1.699456 1.943744-1.110522 1.056383-2.131252 1.865837-3.039742 2.405913-1.086754.63515-2.148419 1.008846-3.155944 1.109202-.010564 0-.022448.002641-.031692.00132-.014525-.00132-.026409-.00132-.036973-.00132-1.65456-.036973-2.930143-.673444-3.799018-1.898849-.763236-1.059024-1.350849-2.396669-1.73907-3.974641-.377657-1.538357-.577049-3.183674-.590254-4.901617-.017166-1.669085.043576-3.232532.179585-4.648085.423874-4.401156 1.331043-7.910989 2.695097-10.414617 1.513269-2.78621 3.438527-4.199122 5.718994-4.147623.118843 0 .293146.021127.616663.05678.41199.056781.76984.194111 1.085434.408028.347286.223161.629868.554601.859632 1.010166.239006.476693.316915 1.065627.24825 1.795852-.069986.739468-.347286 1.555524-.849068 2.48382-.454245.862273-.88208 1.835466-1.26766 2.891849-.327479.905848-.66288 1.996564-.993 3.231211-.332761 1.206918-.566485 2.506269-.691931 3.863721-.026409.216559-.060742.68797-.102997 1.451206-.040935.612703-.035653 1.247853.018487 1.954309.046216.604779.163739 1.121087.344645 1.537037.097715.244289.41595.409349.514986.430476.134689.030371.279942.060742.462168.060742.319556-.00132.648355-.105638.973193-.310312.250891-.158457.858311-.677406 1.570049-1.638714.501782-.676085 1.46045-2.091639 2.251416-3.968039.369734-.876798.845107-2.310838 1.345568-3.828068.563845-1.711341 1.555524-5.064036 2.125971-6.472987.365773-.896605.77116-1.686251 1.235968-2.411194.419912-.652317 1.107882-1.327081 1.643996-1.678329.804172-.532153 1.691534-.808133 2.685854-.756634.228443.011884.46745.066024.783044.147893.425194.110921.792287.336723 1.098638.672124.295788.316915.518949.767198.672124 1.37726zm1.741712-.722302c-.097716-.401426-.167701-.899246.025089-1.568729.087151-.297108.367093-.993.529512-1.646637.19411-.859632.273339-1.723225.062062-2.524756-.183546-.705135-.227122-1.733788-.033012-2.320081.301069-.891323 1.126369-1.368016 1.713982-1.465731.888682-.151855 1.772082-.092434 2.520794.2773.818697.400105 1.514589 1.37726 1.690213 2.082395.373695 1.48818.205994 2.679252.031691 3.632637-.204674 1.134292-.677405 2.169547-1.18579 3.018615-.35917.603459-.963949 1.127689-1.482898 1.500064-.633829.454244-1.678328.627227-2.776966.227122-.503103-.182226-1.000923-.846427-1.094677-1.212199zm18.271465 21.056354c-.264096 1.905451-1.040538 3.488705-2.301595 4.71543-1.175226 1.140894-2.547203 2.050704-4.067074 2.7017-1.500064.63515-3.041063 1.053742-4.583382 1.247852-1.395746.170342-2.615869.208636-3.618112.108279-.093754-.006602-.184867-.019807-.272019-.030371-2.42836-.311633-4.0816-1.081472-5.045549-2.383464-.961309-1.29671-1.34953-2.639637-1.160701-3.99973.224481-1.610984 1.068267-2.394028 1.736429-2.762442.812095-.454244 1.51459-.648355 2.14974-.594215.022448.002641.048858.003961.073947.010564.63515.073947 1.368016.398784 2.236891.991679.586292.405387 1.368016.674765 2.322722.80021 1.294069.166381 2.273864.097716 2.902412-.216558.456886-.216559.720982-.456886.751353-.680047.015846-.099036.042255-.301069-.307672-.633829-.425194-.405387-1.004884-.800211-1.727186-1.165983-.764557-.38558-1.601741-.784365-2.567011-1.222764-.993-.441039-1.912053-.963949-2.734711-1.550242-.891324-.627227-1.610985-1.368016-2.147099-2.197276-.608741-.957348-.825299-2.087677-.647035-3.36326.202034-1.460449.847748-2.967116 1.906772-4.472462 1.011487-1.430078 2.265941-2.729429 3.734314-3.850516 1.46309-1.111843 3.08992-1.993923 4.839555-2.617189 1.813017-.639111 3.611509-.841145 5.341336-.582331 1.666445.24693 2.953911 1.006205 3.817505 2.246135.858311 1.251814 1.144855 2.977679.847747 5.126098-.146573 1.036576-.521589 1.982039-1.117125 2.819223-.505744.699853-1.467052 1.498743-3.235173 1.218801-1.201636-.180905-1.683611-.830581-1.876401-1.346888-.169021-.423874-.30503-.886041-.405387-1.364055-.068664-.315594-.087151-.726263-.293146-.94018-.122804-.10828-.367093-.19147-.665521-.169022 0 0-.273339-.014525-.870196.155817-.522909.161098-1.04846.392182-1.550242.682687-.522909.301069-.998282.680047-1.408951 1.118446-.327478.351247-.521589.71834-.586292 1.095997-.030371.176944-.047537.488577.339363.860952.475372.452925 1.092036.90849 1.834145 1.354812.747391.455565 1.603061.913771 2.623791 1.399707 1.070909.507064 2.038819 1.090716 2.86808 1.729827.888682.674765 1.618907 1.459129 2.173508 2.322723.635151.993.868875 2.148419.68797 3.435885zm-104.617573-7.977012c-.82662 1.282185-1.651919 2.277826-2.531358 3.043704-.978475.858311-1.7087 1.321799-2.644919 1.835465-.408028.224482-.742109.351248-1.026012.429156.13997-.767198.396143-1.79321.753993-2.64624.529512-1.267659 1.208238-2.516832 2.015051-3.713186.956026-1.408951 1.729827-2.333286 2.518153-2.997487.547998-.460847 1.027332-.738148 1.387823-.79889.804172-.137329.843786.900567.842465 1.107882-.009243 1.253134-.713058 2.795454-1.315196 3.739596zm5.320209-10.504409c-.647035-.443681-1.375939-.701174-2.161624-.761916-.673444-.044896-1.494782-.010564-2.102202.088472-.014526.001321-.029051.003962-.043576.006602-1.307274.22052-2.672649.681368-3.641881 1.217482-.99432.540076-1.962231 1.234648-2.877323 2.070511-.77248.705135-1.666444 1.564767-2.42836 2.578895-.49518.660239-1.440643 1.991282-2.206521 3.471538-1.035255 1.995244-1.937142 4.317966-2.751877 7.08569-.509705 0-1.624189-.225802-2.133894-.326159-.360491-.071305-.485936-.095074-.563845-.097715-.081869-.002641-.147893-.003961-.215238-.005282 2.361017-9.820401 4.006333-15.382257 5.21193-19.236735.653637-1.880362 1.307274-3.760724 1.959591-5.642406.513666-1.062985.821338-2.520794.77248-3.195559-.133369-1.968833-1.492141-3.958795-3.908617-3.424001-2.565691.566485-4.073677 3.832029-6.115138 11.027318-1.719263 6.059678-2.695097 9.916796-4.090843 16.462409-.604779 2.982962-1.206918 5.964603-1.805094 8.948885-.091114.447643-.180906.896605-.266737 1.342927-.204674.928297-.312954 1.195033-.641753 1.26898-.163739.036974-.371054-.076588-.463488-.455565-.213917-.834543-.392182-2.560408-.520269-4.774851-.161098-5.097048-.586292-10.381604-.402746-17.067189.106959-3.820145.101677-4.434167-.147893-5.413963-.483295-1.890925-2.828466-3.017294-5.386233-2.368939-2.5551267.647035-3.3051586 3.520397-4.7814539 7.432976-.995641 2.652841-2.5049483 7.366951-4.0050122 11.939769-1.4049894 4.736557-3.0595493 10.538741-3.0595493 10.538741-.1056384.402746-.2046743.801531-.3089921 1.202956-.1016769.400105-.2020332.801531-.3050306 1.202956-.3644521.981116-.4938591 1.175226-.7381476 1.245212-.2469296.068665-.3855798-.134689-.4608471-.433117-.1531756-.594216-.129407-4.395874-.0831902-6.39904.096395-4.084241.4925386-8.52105.874157-12.489089.217879-2.862798.9533857-7.868733 1.1752261-10.732851.0765878-.863594.1518551-1.772083.1729827-2.384785.0475372-1.824902-.0765878-2.704341-.8728365-3.607548-1.2465319-1.095998-2.766403-1.014128-4.5199989-.615343-2.8245041.643073-4.9372702 2.390066-4.6850587 3.350054.0369734.145253.184867.285224.3301197.49518.4278351.620625.6496755.970552.8239787 1.597779.2007128.738148.3010692 1.758878.2944668 3.406836-.0620625 1.477615-.124125 2.957872-.184867 4.436808-.3552088 4.461898-.8952846 12.502293-1.0392168 18.000767-.126766 4.749762.0343324 8.045677.4080279 12.743941.1914694 2.359696.6892899 4.286274.9586676 5.32285.4780133 1.856593 1.4195147 3.919181 3.052947 4.33117 1.2121995.307672 2.145778.233725 3.7382754-.183546 1.467052-.381619 3.6841359-1.782647 4.1740335-3.987846.623266-2.457411 1.2504934-4.914822 1.8750799-7.374874.5585625-2.623791 1.8182993-7.270556 2.8944895-11.30594.6153431-2.39931 1.4234761-5.086484 1.8552727-6.479589.2588138-.705136.3855798-.895285.5493192-.93754.1663803-.042255.2680572.010564.3037101.16506.0211277.075267.0448963.186187.0488577.447642.0079229.16506.0132048.33012.0184867.4965.0118843.503103.0237686 1.006205.0369734 1.513269.1188431 4.933309 1.0669473 13.426628 1.9529883 16.899488.57969 2.271223.74475 5.078561 4.24666 5.593548 1.617586.242968 2.961834-.215238 2.961834-.215238 2.582856-.784365 3.252339-2.273865 3.830709-4.810505.377656-1.609663 1.54496-6.037229 2.184071-8.888142.195431-.863593.38426-1.696816.569127-2.512871.474052.153175 2.625112.487256 3.521717.563844.013205.272019.025089.415951.052819.587613.023769.16638.047537.311633.064703.454245.033012.219199.059422.419912.105639.639111.063383.286544.124125.573088.186187.856991.375016 1.492141.956027 2.763762 1.723225 3.780531.74475.993 1.51591 1.665124 2.584177 2.251416 1.011487.55196 2.745275.794929 4.389271.624587.233725-.007923.446322-.02641.672124-.067345.042256-.005282.087152-.014525.128087-.023768.11224-.022448.22184-.044897.335401-.066024.002641-.003962.005282-.009244.005282-.014525.241648-.05414.540076-.128087.77116-.19279 2.580215-.74475 5.90254-3.037102 7.100214-6.39772.46745-1.32312.205995-2.15106-.093754-2.613228-.330119-.501782-.872836-.809453-1.420835-.798889-.187508.005282-.368414.021127-.546678.051498-1.122407.179585-1.974116.817377-2.724148 1.37858-.676085.508385-1.313876.987718-2.111445 1.142214-.907169.172983-1.525153.151855-2.052025-.108279-.583651-.287864-.781723-.501782-1.019409-1.098638-.142612-.355209-.2192-.760596-.285224-1.288788 1.465732-.377656 3.159906-1.122406 4.525281-2.009768 1.558165-1.012807 2.981641-2.250096 4.224212-3.677534 1.235968-1.428758 2.272544-3.00673 3.076715-4.703545.768519-1.622869 1.331043-3.772608 1.461771-5.615996.102997-1.412913-.046217-2.581536-.443681-3.47418-.406708-.8834-.941502-1.552883-1.585895-1.98468z" fill="#dadada" fill-rule="evenodd" transform="translate(-79 -42)"/></svg>